/* XPM */
static char *collect[] = {
/* columns rows colors chars-per-pixel */
"66 64 203 2 ",
"   c #191919",
".  c #231B19",
"X  c #2C1B19",
"o  c #321C17",
"O  c #3E1E16",
"+  c #2D2319",
"@  c #32241A",
"#  c #3B2719",
"$  c #351521",
"%  c #2A2A29",
"&  c #383736",
"*  c #392824",
"=  c #421E16",
"-  c #481F15",
";  c #501F16",
":  c #6D1C1B",
">  c #7E1C1D",
",  c #4B2C19",
"<  c #442B19",
"1  c #5A2114",
"2  c #512E19",
"3  c #5A2317",
"4  c #54361A",
"5  c #622214",
"6  c #692313",
"7  c #622C17",
"8  c #742314",
"9  c #782314",
"0  c #693B1A",
"q  c #743F1E",
"w  c #56092E",
"e  c #5C0B2D",
"r  c #461426",
"t  c #531628",
"y  c #5F0A30",
"u  c #630C2D",
"i  c #6C0D2E",
"p  c #740F2E",
"a  c #790F2F",
"s  c #6D1424",
"d  c #64122B",
"f  c #721622",
"g  c #761820",
"h  c #7C112E",
"j  c #781625",
"k  c #650B31",
"l  c #6C0C31",
"z  c #740E33",
"x  c #7A0E34",
"c  c #7D1032",
"v  c #7C1539",
"b  c #56332F",
"n  c #672826",
"m  c #6B3D33",
"M  c #6D312A",
"N  c #6C421B",
"B  c #71431B",
"V  c #43413E",
"C  c #754337",
"Z  c #494743",
"A  c #5A544B",
"S  c #585755",
"D  c #625E57",
"F  c #72685B",
"G  c #72726E",
"H  c #6E6D6A",
"J  c #841E1A",
"K  c #9D2A0F",
"L  c #892119",
"P  c #892711",
"I  c #942613",
"U  c #982711",
"Y  c #9A2811",
"T  c #932910",
"R  c #983317",
"E  c #893F19",
"W  c #A22E10",
"Q  c #A53311",
"!  c #A93913",
"~  c #A83712",
"^  c #83122E",
"/  c #8B132E",
"(  c #8E1C2D",
")  c #94152E",
"_  c #99162E",
"`  c #9A182A",
"'  c #831132",
"]  c #8B1330",
"[  c #8E1934",
"{  c #911430",
"}  c #A1182B",
"|  c #AD1C28",
" . c #B21E26",
".. c #912A2E",
"X. c #8A3626",
"o. c #942D30",
"O. c #A32924",
"+. c #BB2124",
"@. c #B0242C",
"#. c #BF332F",
"$. c #A32635",
"%. c #B02E33",
"&. c #BB3734",
"*. c #AC353D",
"=. c #C02625",
"-. c #C23A34",
";. c #C1302C",
":. c #84481A",
">. c #98491A",
",. c #8E521C",
"<. c #91541C",
"1. c #9A561C",
"2. c #A14B1A",
"3. c #A94C19",
"4. c #AF4115",
"5. c #B34516",
"6. c #B64A17",
"7. c #B94D17",
"8. c #B94D18",
"9. c #BD5319",
"0. c #B85A1C",
"q. c #A35C1C",
"w. c #B8671D",
"e. c #844439",
"r. c #BF5E22",
"t. c #B95525",
"y. c #B64F34",
"u. c #B9623D",
"i. c #BC6133",
"p. c #C25D1A",
"a. c #C6631B",
"s. c #C8661B",
"d. c #CB6B1C",
"f. c #C46D1D",
"g. c #CF721D",
"h. c #C2443A",
"j. c #CE7626",
"k. c #C26C36",
"l. c #C77131",
"z. c #A83C46",
"x. c #8C2D4C",
"c. c #8D4E4D",
"v. c #B34643",
"b. c #B34E4A",
"n. c #BC6B45",
"m. c #83796B",
"M. c #807F7A",
"N. c #B16F77",
"B. c #B15460",
"V. c #C35746",
"C. c #C75B56",
"Z. c #C3624E",
"A. c #C46751",
"S. c #C2774D",
"D. c #C27468",
"F. c #CF833E",
"G. c #82807C",
"H. c #A38262",
"J. c #CF8A4A",
"K. c #CD976B",
"L. c #D19963",
"P. c #C99977",
"I. c #C7886F",
"U. c #9C7D83",
"Y. c #B27B8A",
"T. c #8D8C87",
"R. c #999387",
"E. c #979691",
"W. c #AD968A",
"Q. c #AAA59D",
"!. c #ABAAA3",
"~. c #BBB8AF",
"^. c #C99885",
"/. c #CAA184",
"(. c #CEAC8D",
"). c #CBAB99",
"_. c #D5B89B",
"`. c #D1A99F",
"'. c #C3B8A6",
"]. c #D3BCA2",
"[. c #D0AFAE",
"{. c #D6C2AA",
"}. c #D6C2AA",
"|. c #C7C3BA",
" X c #DACAB5",
".X c #DDCEBA",
"XX c #D6C6B0",
"oX c #DED1BD",
"OX c #CFC1AD",
"+X c #DAD2C5",
"@X c #D2CAC5",
"#X c #E1D6C4",
"$X c #E5DDCC",
"%X c #E3D9C5",
"&X c #E5DED1",
"*X c #E0CDC5",
"=X c #E7E1D2",
"-X c #E9E4D6",
";X c #E3E1D9",
":X c #EAE6DA",
">X c #ECE8DE",
",X c #EDEBE2",
"<X c None",
/* pixels */
"<X<X<X<X<X<X<X<X<X<X<X<X<X<X<X<X<X<X<X<X<X<X<X<X<X<X<X<X<X<X<X<X<X<X<X<X<X<X<X<X<X<X<X<X<X<X<X<X<X<X<X    <X<X<X<X<X<X<X<X<X<X<X<X<X",
"<X<X<X<X<X<X<X<X<X<X<X<X<X<X<X<X<X<X<X<X<X<X<X<X<X<X<X<X<X<X<X<X<X<X<X<X<X<X<X<X<X<X<X<X<X<X<X<X<X<X<X  <X<X<X<X<X<X<X<X<X<X<X<X<X<X",
"<X<X<X<X<X<X<X<X<X<X<X<X<X<X<X<X<X<X<X<X<X<X<X<X<X<X<X<X<X<X<X<X<X<X<X<X<X<X<X<X<X<X<X<X<X<X<X        <X<X<X<X<X<X<X<X<X<X<X<X<X<X<X",
"<X<X<X<X<X<X<X<X<X<X<X<X<X<X<X<X<X<X<X<X<X<X<X<X<X<X<X<X<X<X<X<X<X<X<X<X<X<X<X<X<X<X<X<X<X<X<X      <X<X<X<X<X<X<X<X<X<X<X<X<X<X<X<X",
"<X<X<X<X<X<X<X<X<X<X<X<X<X<X<X<X<X<X<X<X<X<X<X<X<X<X<X<X<X<X<X<X            <X<X<X<X<X<X<X    <X<X<X<X<X<X<X<X<X<X<X<X<X<X<X<X<X<X<X",
"<X<X<X<X<X<X<X<X<X<X<X<X<X<X<X<X<X<X<X<X<X<X<X<X<X<X<X<X<X<X<X& H G G G G D <X<X<X<X<X<X<X      <X<X<X<X<X<X<X<X<X<X<X<X<X<X<X<X<X<X",
"<X<X<X<X<X<X<X<X<X<X<X<X<X<X<X<X<X<X<X<X<X<X<X<X<X<X<X<X<X<X  Z !.;X;X;X;XE.%     <X<X            <X<X<X<X<X<X<X<X<X<X<X<X<X<X<X<X<X",
"<X<X<X<X<X<X<X<X<X<X<X<X<X<X<X<X<X<X<X<X<X<X<X<X<X<X<X<X<X& H E.@X,X,X,X,X|.T.G.G.D . $ r r r w r X <X<X<X<X<X<X<X<X<X<X<X<X<X<X<X<X",
"<X<X<X<X<X<X<X<X<X<X<X<X<X<X<X<X<X<X<X<X<X<X<X<X<X<X<X<X  & !.,X,X,X,X,X,X,X,X,X,XT.  t x x x ' l X       <X<X<X<X<X<X<X<X<X<X<X<X<X",
"<X<X<X<X<X<X<X<X<X<X<X<X<X<X<X<X<X<X<X<X<X<X<X<X<X<X<X<X  & Q.>X$X$X:X,X,X,X,X,X,XH.w F N.z._ _ ( e n B N + <X<X<X<X<X<X<X<X<X<X<X<X",
"<X<X<X<X<X<X<X<X<X<X<X<X<X<X<X<X<X<X<X<X<X<X<X<X<X<X<X<X% V !.=XXXOX;X:X,X,X,X,X,XY.v N.`.C.+.+.| ] ..r.<.+   <X<X<X<X<X<X<X<X<X<X<X",
"<X<X<X<X<X<X<X<X<X<X<X<X<X<X<X<X<X<X<X<X<X<X<X<X<X<X<X% G Q.|.|.G.m.~.+X:X,X,X,X,XY.x z.C.-.+.| ` ' ..r.<.@   <X<X<X<X<X<X<X<X<X<X<X",
"<X<X<X<X<X<X<X<X<X<X<X<X<X<X<X<X<X<X<X<X<X<X<X<X<X<X<X% T.@X~.H.V A W. X=X:X>X>X,XW.x.$.&.-.;.| ) ' ..r.<.@   <X<X<X<X<X<X<X<X<X<X<X",
"<X<X<X<X<X<X<X<X<X<X<X<X<X<X<X<X<X<X<X<X<X<X<X<X<X<X<X<XS D A D m.P.OX.X XoX=X:X,X*X[.^.I.I.D.z.) ' ..r.<.@   <X<X<X<X<X<X<X<X<X<X<X",
"<X<X<X<X<X<X<X<X<X<X<X<X<X<X<X<X<X<X<X<X<X<X<X<X<X<X<X<X<X    & R. X%X%XXX.X$X:X,X,X,X*X[.XX`.B._ [ o.a.>., * <X<X<X<X<X<X<X<X<X<X<X",
"<X<X<X<X<X<X<X<X<X<X<X<X<X<X<X<X<X<X<X<X<X<X<X<X<X<X<X<X<X<X  V !.=X:X:X=X=X:X,X,X,X,X;X&X&X[.B.$.3.t.9.3.>.0 . <X<X<X<X<X<X<X<X<X<X",
"<X<X<X<X<X<X<X<X<X<X<X<X<X<X<X<X<X<X<X<X<X<X<X<X<X<X<X<X<X<XZ G |.,X,X,X,X,X,X,X,X,X,X>X>X>X*XD.y.h.p.7.6.p.:., < <X<X<X<X<X<X<X<X<X",
"<X<X<X<X<X<X<X<X<X<X<X<X<X<X<X<X<X<X<X<X<X<X<X<X<X<X<X<X<X& T.@X;X,X,X,X,X,X,X,X,X,X,X:X&X-X#X_.H.k.7.7.9.9.6.2.0           <X<X<X<X",
"<X<X<X<X<X<X<X<X<X<X<X<X<X<X<X<X<X<X<X<X<X<X<X<X<X<X<X<XS G |.,X,X,X,X,X,X,X,X>X:X:X:X$XoXoX.X X_.S.k.p.9.p.9.8.E , 2 , 2 , # <X<X<X",
"<X<X<X<X<X<X<X<X<X<X<X<X<X<X<X<X<X<X<X<X<X<X<X<X<X<X<X+ T.+X;X,X,X,X,X,X,X,X,X:X=X=X&X X].].}.$X#X).I.k.p.9.9.5.4.3.3.3.3.>.2   <X<X",
"<X<X<X<X<X<X<X<X<X<X<X<X<X<X<X<X<X<X<X<X<X<X<X<X<X<XV F ~.,X,X,X,X,X,X,X,X,X:X$XoX.X.X.X.X.X.X$X$X{.P.l.9.7.8.6.6.p.p.a.a.0.:.2 O <X",
"<X<X<X<X<X<X<X<X<X<X<X<X<X<X<X<X<X<X<X<X<X<X<X      G _..X,X,X,X,X,X,X,X,X:X=X.X_.]._.oX>X:X-X=X%X].P.k.7.5.6.9.p.p.s.g.j.d.0.>.<   ",
"<X<X<X<X<X<X<X<X<X<X<X<X<X<X<X<X<X<X<X<X<X<X2 N N N N.].#X,X,X,X,X,X,X,X,X>X:X%X.XoXoX$X:X:X-X=X#X].P.i.7.7.7.9.9.p.s.g.g.d.a.2.,   ",
"<X<X<X<X<X<X<X<X<X<X<X<X<X<X<X<X<X<X<X      N f.g.f.L.].#X,X,X,X,X,X,X,X,X,X,X,X,X,X>X;X$X$X$X$X#X}.P.y.5.9.p.9.p.8.s.g.g.d.a.2.,   ",
"<X<X<X<X<X<X<X<X<X<X<X<X<X<X<X<X    < N q 0 >.a.d.g.F.L._.#X-X,X,X,X,X,X,X,X,X>X:X:X-X=X$X$X$X.X_.I.S.t.6.6.8.9.p.p.d.g.g.g.a.3.,   ",
"<X<X<X<X<X<X<X<X<X<X<X<X<X<X<X+ . . 4 w.s.p.p.9.a.g.g.j.L._.#X,X>X,X,X,X,X,X,X-X$X=X$X$X$X$X%X}.P.k.p.8.8.5.6.p.a.g.g.g.g.d.p.2.<   ",
"<X<X<X<X<X<X<X<X<X<X<X<X    # N :.:.1.f.s.p.p.9.s.g.s.s.F.L._..X.X+X:X,X,X,X,X:X=X$X$XoX X{._.P.S.p.8.p.p.6.6.6.p.d.g.g.s.w.6.R <   ",
"<X<X<X<X<X<X<X<X<X<X<X+ + + 4 1.g.g.g.g.s.p.p.p.s.g.a.p.d.j.L.(.(.].$X:X:X:X:X=X%X%X%X].(.(.P.k.8.5.5.6.p.9.8.5.p.d.g.d.p.7.! P =   ",
"<X<X<X<X<X<X<X<X<X<X+ N ,.,.1.0.f.g.g.g.d.d.d.s.d.g.d.d.d.j.F.J.J.K._. X X X XXXXXXX].K.n.n.k.h.6.5.5.5.6.5.6.8.9.a.a.p.6.~ W P =   ",
"<X<X<X<X<X<X<X<X<X@ < 1.g.g.g.a.a.g.g.g.g.d.d.g.g.g.d.d.d.d.s.d.d.l.K././././././././.A.! 5.5.! 5.! ! 5.5.5.7.9.9.7.7.7.! K T 9 #   ",
"<X<X<X<X<X<X<X<X  N 1.w.g.g.f.d.f.g.g.g.d.a.s.g.g.j.p.7.7.7.7.7.8.t.i.u.u.u.u.u.u.u.u.t.p.8.p.6.6.p.p.p.7.7.7.p.6.~ ~ ~ W T 5 # o <X",
"<X<X<X<X<X<X<X# < <.g.g.g.g.g.f.s.s.s.s.p.9.p.s.s.s.9.5.5.5.5.5.5.6.5.5.5.5.5.5.5.5.5.6.6.6.6.6.6.6.6.5.7.7.7.7.! K K K P 9 =   <X<X",
"<X<X<X<X<X<X  0 q.w.g.g.g.g.s.9.7.6.6.6.6.5.5.6.6.6.7.7.9.7.9.7.p.8.9.8.9.8.9.9.9.7.9.4.Q Q ~ ~ Q Q Q ~ W Q Q W W W Y Y 5 O X <X<X<X",
"<X<X<X<X<X<X  B g.d.s.s.a.a.p.8.5.5.6.5.5.6.5.5.5.6.6.6.6.6.6.6.5.6.6.6.6.6.6.6.6.6.5.R L L J J J P J J I Y W W K Y P 8 -   <X<X<X<X",
"<X<X<X<X<X<X  B g.d.p.8.6.6.6.9.9.7.9.9.7.9.9.9.9.9.4.W W Q W W W Q Q W Q Q W Q Q Q Q > u d d d d u s u : U K K K K 6 o X <X<X<X<X<X",
"<X<X<X<X<X<X  B g.d.p.9.6.6.6.6.5.6.5.5.6.6.6.5.5.5.R J J L J J J J J J J J J J J J J g i i i i i i p s a J I Y K K 1   <X<X<X<X<X<X",
"<X<X<X<X<X<X  B g.g.d.p.9.9.8.! W W W W Q Y Q W W W > e e e e e e e e e e e e e e e u h ) ) ) ) ) ) ) ) ^ u j Y K K 1   <X<X<X<X<X<X",
"<X<X<X<X<X<X  0 p.p.p.8.4.5.! L > > J 9 J 9 > J > J j i p p p p a p s i p p p p p u w i h a ^ ) _ _ _ _ ^ e f U K K 1   <X<X<X<X<X<X",
"<X<X<X<X<X<X  7 5.5.5.Q Y W I s w w w e e e w w w e h ` _ _ ) ) _ _ _ _ ) _ _ _ ) p w e w w u ^ _ _ _ _ ^ e : U K K 1   <X<X<X<X<X<X",
"<X<X<X<X<X<X  3 O.O.O.L > > g j a a a p p p p a a a / ) _ _ ' a a a a ^ ) _ _ / h p p l k k k p h ^ / _ ^ e f U 9 1 - <X<X<X<X<X<X<X",
"<X<X<X<X<X<X  t _ _ ` i w w u ^ ` ` ) _ _ ` ) _ _ _ _ _ _ { i w w w w i / ) _ h w h _ ' x x z k y z ' ) ^ e f Y 5   <X<X<X<X<X<X<X<X",
"<X<X<X<X<X<X  n v.v.v.[ h / ) ` / c p a a p ^ _ { ' { _ ' z a a i u i i z x ' p w l ' ' x ' ' k y l ' ) ^ e f U 5   <X<X<X<X<X<X<X<X",
"<X<X<X<X<X<X  C A.A.Z.*.`  .+.} ^ u e w w e p ) ' x ] { p k ^ / ' x x l y k z l w l x x ' ] / i y l ' ) ^ e : I 1   <X<X<X<X<X<X<X<X",
"<X<X<X<X<X<X  m A.A.Z.&.@.| ` h a h x i l l l i z x ' ' i w p ' x x / x y k z l w k x ' ] _ / i k x ' z f J : ; < <X<X<X<X<X<X<X<X<X",
"<X<X<X<X<X<X  m V.Z.Z.-. .} ] k u ^ { x x x l e k x x z k w l x x ' ) ^ u k z l e k z ' ) / / i i / ] k s I 6 .   <X<X<X<X<X<X<X<X<X",
"<X<X<X<X<X<X  n ;.V.Z.h.+._ x k u x ' x ' ] z w k x x z k e l x ] ) ) ^ e k z z l k k u i i i l p / ^ k f I 6 .   <X<X<X<X<X<X<X<X<X",
"<X<X<X<X<X<X  n ;.h.V.&. .) l y y z x x ] _ h e k x x z l e l z ' / / a u k x x x l y k u u l z ' ) ^ u s I 6 .   <X<X<X<X<X<X<X<X<X",
"<X<X<X<X<X<X  M V.h.;.@.` / z k y l ' ] ) _ a w k x x x z l k k u i i i l z z x x z l x / ^ / / ) _ ^ u s I 6 .   <X<X<X<X<X<X<X<X<X",
"<X<X<X<X<X<X  b c.y.-.%.$.( c i k l z ^ ' / p y l x x ' ' x i i k i k p x ' ' ' ' ' ' ^ / ' / / ] ^ ^ s : 9 1 . <X<X<X<X<X<X<X<X<X<X",
"<X<X<X<X<X<X<X* < e.V.b.b.$.[ c l k e k u u i z z x ] { ) ) / / / / / / ) ) { { ) ) ) a u u u u u k s J 8 = o <X<X<X<X<X<X<X<X<X<X<X",
"<X<X<X<X<X<X<X<X  C A.V.v.%.` ] x p i i i i p ' ' ' ' ^ ^ ^ ^ ^ ' ^ ^ ^ ^ ^ ^ ^ ^ ^ ^ p s s s s s : : : 1 X <X<X<X<X<X<X<X<X<X<X<X<X",
"<X<X<X<X<X<X<X<X  C C.h.;.+.+.} ) ) ) / / ) ) ) ) ) a e e k e k e u e k e e u e e e e > I I I I I I > = X <X<X<X<X<X<X<X<X<X<X<X<X<X",
"<X<X<X<X<X<X<X<X  b e...` ` ( ^ ^ ^ h ^ ^ h h h ' h j f f f : f : f f f : g f g f f f : 6 6 6 6 : 6 1 X <X<X<X<X<X<X<X<X<X<X<X<X<X<X",
"<X<X<X<X<X<X<X<X<X. % r u e e e w w w e e e e e w e > U U U Y Y U U U U U U I U U U I 1 . . . . . . . <X<X<X<X<X<X<X<X<X<X<X<X<X<X<X",
"<X<X<X<X<X<X<X<X<X<X  $ r 8 X.X.X.> g g f g g g g > : 5 : 1 5 5 1 : : 5 : 1 5 5 5 5 1 -             <X<X<X<X<X<X<X<X<X<X<X<X<X<X<X<X",
"<X<X<X<X<X<X<X<X<X<X<X  + ,.g.g.w.! K K K K K K K Y ;                   .             <X<X<X<X<X<X<X<X<X<X<X<X<X<X<X<X<X<X<X<X<X<X<X",
"<X<X<X<X<X<X<X<X<X<X<X<X@ 0 N B 0 3 1 1 1 1 1 1 1 1 = <X<X<X<X<X<X<X<X<X<X<X<X<X<X<X<X<X<X<X<X<X<X<X<X<X<X<X<X<X<X<X<X<X<X<X<X<X<X<X",
"<X<X<X<X<X<X<X<X<X<X<X<X<X                          <X<X<X<X<X<X<X<X<X<X<X<X<X<X<X<X<X<X<X<X<X<X<X<X<X<X<X<X<X<X<X<X<X<X<X<X<X<X<X<X",
"<X<X<X<X<X<X<X<X<X<X<X<X<X<X<X<X<X<X<X<X<X<X<X<X<X<X<X<X<X<X<X<X<X<X<X<X<X<X<X<X<X<X<X<X<X<X<X<X<X<X<X<X<X<X<X<X<X<X<X<X<X<X<X<X<X<X",
"<X<X<X<X<X<X<X<X<X<X<X<X<X<X<X<X<X<X<X<X<X<X<X<X<X<X<X<X<X<X<X<X<X<X<X<X<X<X<X<X<X<X<X<X<X<X<X<X<X<X<X<X<X<X<X<X<X<X<X<X<X<X<X<X<X<X",
"<X<X<X<X<X<X<X<X<X<X<X<X<X<X<X<X<X<X<X<X<X<X<X<X<X<X<X<X<X<X<X<X<X<X<X<X<X<X<X<X<X<X<X<X<X<X<X<X<X<X<X<X<X<X<X<X<X<X<X<X<X<X<X<X<X<X",
"<X<X<X<X<X<X<X<X<X<X<X<X<X<X<X<X<X<X<X<X<X<X<X<X<X<X<X<X<X<X<X<X<X<X<X<X<X<X<X<X<X<X<X<X<X<X<X<X<X<X<X<X<X<X<X<X<X<X<X<X<X<X<X<X<X<X",
"<X<X<X<X<X<X<X<X<X<X<X<X<X<X<X<X<X<X<X<X<X<X<X<X<X<X<X<X<X<X<X<X<X<X<X<X<X<X<X<X<X<X<X<X<X<X<X<X<X<X<X<X<X<X<X<X<X<X<X<X<X<X<X<X<X<X",
"<X<X<X<X<X<X<X<X<X<X<X<X<X<X<X<X<X<X<X<X<X<X<X<X<X<X<X<X<X<X<X<X<X<X<X<X<X<X<X<X<X<X<X<X<X<X<X<X<X<X<X<X<X<X<X<X<X<X<X<X<X<X<X<X<X<X"
};
