/* XPM */
static const char *enemy[] = {
/* columns rows colors chars-per-pixel */
"64 64 211 2 ",
"   c #0C0F14",
".  c #0E1217",
"X  c #0E1318",
"o  c #111317",
"O  c #1D1617",
"+  c #111419",
"@  c #1C1618",
"#  c #14191D",
"$  c #1A1B1D",
"%  c #2B1B16",
"&  c #241918",
"*  c #321D15",
"=  c #2E2116",
"-  c #392315",
";  c #141C21",
":  c #1C1F21",
">  c #172126",
",  c #192126",
"<  c #172228",
"1  c #192328",
"2  c #222425",
"3  c #242529",
"4  c #29272A",
"5  c #252A2B",
"6  c #2B2C2C",
"7  c #302D2E",
"8  c #31312F",
"9  c #2A2D31",
"0  c #272D31",
"q  c #352E33",
"w  c #2E3337",
"e  c #323230",
"r  c #38363A",
"t  c #59340F",
"y  c #563410",
"u  c #583411",
"i  c #4F2A11",
"p  c #772F0A",
"a  c #67390E",
"s  c #79320A",
"d  c #643810",
"f  c #622B0F",
"g  c #41393E",
"h  c #4A2720",
"j  c #713124",
"k  c #75410C",
"l  c #413C40",
"z  c #3D4447",
"x  c #46494A",
"c  c #484A4A",
"v  c #5C4E54",
"b  c #5D5758",
"n  c #59444C",
"m  c #625359",
"M  c #6B555C",
"N  c #6B595F",
"B  c #5F605D",
"V  c #63625D",
"C  c #745A62",
"Z  c #6F5B62",
"A  c #5F696F",
"S  c #686763",
"D  c #7A656B",
"F  c #74746E",
"G  c #7C6C71",
"H  c #7C7C75",
"J  c #983808",
"K  c #85460A",
"L  c #864A0A",
"P  c #8A4A0A",
"I  c #9E5405",
"U  c #9C4F07",
"Y  c #A35404",
"T  c #AE5801",
"R  c #B95800",
"E  c #A94405",
"W  c #C84601",
"Q  c #D54700",
"!  c #D64900",
"~  c #DA4D00",
"^  c #D45400",
"/  c #E55900",
"(  c #E95C00",
")  c #C06100",
"_  c #CE6500",
"`  c #D76700",
"'  c #D37000",
"]  c #E66900",
"[  c #F36A00",
"{  c #F66800",
"}  c #E97100",
"|  c #E77100",
" . c #FB7200",
".. c #FC7A00",
"X. c #F07300",
"o. c #D4502A",
"O. c #976E79",
"+. c #857B78",
"@. c #97767E",
"#. c #886770",
"$. c #FE862B",
"%. c #86857C",
"&. c #FE8F41",
"*. c #FA9951",
"=. c #FBA05B",
"-. c #D59C6F",
";. c #9A7981",
":. c #8C8B81",
">. c #9E868C",
",. c #9E9D91",
"<. c #91938B",
"1. c #A3868C",
"2. c #B78D96",
"3. c #BD949D",
"4. c #B3979D",
"5. c #ACAA9C",
"6. c #B99BA1",
"7. c #BAB7A6",
"8. c #AFACB2",
"9. c #FAB782",
"0. c #CA99A3",
"q. c #D594A3",
"w. c #D995A6",
"e. c #DC9BAA",
"r. c #D59BA7",
"t. c #E29DAD",
"y. c #EB9CAF",
"u. c #E79FB0",
"i. c #C4A7AD",
"p. c #D5A3AD",
"a. c #DAA2AE",
"s. c #DDA6B1",
"d. c #D4ABB3",
"f. c #DDABB5",
"g. c #DDAFB8",
"h. c #C7B8B4",
"j. c #DDB3BB",
"k. c #D8B7BC",
"l. c #C7B1A7",
"z. c #E3A4B2",
"x. c #EAA4B4",
"c. c #E3AAB6",
"v. c #E5ADB9",
"b. c #EBABBA",
"n. c #F1ABBB",
"m. c #E4B3BD",
"M. c #EAB2BE",
"N. c #E0B8BF",
"B. c #E9A8B7",
"V. c #D4CFBA",
"C. c #D8D3BD",
"Z. c #CCC8B4",
"A. c #F8CDA1",
"S. c #A6BCC3",
"D. c #DEBEC3",
"F. c #E4B7C0",
"G. c #EAB6C1",
"H. c #E5BCC3",
"J. c #EBBCC5",
"K. c #ECBFC8",
"L. c #F3B5C3",
"P. c #F2BBC6",
"I. c #F2BEC9",
"U. c #F9BECB",
"Y. c #FAB6C6",
"T. c #B1C9CF",
"R. c #B9C9C9",
"E. c #B2CAD0",
"W. c #B9CFD5",
"Q. c #B6CDD0",
"!. c #DDC3C6",
"~. c #DCD7C2",
"^. c #C5D3CE",
"/. c #E6C1C6",
"(. c #E8C1C7",
"). c #E5C5C9",
"_. c #ECC4CB",
"`. c #E5CACD",
"'. c #ECC9CE",
"]. c #F3C3CD",
"[. c #F9C1CD",
"{. c #F0C8CF",
"}. c #E1DDC8",
"|. c #EDCDD1",
" X c #E6CFD0",
".X c #F5C7D0",
"XX c #F9C6D2",
"oX c #F3CCD2",
"OX c #F9CCD5",
"+X c #FBCED8",
"@X c #EED2D5",
"#X c #EFD6D8",
"$X c #EBD4D5",
"%X c #F3D1D6",
"&X c #F3D5D9",
"*X c #F3DADC",
"=X c #FAD5DB",
"-X c #E5E0CA",
";X c #EAE5CD",
":X c #E5E8D5",
">X c #F7F3D7",
",X c #F6F3D9",
"<X c #F8F5D9",
"1X c #F8F3D7",
"2X c #F4E9CC",
"3X c #F8DCE0",
"4X c #FDEAEC",
"5X c #FEE4E8",
"6X c #FFECF2",
"7X c #FFF2F2",
"8X c #FFF9F6",
/* pixels */
"8X7X7X4X3X(.H.H.J.H.=X5X6X4X*X`.j.(.'.5X7X4X5X_.J.J.m.c.x.x.v.c.m.f.v.J.J.H.H.G.z.t.t.x.y.x.z.z.y.t.e.t.b.v.v.J.H.|.4X7X%X_.].U.",
"7X7X4X X)._.'.H.m.g.m.J.k.).D.H.(./.H.*X4X`./.J.K.J.m.M.b.b.v.v.f.c.m.J.J.J.J.M.z.z.x.t.n.n.c.s.t.t.e.z.n.n.c.f.H._.5X7X*XH.G.G.",
"7X%X!.`.%XoX'.{.J.v.M.m.j.F.H.].K._.H.).`.!./.J.J.G.m.M.b.b.z.c.c.b.M.M.M.M.G.G.c.a.c.c.Y.Y.m.v.z.z.t.x.x.z.c.c.J.H.D.D.H.H.G.M.",
"/.).`.`.oXoXoXoX].v.m.G.f.F.I.I.I._._.).).)._.J._.J.J.v.n.b.v.v.b.x.c.b.b.c.c.M.M.J.m.P.q.U.K.J.M.z.z.b.b.z.z.z.c.J./.j.N.J.M.z.",
"J.(._.|.%X=X%XoX{.J.v.r.I.J.M.U.].].'._.`.)./._._.H.J.p.t.e.v.c.x.x.z.x.x.z.t.c.P.G.I.P.w.w.].'.M.c.c.b.b.x.u.u.c.M.G.m.m.m.v.s.",
"J._._.'._.'.|.|.oXm.m.0.].J.P.G.]._.'.(./.`.'._.]._.].2.O.#.;.@.O.0.c.z.z.x.z.z.c.J.K.P.q.e.].H.J.G.G.M.z.t.u.x.t.M.J.J.m.m.v.v.",
"]._._.oX'.'.`.%X%X_.F.p.J.].J.J.].K.].oX_.(.(.J.].]..XD . . . . . @.m.c.z.z.x.c.J.G.H.G.e.w.P.J.K.J.m.c.c.x.x.x.b.M.G.G.J.J.M.z.",
"].].'.'._.'.`.|.|.'._.g.oXoX]._.I.]._.(._./.H._.'.'.X K  . . . .. . X J.v.z.c.f.K.H.J.J.w.e.J.J.J.m.v.c.z.z.b.L.G.L.J.J.G.G.M.M.",
"I._.'.'..X.X. . . oXoXd.%X%XoX_.].].].'.'.H._._.(.(.o K  . . . .k - . D p.I.J.J.J.K.N._.e.e.J.m.J.M.v.z.a.c..   . K.J.J.J.G.G.G.",
"].].].].g.0.# # # 3.d.j.&X|.'./.m.J.J._._.H._._.H.i.@ P  . . . . .a o . 1.d.J.J.J.G.H.H.q.P.I.I.J.M.c.s.s.3.# # # 6.6.J.J.J.G.G.",
"XXXX].].#.. e e e . C f.=X%X(.j.j.F.H.(._.H..X.X4..  . . . . . . . . .. . . _.].G.I.I.P.r.[.].I.I.J.m.c.c.. 7 e 8 . . J.J.J.J.J.",
"a.a.p.p.Z . e e e . . . . l (.j.m.F.m.H.H.H.]..X6..  . . . . . . .( Q / - . s.s.z.a.a.a.w.U.]..XJ.0.. . . . 8 e e . . J.J.J.J.H.",
"s.s.p.p.0.2.. : e 6 6 6 6 4 3 3 Z J.m.m.F.H.].r 2 .  . . . . . . .^ E R i * q 7 n z.s.z.e.e.j.4 4 6 6 6 6 6 e 8 . d.d.J.J.J.J.H.",
"OXOX.X.X].].X , e e e e e 2 . . v ].H.H.H.(..X3 X .  . . . . . . .a . . W ! . . g I.P.XXe.Y.d.. . # e e e e e 8 . _._.J.J.J.J.H.",
".XoX%X%XoXoX. : e e e e e 8 e 8 2 . . . 3 _..X3 % !  . . . . . . ./ ! . o X . _.J.K.].4 . . # e e e e e e e e 8 . _._.K.J.J.H.H.",
"oX%X%X|.oX'.. : e e e e e e e e e e e . 3 |.  . =  . . . . . . . .[ { J % X k.|.oX  . 6 e e e e e e e e e e e 8 . _.I.P.J.J.H.H.",
"oXoX'.'._.'.. # 5 e e e e e e e e e e . 3 ).. X %  . . . . . . . . . .! - . `.%XoX. X 6 e e e e e e e e e e 6 5 . _.J.I.J.J.G.J.",
"oX|.'.(.(._.. # > e e e e e e e e e e . . . X ! ! !  . . . . . . ./ ! ! - . X @X&X. # e e e e e e e e e e e < > . _.K._.J.J.G.J.",
"oX'._.(.(.(.. # > e e e e e e e e e e > ; X X # # # # # # # o o # # # o W ! . . . . # e e e e e e e e e e e > > . (.J.J.H.H.H.H.",
"'.'._.(.(.(.X # > e e e e e e e e e e > ; X y y y y y y y y y y y t y t W ! i o . . # e e e e e e e e e e e < > . I.J.J.J.J.J.J.",
"'._.(.(._._.X # > e e e e e e e e e e > ; .  . . . . . . . . . . . . . .~ ! Q @ . . # 8 8 e e e e e e e e e < > X z.z.e.e.e.b.Y.",
"'._.(.J._._.X # > > 6 e e e e e e e X X d  . . . . . . . . . . . . . .! ! Q ! ! W . . . . 2 e e e e e e e > < > X t.e.e.t.e.e.e.",
"'._.(.J.J.K.X # > > 6 e e e e e # X X . # O O O O O O O @ & O O O O O @ @ @ @ @ @ 6 6 6 . X . e e e e e e < < > . b.U.XXXXI.I.P.",
"'._._.J.K.K.. # > < 6 e e e e 8 # X . . . . X . . . . X O & & % & % . . X X . . . e e e . . X 8 e e e e e < > ; . ].OXXX.XK.H.j.",
"(.(._.J.K.I._.G . > > < e e e . X . e e e e e e e e 8 X U  . . . . .. 2 e e 8 e 8 e e e e # . . e e e < < < X . '.oXoX&X%X'._.(.",
"H./.J.J.K.J.J.D . X ; > > ; X . 6 8 e e e e e e e e X ...... . ..... .d X 8 e e e e e e 8 8 e . X X > > > X . . `.%X&X&X&X|._./.",
"H./.J.J.J.G.m.>.v v q ; ; # . # 6 e e e e e e e e e X ..a X R  .- .  .d X e e e e e e e e e e # . . ; ; ; m b v ).&X*X*X*X@X|.).",
"/.J.J.K.K.H.m.F.'.].M . . . X 8 e e e e e e e e e e X ..Y k _  .P k  .a X e e e e e e e e e e e X . . . . oXoX`.`.&X*X*X*X%X@X).",
"J.J.J.J.K.J.J.(._.d.z.c.. , 8 e e e e e e e e e e e e X Y  . . . . .X 2 e e e e e e e e e e e e e e . 6.oXoX|.`.&X*X*X*X@X|.oX(.",
"J.J.J.J.J.K._.'.|._.v.s.. , e e e e e e 3 # # # # # e 6 : %  .o  .@ 6 7 6 # # # # # e e e e e e e e . 4.'.'.`. X*X*X#X&X|.oXoX_.",
"_.]._.J.K.].].oX|.oX3.1.# 2 e e e e e 6 6 6 6 6 6 6 6 8 , & _ X ` # e 6 6 6 6 6 6 6 6 6 e e e e e e X +.4.'.'.|.*X#X X X%XoX.X].",
"_.]._.J._.]..XoXoXoXm . 8 e e e e e e . H <X<X<X<X>XX 2 e 6 X X X e e X x ,X<X<X,X,XX # e 8 e e e e > X . '.'.|.@X*X`.`.&X%X'.(.",
"'.oX_.(.K.].OX.XOX.XM . e e e e e 5 X <X<X<X,X<X<X,X<X9 X e e e e 6 X <X<X,X,X<X,X<X<X<.X e e e e e < # . '.`.|.%X@X@X&X%X%X%X|.",
"(.'._._.K.I.]._.].f.M . e e e e $ x 7.,X5.V ,X<X<X<X<X7.5.$ ; ; $ 9 7.<X<X<X<X<X;Xx ,X~.7.# , e e e < # . |. X X`.|.@X&X&X*X&X#X",
"J.H.H./.K.J.H.m.K.m.M . 8 e e e X c <X,.+.. -X-X2X<X<X,X,X. . . . 6 ,X,X<X<X}.}.V.. >X<.,XX $ e e e > X . %X|.|.`.`.|.%X%X&X*X*X",
"J.J.J.J.K.].].I.J.f.M . 8 e e 8 . c <XX F ,XX X %.<X<X<X<X<X<X<X<X<X<X<X<X<XX X . 1XX w ,XX $ e e e < X . %X%X|.|.`.'.|.%X%X&X&X",
"P.I.P.m.s.a.s.z.c.a.M X > 5 e X V.C.<X<XF X X X X 9 <X<X<X<X<X<X<X<X<X<X,XX X X X X ,X,X,XX $ e e e < X . %X|.|.'._.oX%X%X%X%X%X",
"a.a.f.f.s.c.c.c.s.c.M . < 5 8 X >X<X<X,XF X X X X 9 ,X<X<X<X<X<X<X<X<X<X,XX X X X X ,X<X,XX $ e e e > X . |.|.'.'.'.oX%X%X%X%X%X",
"P.J._.].OXOXXXOXK.s.M . > 5 8 . >X<X<X<XF X X X X 9 <X<X,X<X<X<X<X<X<X<X<XX X X X X ,X<X,XX $ e e 8 > X . `.'.'.oX'.{.oXoXoXoXoX",
"I.m.H./.J.H.J.oXoXg.N . . ; < X >X<X<X<X:.r X X 3 x ,X<X,X<XX X ~.<X,X<X,Xx X X X x <X<X<XX $ e 1 < . . . `.'.|.oX'.oXoXoX'.'._.",
"].'./.D.H.H./.oX%XoXj.oXX ; < X >XA.&.&.9.-X. . :.<X<X<X<X,X,.,.2X<X1X1X<X<X. . . <X$.$.$.# ; e 1 < . 6.|.%X|.oXoXoX{.{.'.(./.H.",
"'.'.`.)./._.|.|.|.oXg.oXl 9 ; . 7.-. . .=.,X,X<X,X<X<X,X%.<X,X,X>X-X6 b <X,X,X,X,X<X . . .X # 6 ; ; l i.%X%X%X@XoX{.].{.'.(.H.H.",
".X{.|.|._.oX&X|.=X=Xj.oX%XG . . X u  . . .{ <X<X<X<X<X,XX b b b b X . -X,X,X<X<X2X . . . .X # > X . &X&X&X&X&X%XoX'.'.'.'.(.H.H.",
"oXoX%X%XoX%X&X%X|.oXj.oXoX_._.. X z E. .*.<X<X<X<X<X<X,X>XX X @ @ j . ,X<X<X<X<X<X<X .-.E.# X X 6.%X&X&X*X&X&X&X%X|.'.'.'._.(.(.",
"oX'.`.@X|.%X%X@X&XoXd.'./.(.'.1.. > z l.h.W.,X,X<X<X<X<X<XS . o.o.h 5.<X<X<X<X<X^.^.l.+.z X r G k.&X*X*X*X&X&X%XoXoXoXoXoX'._._.",
"_._.).`.oXoX|.%X`.'.j..XH.(..X.X. X X S.S.S.,X,X,X,X,X,X,X,XS . X r ,X,X,X,X,X,XR.S.S.A X . v |.%X&X*X#X#X#X@X%X|.oXoXoXoXoX'._.",
"K.J./._.'.'.'.oXoX].p.I.I.].J.c.v.a.. X X . E.E.E.T.E.E.E.,X>X>X>X^.T.T.T.T.T.T.w X X X . e..X'.@X&X&X#X#X@X@X@X|.oX%XoX%X%XoX`.",
"P.K._._._.].]._.].XXa.c.p.p.f.c.c.s.e.. X . X X X X X . X X X . X X X X X X X X X . . , 8 . XX'.@X&X&X&X@X@X|.|.|.%X%X|.|.%X%X'.",
"P.P.K.].].I._.].].].s.s.(.oXoXOXm v m 2 2 2 ; ; X Y Y Y Y X k Y Y . I Y Y Y X ; ; 2 2 6 8 2 m b !.#X@X|.|.oX|.|.@X%X@X X%X%XoX'.",
"J.J.K._._.K./.(.I.].c.G.'.|.oXoXX . X e e e < < X .. . . .o R  .... X. . . .X 1 5 e e 8 8 8 X . k.=X=XoXoXoXoXoXoX%X*X&X'.'.OXI.",
"/./.(._.(././.(.].].f.I.'.%X%XoX. ..... X . . . . .. .~ Q f J Q ~ % Q Q  . .. . . . X . . %  .. j.XXI.v.s.z.s.a.p.f.].+X[.[.XXY.",
"/./.(._.(.(.)._.].[.a.]._.|.oX'.'.o # . T.0 & Q . .. . . .o . o o . ]  . . .. ! J X . d.r X # . 3.f.c.z.z.z.z.a.a.s.f.s.a.a.e.e.",
"(.(._._._._.`.'._.].p.]._.`._.{.G X . S R.3 O ( p L L L L p s K K p L L L L p ( E . X M S B . G D.'._._.].].].]..X+XoXoX].J.s.r.",
"].].].].].].'.'.].].a.]._.).(.'.. . . >XZ.. O  .Q . . . o Q /  . .Q % . . . !  .T . X . C.;X.  X)./.(.'.].].].oX=X%XoX'.'._._.K.",
"P.I.I.[.[.].].].[.P.s.I.(.(.H.J.. c >X1XX )  . . . . .Q ~  . . . . . .[ [  . . . . .X e e 6 X %X|.'._.'.].].].{.oX%X%XoX'._.].].",
"w.w.e.e.e.a.a.a.a.e.e.I./././.J.2.M . . X )  . . .d d [ [  . . . . . .R i |  . . . .. $ $ # . %XoX'._.(._.].].'.oXoXoXoX'._._._.",
"e.w.w.e.e.e.a.a.e.e.e.I.J./.J.K.J.;.X X . )  .} } @ O } } }  . . .} } I O ' | }  . .& . . . +X%XoX|.(./.(.'.'.'.'.'.'.'._.(.(._.",
"n.L.P.[.XX[.].XXU.e.t.I.].H.K.I.].K.m.m.. )  .. . .. .. . X  . . .. . d  .= . . `  .! . n +XOX%X'.'._._._.'._.(._.(.(.(.(.H.H.J.",
"J.K.K.].].XX].].I.e.e.e.]._.I.].XX].].m.N.g X . X ,X<XE.W.X X X X X 8.E.,X>X,X. . X X J.z.].oX'.(._.'.'._._._._.J.J.J.J.J.H.H.J.",
"F.(._..XJ.].].].I.q.q.e.].].].].]..X.XH.H.g X 7.7.,X<X:X:X<.X 3 V X ^.:X<X,X,XV.z . 1..Xp.]._.'.K._._._._._._._.J.J.J.J.J.J.J.H.",
"/._._.oX'.'._..XP.q.q.z.I.].I.].J.OXJ.oX{.l X ,X,X,X,X,X,XW.X w <.X ~.,X1X<X,X,Xx X %XoXr.].H./.(._._._.(._._._.J.J.J.J.J.J.H.H.",
"/._._./.(.(./.].[.0.e.[.g.(.].g.j.j.j.'.oXoX>.X X . X . X X D c.M.0.X X . X X X X >.`.oXp.I.(./.K._._._._.(._.J.J.J.J.H.H.J.H.H.",
"J.J.'.J.J.m.J.].I.a.q.XX_.'._._.j.'.j.{.oX%XH.H.oX.X[.e.v.c.v.M.M.c.v.M.m.F.'.oX`.|.oX.Xe.U.m.K.J.K.]._.(.(.J.J.J.J.J.J.J.J.J.H.",
"6XJ.H._.].m.].].[.[.e.U..X'.j.H.'.(._.'.'./.oX/.oX.XXXw.L.M.v.c.c.b.c.M.m.m.'.'.|._..XG.U.Y.P.m.J.K._._./.H.J.J.J.J.J.J.J.J.J.J."
};
