/* XPM */
static char *enemy[] = {
/* columns rows colors chars-per-pixel */
"64 64 148 2 ",
"   c #41220F",
".  c #432412",
"X  c #492616",
"o  c #462817",
"O  c #482917",
"+  c #452A1B",
"@  c #4A2D1C",
"#  c #4D301E",
"$  c #472E20",
"%  c #482F21",
"&  c #473123",
"*  c #4A3224",
"=  c #4B362A",
"-  c #4C392E",
";  c #513323",
":  c #593025",
">  c #543827",
",  c #523728",
"<  c #553A2A",
"1  c #5A3D2E",
"2  c #4E3D33",
"3  c #503F37",
"4  c #60342C",
"5  c #663931",
"6  c #6B3D38",
"7  c #4F4037",
"8  c #4F4038",
"9  c #504037",
"0  c #5D4233",
"q  c #51433B",
"w  c #5E473A",
"e  c #614637",
"r  c #624738",
"t  c #644A3C",
"y  c #534741",
"u  c #554A44",
"i  c #564E49",
"p  c #57504C",
"a  c #58524E",
"s  c #5A5552",
"d  c #5B5856",
"f  c #5C5A59",
"g  c #674E40",
"h  c #694E40",
"j  c #7C4645",
"k  c #6B5345",
"l  c #6F5749",
"z  c #7C524E",
"x  c #725B4D",
"c  c #625D5D",
"v  c #755E51",
"b  c #7A6256",
"n  c #7C665A",
"m  c #7E695D",
"M  c #666060",
"N  c #6B6263",
"B  c #716567",
"V  c #75676A",
"C  c #7A6A6D",
"Z  c #824A4B",
"A  c #8A4F53",
"S  c #8B575A",
"D  c #8D5C5C",
"F  c #816B5F",
"G  c #9B5D66",
"H  c #836C60",
"J  c #976566",
"K  c #857065",
"L  c #877369",
"P  c #8A766B",
"I  c #8C796E",
"U  c #92756F",
"Y  c #846F74",
"T  c #887277",
"R  c #8F7C71",
"E  c #8A7379",
"W  c #947671",
"Q  c #927E75",
"!  c #90767D",
"~  c #AB6573",
"^  c #B06776",
"/  c #B56B7C",
"(  c #928076",
")  c #95837A",
"_  c #9A897F",
"`  c #9E7E87",
"'  c #A07F89",
"]  c #C37489",
"[  c #CF7C95",
"{  c #9D8D83",
"}  c #A3808B",
"|  c #A3948B",
" . c #A7988F",
".. c #B28A96",
"X. c #B58B98",
"o. c #BC8F9D",
"O. c #A79990",
"+. c #AA9B93",
"@. c #AD9F98",
"#. c #ADA097",
"$. c #B2A59E",
"%. c #B6A9A3",
"&. c #B8ACA6",
"*. c #BBAFA9",
"=. c #BDB2AB",
"-. c #DA839F",
";. c #C0919F",
":. c #C393A1",
">. c #CA97A7",
",. c #D797A8",
"<. c #D29BAD",
"1. c #E087A4",
"2. c #ED8FB1",
"3. c #EE90B2",
"4. c #C0B5AF",
"5. c #DBA0B3",
"6. c #C1B7B1",
"7. c #C5BBB6",
"8. c #C7BEB8",
"9. c #C8BFBA",
"0. c #E6A6BB",
"q. c #E8A7BC",
"w. c #EAA8BF",
"e. c #CBC3BD",
"r. c #EFABC1",
"t. c #F2ACC4",
"y. c #CEC6C1",
"u. c #CFC8C3",
"i. c #D0C7C3",
"p. c #D1C9C5",
"a. c #D5CECA",
"s. c #D7D0CC",
"d. c #D9D2CE",
"f. c #DBD4D1",
"g. c #DED9D6",
"h. c #E2DDD9",
"j. c #E5E1DE",
"k. c #E7E3E0",
"l. c #E9E5E3",
"z. c #ECE8E6",
"x. c #EEEBE9",
"c. c #F1EEED",
"v. c #F2F0EF",
"b. c #F6F4F3",
"n. c #F8F7F6",
"m. c #F9F8F7",
"M. c #FFFFFF",
"N. c None",
/* pixels */
"N.N.N.N.N.N.N.N.N.N.N.N.N.N.N.N.N.N.N.N.N.N.N.N.N.N.N.N.N.N.N.N.N.N.N.N.N.N.N.N.N.N.N.N.N.N.N.N.N.N.N.N.N.N.N.N.N.N.N.N.N.N.N.N.",
"N.N.N.N.N.N.N.N.N.N.N.N.N.N.N.N.N.N.N.N.N.N.N.N.N.N.N.N.N.N.N.N.N.N.N.N.N.N.N.N.N.N.N.N.N.N.N.N.N.N.N.N.N.N.N.N.N.N.N.N.N.N.N.N.",
"N.N.N.N.N.N.N.N.N.N.N.N.N.N.N.N.N.N.N.N.N.N.N.N.N.N.N.N.N.N.N.N.N.N.N.N.N.N.N.N.N.N.N.N.N.N.N.N.N.N.N.N.N.N.N.N.N.. * & . N.N.N.",
"N.N.N.N.N.N.N.N.N.N.N.N.N.N.N.N.N.N.N.N.N.N.N.N.N.N.N.N.N.N.N.N.N.N.N.N.N.N.N.N.N.N.N.N.N.N.N.N.N.N.N.N.N.N.N.N.N.2 f f 2 N.N.N.",
"N.N.N.N.N.N.N.N.N.N.N.N.N.N.N.N.N.N.N.N.N.N.N.N.N.N.N.N.N.N.N.N.N.N.N.N.N.N.N.N.N.N.N.N.N.N.N.N.N.N.N.N.N.N.N.N.N.9 d d 3 N.N.N.",
"N.N.N.N.N.N.N.N.N.N.N.N.N.N.N.N.N.N.N.N.N.N.N.N.N.N.N.N.N.N.N.N.N.N.N.N.N.N.N.N.N.N.N.N.N.N.N.N.N.N.N.N.N.N.N.N.. . = = o N.N.N.",
"N.N.N.N.N.N.N.N.N.N.N.N.N.N.N.N.N.N.N.N.N.N.N.N.N.N.N.N.N.N.N.N.N.N.N.N.N.N.N.N.N.N.N.N.N.N.N.N.N.N.N.N.N.N.  . 2 2   N.N.N.N.N.",
"N.N.N.o = * . N.N.N.N.N.N.N.N.N.N.N.N.N.N.N.N.N.N.N.N.N.N.N.N.N.N.N.N.N.N.N.N.N.N.N.N.N.N.N.N.N.N.N.N.N.  o 9 d f 2   N.N.N.N.N.",
"N.N.. u f d * N.N.N.N.N.N.N.N.N.N.N.N.N.N.N.N.N.N.N.N.N.N.N.N.N.N.N.N.N.N.N.N.N.N.N.N.N.N.N.N.N.N.N.. + 9 d f f d *   N.N.N.N.N.",
"N.N.N.y f f * N.N.N.N.N.N.N.N.N.N.N.N.N.N.N.N.N.N.N.N.N.N.N.N.N.N.N.N.N.N.N.N.N.N.N.N.N.N.N.N.N.. o 8 d f f f f d @ . N.N.N.N.N.",
"N.N.N.. * + . .   . N.N.N.N.N.N.N.N.N.N.N.N.N.N.N.N.N.N.N.N.N.N.N.N.N.N.N.N.N.N.N.N.N.N.N.N.. o q f f f f f f f d + N.N.N.N.N.N.",
"N.N.N.N.N.. = i 9 = o     N.N.N.N.N.N.N.N.N.N.N.N.N.N.N.N.N.N.N.N.N.N.N.N.N.N.N.N.N.N.N.. + 9 d f d f f f f f f s . N.N.N.N.N.N.",
"N.N.N.N.N.N.o d f f f u 2 o .   N.N.N.N.N.N.N.N.N.N.N.N.N.N.N.N.N.N.N.N.N.N.N.N.N.N.  . 7 d f f f f f f f f f f a . N.N.N.N.N.N.",
"N.N.N.N.N.N.. s f f f f d d s q * .     N.N.N.N.N.N.N.N.N.N.N.N.N.N.N.N.N.N.N.N.N.  - f d d f f f f f f f f f f i   N.N.N.N.N.N.",
"N.N.N.N.N.N.. u f f f f f f f f f s 9 = o   N.N.N.N.N.N.N.N.N.N.N.N.N.N.N.N.N.N.N.  q f f f f f f f f f f f f f u . N.N.N.N.N.N.",
"N.N.N.N.N.N.. 2 f f f f f f f f f f d f d y & .   N.N.N.N.N.. .                     9 d f f f f f f f f f f f f q   N.N.N.N.N.N.",
"N.N.N.N.N.N.  * f f f f f f f f f f f f f f f 2   N.. . o = 8 u i s s d d s i i 2 $ . $ 8 s f f f f f f f f f f 3   N.N.N.N.N.N.",
"N.N.N.N.N.N.N.+ d f f f f f f f f f f f f f f 3 . * 2 i f f f f f f d f d f f f f f s 8 $ + 3 s f f f f f f f f 2   N.N.N.N.N.N.",
"N.N.N.N.N.N.N.. s f f f f f f f f f f f f f f 8 @ f f f f f f f f f f f f f f f f f f f f u @ . q f f f f f f f =   N.N.N.N.N.N.",
"N.N.N.N.N.N.N.. u f f f f f f f f f f f f f f u + d f f f f f f f N E ` ` E N f f f f f f f d i o * s f f f f f $   N.N.N.N.N.N.",
"N.N.N.N.N.N.N.  2 f f f f f f f f f f f f f f s q d f f f f f N X.0.t.t.t.t.r.X.N f f f f f f f s * + s f f f f + N.N.N.N.N.N.N.",
"N.N.N.N.N.N.N.  % f f f f f f f f f f f f f f f f f f f f f M 5.t.t.t.t.t.t.r.t.>.f f f f f f f f f = + i f f p . N.N.N.N.N.N.N.",
"N.N.N.N.N.N.N.N.o d f f f f f f f f f f f f f f f f f f f f o.t.t.t.t.t.t.t.5.0.r.T f f f f f f f f d * + 3 + . . N.N.N.N.N.N.N.",
"N.N.N.N.N.N.N.N.. i f f f f f f f f f f f f f f f f f f f f <.r.` ` t.t.r.0.c C r.E f f f f f f f f f s @   N.N.N.N.N.N.N.N.N.N.",
"N.N.N.N.N.N.N.N.  2 d d f f f f f f f f f f f f f f f f f f >.:.s C t.t.t.r.B B <.M f f f f f f f f f f i   N.N.N.N.N.N.N.N.N.N.",
"N.N.N.N.N.N.N.N.N.  o * 3 i d f f f f f f f f f f f f f f f B <.o.r.t.t.t.t.r.<.V d f s s f d d f f f f d *   N.N.N.N.N.N.N.N.N.",
"N.N.N.N.N.N.N.N.N.N.N.  . . o = i f f f f f f f f f f f d f d M ` ..0.o.o.r.` c d q * v w = y d f f f f d y   N.N.N.N.N.N.N.N.N.",
"N.N.N.N.N.N.N.N.N.N.N.N.N.N.. q s f f f f f f f f f f s q - 9 i d f E V B V c u % H k.M.M.p.m + i f f f f d . N.N.N.N.N.N.N.N.N.",
"N.N.N.N.N.N.N.N.N.N.N.N.N.  2 d d f f f f f f f f s = t @.s.&.R t > * 2 u u @ C k.M.M.M.M.M.M.e.k = d f f f +   N.N.N.N.N.N.N.N.",
"N.N.N.N.N.N.N.N.N.N.N.N.N.  q f f f f f f f f f u * O.b.M.M.M.M.M.z.e.| T I e.m.M.M.M.M.M.M.p.{ s.L = f f f & . N.N.N.N.N.N.N.N.",
"N.N.N.N.N.N.N.N.N.N.N.N.N.  u d f f f f f f f u 0 a.M.M.M.M.M.M.M.M.M.M.M.M.M.M.M.M.M.M.c.P . e h.m.v y d f %   N.N.N.N.N.N.N.N.",
"N.N.N.N.N.N.N.N.N.N.N.N.N.  y d f f f f f f i < j.&.{ g.m.M.M.M.M.M.M.M.M.M.M.M.M.M.M.p.;     o b.M.s.* f d + . N.N.N.N.N.N.N.N.",
"N.N.N.N.N.N.N.N.N.N.N.N.N.  q d f f f f d d & O.M. .0 O t  .b.M.M.M.M.M.M.M.M.M.M.M.M.f.#       u.M.n.w i d o N.N.N.N.N.N.N.N.N.",
"N.N.N.N.N.N.N.N.N.N.N.N.N.  = d f f f f f a ; z.M.M.;     . p.M.M.M.M.M.M.M.M.M.M.M.M.m.b       e.M.M.n 9 i   N.N.N.N.N.N.N.N.N.",
"N.N.N.N.N.N.N.N.N.N.N.N.N.N.. d f f f f f u l M.M.M.*     . y.M.M.M.M.M.M.M.M.M.M.M.M.M.s.t # n b.M.M.L 9 =   N.N.N.N.N.N.N.N.N.",
"N.N.N.N.N.N.N.N.N.N.N.N.N.N.. q f f f f d q n M.M.M.x     @ j.M.M.M.M.M.e.W Q z.M.M.M.M.M.b.z.m.M.M.M.b - . N.N.N.N.N.N.N.N.N.N.",
"N.N.N.N.N.N.N.N.N.N.N.N.N.N.. o d f f f f u e m.M.M.j.x t 6.M.M.M.M.M.b.H ,.J 7.M.M.M.M.M.M.M.M.M.M.c.> .   N.N.N.N.N.N.N.N.N.N.",
"N.N.N.N.N.N.N.N.N.N.N.N.N.N.N.  2 f f f f d + f.M.M.M.M.M.M.M.M.M.M.M.M.l.$.e.c.v.M.M.M.M.M.M.M.M.M.@.    N.N.N.N.N.N.N.N.N.N.N.",
"N.N.N.N.N.N.N.N.N.N.N.N.N.N.N.N.. 2 d f f f - P M.M.M.M.M.M.M.M.M.M.M.6.7.n.x. .z.M.M.M.M.M.M.M.M.s.;   N.N.N.N.N.N.N.N.N.N.N.N.",
"N.N.N.N.N.N.N.N.N.N.N.N.N.N.N.N.N.  & d f d d # $.M.M.M.M.M.M.M.M.M.M.M.h.&.7.b.M.M.M.M.M.M.M.b.P .   N.N.N.N.N.N.N.N.N.N.N.N.N.",
"N.N.N.N.N.N.N.N.N.N.N.N.N.N.N.N.N.N.  . - i d p * ) b.M.M.M.M.M.M.M.M.M.M.M.M.M.M.M.M.M.M.h._ >   N.N.N.N.N.N.N.N.N.N.N.N.N.N.N.",
"N.N.N.N.N.N.N.N.N.N.N.N.N.N.N.N.N.N.N.N.. . & 8 u = t 9.m.M.M.M.M.M.M.M.M.M.M.M.M.m.k.*.H @   N.N.N.N.N.N.N.N.N.N.N.N.N.N.N.N.N.",
"N.N.N.N.N.N.N.N.N.N.N.N.N.N.N.N.N.N.N.N.N.  . * o . . . @ Q 6.e.y.y.8.=.$.| R b 1 o . * 9 9 .   N.N.N.N.N.N.N.N.N.N.N.N.N.N.N.N.",
"N.N.N.N.N.N.N.N.N.N.N.N.N.N.N.N.N.: N.N.. 2 s d d a y 9 2 = * * & & * * = 2 2 q y i 2 8 y u u - o 5 / Z N.N.N.N.N.N.N.N.N.N.N.N.",
"N.N.N.N.N.N.N.N.N.N.N.N.N.N.N.N.j 1./ O 2 y y q u u a d f f f f d d d f f f f f d s 1 #.{ 1 . . . A 2./   N.N.N.N.N.N.N.N.N.N.N.",
"N.N.N.N.N.N.N.N.N.N.N.N.N.N.N.N.Z 2.] o   . Q @.+.{ + d f f f d f u + o - a f f d u H m.M.j.@ N.N.. 4 X N.N.N.N.N.N.N.N.N.N.N.N.",
"N.N.N.N.N.N.N.N.N.N.N.N.N.N.N.N.N.: N.N.. { M.M.M.M.| = d f f u = n a.l.&.m < 2 a = v L b.M.r N.N.N.N.N.N.N.N.N.N.N.N.N.N.N.N.N.",
"N.N.N.N.N.N.N.N.N.N.N.N.N.N.N.N.N.N.N.N.  a.M.M.M.m.m.t 9 s = 0 8.M.M.M.M.M.k.@.> 6 z O e.c.> N.N.N.N.N.N.N.N.N.N.N.N.N.N.N.N.N.",
"N.N.N.N.N.N.N.N.N.N.N.N.N.N.N.N.N.N.N.N.. $.M.M.m.t e.b 5 ; 6.M.M.M.M.M.M.M.M.b.D 3.3.: Q I t   N.N.N.N.N.N.N.N.N.N.N.N.N.N.N.N.",
"N.N.N.N.N.N.N.N.N.N.N.N.N.N.N.N.N.N.N.N.> k x.M.M.) , [ 3.G f.M.M.M.M.M.M.M.M.m.U ^ ~ t x b.h.. N.N.N.N.N.N.N.N.N.N.N.N.N.N.N.N.",
"N.N.N.N.N.N.N.N.N.N.N.N.N.. * $ o . . N.n v.M.M.M.b l ~ -.S k.M.M.M.M.M.M.M.M.M.b.9.e.&.t l.F   N.N.N.N.N.N.N.N.N.N.N.N.N.N.N.N.",
"N.N.N.N.N.N.N.N.N.N.N.N.N.. s d d o N.N.O i.M.m.$.> b.p.$.k.M.M.M.M.M.M.M.M.M.M.M.M.M.%.    N.N.N.N.N.N.N.N.N.N.N.N.N.N.N.N.N.N.",
"N.N.N.N.N.N.N.N.N.N.N.N.N.. s f d = . N.N.. 1 1 L h.M.M.M.M.M.M.M.M.M.M.M.M.M.M.M.M.M.{   N.N.N.N.N.N.N.N.N.N.N.N.N.N.N.N.N.N.N.",
"N.N.N.N.N.N.N.N.N.N.N.N.N.. 2 u d d o N.N.N.N.% l.M.M.M.M.M.M.M.M.M.M.M.M.M.M.M.M.M.M.v N.N.N.N.N.N.N.N.N.N.N.N.N.N.N.N.N.N.N.N.",
"N.N.N.N.N.N.N.N.N.N.N.N.N.    . 9 d s * .       ) M.M.M.M.M.M.M.M.M.M.M.M.M.M.M.M.M.l.o N.N.N.N.N.N.N.N.N.N.N.N.N.N.N.N.N.N.N.N.",
"N.N.N.N.N.N.N.N.N.N.N.N.N.N.N.N.  % q i i 3 2 % I M.M.M.M.M.M.M.M. .L m.M.M.M.M.M.M.l.@ N.N.N.N.N.N.N.N.N.N.N.N.N.N.N.N.N.N.N.N.",
"N.N.N.N.N.N.N.N.N.N.N.N.N.N.N.N.N.N.  . o o .   x m.M.M.M.M.M.M.d.. o g.M.M.M.M.M.M.j.b o N.N.N.N.N.N.N.N.N.N.N.N.N.N.N.N.N.N.N.",
"N.N.N.N.N.N.N.N.N.N.N.N.N.N.N.N.N.N.N.N.N.N.. l y.M.M.M.M.M.M.M._ .   e.M.M.M.M.M.M.M.M.&.. N.N.N.N.N.N.N.N.N.N.N.N.N.N.N.N.N.N.",
"N.N.N.N.N.N.N.N.N.N.N.N.N.N.N.N.N.N.N.N.N.N.; z.M.M.M.M.M.M.M.M.Q   . d.M.M.M.M.M.M.M.M.x.; N.N.N.N.N.N.N.N.N.N.N.N.N.N.N.N.N.N.",
"N.N.N.N.N.N.N.N.N.N.N.N.N.N.N.N.N.N.N.N.N.N.0 m.M.M.M.M.M.M.M.M.)   N.n h.M.M.M.M.M.M.M.=.. N.N.N.N.N.N.N.N.N.N.N.N.N.N.N.N.N.N.",
"N.N.N.N.N.N.N.N.N.N.N.N.N.N.N.N.N.N.N.N.N.N.. | b.M.M.M.M.M.j.) @ N.N.N.; x ) +.$.@.Q k @ N.N.N.N.N.N.N.N.N.N.N.N.N.N.N.N.N.N.N.",
"N.N.N.N.N.N.N.N.N.N.N.N.N.N.N.N.N.N.N.N.N.N.N.  * x H L m r .   N.N.N.N.N.N.N.      N.N.N.N.N.N.N.N.N.N.N.N.N.N.N.N.N.N.N.N.N.N.",
"N.N.N.N.N.N.N.N.N.N.N.N.N.N.N.N.N.N.N.N.N.N.N.N.N.N.N.N.N.N.N.N.N.N.N.N.N.N.N.N.N.N.N.N.N.N.N.N.N.N.N.N.N.N.N.N.N.N.N.N.N.N.N.N.",
"N.N.N.N.N.N.N.N.N.N.N.N.N.N.N.N.N.N.N.N.N.N.N.N.N.N.N.N.N.N.N.N.N.N.N.N.N.N.N.N.N.N.N.N.N.N.N.N.N.N.N.N.N.N.N.N.N.N.N.N.N.N.N.N."
};
