/* XPM */
static char *floor[] = {
/* columns rows colors chars-per-pixel */
"64 64 214 2 ",
"   c white",
".  c #FDFCFF",
"X  c #FAF6FF",
"o  c #F8F3FF",
"O  c #F6EFFF",
"+  c #F1E8FF",
"@  c #EFE5FF",
"#  c #F3ECFF",
"$  c #FBF9FF",
"%  c #FEFDFF",
"&  c #FBF8FF",
"*  c #F9F5FF",
"=  c #F7F1FF",
"-  c #F6F0FF",
";  c #F7F2FF",
":  c #F3EBFF",
">  c #F0E6FF",
",  c #F2EAFF",
"<  c #F9F6FF",
"1  c #F7F2FE",
"2  c #F8F3FE",
"3  c #FDFBFF",
"4  c #FFFEFF",
"5  c #FAF7FF",
"6  c #F4EDFF",
"7  c #F8F2FF",
"8  c #F2E9FF",
"9  c #EFE4FE",
"0  c #E7D8FB",
"q  c #EADDFB",
"w  c #F8F4FE",
"e  c #FCFAFF",
"r  c #F5EFFF",
"t  c #F6F1FF",
"y  c #EADDFD",
"u  c #E1CEFA",
"i  c #E2D0F9",
"p  c #EEE4FC",
"a  c #F7F2FD",
"s  c #FCFBFE",
"d  c #F9F4FF",
"f  c #F5EEFF",
"g  c #DEC9F8",
"h  c #E1CEF9",
"j  c #E9DCFB",
"k  c #FCF9FF",
"l  c #EDE1FE",
"z  c #E8D9FC",
"x  c #E3D1FA",
"c  c #DECAF9",
"v  c #E5D4FA",
"b  c #F6F1FD",
"n  c #F1E9FF",
"m  c #F0E7FF",
"M  c #FEFEFF",
"N  c #F3EAFE",
"B  c #EEE3FC",
"V  c #EFE6FF",
"C  c #F4ECFF",
"Z  c #EFE4FD",
"A  c #E2D0FA",
"S  c #FCFBFF",
"D  c #F7F3FF",
"F  c #EBDEFD",
"G  c #EDE1FD",
"H  c #E2CFFA",
"J  c #F0E7FD",
"K  c #F1E8FD",
"L  c #FAF8FF",
"P  c #F1E8FE",
"I  c #EDE2FD",
"U  c #E0CCF9",
"Y  c #F5F0FF",
"T  c #E3D2FA",
"R  c #DCC7F8",
"E  c #DCC6F8",
"W  c #E0CDF9",
"Q  c #E9DBFB",
"!  c #F0E6FC",
"~  c #F5EEFE",
"^  c #F8F4FF",
"/  c #F5EDFE",
"(  c #EEE2FC",
")  c #EADDFC",
"_  c #F1E7FD",
"`  c #ECDFFC",
"'  c #E6D6FA",
"]  c #DFCBF9",
"[  c #E4D3FA",
"{  c #F4ECFD",
"}  c #F4EEFF",
"|  c #FBF7FF",
" . c #F7F1FE",
".. c #EBDEFB",
"X. c #EDE2FC",
"o. c #EEE4FF",
"O. c #EADCFD",
"+. c #E1CDFA",
"@. c #DDC7F8",
"#. c #E5D5FA",
"$. c #F6F0FD",
"%. c #ECE1FE",
"&. c #E7D8FC",
"*. c #DEC9F9",
"=. c #E8D9FB",
"-. c #EDE2FE",
";. c #E8DAFB",
":. c #EADEFD",
">. c #F2EAFE",
",. c #EFE4FF",
"<. c #EEE3FF",
"1. c #E9DCFD",
"2. c #E0CDFA",
"3. c #DDC8F8",
"4. c #E4D4FA",
"5. c #F2E9FD",
"6. c #ECE0FE",
"7. c #E7D7FC",
"8. c #EFE5FD",
"9. c #F1E9FE",
"0. c #E8DAFC",
"q. c #E9DBFC",
"w. c #F3ECFE",
"e. c #E4D3FB",
"r. c #E4D4FB",
"t. c #E9DBFD",
"y. c #F1E7FF",
"u. c #F4ECFE",
"i. c #F3EBFE",
"p. c #EFE5FE",
"a. c #DFCCF9",
"s. c #EBDFFD",
"d. c #E7D7FA",
"f. c #F4EEFD",
"g. c #ECE1FD",
"h. c #E6D6FB",
"j. c #F1E7FC",
"k. c #F0E6FD",
"l. c #F5EFFE",
"z. c #F0E6FE",
"x. c #EBDFFB",
"c. c #E5D4FB",
"v. c #E3D2FB",
"b. c #F2E9FC",
"n. c #F3ECFD",
"m. c #E7D8FA",
"M. c #F5EEFD",
"N. c #E8DAFA",
"B. c #F7F3FD",
"V. c #EEE4FD",
"C. c #E2CFF9",
"Z. c #EDE2FB",
"A. c #F3EBFD",
"S. c #FCFAFE",
"D. c #FEFCFF",
"F. c #ECE0FB",
"G. c #F2EBFF",
"H. c #F4EDFE",
"J. c #EFE6FC",
"K. c #E2D1F9",
"L. c #E7D7FB",
"P. c #EBDEFC",
"I. c #F9F5FE",
"U. c #E6D7FC",
"Y. c #DDC8F9",
"T. c #E1CFF9",
"R. c #F2EAFD",
"E. c #EEE4FE",
"W. c #F6F0FE",
"Q. c #E7D9FC",
"!. c #EFE6FE",
"~. c #E5D5FB",
"^. c #F0E7FE",
"/. c #ECE0FD",
"(. c #E6D6FC",
"). c #E3D2F9",
"_. c #F2EAFC",
"`. c #FAF8FE",
"'. c #F9F6FE",
"]. c #E8DAFD",
"[. c #FAF7FE",
"{. c #FCF9FE",
"}. c #DFCAF9",
"|. c #E4D2FA",
" X c #E1CFFA",
".X c #EADCFB",
"XX c #F0E7FC",
"oX c #F4EDFD",
"OX c #FBF9FE",
"+X c #E3D0FA",
"@X c #F0E5FD",
"#X c #DECAF8",
"$X c #EEE3FD",
"%X c #EBDFFC",
"&X c #E7D9FB",
"*X c #EDE1FC",
"=X c #F7F1FD",
"-X c #E9DCFC",
";X c #EFE5FC",
":X c #F3EAFF",
">X c #EEE3FE",
",X c #F2EBFC",
"<X c #FBF8FE",
"1X c #EEE2FD",
"2X c #ECE1FC",
"3X c #E6D7FA",
"4X c #F1E8FC",
"5X c #FAF6FE",
"6X c #E8D9FA",
"7X c #F1E9FD",
"8X c #F5EFFD",
"9X c #F1E9FC",
"0X c #ECDFFE",
"qX c #E6D7FB",
/* pixels */
"                  . X o o o o O + @ @ # $                                                             . X o o o o o o O + @ @ @ ",
"                  % & * = - ; - : + > , o < 1 2 3                                                     . X o o o o o o O + @ @ @ ",
"                  4 % 5 6 : - 7 = 6 + > 8 9 0 q w                                                     . X o o o o o o O + @ @ @ ",
"                      e r # t o o t # + > y u i p a s                                                 3 o - ; o o o o t # + > @ ",
"                      3 d = 7 o o 7 = f + y u g h j 2                                                 $ 6 , - o o o o 7 = f + @ ",
"                      % k * - O ; o o O + l z x c v b                                                 & : n - o o o o ; O # m @ ",
"                        M & 6 , - o o O + m N B i v b                                                 & : n - o o o o - , m V @ ",
"                          e r C = ; O # m m # Z A v b                                                 S D - ; ; O f f # m @ @ @ ",
"                          . * ; o - , > @ @ > F u v b                                                 4 % e * - , m m > @ @ @ @ ",
"                          S ; r ; = 6 : : : : G H v b                                         M 3 e e e e 5 t 6 : : : 8 > > 8 : ",
"                          $ C 8 - o ; ; ; ; ; J x v b                                         . 5 d d d d t , 8 r ; ; r + + r ; ",
"                          & : n - = f 6 6 f = K x v b . 5 5 .                             M 3 & * o o = f f r t ; = f : m m : 6 ",
"                          & : n - - 8 V V 8 - K x v b $ 6 6 $                             . X o o o o - 8 # L 3 X - 8 V @ @ V V ",
"                  . < o o = 6 # C : m m , P I 0 U v b 3 d d . . < < .             M 3 3 M e = 6 6 6 6 : m n Y o o O + m , : : : ",
"                  $ # V V n O O n @ @ + O K T R E v b         $ # # $             . X X . $ # @ @ @ @ @ @ @ @ 8 - O + + O o o o ",
"              M S X r # # # C C # # # f = K x W Q ! ~ ; ; * . & : + r * . . * ; ; ; o * & ^ , m , # # # # # # f = o ; ; o / ( ) ",
"              . X o o o o O + + O o o o o _ x v b & # @ @ # & & # @ @ # & & : @ @ + O o o O + + O o o o o o o o o X . . X K x E ",
"      % e $ $ * r # # # # , m m , # # P ` ' ] [ { < O C C O < < O f t ; ; f + @ @ m , # # , m m , # # # # # # } = d |  .B ..X.p ",
"M M 4 . X o o O + @ @ @ @ @ @ @ @ @ o.O.+.E @.[ K o o o o o o o o X . & # @ @ @ @ @ V V @ @ @ @ @ @ @ @ @ @ @ + f = = J T #.$.M ",
"t D X 5 d o o O + m : : m @ @ @ @ %.&.A *.U =.Z ~ * & e e e e & * d 5 * - : m @ @ n - - n @ @ @ @ @ @ @ @ @ @ -.) ;.;.=.&.:.>.t ",
"@ n - o 7 ; ; r 8 8 r r 8 V @ ,.<.1.2.R 3.4.5.o ^ 5 .         . X o o o ^ - 8 > m C L 5 8 o.> > @ @ @ ,.<.<.<.1.2.R 3.H F @ V > ",
"@ n - = 6 : : : 6 6 : : 6 : m 6.7.A *.W ;.8.~ * & 3 M         . X o o * & 5 - r ; o t 9.0.q.w.- n @ @ 6.7.e.e.A *.] r.t.-.m : 6 ",
"+ , r f + @ @ + f f + y.u.i.p.O.x a.] #.5.o d 5 .             . 5 d o X 3 3 5 5 3 L : s.T d.f.2 P -.-.O.x U U U U [ g.m m , - o ",
"* ; 6 8 > @ @ > 8 8 > -.q.h.e.0 B j.p k.l.* $ . M             M . $ * d X & e e & o , z.K ! x.=.c.v.v.0 B b.b.b.b.n.1 o O r ; o ",
"  $ 6 m m m + + + + + I v W U m.b 3 5 * * 5 .                     . X o o X . . X - : 6 5 M.[ 3.a.h h N.B.            . 5 * * * ",
"  S ; f f - ^ < < < < 2 f.5.8.K 1 & e 3 3 . M                     . X o o X . . X ^ * ^ - V.A C.Z.A.A.$.S.            M . 3 3 3 ",
"  D.| d o < S % % % % % % S < o d | D.                            D.| d o X . . X X . & : y u v b                               ",
"  M . k * d X 5 5 5 5 5 5 X d * k . M                             M . k * X . . X X . & : y u v b                               ",
"w w w w * * * * ^ o o o o ^ * & %                                     . X * e e o o L * , y u v b                               ",
"' ' ' F.1 . . k * o o o o * k . M                                     . X d X o C , # G.m y u v b                               ",
"A h g v b M S 5 ; - - - - ; 5 S M                             4 % . . e * ; t f , y.> > 8 I H v b     M S $ $ $ $ $ $ S M       ",
"_ ` h v b e t : 8 n n n n 8 : t e                             % & X X * ^ - : , f 6 + , o n.[ v b     e t # # # # # # t e       ",
"o K x v b k f n n n n + > @ @ : X % 4         % e e %     4 % $ o - ; o o O + n - O + + H.J.K.[ n.e % k f + > > + + > , o e %   ",
"o K x v b 3 ^ - - - - 6 + @ @ 8 ; & %         e - - e     % & ; # : - o o O + n - O + 6.L.i g H I - e 3 ^ 6 + + 6 6 + > 8 - e   ",
"k.P.h [ M.k * d X X X o C 8 8 : 6 = * 5 5 I.b M.H.r * & S k * t # : 6 - ; t # : 6 >.g.U.] Y.2.h.p.- & e & ^ r r ^ o C , # r * 5 ",
"T.W 3.T R.* ^ * e % % e o - - f , + 8 , , E.L.Q W.< f 6 o * ^ 7 = f , : - 7 = f , %.e.] 3.U Q.!.o $ X 5 3 . S S . e o o L < f , ",
"E ] 4.F.l.5 5 $ %     % $ X d t # + > @ @ 6.~.L.J.A.^.y.C - ; ; - C y.y.C r r >./.(.] ] 4.Q -.G.< e & $ % M . . M . X * k 5 f 8 ",
"E )._.`.3 % % M         M S < 7 = f + @ @ o.l 1.[ ~.6.V m , - - , m V V m m m 6.v.c @.)._. .8 8 = 5 3 M   D.| | D.. X o d ^ ; = ",
"N.B '.                    % k X d O + @ @ @ @ y u ] ~.y -.m # # m @ @ -.y ].].~.] ] #.B '.S ; - * k %     % k k % % k 5 5 5 5 5 ",
"[.{.%                       M 3 X O + @ @ @ @ y u @.*.x F @ > > @ @ @ F x }.}.*.@.|.A.{.% M . . % M         M M     M % % % % % ",
"                              . X = 6 8 > > 8 9 &. X*.] c.z z z z z z c.] }.[ [ }.v b                                     M . e ",
"                              . X o ; f + + f f z.t.2.R Y.*.*.*.*.*.*.Y.R A Z Z A v b                                     . 5 d ",
"                              . X o o O + n - O + y u ] v L.c.e.e.e.e.e.e.q.i.u.` .Xp XXXXoXOX                            . X o ",
"                              . X o o O + n - O + y u +X@X6 > <.<.<.<.<.<.m r 7 = k.[ #X#Xd.a                             . X o ",
"o o o X .                 M 3 & * o o O + n - O + y u A $X: m m , : : : : # C 6 6 P %X&X~.0 *Xn.OX                        % e & ",
"> > > # $                 . X o o o o O + n - O + y u u F @ @ + r 7 7 7 7 O n V V + f f m y H ' =X                              ",
"@ @ @ + r < .             % e < O f = = } # C ^.-Xz ..;XH.f + m :Xf = o o O + @ @ n - O + >XP...X.,X<X                          ",
"@ @ @ @ @ # $                 & # n - o o O n y u v b     & : @ @ n - o o O + @ @ n - O + + O K x #.b                           ",
"C , m @ @ # $ <Xb.b.<X% e $ $ < O f = = f , m y u v b % e < O } t ; o o o = f , m n - O + m , 1XH v b                           ",
"o - n @ @ # & $.#.v $.3 * o o o o o o r + ,.,.y  X#.b . X o o X . . X o o o o - 8 8 - - 8 @ @ y u v b                           ",
"k X - 6 6 } - >.y z ..B 9.: : : : : : z.0.c.c.0 2XA.<XM 3 k k k $ $ k k k k k & * o o o o Y + y u v b                           ",
"  . X o o - , > @ y u u F V o.<.<.<.<.1.2.R 3.3Xa             . X X . 4 4 4 4 M M 3 X X 3 5 : y u v b                           ",
"  M 3 & * o ^ - n y u x K w.q.e.e.e.e.A *.h ..oXOX            M 3 k $ & & & & X ; t ; ; t 6 + y u v b                           ",
"    4 3 * * e 5 : y u v b a m.] ] ] ] ] ] m.a                     . 5 d d ^ o - 8 8 - - 8 > @ F x 3XM.3 M       4 4     4 4     ",
"  % e d f # f 6 + y u v b {.M.4X4X4X4X4X4XM.{.                    M 3 e e & * ; r r ; ; r : m z.K ;XF.;X5X    % e e % % e e %   ",
"  . X - : m V @ @ s.[ 6Xa                                                 . X o d d o o o O + : X M.[ v b     . X X 3 e 1 W.'.<X",
"  . X ^ * = 8 @ @ z.7X8XS.                                                . X * $ $ * o o O + m # Z A v b     . X d X l.%X0 ;.Q ",
"  D.| 5 3 5 : @ @ # $                                                     . X < S e ^ = = f , m V y u v b     D.| * * i.0 T.T.T.",
"  M . e & o , @ @ # $                                                     . X d X ^ 6 , , : 6 # m y u v b     M . 3 3 [.$.n.n.n.",
"  4 % e ^ r : m -.^.5                                                 4 % e ^ - - f + > n : r f + y u v b                       ",
"  % $ o 6 6 ^ H.=.Q 2                                                 % $ o 6 8 8 + > , D ^ 6 + > y u v b                       ",
"k & * O + + l.A.N.q w                                             4 % 3 5 ; : + + + + C * ^ , <.6.t.#.q w                       ",
"# f = O + l =..X9X2 3                                             % & & e $ ; O O O O f 6 , m 0Xc.qXXX2 3                       ",
"@ n - O + y u v b                                                 . X X . . X o o o o O + @ @ y u v b                           "
};
