/* XPM */
static const char *player_down[] = {
/* columns rows colors chars-per-pixel */
"64 64 197 2 ",
"   c #203E65",
".  c #234266",
"X  c #29476C",
"o  c #27496E",
"O  c #2B4A6D",
"+  c #25456B",
"@  c #304E6E",
"#  c #2C4E72",
"$  c #304F75",
"%  c #2D5075",
"&  c #335376",
"*  c #3C5575",
"=  c #345579",
"-  c #395678",
";  c #36597B",
":  c #395C7C",
">  c #3C627E",
",  c #445C7B",
"<  c #405773",
"1  c #5C5F7A",
"2  c #4C607C",
"3  c #3D5F80",
"4  c #3E6280",
"5  c #416582",
"6  c #456A85",
"7  c #4A6684",
"8  c #546485",
"9  c #5B6585",
"0  c #5D6985",
"q  c #556C8B",
"w  c #5B6D8A",
"e  c #566982",
"r  c #4C738A",
"t  c #5C728D",
"y  c #626E8B",
"u  c #6A6E88",
"i  c #63728D",
"p  c #6A748F",
"a  c #656F90",
"s  c #647D97",
"d  c #6B7B96",
"f  c #647591",
"g  c #767F97",
"h  c #76708A",
"j  c #847A91",
"k  c #8B7A94",
"l  c #5F889B",
"z  c #74859C",
"x  c #7A899F",
"c  c #60899A",
"v  c #7B8EA3",
"b  c #778CA3",
"n  c #7D92A7",
"m  c #85839A",
"M  c #8D849B",
"N  c #8B899E",
"B  c #958A9E",
"V  c #A58496",
"C  c #878BA1",
"Z  c #928DA1",
"A  c #8192A7",
"S  c #8595AA",
"D  c #8996AC",
"F  c #8598AC",
"G  c #9594A6",
"H  c #8D9CB1",
"J  c #959FB1",
"K  c #A39BA9",
"L  c #AC9DAC",
"P  c #A693A5",
"I  c #B098A8",
"U  c #8DA1B5",
"Y  c #9AA6B7",
"T  c #A2AEBC",
"R  c #BAA3B1",
"E  c #BFA8B4",
"W  c #ACB3BB",
"Q  c #B6B8BF",
"!  c #BBBCBF",
"~  c #CF97A3",
"^  c #D593A3",
"/  c #D995A6",
"(  c #D29AA5",
")  c #D59EA9",
"_  c #DC9BAA",
"`  c #DE97A8",
"'  c #E29DAD",
"]  c #EB9CAF",
"[  c #E79FB0",
"{  c #D6A3AD",
"}  c #DBA2AE",
"|  c #DDA5B1",
" . c #D7ABB3",
".. c #DDAAB4",
"X. c #DDAFB8",
"o. c #C7B0BC",
"O. c #DDB4BB",
"+. c #DFB9BF",
"@. c #D4B1BA",
"#. c #E1A0AF",
"$. c #E3A4B2",
"%. c #EAA4B5",
"&. c #E3AAB6",
"*. c #E4AEB9",
"=. c #EBABBA",
"-. c #E9A8B7",
";. c #F2A6B8",
":. c #F1AFBF",
">. c #E4B3BD",
",. c #EAB2BE",
"<. c #E0B8BF",
"1. c #F1B0BF",
"2. c #9FB7C1",
"3. c #A9B7C4",
"4. c #ACB8C5",
"5. c #A2BAC2",
"6. c #B5BAC3",
"7. c #BABCC0",
"8. c #DDBDC2",
"9. c #D3BDC6",
"0. c #E4B7C0",
"q. c #EAB6C1",
"w. c #E5BCC3",
"e. c #EBBBC5",
"r. c #ECBFC8",
"t. c #F3B5C3",
"y. c #FAB5C5",
"u. c #F2BBC6",
"i. c #F2BEC9",
"p. c #F9BDCB",
"a. c #F9B8C7",
"s. c #BDC1CA",
"d. c #BAC9D3",
"f. c #C1C5CE",
"g. c #CAC9CB",
"h. c #DFC5C7",
"j. c #C3CAD2",
"k. c #C8CED5",
"l. c #CED3D6",
"z. c #C6D9DF",
"x. c #C6D5DC",
"c. c #D2DADC",
"v. c #E6C1C6",
"b. c #E8C1C7",
"n. c #E5C5C9",
"m. c #ECC4CB",
"M. c #E6C9CC",
"N. c #EEC9CE",
"B. c #ECC9CE",
"V. c #F3C3CD",
"C. c #F9C2CE",
"Z. c #F0C8CF",
"A. c #FADECF",
"S. c #EDCDD1",
"D. c #E6CFD0",
"F. c #F6C7D0",
"G. c #F9C6D1",
"H. c #F3CCD2",
"J. c #F9CCD5",
"K. c #FBCED8",
"L. c #EED2D5",
"P. c #EFD6D8",
"I. c #F3D1D6",
"U. c #FBDFD0",
"Y. c #F5D4D9",
"T. c #FAD3DB",
"R. c #F4D9DC",
"E. c #F8DBDF",
"W. c #FCE0D1",
"Q. c #CCDEE4",
"!. c #C4DAE1",
"~. c #F8DCE0",
"^. c #CDE0E5",
"/. c #D2E3E6",
"(. c #DCE3E4",
"). c #D5E4E8",
"_. c #D9E6E9",
"`. c #DDE9EB",
"'. c #E3ECEC",
"]. c #EAEFED",
"[. c #E4E8E6",
"{. c #FDE3E7",
"}. c #FFE5EA",
"|. c #FDEAEC",
" X c #FCEFE6",
".X c #ECF1EE",
"XX c #FDF1E7",
"oX c #F2F4EE",
"OX c #FDF4EA",
"+X c #FFECF2",
"@X c #ECF3F1",
"#X c #F2F6F1",
"$X c #FFF1F2",
"%X c #FFF3F3",
"&X c #F6F8F2",
"*X c #FFFEF5",
"=X c #FEFEF8",
/* pixels */
"*X%X%X|.~.b.w.w.e.w.T.{.+X|.E.M.+.b.N.}.$X|.}.m.e.e.>.&.%.-.*.&.>...*.e.e.w.w.q.$.' ' -.] %.$.$.] ] ` ' -.=.=.e.w.S.|.$XI.m.V.p.",
"$X$X|.D.n.m.N.w.>.X.>.e.O.n.8.w.b.v.w.E.|.B.v.e.r.e.>.,.-.-.*.*...&.>.e.e.e.e.,.$.$.%.' ;.;.&.| ' ' _ $.:.:.&...w.m.{.$XE.w.q.q.",
"$XI.h.M.I.H.N.Z.e.*.,.>.O.w.w.V.r.m.w.n.M.h.v.e.e.q.>.,.-.-.$.&.&.-.,.,.,.,.q.q.&.} &.-.y.a.>.>.$.$.$.%.%.$.-.&.e.w.8.8.w.w.q.,.",
"v.n.M.M.H.H.H.H.V.*.>.q.X.0.i.i.i.m.m.n.n.n.m.e.m.e.e.*.:.-.*.=.-.%.&.-.-.-.&.,.,.e.>.u.^ a.m.e.,.$.$.-.-.$.$.$.&.e.v.+.<.e.,.$.",
"e.b.n.S.I.Y.I.H.Z.e.*.) i.e.,.p.V.V.N.m.M.n.v.m.m.w.e.{ #._ *.&.%.%.$.%.%.$.' -.u.q.i.u./ / V.N.,.&.&.=.-.%.[ [ -.,.q.>.>.<.*.| ",
"e.m.m.N.m.N.S.S.H.>.>.( V.e.u.q.V.m.N.b.v.M.N.m.V.m.V...$._ q.>.-.%.-.$.$.%.$.$.&.e.r.e.^ _ V.w.e.q.q.,.$.' %.%.' =.e.e.<.>.*.=.",
"V.m.m.H.N.N.M.I.I.m.0.{ e.V.e.e.V.r.V.H.m.b.b.e.V.V.F.r.-.$.V.i.u.q.>.&.$.$.%.&.e.q.w.q.` / u.e.r.e.>.&.-.%.%.%.-.,.q.q.e.e.,.$.",
"V.V.N.N.m.N.B.S.S.N.m. .H.H.V.r.i.V.m.b.m.v.w.m.N.N.m.V.} $.G.F.V.e.e.e.*.$.&.&.r.w.e.e./ ` e.e.e.<.*.&.$.$.-.t.t.t.e.e.q.q.,.,.",
"i.m.N.N.F.F.H.Y.H.H.J. .I.I.H.m.V.V.V.N.N.w.m.m.b.b.w.r.| | J.F.I.S.N.m.r.i.e.e.e.r.<.V._ _ e.<.e.,.*.$.} &.u.>.r.r.e.e.e.q.q.q.",
"V.V.V.V.V.V.F.T.J.V.V.>.Y.S.N.v.>.e.e.m.m.w.m.m.N.v.b.V.| $.V.H.I.S.H.V.V.V.e.e.e.q.w.w.( u.i.i.e.,.&.| | >.V.r.m.b.e.e.e.e.q.q.",
"G.G.V.V.V.V.G.K.T.&.*...T.I.n.+.O.0.w.b.m.w.F.F.N.m.N.F...q.F.H.H.H.J.G.G.V.m.V.q.i.i.i._ C.V.i.i.e.>.&.&.q.V.N.N.m.b.e.e.e.e.e.",
"{ { { { } { { ..&.{ ) >.T.m.b.+.>.0.>.w.w.w.V.F.H.N.N.b...| X. . . ...$.| | | | $.{ } { / p.V.V.e.e.q.e.e.m.N.M.S.M.b.e.e.e.e.w.",
"| | { { { { { ....*.=.>.H.b.w.m.e.e.>.>.0.w.V.F.H.S.S.I.G.| .. .....| | &.&....._ $.| $._ _ F.b.m.V.V.V.V.H.N.M.M.M.b.e.e.e.e.w.",
"J.J.F.F.V.V.V.F.V.K.&...F.b.m.e.V.V.w.w.w.b.F.F.H.S.M.N & & & & $ & # $ & & & & & 9 u.G._ a.m.S.I.H.H.F.m.H.M.M.M.m.m.e.e.e.e.w.",
"F.H.I.I.H.H.N.N.H.J.X...F.V.e.r.e.m.e.m.b.m.F.N.N.S.S.Z : : : : : : : : : : : : ; 0 V.i._ _ H.L.L.S.H.Z.w.H.S.M.N.m.m.r.e.e.w.w.",
"H.I.I.S.H.N.S.I.I.T. .>.T.H.V.e.e.N.m.H.S.S.# : : : : U _.=X=X=X=X=X=X=X=X=X=X=X=Xj.: : : ; i L.S.M.H.N.+.N.m.m.m.m.i.i.e.e.w.w.",
"H.H.N.N.m.N.H.I.Y.Y.*.>.T.I.N.b.m.m.S.G N N 8 q q q q Y /.*X=X=X=X=X=X=X=X=X=X=X=Xl.q q q q f m L m.w.w.<.w.H.b.b.m.e.i.e.e.q.e.",
"H.S.N.b.b.m.H.H.I.Y.*.*.K.Y.H.m.N.N.M.= : ; /.^.^.'.=X=X=X=X=X=X=X=X=X=X=X=X=X*X=X=X=X*X*X.Xd.; p e.e.w.b.N.b.b.m.m.r.m.e.e.q.e.",
"H.N.m.b.b.b.N.S.I.T.*.*.H.H.H.b.8.w 0 A v S '.`.`.#X=X=X=X=X=X=X*X=X=X=X=X=X=X*X=X=X=X=X=X&X[.d.v * * < w.N.N.N.b.b.e.e.w.w.w.w.",
"N.N.m.b.b.b.b.m.S.H.&.*.F.H.Z.b.@.: ; ).'.=X=X=X=X=X=X=X=X=X=X=X=X=X=X=X=X=X*X=X=X=X=X=X=X=XoX/.S : ; & q.V.V.V.V.i.e.e.e.e.e.e.",
"N.m.b.b.m.m.m.b.N.H.&.O & & & & - [.(.&X&X=X=X=X=X=X=X=X=X=X=X=X=X=X=X=X=X=X=X=X=X=X*X=X*X*X*X&X].[.!._.& * * 1 ' $.$._ _ _ -.y.",
"N.m.b.e.m.m.m.V.N.V.&.& : : : : : =X=X=X=X=X=X=X=X=X=X=X=X=X=X=X=X=X=X=X=X=X=X=X=X=X=X=X=X*X=X=X=X*X/.`.: : : 9 ' ' _ _ ' _ _ _ ",
"N.m.b.e.e.u o o o X X _.).&X&X*X=X=X=X=X=X=X=X=X=X=X=X=X=X=X=X=X=X=X=X=X=X=X*X=X=X=X=X=X=X=X=X=X=X=X=X=X=X=X=XQ o o # o   i.i.i.",
"N.m.m.@.B z z b b v v @X.X=X=X*X=X`.`.=X=X=X=X=X=X=X*X*X=X=X=X=X*X*X*X=X=X=X*X*X=X=X=X=X=X=X=X=X=X=X=X=X=X=X=X[.6.6.W W Q m M O.",
"b.b.m.R : J .XoX(.*X*X=X=X=X*X*X=XQ.^.=X=X=X=X=X=X=X=X=X=X=X=X=X=X=X=X*X=X=X=X=X=X=X=X=X*X=X=X=X=X=X=X=X=X=X=X=X=X=X=X*X*X; & b.",
"w.v.* p =X=X=X=X=X=X=X=X=X=X*X=X*X=X=X=X=X=X=X&XO @ =X=X=X=X=X=X=X=X=X=X=X=X=X=X=X=X=X> > 5 =X=X=X=X=X=X!.).=X=X=X=X=X=X=X: & v.",
"w.v.: t *X*X=X=X*X=X=X=X=X*X=X=X*X.X&X*X=X=X*X*X: > *X=X=X=X=X=X=X=X=X=X=X=X=X=X=X=X*Xr r r *X=X*X=X=X=X^._.=X=X=X=X=X=X=X: & n.",
"v.e.: t *X=X=X=X=X=X=X=X=X=X=X=X=X: = *X=X=X@ 5 > 2 6 n =X*X*X=X=X=X=X=X=X=X=X=X=X=Xr r r r 6 > =X=X=X=X> x =X=X=X=X=X=X=X; & n.",
"e.e.: i *X*X*X*X=X=X=X=X*X*X*X=X=X= & *X=X=XO > 5 5 6 v =X=X=X=X=X=X=X=X=X=X=X=X=X=Xr r r r r : =X=X=X=X: x =X=X=X=X=X=X=X: = b.",
"e.e.: i *X*X*X=X=X=X=X=X=X.X`.`.`.: & *X=X=X@ 4 5 5 6 v =X=X=X=X=X=X=X=X=X#X`.=X=X=Xr r r r r > =X=X=X=X: z '.&X=X=X=X=X=X: & m.",
"m.V.- w =X=X=X=X=X=X=X=X=X'._._._.o . =X=X=XO : 2 6 : z =X*X=X=X=X=X=X=X=X#X'.=X=X=X4 r r 4 6 = =X=X=X=X: v '.&X=X=X=X=X=X% - V.",
"m.V.m.R : F ^.^./.^.^.^.^.F : : : =X=X=X=X=X=X=X: : =X=X=X=X*X: + =X=X=X=XW : =X=X=X=Xr r [.[.[.=X=X=X=X: : : W /./._.; = I.N.b.",
"N.H.m.E # z 4.4.4.3.3.3.3.v ; ; : =X=XXX XXXXXOXz x =X=X=X=X=Xd w s.s.s.s.Y d =X=X=X=Xv v .X.X].XXXX=X=X: : = J 4.4.6.7 : I.I.S.",
"b.N.m.m.r.M ; : ; ; ; : : G m.H.: =X=XW.A.U.U.W.=X=X=X=X=X=X=X*X=X: : : : t =X=X=X=X=X=X=X*X=XOXW.W.=X=X: i S.g : : & Y.Y.R.Y.P.",
"e.w.w.v.r.P 0 0 y 0 0 0 y K H.H.p d d OXXXXXOXOX=X=X=X=X=X=X=X=X=X! 7.! ! g.=X=X=X=X=X=X=X=X=X*XOXOXg x i C S.Z y w 0 I.I.Y.E.R.",
"e.e.e.e.r.V.V.i.e.X.*.>.H.H.v.I.I.; : =X=X=X=X=X=X=X=X=X=X=X=X=X=X=X=X=X=X=X=X=X=X=X=X=X=X=X=X=X=X=X: , I.I.I.S.S.M.M.S.I.I.Y.Y.",
"u.i.i.>.| } | $.&.{ &.i.e.e.e.V.H.o.R , , 2 =X=X=X=X=X=X=X=X=X=X=X=X=X*X=X=X=X=X=X=X=X=X&XoXoX(.e w 9.9.S.I.S.S.N.m.H.I.I.I.I.I.",
"{ { ....| &.&.&.| &.$.C.e.w.i.e.v.w.+.& : : s.s.s.j.`.'.'.'.&X].'.'.'.'.].]..X.Xc.j.j.c.c.l.l.j.; # N.N.M.S.S.N.N.N.H.I.I.I.I.I.",
"i.e.m.V.G.J.G.G.r. .*.J.J.H.w.w.w.w.w.w.N.: : : : t z.z.Q.Q.&X/.^.^.^.^.^.Q.Q.^.s : > c c r r r i m.N.M.M.M.N.N.H.N.Z.H.H.H.H.H.",
"i.<.w.v.e.w.e.H.H. .>.F.H.S.H.w.w.<.<.M j D S D D Y ).(.'.'.&X'.'.'.'.'.'.'.'.`.T H H 5.5.6 6 5 i N.S.S.M.M.N.S.H.N.H.H.H.N.N.m.",
"V.N.v.8.w.w.v.H.I.H.O.H.S.S.S.N.m.q.q.% = =X=X=X=X=X=X=X=X=X*X=X*X*X=X=X=X=X*X=X=X=X=X=X*X6 4 > i S.S.S.S.I.S.H.H.H.Z.Z.N.b.v.w.",
"N.N.M.n.v.m.S.S.S.H.X.H.L.S.M.H.F.I # #X=X=X=X=X*X=X*X=X=X=X=X=X=X*X*X=X=X=X=X=X=X=X=X=X*Xz.z.z.A & L.L.I.I.I.I.H.N.N.Z.N.b.w.w.",
"F.Z.S.S.m.H.Y.S.Y.Y.O.H.I.M.m.N.N.L : [.=X=X=X=X=X*X=X=X=X=X=X=X=X=X=X=X=X=X*X=X=X=X=X=X*X^.Q.(.S : Y.Y.Y.Y.Y.I.H.N.N.N.N.b.w.w.",
"H.H.I.I.H.I.Y.I.S.H.>.H.H.m.m.N.N.P : [.=X=X=X=X/./.=X=X=X=X=X*X=X=X=X=X=X=X=X=X=X=X=XoX`.Q.Q.(.S : Y.Y.Y.Y.Y.Y.I.S.N.N.N.m.b.b.",
"H.N.M.L.S.I.I.L.Y.H. .N.v.b.N.N.H.L : (.*X^.^.!.: = =X=X=X*X*X=X=X=X=X=X=X=X=X*X=X=X=X*X`.4 : ).S : E.R.R.R.Y.I.H.H.H.H.H.N.m.m.",
"m.m.n.M.H.H.S.I.M.N.O.F.w.b.F.F.F.P : (.&X)._.(.X . =X=X=X=X*X*X=X=X=X=X=X=X=X=X=X=X=X=XoX4 & ).S : R.Y.P.P.L.I.S.H.H.H.H.H.N.m.",
"r.e.v.m.N.N.N.H.H.V.{ i.i.V.e.&.*.} _ = : ; : : =X=X=X=X=X=X=X=X=X=X=X=X=X=X=X=X=X=X=X=X=X4 & Q.S : Y.P.P.L.L.L.S.H.I.H.I.I.H.M.",
"u.r.m.m.m.V.V.m.V.G.{ &.{ { ..&.&.$._ # : : w t =X*X=X=X=X=X=X=X=X=X=X=X=X=X=X=X=X=X=X=X=X4 = x.n : Y.Y.L.L.S.L.S.I.I.S.H.I.I.N.",
"u.u.r.V.V.i.m.V.C.V.| | b.H.H.J.I.e.F.F.V.: =X=X=X=X=X=X=X=X=X=X=X=X=X=X=X=X=X=X=X=X=X=X*X5 : : C P.L.S.S.H.S.S.L.I.L.S.I.I.H.N.",
"e.e.r.m.m.e.v.b.i.V.&.q.N.S.H.H.Y.N.H.H.e.: =X=XQ.^.=X=X=X=X=X=X=X=X=X=X=X=X=X=X=X=X*X].).4 : p K Y.Y.H.H.J.H.H.H.I.E.Y.N.N.F.i.",
"v.v.b.m.m.v.v.b.V.V...i.N.I.I.H.H.H.N.m.e.: =X=X^./.=X=X=X=X=X=X=X=X=X=X=X=X=X=X=X=X=X].(.> ; H.J.G.i.*.| $.| { { ..V.K.C.C.G.y.",
"v.v.b.m.m.b.n.m.V.C.{ V.m.S.H.N.N.H.Z.m.w.: =X=X=X=X=X=X*X: : : : : : : : : : `.(.=X*X=X*X: ; O. ...&.| $.$.$.{ } | ..| { } _ _ ",
"b.b.m.m.m.m.M.N.m.V.{ V.m.M.m.Z.N.w.m.w. .0 j.k.=X=X=X(.j.: ; 9 8 8 8 8 9 : : &X&X=X#Xk.k.a 8 M.S.N.m.m.V.V.V.V.F.Y.H.H.V.e.| ) ",
"V.V.V.V.V.V.N.N.V.V.} V.m.n.b.N.m.>.w.O.>.w.# ; =X=X=XS : : ; e.m.r.V.V.r.& : =X=X=X).: : G.E.S.n.v.b.N.V.V.V.H.Y.I.H.N.N.m.m.r.",
"u.i.i.C.C.V.V.V.C.u.| i.b.b.w.e.e.X.<.>.V.b.7 0 f.f.f.C 8 8 8 r.v.w.m.e.b.8 w f.f.f.4.w 8 K.I.I.S.N.m.N.V.V.V.Z.H.I.I.H.N.m.V.V.",
"/ / _ _ _ { } } { _ _ i.v.v.v.e.e.X.V.J.F.v.Y.N.: : : h V.V.V.V.m.m.V.i.V.V.,.& : : : *.$.| T.I.H.N.m.b.m.V.V.N.H.H.H.H.N.m.m.m.",
"_ / / _ _ _ { { _ _ _ i.e.v.e.r.e.V.V.F.V.N.I.H.G Z k V |  .| | | #.$.$.#.$.-.k j k k -._ ,.T.I.H.S.b.v.b.N.N.N.N.N.N.N.m.b.b.m.",
":.t.u.C.G.C.V.G.p._ ' i.V.w.r.i.V.r.<.>.+.w.H.Y.I.F.} -.i.>.>.| $.-.$.$.$.-.-.-.=.&.{ &._ K.J.I.N.N.m.m.m.N.m.b.m.b.b.b.b.w.w.e.",
"e.r.r.V.V.G.V.V.i._ _ _ V.m.i.V.G.V.V.>.<.w.Y.H.n.T.$.$.C.C.C.V.F.V.,.e.V.m.V.G.F.F.r.e.$.V.H.N.b.m.N.N.m.m.m.m.e.e.e.e.e.w.w.e.",
"w.b.m.F.e.V.V.V.i.^ ^ _ V.V.V.V.V.F.F.w.w.w.Y.I.N.m.-.$.&.*.*.>.V.w.>.<.v.m.m.H.S.S.Y.F.{ V.m.N.r.m.m.m.m.m.m.m.e.e.e.e.e.e.e.w.",
"v.m.m.H.N.N.m.F.i.( ^ $.i.V.i.V.e.J.e.H.Z.N.+.N.v.V.a._ { >.*.>.<.*.q.>.+.N.N.b.S.M.I.H.( V.w.v.b.m.m.m.b.m.m.m.e.e.e.e.e.e.w.w.",
"v.m.m.v.b.b.v.V.C.~ _ C.X.b.V.X.O.O.+.N.H.H.T.H.Y.O.-.^ { &.,.&.,.*.e.q.>.N.N.N.M.S.M.H.{ i.b.b.r.m.m.m.m.b.m.e.e.e.e.w.w.e.w.w.",
"e.e.N.e.e.>.e.V.i.{ ^ G.m.N.m.m.O.N.+.Z.H.I.w.w.H.F.C._ *.&.=.=.=.&.=.,.>.w.N.H.M.S.H.F._ p.>.r.e.r.m.m.b.b.e.e.e.e.e.e.e.e.e.w.",
"+Xe.w.m.V.>.V.V.C.C._ p.F.N.+.w.N.b.m.N.N.v.H.v.H.F.G./ t.,.*.&.-.=.&.,.>.>.N.N.S.m.F.q.p.a.u.,.e.r.m.m.b.w.e.e.e.e.e.e.e.e.e.e."
};
