/* XPM */
static const char *player_left[] = {
/* columns rows colors chars-per-pixel */
"64 64 201 2 ",
"   c #18345D",
".  c #25456B",
"X  c #29466B",
"o  c #2B4A6E",
"O  c #284566",
"+  c #39506F",
"@  c #2D4D72",
"#  c #354E71",
"$  c #2F5075",
"%  c #2F5478",
"&  c #345276",
"*  c #385274",
"=  c #34567A",
"-  c #375A7B",
";  c #395B7C",
":  c #3E607F",
">  c #465D7B",
",  c #52637C",
"<  c #3A5B80",
"1  c #3E6381",
"2  c #406381",
"3  c #496383",
"4  c #476C87",
"5  c #566A85",
"6  c #596C84",
"7  c #566A8A",
"8  c #5B6D8A",
"9  c #4E728A",
"0  c #5F738E",
"q  c #5A7291",
"w  c #626E8A",
"e  c #6F6883",
"r  c #726E87",
"t  c #62748E",
"y  c #6C708A",
"u  c #78748D",
"i  c #627591",
"p  c #667A93",
"a  c #6A7E97",
"s  c #687792",
"d  c #7C7B95",
"f  c #757791",
"g  c #82768E",
"h  c #827E97",
"j  c #877A94",
"k  c #907C98",
"l  c #6D859C",
"z  c #68879C",
"x  c #77839A",
"c  c #7E8DA3",
"v  c #6A93A4",
"b  c #7997AA",
"n  c #84829A",
"m  c #8B829A",
"M  c #8D849B",
"N  c #91869D",
"B  c #918B9E",
"V  c #AE899D",
"C  c #828DA2",
"Z  c #8D8CA1",
"A  c #958DA2",
"S  c #8390A5",
"D  c #8496AC",
"F  c #8A99AE",
"G  c #8997A9",
"H  c #9695A8",
"J  c #899DB1",
"K  c #919EB1",
"L  c #B28CA0",
"P  c #B59BAB",
"I  c #BA9AAA",
"U  c #B391A4",
"Y  c #A79CAC",
"T  c #9AA1AE",
"R  c #BEA3AC",
"E  c #AEA7B6",
"W  c #A6ABB6",
"Q  c #BCA5B5",
"!  c #A7B1BB",
"~  c #ACB1BC",
"^  c #CD99A6",
"/  c #D594A3",
"(  c #D995A6",
")  c #D29AA5",
"_  c #D59EA9",
"`  c #DC9BAA",
"'  c #DE97A8",
"]  c #C29DB1",
"[  c #E29EAE",
"{  c #EB9CAF",
"}  c #E79FB0",
"|  c #C7A1AD",
" . c #D5A3AD",
".. c #DBA2AE",
"X. c #C3A4B2",
"o. c #D3A3B1",
"O. c #DDA5B1",
"+. c #D5ABB4",
"@. c #DDAAB4",
"#. c #D4ADBA",
"$. c #DCAFB9",
"%. c #CEB6BE",
"&. c #DDB4BB",
"*. c #DCB4BB",
"=. c #E1A0AF",
"-. c #E4A4B2",
";. c #E9A4B5",
":. c #E3AAB6",
">. c #E5ADB9",
",. c #EBABBA",
"<. c #E9A8B7",
"1. c #F2A6B8",
"2. c #F1AFBF",
"3. c #E4B3BD",
"4. c #EAB2BE",
"5. c #E0B8BF",
"6. c #F1B0BF",
"7. c #A2B9C4",
"8. c #ACBAC6",
"9. c #B5BEC9",
"0. c #D5B7C1",
"q. c #D5BBC3",
"w. c #DCBCC3",
"e. c #DCBCC8",
"r. c #E5B7C0",
"t. c #EAB6C1",
"y. c #E5BCC3",
"u. c #EBBBC5",
"i. c #ECBFC8",
"p. c #F3B5C3",
"a. c #FAB5C5",
"s. c #F2BBC6",
"d. c #F2BEC9",
"f. c #F9BDCB",
"g. c #F9B8C7",
"h. c #BAC3CE",
"j. c #B8CAD4",
"k. c #B3CDD6",
"l. c #DFC5C7",
"z. c #CBD5DA",
"x. c #D1D5D9",
"c. c #C5CAD2",
"v. c #E6C1C6",
"b. c #E8C1C7",
"n. c #E5C5C9",
"m. c #ECC4CB",
"M. c #E6C9CC",
"N. c #EEC9CE",
"B. c #ECC9CE",
"V. c #F3C3CD",
"C. c #F9C2CE",
"Z. c #F0C8CF",
"A. c #FBD9C6",
"S. c #FADCCD",
"D. c #F9D5C4",
"F. c #EDCDD1",
"G. c #E6CFD0",
"H. c #F6C7D0",
"J. c #F9C6D1",
"K. c #F3CCD2",
"L. c #F9CBD5",
"P. c #FBCED8",
"I. c #EED2D5",
"U. c #EFD6D9",
"Y. c #F3D1D6",
"T. c #F5D4D9",
"R. c #F9D2D9",
"E. c #F4D9DC",
"W. c #F8DBDF",
"Q. c #FAE3D5",
"!. c #FBE6D9",
"~. c #FBE9DD",
"^. c #C5DBE2",
"/. c #CBDFE4",
"(. c #D8DDE1",
"). c #F8DCE0",
"_. c #CDE0E5",
"`. c #D2E3E6",
"'. c #DFE4E4",
"]. c #D5E5E9",
"[. c #D9E6E9",
"{. c #DDEAEC",
"}. c #E3EDED",
"|. c #E9EFED",
" X c #FDE3E7",
".X c #FFE5EA",
"XX c #FDEAEC",
"oX c #FBECE2",
"OX c #EDF2ED",
"+X c #FCF5EB",
"@X c #F1F5EE",
"#X c #E5EFF1",
"$X c #FFECF2",
"%X c #EFF4F1",
"&X c #E4F0F1",
"*X c #F1F6F1",
"=X c #FFF1F2",
"-X c #FFF3F3",
";X c #F6F9F1",
":X c #FFFEF5",
">X c #FEFEF8",
/* pixels */
":X-X-XXX).b.y.y.u.y.R. X$XXXW.M.*.b.N..X=XXX.Xm.u.u.3.:.;.<.>.:.3.@.>.u.u.y.y.t.-.[ [ <.{ ;.-.-.{ { ' [ <.,.,.u.y.F.XX=XY.m.V.f.",
"=X=XXXG.n.m.N.y.5.$.3.u.*.n.w.y.b.v.y.W.XXB.v.u.i.u.3.4.<.<.>.>.@.:.3.u.u.u.u.4.-.-.;.[ 1.1.:.O.[ [ ` -.2.2.:.@.y.m. X=XE.y.t.t.",
"=XY.l.M.Y.K.N.Z.u.>.4.3.&.r.y.V.i.m.y.n.M.l.v.u.u.t.3.4.<.<.-.:.:.<.4.4.4.4.t.t.:...:.<.a.g.3.>.-.-.-.<.;.-.<.:.u.y.w.w.y.y.t.4.",
"v.n.M.M.K.K.K.K.V.>.3.t.@.r.d.d.d.m.m.n.n.n.m.u.m.u.u.>.2.<.>.,.<.;.:.<.<.<.:.4.4.u.3.s./ g.i.u.4.-.-.<.<.-.-.-.:.u.v.&.5.u.4.-.",
"u.b.n.F.Y.R.Y.K.Z.u.>._ d.u.4.f.V.V.N.m.M.n.v.m.m.y.u. .=.` >.:.;.;.-.;.;.-.[ <.s.t.d.s./ ( V.N.4.:.:.,.<.;.} } ;.4.t.5.5.5.>.O.",
"u.m.m.N.m.N.F.F.K.5.3.) V.#.&.#.w.0.q.0.%.q.q.0.w.0.w.| _ ^ $.+.o.o.o.-.-.;.-.-.:.u.i.u./ ` V.y.u.t.t.4.-.[ ;.;.[ ,.u.u.5.3.>.,.",
"V.m.m.K.N.N.M.Y.Y.m.r. .u.; - - ; - - - ; - ; - - - - - - - - - - - - :.-.-.;.:.u.t.y.t.[ ( s.u.i.u.3.:.<.;.;.;.<.4.t.t.u.u.4.-.",
"V.V.N.N.m.N.B.F.F.N.m.R q.5 6 7 8 8 7 7 7 7 7 7 7 7 7 7 7 7 7 7 7 8 7 R I I I | i.y.u.u.( ' u.u.u.5.>.:.-.-.<.p.p.p.u.u.t.t.t.4.",
"d.m.N.N.H.H.K.R.K.K.L.= = :X:X:X:X:X:X:X:X:X:X:X:X:X:X:X:X:X:X:X:X:X:Xo - - ; h u.i.5.V.` ` u.5.u.4.>.-...:.s.3.i.i.u.u.u.t.t.t.",
"V.V.V.V.V.V.H.R.L.V.V.- = :X:X:X:X:X:X:X:X:X:X:X:X:X:X:X:X:X:X:X:X:X:X@ ; - ; h u.t.y.y.) s.d.d.u.4.:.O.O.3.V.i.m.b.u.u.u.u.t.t.",
"J.J.V.V.V.V.J.P.e.; - z.^.:X:X:X:X:X:X:X:X:X:X:X:X:X:X:X:X:X:X:X:X:X:X:X:X^./.D ; N d.s._ C.V.d.d.u.3.:.:.t.V.N.N.B.b.u.u.u.u.u.",
" . . . ... . .@.P @ @ j.^.:X:X:X:X:X:X:X:X:X:X:X:X:X:X:X:X:X:X:X:X:X:X:X:X^./.D & g  . ./ f.V.H.u.u.t.u.u.m.N.M.F.M.b.u.u.u.u.y.",
"O.O. . . . . .; q _._.:X:X:X:X:X:X:X:X:X:X:X:X:X:X:X:X:X:X:X:X:X:X:X:X:X:X:X:X:X:XF - - ` ` H.b.m.V.V.V.V.K.N.M.M.M.b.u.u.u.u.y.",
"L.L.H.H.V.V.V.; q _._.:X:X:X:X:X:X:X:X:X:X:X:X:X:X:X:X:X:X:X:X:X:X:X:X:X:X:X:X:X:XK ; - ` g.m.F.Y.Y.K.H.m.K.M.M.M.m.m.u.u.u.u.y.",
"H.K.Y.Y.K.K.M.; i *X*X:X:X:X:X:X:X:X:X:X:X:X:X:X:X:X:X:X:X:X:X:X:X:X:X:X:X:X:X:X:XK ; - ` ` K.I.I.F.K.Z.y.K.F.M.N.m.m.i.u.u.y.y.",
"K.Y.Y.F.K.N.F.; p :X:X:X:X:X:X:X:X:X:X:X:X:X:X:X:X:X:X:X:X:X:X:X:X:X:X:X:X:X:X:X:XK ; ; `  .F.I.F.M.K.N.*.N.B.m.m.m.d.s.u.u.y.y.",
"K.K.N.N.m.N.K.- p :X:X:X:X:X:X:X:X:X:X:X:X:X:X:X:X:X:X:X:X:X:X|.}.:X:X:X:X:X:X:X:Xc.F D r e w.F.N.m.y.y.5.r.K.b.b.m.u.d.u.u.t.u.",
"K.F.N.b.b.m.F.- p :X:X:X:X:X:X:X:X:X:X:X:X:X:X:X:X:X:X:X:X:X:Xk.k.:X:X:X:X:X:X:X:X:X:X;X- @ %.K.u.u.u.y.b.N.b.b.m.m.i.m.u.u.t.u.",
"K.N.m.b.X.H Y 8 S :X:X:X:X:X:X:X:X:X:X:X:X:X:X:X:X:X:X:X:X:X:XJ z :X:X:X:X:X:X:X:X:X;X;X8 7 A B N u.5.u.y.N.N.N.b.b.u.u.y.y.y.y.",
"N.N.m.b.n - o :X:X:X:X:X:X:X:X:X:X:X:X:X:X:X:X:X:X:X:X:X:X:X:Xl 1 :X:X:X:X:X:X:X:X:X:X:X;X*X. - ; t.3.d.t.V.V.V.V.d.u.u.u.u.u.u.",
"N.m.b.b.n - o :X:X:X:X:X:X:X:X:X:X:X:X:X:X:X:X:X:X:X:X:X:X:X:Xl 1 ;X:X:X:X:X:X:X:X:X:X:X@XOX  ; ; :.-.,.4.f.-...[ -.-.` ` ` <.a.",
"N.m.b.u.n - o :X:X:X:X:X:X:X:XX ; ; ; >X:X:X:X:X:X:X:X:X:X:X:Xl 1 _.`.:X:X:X:X:X:X:X:X:X:X:X:X- - = ; ; ; j [ -.[ [ ` ` [ ` ` ` ",
"N.m.b.u.h - o :X:X:X:X:X:X:X:X. ; ; ; >X:X:X:X:X:X:X:X:X:X:X:Xp % {.{.:X:X:X:X:X:X:X:X:X:X:X:X& * * * # # u ] L V U X.#.J.d.d.s.",
"N.m.m.b.d ; o :X:X:X:X:X:X:X:X. ; ; ; >X:X:X:X:X:X:X:X:X:X:X:X:X:X; = ;X:X:X:X:X:X:X:X:X:X:X:X:X:X:X:X:X:XG = ; - - = w H.i.y.&.",
"b.b.m.u.d = o :X:X:X:X:X:X:X:XX ; ; ; >X:X:X:X:X:X:X:X:X:X:X:X:X:X; - ;X:X:X:X:X:X:X:X:X:X:X:X:X:X:X:X:X:XG ; ; - = = w Y.N.m.b.",
"y.v.P X W :X:X:X:X:X:X:X:X:X:XX ; ; ; :X:X:X:X:X:X:X:X:X:X:X:X:X:X; ; ;X:X:X:X:X:X:X:X:X:X:X:X:X:X:X:X:X:X:X:X:X:X:X;XC @ B N.v.",
"y.v.P ; ~ :X:X:X:X:X:X:X:X:X:XX ; ; ; >X:X:X:X:X:X:X:X:X:X:X:X:X:X; ; ;X:X:X:X:X:X:X:X:X:X:X:X:X:X:X:X:X:X:X:X:X:X:X:XC ; Z F.n.",
"v.u.P - ~ :X:X:X:X:X:X:X:X:X:X>X>X>X>X:X:XQ.A.A.A.A.~.:X:X:X:X:X:X&X}.+ O `./.{.:X:X:X:X:X:X:X:X:X:X:X:X:X:X:X:X:X:X:XC = Z I.n.",
"u.u.P ; ~ :X:X:X:X:X:X:X:X:X:X:X:X:X:X:X:XQ.S.S.S.S.~.:X:X:X:X:X:X].].; ; [.`.}.:X:X:X:X:X:X:X:X:X:X:X:X:X:X:X:X:X:X:XS = Z K.b.",
"u.u.P - ~ :X:X:X:X}.}.T T :X:X:X:X:X:XoXoXQ.S.S.S.S.Q.~.:X:X:X:X:X`.`.D D T K 9.}.;X:X:X:X:X:X:X:X:X:X:X:X:X:X:X:X:X:XS - Z K.m.",
"m.V.P ; ~ :X:X:X:X`._.; o :X:X:X:X:X:XS.S.S.S.S.S.S.S.D.:X:X:X:X:X`.`./._.= - c `.%X:X:X:X:X:X:X:X:X:X:X:X:X:X:X:X:X:XS - Z H.V.",
"m.V.*.N u 5 , ].`.`._.8.7.:X:X:X:X:X:X+X+XQ.S.S.Q.+X+X+X:X:X:X:X:X*X%X/.`.= - > 6 j.`.`.`.`._.:X:X:X:X:X:X:X:X[.`.`.`.c - Z N.b.",
"N.K.m.b.d = o `.`._._._./.:X:X:X:X:X:X:X:X!.S.S.!.:X:X:X:X:X:X:X:X:X:X_.`.= - - ; 8.`.`._._._.:X:X:X:X:X:X:X:X[._._._.c ; Z Y.F.",
"b.N.m.m.y & . }.}.}.}.[./.:X:X:X:X:X:X:X:X!.S.S.~.:X:X:X:X:X:X:X:X:X:X}.}.$ @ & @ h.}.}.}.{.}.:X:X:X:X:X:X:X:X#X}.}.}.D & Z T.I.",
"u.y.y.v.i.u.y.= - = ; /._._._.:X:X:X:X:X:X:X:X:X:X:X:X:X:X:X:X[.`.; = = ; ..O.<.O.& ; ; = = = [./._.`._._._./.p = = = x Y.T.E.E.",
"u.u.u.u.i.V.V.- - - ; _._.`.`.:X:X:X:X:X:X:X:X:X:X:X:X:X:X:X:X{.`.; ; ; = :.O...-.@ ; - ; = ; `._.`.`._._._._.a ; = = x Y.Y.T.T.",
"s.d.s.3.O...O.-.:. .:.; ; ; ; ; ; b v 7._./._._./._._._._./._.; ; ; ; &.4.i.t.s.C.4.d.,.[ [ u.& ; ; - ; ; ; ; w N.B.K.Y.Y.Y.Y.Y.",
" . .@.@.O.:.:.:.O.:.-.< - - = ; ; v v 7._././././._._._././._.; 2 1 : $.i.u.t.V.C.V.u.s.` -.m.= = ; ; = = - - 8 N.N.K.Y.Y.Y.Y.Y.",
"s.u.m.V.J.L.J.J.i.@.>.L.L.K.r.= : :X:X:X:X:X:X:X:X:X:X:X:X:X:X:X:X;X;XO - u.t.V.V.0 - - = - f B.m.B.N.M.M.M.N.N.K.N.Z.K.K.K.K.K.",
"d.5.y.v.u.y.u.K.K.$.3.H.K.F.K.= : :X:X:X:X:X:X:X:X:X:X:X:X:X:X:X:X;X;XO - &.V.V.i.t - - - = f N.N.N.F.F.M.M.N.F.K.N.K.K.K.N.N.B.",
"V.N.v.w.y.y.v.K.Y.K.*.K.F.F.F.; 1 ].`.;X:X:X;X;X;X:X:X:X:X:X:X:X:X:X:X[.[.@ $ $ @ (.;X>X:X;X7 & > F.F.F.F.Y.F.K.K.K.Z.Z.N.b.v.y.",
"N.N.M.n.v.m.F.F.F.K.$.K.I.F.M.; ; [.`.:X:X:X:X:X:X:X:X:X:X:X:X:X:X:X:X/.`.& ; ; ; x.:X:X:X;X3 ; 3 K.I.I.Y.Y.Y.Y.K.N.N.Z.N.b.y.y.",
"H.Z.F.F.B.K.T.F.R.R.&.K.K.; ; :X:X:X:X:X:Xl 4 9 :X:X:X:X:X:X:X:X:X:X:X:X:X^./.b - x.:X:X:X|.|._.! ; - U.T.T.T.Y.K.N.N.N.N.b.y.y.",
"K.K.Y.Y.K.Y.T.Y.F.K.&.K.F.; = :X:X:X:X:X:Xz 4 9 :X:X:X:X:X:X:X:X:X:X:X:X:X/./.b - x.:X:X:XOXOX`.! - - T.T.T.T.T.Y.F.N.N.N.m.b.b.",
"K.N.M.I.F.Y.Y.I.T.K.+.N.v.- ; :X:XOXOX, t '.'.'.:X:X:X:X:X:X:X:X:X:X:X:X:X_._.D ; x.:X:X:X;X;X`.~ - - E.E.E.T.Y.K.K.K.K.K.N.m.m.",
"m.m.n.M.K.K.F.Y.M.N.&.H.y.; = :X:XOX@Xo 4 :X:X:X:X:X:X:X:X:X:X:X:X:X:X:X:X/._.D - x.:X:X:X:X:X`.8.; = U.U.I.I.Y.F.K.K.K.K.K.N.m.",
"i.u.v.m.N.N.N.K.K.V. .d.i.; ; x x l x C h.:X:X:X:X:X:X:X:X:X:X:X:X:X:X:X:X_._.D - j.].[.[.[.`.a p E E U.I.I.I.I.F.K.Y.K.Y.Y.K.M.",
"s.i.m.m.m.V.V.m.V.J. .:. .; ; ; ; 1 2 W :X:X:X:X:X:X:X:X:X:X:X:X:X:X:X:X:X_._.D - j./._._./.^.- ; T.T.T.I.I.F.F.F.Y.Y.F.K.Y.Y.N.",
"s.s.i.V.V.d.m.V.C.V.O.O.b.= = - = 1 1 W :X:X:X:X:X:X:X:X:X:X:X:X:X:X:X:X:X^./.D ; j.[.].`.`._.; ; U.I.F.F.K.F.F.I.Y.I.F.Y.Y.K.N.",
"u.u.i.m.m.u.v.b.d.V.:.; X :X:X:X:X:X:X:X:X:X:X:X:X:X:X:X:X:X:X:X:X/./.:X:X:X:XF ; = = = - J.H.N.F.R.R.K.K.L.K.K.K.Y.E.T.N.N.H.d.",
"v.v.b.m.m.v.v.b.V.V.@.; X :X:X:X:X:X:X:X:X:X:X:X:X:X:X:X:X:X:X:X:X^./.:X:X:X:XD - ; - ; ; O.H.K.L.J.d.>.O.-.O. . .@.V.P.C.C.J.a.",
"v.v.b.m.m.b.n.B.V.C. .; X :X:X:X:X}.|.> 8 6 6 6 6 5 6 6 6 6 6 6 8 :X:X:X:X:X:XD - a Z u u :.+.*.+.@.:.-.-.-.-. ...O.@.O. ...` ` ",
"b.b.m.m.m.m.M.N.m.V. .; X :X:X:X:X}.|.O ; ; ; - ; - - - - - - - = :X:X:X:X:X:XD ; Q K.+...P.w.M.F.N.m.m.V.V.V.V.H.R.K.K.V.u.O._ ",
"V.V.V.V.V.V.N.N.V.V...N N t t t i t 0 m m m m m m N k g g N M M A i t |.}.p s d N 0.R.3.O.J.E.F.n.n.b.N.V.V.V.K.R.Y.K.N.N.m.m.i.",
"s.d.d.C.C.V.V.V.C.s.O.d.b.- - ; ; ; - 5.V.b.y.y.N.m.-.-.s.V.u.i.v.- - }.}.= ; M m.V.V.J.:.P.Y.Y.F.N.B.N.V.V.V.Z.K.Y.Y.K.N.m.V.V.",
"( ( ` ` `  ..... .` ` f.b.; ; ; ; ; ; L.H.v.R.N.K.H.-.[ V.V.V.V.m.; ; %X}.= ; j O.@.@.>.-.O.R.Y.K.N.B.b.m.V.V.N.K.K.K.K.N.m.m.m.",
"` ( / ` ` `  . .` ` ` d.u.v.u.i.u.V.V.H.V.N.Y.K.Y.H.<./ O.O.O.O.O.=.-.; = -.<.;...:.>.<.` 4.R.Y.K.F.b.y.b.N.N.N.N.N.N.N.m.b.b.m.",
"2.p.s.C.J.C.V.J.f.` [ d.V.y.i.d.V.i.5.5.*.r.K.T.Y.H...<.d.3.3.O.-.<.-.o & <.<.<.,.:. .:.` P.L.Y.N.N.B.m.m.N.m.b.m.b.b.b.b.y.y.u.",
"u.i.i.V.V.J.V.V.d.` ` ` V.m.d.V.J.V.V.5.5.r.R.K.n.R.-.-.C.C.C.V.H.V.5.X.Q m.V.J.H.H.u.u.-.V.K.N.b.m.m.N.m.m.m.m.u.u.u.u.u.y.y.u.",
"r.b.m.H.u.V.V.V.d./ / ` V.V.V.V.V.H.H.y.y.y.R.Y.N.m.<.-.:.>.>.3.V.y.&.5.v.m.N.K.F.F.R.H. .V.m.N.i.m.m.m.m.m.m.m.u.u.u.u.u.u.u.y.",
"v.m.m.K.N.N.m.H.s.) / -.d.V.d.V.u.L.u.K.Z.N.*.N.v.V.g.`  .3.>.3.5.>.t.3.*.N.N.b.F.M.Y.K.) V.y.v.b.m.m.m.b.m.m.m.u.u.u.u.u.u.y.y.",
"v.B.m.v.b.b.v.V.C./ ` C.$.b.V.$.&.&.*.N.K.K.R.K.R.&.<./  .:.4.:.4.>.u.t.5.N.N.N.M.F.M.K. .d.b.b.i.m.m.m.m.b.m.u.u.u.u.y.y.u.y.y.",
"u.u.N.u.u.5.u.V.d. ./ J.m.N.m.m.&.N.*.Z.K.Y.y.y.K.H.C.` >.:.,.4.,.:.,.4.3.r.N.K.M.F.K.H.` f.3.i.u.i.m.m.b.b.u.u.u.u.u.u.u.u.u.y.",
"$Xu.y.m.V.3.V.V.C.C.` f.H.N.*.y.N.b.m.N.N.v.K.v.K.H.J./ p.4.>.:.<.,.:.4.3.5.N.N.F.B.H.t.f.g.s.5.u.i.m.m.b.y.u.u.u.u.u.u.u.u.u.u."
};
