/* XPM */
static const char *player_right[] = {
/* columns rows colors chars-per-pixel */
"64 64 199 2 ",
"   c #1E3B62",
".  c #234266",
"X  c #2C4B6E",
"o  c #294668",
"O  c #394B6F",
"+  c #2C4D72",
"@  c #2E5175",
"#  c #335376",
"$  c #395576",
"%  c #355579",
"&  c #3A5679",
"*  c #365A7B",
"=  c #395B7C",
"-  c #3D607F",
";  c #445D7D",
":  c #495D7D",
">  c #435975",
",  c #46607F",
"<  c #4C627F",
"1  c #3D5F80",
"2  c #3F6381",
"3  c #4F5F83",
"4  c #416582",
"5  c #4C6382",
"6  c #436984",
"7  c #496B87",
"8  c #486C88",
"9  c #506582",
"0  c #576B87",
"q  c #5C738C",
"w  c #54708B",
"e  c #5A7492",
"r  c #587B93",
"t  c #616987",
"y  c #636C8A",
"u  c #686D89",
"i  c #616786",
"p  c #736F8A",
"a  c #66738F",
"s  c #6E738D",
"d  c #71728E",
"f  c #78738D",
"g  c #6B7490",
"h  c #627B94",
"j  c #7D7D96",
"k  c #757B94",
"l  c #88758F",
"z  c #847F96",
"x  c #658299",
"c  c #76849A",
"v  c #78869C",
"b  c #7E8CA2",
"n  c #8A839A",
"m  c #86839A",
"M  c #938A9F",
"N  c #92849A",
"B  c #828DA3",
"V  c #978AA3",
"C  c #8492A6",
"Z  c #8B96A5",
"A  c #8493A9",
"S  c #8996A9",
"D  c #8A9AAC",
"F  c #9B98A8",
"G  c #959FB2",
"H  c #AC9AAA",
"J  c #BC9DAC",
"K  c #8EA3B0",
"L  c #95A2B4",
"P  c #9AA4B4",
"I  c #9AADBB",
"U  c #9DB2BE",
"Y  c #A3ACB8",
"T  c #A4B1BE",
"R  c #AAB0BD",
"E  c #CF97A3",
"W  c #D594A3",
"Q  c #D995A6",
"!  c #D19BA6",
"~  c #D49EA9",
"^  c #DC9BAA",
"/  c #DE97A8",
"(  c #E29DAD",
")  c #EB9CAF",
"_  c #E79FB0",
"`  c #D6A3AD",
"'  c #DBA2AE",
"]  c #DDA5B1",
"[  c #D7ADB4",
"{  c #DDAAB4",
"}  c #DDAFB8",
"|  c #D3A8B5",
" . c #DDB4BB",
".. c #DFB9BF",
"X. c #D8B1B9",
"o. c #C4AAB7",
"O. c #E1A0AF",
"+. c #E4A4B2",
"@. c #EAA5B5",
"#. c #E3AAB6",
"$. c #E4ADB9",
"%. c #EAABBA",
"&. c #E9A8B7",
"*. c #F2A6B8",
"=. c #F1AFBF",
"-. c #E4B3BD",
";. c #EAB2BE",
":. c #E0B8BF",
">. c #F1B0BF",
",. c #9AB0C0",
"<. c #ABB6C3",
"1. c #ACB9C6",
"2. c #A9BBC7",
"3. c #BDBFC8",
"4. c #B5BCC6",
"5. c #DDBCC3",
"6. c #E5B7C0",
"7. c #EAB6C1",
"8. c #E5BBC3",
"9. c #EBBCC5",
"0. c #ECBFC8",
"q. c #F3B5C3",
"w. c #FAB5C5",
"e. c #F2BBC6",
"r. c #F2BEC9",
"t. c #F9BDCB",
"y. c #AFC0CC",
"u. c #B2C5CF",
"i. c #BDC1CA",
"p. c #BCCBD3",
"a. c #B5CAD4",
"s. c #BCD3DD",
"d. c #C1C6CF",
"f. c #C6C9CE",
"g. c #DFC5C7",
"h. c #DCC4CA",
"j. c #D6C2C7",
"k. c #C3C8D0",
"l. c #C3C7D0",
"z. c #CDD4DA",
"x. c #C6D4DA",
"c. c #D3D8DC",
"v. c #E6C1C6",
"b. c #E8C1C7",
"n. c #E6C5C9",
"m. c #ECC4CB",
"M. c #E6C9CC",
"N. c #EEC9CE",
"B. c #ECC9CE",
"V. c #F3C3CD",
"C. c #F9C2CE",
"Z. c #F0C8CF",
"A. c #FAD9C7",
"S. c #FADDCD",
"D. c #EECED2",
"F. c #EDCDD1",
"G. c #E6CFD0",
"H. c #F5C7D0",
"J. c #F9C6D1",
"K. c #F3CCD2",
"L. c #F9CCD5",
"P. c #FBCED8",
"I. c #EED1D4",
"U. c #F3D1D6",
"Y. c #F6D4D9",
"T. c #FAD3DB",
"R. c #F5D9DC",
"E. c #F8DBDF",
"W. c #CBDEE4",
"Q. c #C6DBE1",
"!. c #D1DFE5",
"~. c #F8DCE0",
"^. c #CEE1E5",
"/. c #D2E2E6",
"(. c #DFE3E3",
"). c #D4E4E8",
"_. c #DDE9EB",
"`. c #D8E7EB",
"'. c #E1E5E5",
"]. c #E2ECEC",
"[. c #E9EDEB",
"{. c #E5E9E7",
"}. c #FDE3E7",
"|. c #FFE5EA",
" X c #FDEAEC",
".X c #ECF1EE",
"XX c #E7F0EF",
"oX c #FDF2E7",
"OX c #FCF3E9",
"+X c #F3F4EE",
"@X c #E5EFF0",
"#X c #FFECF2",
"$X c #EEF3F1",
"%X c #F2F6F2",
"&X c #FFF1F2",
"*X c #FFF3F3",
"=X c #F6F8F1",
"-X c #FFFEF5",
";X c #FEFEF8",
/* pixels */
";X*X*X X~.b.8.8.9.8.T.}.#X XE.M...b.N.|.&X X|.m.9.9.-.#.@.&.$.$.-.{ $.9.9.8.8.7.+.( ( &.) @.+.+.) ) / ( &.%.%.9.8.D. X&XU.m.V.t.",
"&X&X XG.n.m.N.8.-.} -.9. .n.5.8.b.v.8.E. XB.v.9.0.9.-.;.&.&.$.$.{ #.-.9.9.9.9.;.+.+.@.( *.*.#.] ( ( ^ +.=.=.#.{ 8.m.}.&XR.8.7.7.",
"&XU.g.M.U.K.N.Z.9.$.;.-. .8.8.V.0.m.8.n.M.g.v.9.9.7.-.;.&.&.+.#.#.&.;.;.;.;.7.7.#.' #.+.w.w.-.-.+.+.+.@.@.+.+.#.9.8.5.5.8.8.7.;.",
"v.n.M.M.K.K.K.K.V.$.-.7.} 6.r.r.r.m.m.n.n.n.m.9.m.9.9.$.=.&.$.%.&.@.#.&.&.+.#.;.;.9.-.e.W t.m.9.;.+.+.&.&.+.+.+.#.9.v...:.9.;.+.",
"9.b.n.D.U.Y.U.K.Z.9.$.~ r.9.;.t.V.V.N.m.M.n.v.m.m.8.9.` O.^ $.#.@.@.+.@.@.+.( +.e.7.r.e.Q Q V.N.;.#.#.%.&.@._ +.+.;.7.-.-.:.$.] ",
"9.m.m.N.m.N.D.D.K.-.-.! V.9.e.7.V.m.N.b.v.M.N.m.V.m.V.#.+.^ 7.-.&.@.+.+.+.@.+.+.#.9.0.e.W ^ V.8.9.7.7.;.+.( @.@.( %.9.9.:.-.$.%.",
"V.m.m.K.N.N.M.U.U.m.6.` 9.V.9.9.V.0.V.K.m.n.b.9.V.V.H.0.+.+.V.r.e.7.-.#.+.+.@.#.9.7.8.7./ Q e.9.0.9.-.#.+.@.@.@.&.;.7.7.9.9.;.+.",
"V.V.N.N.m.N.B.D.D.N.m.[ K.K.V.0.r.V.m.b.m.v.8.m.N.N.m.V.' +.J.H.V.9.9.9.$.+.#.$.0.8.9.9.Q ^ 9.9.9.:.$.#.+.+.&.q.q.q.9.9.7.7.;.;.",
"r.m.N.N.H.H.K.Y.K.K.L.[ U.U.K.m.V.V.V.N.N.8.m.m.b.b.8.0.] ] L.H.U.= = = = = = = = = = = = = % J 9.;.$.+.' #.e.-.0.0.9.9.9.7.7.7.",
"V.V.V.V.V.V.H.T.L.V.V.-.Y.D.N.v.-.9.9.m.m.8.m.m.N.v.b.V.] N n m B c c c c v c v v c c c c c k k j j f f p -.V.0.m.b.9.9.9.9.7.7.",
"J.J.V.V.V.V.J.P.T.$.$.{ T.U.n... .6.8.b.m.8.H.H.N.m.N.H.{ y = = * W.^.-X-X-X-X-X-X-X-X-X-X-X-X, = = = = $ 7.V.N.N.m.b.9.9.9.9.9.",
"` ` ` ` ' ` ` { #.` ~ -.T.m.b...-.6.-.8.8.8.V.H.K.M k g u P R 3.3.XX$X-X-X-X-X-X-X-X-X-X-X-X-Xf.3.3.3.i.3.y k M.F.M.b.9.9.9.9.8.",
"] ] ` ` ` ` ` { { $.%.-.K.b.8.m.9.9.-.-.6.8.V.H.K.q = * @ 1./.-X-X-X-X-X-X-X-X-X-X-X-X-X-X-X-X-X-X-X-X-X;X* 5 M.M.M.b.9.9.9.9.8.",
"L.L.H.H.V.V.V.H.V.P.$.{ H.b.m.9.V.V.8.8.8.b.H.M & p._.;X;X;X-X-X-X-X-X-X-X-X-X-X-X-X-X-X-X-X-X-X-X-X-X-X;X_.u.# % m.m.9.9.9.9.8.",
"H.K.U.U.K.K.N.N.K.L.} { H.V.9.0.9.m.9.m.b.m.H.V = a.^.-X-X-X-X-X-X-X-X-X-X-X-X-X-X-X-X-X-X-X-X-X-X-X-X-X-X^.2.= = m.m.0.9.9.8.8.",
"K.U.U.D.K.N.D.U.U.T.[ -.T.K.V.9.9.N.m.K.F.h.= S W.=X-X-X-X-X-X-X-X-X-X-X-X-X-X-X-X-X-X-X-X-X-X-X-X-X-X-X-X-X-X-X;X* % r.9.9.8.8.",
"K.K.N.N.m.N.K.U.Y.Y.$.-.Y.U.N.b.m.m.F.D.F.h.= S ^.%X-X-X-X-X-X-X-X-X-X-X-X-X-X-X-X-X-X-X-X-X-X-X-X-X-X-X-X-X-X-X;X* * r.9.9.7.9.",
"K.F.N.b.b.m.K.U.U.Y.$.$.U.Y.K.m.N.N.M.M.M.j.= A ).%X-X-X-X-X-X-X-X-X-X-X-X-X-X-X-X-X-X-X-X-X-X-X-X-X-X-X-X-X-X-X-X= * m.9.9.7.9.",
"K.N.m.b.b.b.N.F.U.T.$.$.K.K.K.b.b.b.N.N.M.h.= S -X-X-X-X-X-X-X-X-X-X-X-X-X-X-X-X-X-X-X-X-X-X-X-X-X-X-X-X-X-X-X-X-X= * 9.8.8.8.8.",
"N.N.m.b.b.b.b.m.D.K.#.$.H.K.Z.H + + + + +   -X-X-X-X-X-X-X-X-X)./.-X-X-X-X-X-X-X-X-X-X-X-X-X-X-X-X-X-X-X-X-X-X-X-X= = # X 9.9.9.",
"N.m.b.b.m.m.m.b.N.K.#.%.V.m.m.H * = = = = . -X-X-X-X-X-X-X-X-X^.^.-X-X-X-X-X-X-X-X-X-X-X-X-X-X-X-X-X-X-X-X-X-X-X-X_.@X= @ ^ &.w.",
"N.m.b.9.> $ $ $ $ $ $ $ = & & 0 d.k.k.l.k.d.-X-X-X-X-X-X-X-X-X^.W.-X-X-X-X-X-X-X-X-X-X-X-Xb q q q -X-X-X-X-X-X-X-X%XXX= @ ^ ^ ^ ",
"N.m.b.9.; * * * * * * * * * * 0 -X-X-X-X-X-X-X-X-X-X-X-X-X-X-X^.Q.-X-X-X-X-X-X-X-X-X-X-X-Xq 2 2 2 -X-X-X-X-X-X-X-X-X;X= % r.r.r.",
"N.m.n + [.'.'.'.'.(.(.(.'.'.'.(.-X-X-X-X-X-X-X-X-X-X-X-X-X^.^.X . -X-X-X-X-X-X-X-X-X-X-X-Xq 2 4 4 # @ -X-X-X-X-X-X-X;X= # 0.8. .",
"b.b.z * ;X-X-X-X-X-X-X-X-X-X-X-X-X-X-X-X-X-X-X-X-X-X-X-X-X/./.= # -X-X-X-X-X-X-X-X-X-X-X-Xe 4 4 6 6 4 -X-X-X-X-X-X-X;X1 % N.m.b.",
"v.v.m = ;X-X-X-X-X-X-X-X-X-X-X-X-X-X-X-X-X-X-X-X-X-X-X^.).e = ^./.-X-X-X-X-X-X-X-X-X-X-X-Xh 4 4 6 6 2 -X-X-X-X-X-X-X-X/.].* = v.",
"v.v.n * ;X-X-X-X-X-X-X-X-X-X-X-X-X-X-X-X-X-X-X-X-X-X-X^.).e = /.).-X-X-X-X-X-X-X-X-X-X-X-Xh 4 6 6 6 2 -X-X-X-X-X-X-X-X).].= = n.",
"v.9.z = ;X-X-X-X-X-X-X-X-X-X-X-X-X-X-X-X-X-X-X-X-X$X$XT <.h 5 /.).-X-X-X-X-XoXoXOXOXOXoX-Xx 4 6 6 8 7 -X-X-X-X-X-X-X-XXX%X= = n.",
"9.9.n = ;X-X-X-X-X-X-X-X-X-X-X-X-X-X-X-X-X-X-X-X-X/./.= = R ).-X-X-X-X-X-X-XA.S.S.S.S.A.-X/.`.x 8 K ).-X-X-X-X-X-X-X-X-X-X= & b.",
"9.9.z = $X].].].-X-X-X-X-X-X-X-X-X-X-X-X-X-X-X%X].G C S S z.XX-X-X-X-X-X-X-XA.S.S.S.S.A.-X].].T L i.%X-X;XZ Y -X-X-X-XZ Z = & m.",
"m.V.n = @X/././.-X-X-X-X-X-X-X-X-X-X-X-X-X-X-X[./.9 = ]._.%X-X-X-X-X-X-X-X;XS.S.S.S.S.A.-X-X-X-X-X-X-X-X;X= e -X-X-X-X= = = = V.",
"m.V.5.o.9 < W.W.-X-X-X-X-X-X-X-X-X-X/.^./././.T : p._./.^.^.W.-X-X-X-X-X-X-X-XOXS.S.S.A.-X-X-X-X-X-X-X-X-X]._.^.^./._.= @ h.5.b.",
"N.K.m.b.# * ^.^.-X-X-X-X-X-X-X-X-X-X^././././.L = y./.^.^./.^.-X-X-X-X-X-X-X-XOXS.S.S.A.-X-X-X-X-X-X-X-X-X/././././.`.= @ U.U.F.",
"b.N.m.m.9.9.+ + + + W.W.W.W.W.^.^.W.W.`.  # @ z 0.3 % % % % # ^.^.-X-X-X-X-X-X-X-X-X-X-X-X-X-X-X-X-X-X-X=XW.<.# # @ @ Y.Y.R.Y.I.",
"9.8.8.v.0.9.= = = = ).^.W.W.W.W.W.W.W.`.. = = j m.9 = = = = * )./.-X-X-X-X-X-X-X-X-X-X-X-X-X-X-X-X-X-X-X=XW.<.= = = = I.U.Y.R.R.",
"9.9.9.9.0.V.y y y t b B B B B B B B b D u g g F N.d g y i t y A D I U ).).)./..X+X_._._._._._._._.Y A A C b c g a a a D.U.U.Y.Y.",
"e.r.r.-.] ' ] +.#.` @ = = = = = = = = ; N.D.K.n.v.K.P.$.` -.{ = = r r s.s.s.a.[.+X/.W.^.^.^.^.^./.e = = = = 5 D.N.m.K.U.U.U.U.U.",
"` ` { { ] #.#.#.] #.l V N N M n M n n z m.v.K.K.M.K.L.+.` V.0.= 4 U 2.!./.).)..X=X].].].].].].].].I A = % F F N.N.N.K.U.U.U.U.U.",
"r.9.m.V.J.L.J.J.0.] $.L.L.K.8.8.8.8.8.8.N.n.K.U.U.K.V.#.{ C.;.= 4 -X-X-X-X-X-X-X-X-X-X-X-X-X-X-X-X).^.= # M.N.N.K.N.Z.K.K.K.K.K.",
"r.:.8.v.9.8.9.K.K.[ -.H.K.D.K.8.8.8.:.9.X.N.N.K.K.Z.J.+.] ; X ;X-X-X-X-X-X-X-X-X-X-X-X-X-X-X-X-X-X`.^.= # M.N.F.K.N.K.K.K.N.N.m.",
"V.N.v.5.8.8.v.K.U.K.X.K.D.F.F.N.m.7.7.-.V.9.m.m.H.V.C.O.#.5 = -X-X-X-X-X-X-X-X-X-X-X-X-X-X-X-X-X-X_.).1 # U.D.K.K.K.Z.Z.N.b.v.8.",
"N.N.M.n.v.m.D.D.D.K.X.K.I.F.M.K.H.V.9.-.m.0.m.; = = % /._.w = -X-X^.^.-X-X-X-Xi.= G -X-X-X-X-X-X-X-X-X^._.= 5 U.K.N.N.Z.N.b.8.8.",
"H.Z.D.D.m.K.Y.D.Y.Y. .K.U.M.m.N.N.V.0.9.m.m.8.$ o o X u.p.w = -X-XW.W.-X-X-X-Xi.= L -X-X-X-X-X-X-X-X-X)._.= ; U.K.N.N.N.N.b.8.8.",
"K.K.U.U.K.U.Y.U.D.K. .K.K.m.m.N.N.8.:.0.-.s = XX{.W.).6 2 2 = -X-X6 8 -X-X-X-Xi.= L -X-X-X-X-X-X-X-X-X-X;X* , Y.U.F.N.N.N.m.b.b.",
"K.N.M.I.D.U.U.I.Y.K.[ N.v.n.N.N.K.Z.-.-.8.s = $X{.W.).6 2 - = -X-X6 8 -X-X-X-Xi.= L -X-X-X-X-X-X-X-X-X-X-X* 5 U.K.K.K.K.K.N.m.m.",
"m.m.n.M.K.K.D.U.M.N. .H.8.b.H.H.H.9.$.%.$.d = $X[.Q.^.a.,.= = [.-Xu.p.q q q q : c.{.-X-X-X-X-X-X-X-X-X-X-X= , U.D.K.K.K.K.K.N.m.",
"0.9.v.m.N.N.N.K.K.V.` r.r.V.9.#.$.' ^ ( ( p = %X[.W.W.W.2.* 2 =X-XW.).= = = = X -X-X-X-X-X-X-X-X-X-X-X-X-X= 5 I.D.K.U.K.U.U.K.M.",
"e.0.m.m.m.V.V.m.V.J.` #.` ` { #.$.+.^ ^ +.^ ^ O X /./.^.).%X$X-X-X-X-X-X-X-X-X-X-X-X-X-X-X-X-X).W.W.W.# # ^.R D.D.U.U.D.K.U.U.N.",
"e.e.0.V.V.r.m.V.C.V.] ] b.K.K.L.U.9.H.H.V.r.e.: = _.).)./..X[.-X-X-X-X-X-X-X-X-X-X-X-X-X-X-X-X)./.).).= = x.1.D.I.U.I.F.U.U.K.N.",
"9.9.0.m.m.0.v.b.r.V.$.7.N.D.K.K.Y.N.K.K.9.9.V. .X.# % * : ;X-X-X-X-X-X-X-X-X-X-X-X-X-X].W.W.).w % % * /.).% 5 K.K.U.R.Y.N.N.H.r.",
"v.v.b.m.b.v.v.b.V.V.{ r.N.U.U.K.K.K.N.m.9.8.8.8.6.# = = ; ;X-X-X-X-X-X-X-X-X-X-X-X-X-X].W.^.).q * = = W.).* : ` ` { V.P.C.C.J.w.",
"v.v.n.m.b.b.n.m.V.C.` V.m.D.K.N.N.K.Z.m.8.9.8.8.8.5.` = ; =X-X/.^.W./.= = * * * * * = = * = * 1.W.W.Q.[.].* : ` ' ] { ] ` ' ^ ^ ",
"b.b.m.m.m.m.M.N.m.V.` V.m.M.m.Z.N.8.m.8.[ -.8.-.8.9.+.= ; [.=X/.^././.% = = = = = = = = = = % 1.^.W.W.{.XX= < V.H.Y.K.K.V.9.] ~ ",
"V.V.V.V.V.V.N.N.V.V.' V.m.n.b.N.m.-.8. .-.8.6.8.8.m.;.# & z.z.a.a.a.p.$ % % % % % % % % & * * P u.u.u.p.x.= 0 K.Y.U.K.N.N.m.m.0.",
"e.r.r.C.C.V.V.V.C.e.] r.b.n.8.9.9.} :.-.V.b.8.8.N.m.+.+.| @ = = = = = 9.b.m.0.9.m.V.V.J.#.# = = = = = = # V.V.Z.K.U.U.K.N.m.V.V.",
"Q Q ^ ^ ^ ` ' ' ` ^ ^ r.v.v.v.9.9.} V.L.H.v.Y.N.K.H.+.(  .+ & & # # # r.V.V.;.-.] ] { $.+.+ # # # # # # # V.V.N.K.K.K.K.N.m.m.m.",
"^ Q Q ^ ^ ^ ` ` ^ ^ ^ r.9.v.9.0.9.V.V.H.V.N.U.K.U.H.&.Q ] ] ] ] ] O.+.+.O.+.+.@.' #.$.+.( ;.T.U.K.F.m.v.b.N.N.N.N.N.N.N.m.b.b.m.",
"=.q.e.C.J.C.V.J.t.^ ( r.V.8.0.r.V.0.:.-...8.K.Y.U.H.' +.r.-.-.] +.+.+.+.+.+.&.+.%.#.` #.^ P.L.U.N.N.m.m.m.N.m.b.m.b.b.b.b.8.8.9.",
"9.0.0.V.V.J.V.V.r.^ ^ ^ V.m.r.V.J.V.V.-.:.8.Y.K.n.T.+.+.C.C.C.V.H.V.;.9.V.m.V.J.H.H.0.9.+.V.K.N.b.m.N.N.m.m.m.m.9.9.9.9.9.8.8.9.",
"8.b.m.H.9.V.V.V.r.W W ^ V.V.V.V.V.H.H.8.8.8.Y.U.N.m.&.+.#.$.$.-.V.8.-.:.v.m.N.K.F.F.Y.H.` V.m.N.0.m.m.m.m.m.m.m.9.9.9.9.9.9.9.8.",
"v.m.m.K.N.N.m.H.r.! W +.r.V.r.V.9.L.9.K.Z.N...N.v.V.t.^ ` -.$.-.:.$.7.-...N.N.n.D.M.U.K.! V.8.v.b.m.m.m.b.m.m.m.9.9.9.9.9.9.8.8.",
"v.m.m.v.b.b.v.V.C.E ^ C.} b.V.}  . ...N.K.K.T.K.Y. .+.W ` $.;.#.;.$.9.7.-.N.N.N.M.D.M.K.` r.b.n.0.m.m.m.m.b.m.9.9.9.9.8.8.9.8.8.",
"9.9.N.9.9.-.9.V.r.` W J.m.N.m.m. .N...Z.K.U.8.8.K.H.C.^ $.#.%.%.;.#.%.;.-.8.N.K.N.D.K.H.^ t.-.0.9.0.m.m.b.b.9.9.9.9.9.9.9.9.9.8.",
"#X9.8.m.V.-.V.V.C.C.^ t.H.N...8.N.b.m.N.N.v.K.v.K.H.J.Q q.;.$.#.+.%.#.;.-.-.N.N.K.N.H.7.t.w.e.:.9.m.m.m.9.8.9.9.9.9.9.9.9.9.9.9."
};
