/* XPM */
static char *player[] = {
/* columns rows colors chars-per-pixel */
"64 64 142 2 ",
"   c #B6936D",
".  c #BE996A",
"X  c #BC9B73",
"o  c #BB9F7C",
"O  c #BBA17C",
"+  c #C49F71",
"@  c #C6A373",
"#  c #CAA676",
"$  c #C9A875",
"%  c #C3A67B",
"&  c #CDAC7B",
"*  c #D0AF7E",
"=  c #D3B37F",
"-  c #50BFEA",
";  c #57C3EA",
":  c #5DC2E9",
">  c #66C6E9",
",  c #BDA583",
"<  c #B4B0A7",
"1  c #BAB3A3",
"2  c #BBB6AA",
"3  c #BDB8AA",
"4  c #B7B7B3",
"5  c #B9B9B1",
"6  c #B8BCB9",
"7  c #C1A684",
"8  c #C5AA85",
"9  c #CAAE84",
"0  c #C1A788",
"q  c #C3AC8C",
"w  c #C8AE8F",
"e  c #CFB182",
"r  c #CCB28E",
"t  c #D4B483",
"y  c #D9B783",
"u  c #D7B885",
"i  c #D9BA86",
"p  c #DCBD8A",
"a  c #C4AE92",
"s  c #C8AF92",
"d  c #C5B194",
"f  c #CAB395",
"g  c #C5B399",
"h  c #CAB69B",
"j  c #CDB99D",
"k  c #D1BC9F",
"l  c #E0BF8C",
"z  c #C3B7A3",
"x  c #C5B9A4",
"c  c #CEBCA3",
"v  c #C2BCAD",
"b  c #CEBFA9",
"n  c #D1BDA3",
"m  c #D1BFA8",
"M  c #C3BDB1",
"N  c #BBC0BF",
"B  c #E2C38E",
"V  c #E3C592",
"C  c #E7C994",
"Z  c #E9CB95",
"A  c #ECCF98",
"S  c #EED29B",
"D  c #F0D29C",
"F  c #CDC1AB",
"G  c #D2C1A5",
"H  c #D2C3AC",
"J  c #C4C3B4",
"K  c #C9C2B1",
"L  c #C5C4BE",
"P  c #CBC7B8",
"I  c #D3C6B2",
"U  c #D6C9B3",
"Y  c #D8CAB4",
"T  c #D1C9BA",
"R  c #D9CDBA",
"E  c #DAD0B1",
"W  c #D6D1BE",
"Q  c #DCD1BD",
"!  c #E0D4BD",
"~  c #B3C1C6",
"^  c #BBC1C1",
"/  c #B6C5CB",
"(  c #B9C5CC",
")  c #BEC8CC",
"_  c #B6C7D1",
"`  c #BBC7D4",
"'  c #B7CCD7",
"]  c #BBCCD4",
"[  c #B7CEDD",
"{  c #B9CCDA",
"}  c #83CDE6",
"|  c #92D6ED",
" . c #A1DAEC",
".. c #BDD3E3",
"X. c #B7D6EC",
"o. c #BAD5E9",
"O. c #B5D8EC",
"+. c #C8CBC1",
"@. c #D2CEC2",
"#. c #CED2CA",
"$. c #D6D3C3",
"%. c #DCD4C4",
"&. c #DCD8C7",
"*. c #D7D5C9",
"=. c #DBD6CA",
"-. c #DED9CA",
";. c #E0D6C5",
":. c #E1D8C6",
">. c #E3DBCC",
",. c #E4DFD2",
"<. c #E6E1D4",
"1. c #E9E3D5",
"2. c #EBE6DB",
"3. c #ECE9DD",
"4. c #F7DCE5",
"5. c #F8DAE4",
"6. c #CCEAEF",
"7. c #C0E6F4",
"8. c #C2E8F4",
"9. c #CDECF3",
"0. c #D3EEF6",
"q. c #DBF2F8",
"w. c #EEECE3",
"e. c #F0EEE5",
"r. c #F7E5EB",
"t. c #F7EBEF",
"y. c #F8ECEF",
"u. c #F2F0E6",
"i. c #F4F3EC",
"p. c #F7EFF1",
"a. c #E3F5F5",
"s. c #E2F5F8",
"d. c #EDF7F8",
"f. c #EDF8FA",
"g. c #F6F7F1",
"h. c #F9F4F4",
"j. c #F7F8F2",
"k. c #F9FAF6",
"l. c #FAF7F8",
"z. c #F1F9FA",
"x. c #FDFEFD",
"c. c None",
/* pixels */
"c.c.c.c.c.c.c.c.c.c.c.c.c.c.c.c.c.c.c.c.c.c.c.c.c.c.c.c.c.c.c.c.c.c.c.c.c.c.c.c.c.c.c.c.c.c.c.c.c.c.c.c.c.c.c.c.c.c.c.c.c.c.c.c.",
"c.c.c.c.c.c.c.c.c.c.c.c.c.c.c.c.c.c.c.c.c.c.c.c.c.c.c.c.c.c.c.c.c.c.c.c.c.c.c.c.c.c.c.c.c.c.c.c.c.c.c.c.c.c.c.c.c.c.c.c.c.c.c.c.",
"c.c.c.c.c.c.c.c.c.c.c.c.c.c.c.c.c.c.c.c.c.c.c.c.c.c.c.c.c.c.c.c.c.c.c.c.c.c.c.c.c.c.c.c.c.c.c.c.c.c.c.c.c.c.c.c.c.c.c.c.c.c.c.c.",
"c.c.c.c.c.c.c.c.c.c.c.c.c.c.c.c.c.c.c.c.c.c.c.c.c.c.c.c.c.c.c.c.c.c.c.c.c.c.c.c.c.c.c.c.c.c.c.c.c.c.c.c.c.c.c.c.c.c.c.c.c.c.c.c.",
"c.c.c.c.c.c.c.c.c.c.c.c.c.c.c.c.c.c.c.c.c.c.q & y t 9 h c.c.c.c.c.c.c.c.c.c.c.c.c.c.c.c.c.c.c.c.c.c.c.c.c.c.c.c.c.c.c.c.c.c.c.c.",
"c.c.c.c.c.c.c.c.c.c.c.c.c.c.c.c.c.c.c.c.f t Z D S S C * 7 c.c.c.c.c.h c.c.c.c.c.c.c.c.c.c.c.c.c.c.c.c.c.c.c.c.c.c.c.c.c.c.c.c.c.",
"c.c.c.c.c.c.c.c.c.c.c.c.c.c.c.c.c.r V * p S S D S V & * @ % c.c.c.t Z 8 c.c.c.c.c.c.c.c.c.c.c.c.c.c.c.c.c.c.c.c.c.c.c.c.c.c.c.c.",
"c.c.c.c.c.c.c.c.c.c.c.c.c.c.c.c.c.e V = S D D D S p t l t t q e e $ p @ e c.c.c.c.c.c.c.c.c.c.c.c.c.c.c.c.c.c.c.c.c.c.c.c.c.c.c.",
"c.c.c.c.c.c.c.c.c.c.c.c.c.c.c.c.c.q & C S D D D S C & @ B & = V S C . A Z c.c.c.c.c.c.c.c.c.c.c.c.c.c.c.c.c.c.c.c.c.c.c.c.c.c.c.",
"c.c.c.c.c.c.c.c.c.c.c.c.c.c.c.c.c.c.$ S D D D D S S B p t y p p D S @ C V c.c.c.c.c.c.c.c.c.c.c.c.c.c.c.c.c.c.c.c.c.c.c.c.c.c.c.",
"c.c.c.c.c.c.c.c.c.c.c.c.c.c.c.c.c.c.t S D D D D D D A = t S l u D S p 8 c.c.c.c.c.c.c.c.c.c.c.c.c.c.c.c.c.c.c.c.c.c.c.c.c.c.c.c.",
"c.c.c.c.c.c.c.c.c.c.c.c.c.c.c.c.c.c.l V S D D D S C i Z S S p = S D t c.c.c.c.c.c.c.c.c.c.c.c.c.c.c.c.c.c.c.c.c.c.c.c.c.c.c.c.c.",
"c.c.c.c.c.c.c.c.c.c.c.c.c.c.c.c.c.c.& @ C = t S A t . B S C @ t V p k c.c.c.c.c.c.c.c.c.c.c.c.c.c.c.c.c.c.c.c.c.c.c.c.c.c.c.c.c.",
"c.c.c.c.c.c.c.c.c.c.c.c.c.c.c.c.c.c.% l A = & S S C p A C @ B B @ 8 c.c.c.c.c.c.c.c.c.c.c.c.c.c.c.c.c.c.c.c.c.c.c.c.c.c.c.c.c.c.",
"c.c.c.c.c.c.c.c.c.c.c.c.c.c.c.c.c.c.c.u Z * $ V S S S A $ B p r H s c.c.c.c.c.c.c.c.c.c.c.c.c.c.c.c.c.c.c.c.c.c.c.c.c.c.c.c.c.c.",
"c.c.c.c.c.c.c.c.c.c.c.c.c.c.c.c.c.c.c.X & i i i i u & % f 8 j 3.g.j 0 h d q c.c.c.c.c.c.c.c.c.c.c.c.c.c.c.c.c.c.c.c.c.c.c.c.c.c.",
"c.c.c.c.c.c.c.c.c.c.c.c.c.c.c.c.c.c.j i.w.-.%.%.>.<.w.k.x.x.x.x.k.u.x.x.x.e.n c.c.c.c.c.c.c.c.c.c.c.c.c.c.c.c.c.c.c.c.c.c.c.c.c.",
"c.c.c.c.c.c.c.c.c.c.c.c.c.c.c.c.c.j i.x.x.x.x.x.x.x.x.x.x.x.x.x.x.x.x.x.x.x.u.c c.c.c.c.c.c.c.c.c.c.c.c.c.c.c.c.c.c.c.c.c.c.c.c.",
"c.c.c.c.c.c.c.c.c.c.c.c.c.c.c.c.c g.x.x.x.x.x.x.x.x.x.x.x.x.x.x.x.x.x.x.x.x.x.i.8 c.c.c.c.c.c.c.c.c.c.c.c.c.c.c.c.c.c.c.c.c.c.c.",
"c.c.c.c.c.c.c.c.c.c.c.c.c.c.c.0 w.x.x.x.x.x.x.x.x.x.x.x.x.x.x.x.x.x.x.x.x.x.x.x.w., c.c.c.c.c.c.c.c.c.c.c.c.c.c.c.c.c.c.c.c.c.c.",
"c.c.c.c.c.c.c.c.c.c.c.c.c.c.c.R k.x.x.x.x.x.x.x.x.x.x.x.x.x.x.x.x.x.x.x.x.x.x.x.x.Y c.c.c.c.c.c.c.c.c.c.c.c.c.c.c.c.c.c.c.c.c.c.",
"c.c.c.c.c.c.c.c.c.c.c.c.c.c.q ,.x.x.x.x.x.x.x.x.x.x.x.x.x.x.x.x.x.x.x.x.x.x.x.x.x.w.o c.c.c.c.c.c.c.c.c.c.c.c.c.c.c.c.c.c.c.c.c.",
"c.c.c.c.c.c.c.c.c.c.c.c.c.c.Q u.x.x.x.x.x.x.x.x.x.x.x.x.x.x.x.x.x.x.x.x.x.x.x.x.x.g.I c.c.c.c.c.c.c.c.c.c.c.c.c.c.c.c.c.c.c.c.c.",
"c.c.c.c.c.c.c.c.c.c.c.c.c.c.>.i.x.x.x.x.x.x.x.x.x.x.x.x.x.x.x.x.x.x.x.x.x.x.x.x.x.x.<.c.c.c.c.c.c.c.c.c.c.c.c.c.c.c.c.c.c.c.c.c.",
"c.c.c.c.c.c.c.c.c.c.c.c.c.c.:.x.x.x.x.q.9.f.x.x.x.x.x.x.x.x.x.x.x.w.x.x.x.x.x.x.x.x.w.c c.c.c.c.c.c.c.c.c.c.c.c.c.c.c.c.c.c.c.c.",
"c.c.c.c.c.c.c.c.c.c.c.c.c.b w.x.x.x.d.| > 0.x.x.x.x.x.x.x.x.x.x.i.H k.x.x.x.x.x.x.x.i.R c.c.c.c.c.c.c.c.c.c.c.c.c.c.c.c.c.c.c.c.",
"c.c.c.c.c.c.c.c.c.c.c.c.H 1.x.x.x.k.q.: ; 7.x.x.x.x.x.x.x.x.x.x.j.c g.x.x.x.x.x.x.x.x.%.c.c.c.c.c.c.c.c.c.c.c.c.c.c.c.c.c.c.c.c.",
"c.c.c.c.c.c.c.c.c.c.c.c.U k.x.x.x.x.6.; ; 8.x.x.x.x.x.x.x.x.x.x.x.c u.x.x.x.x.x.x.x.x.e.R c.c.c.c.c.c.c.c.c.c.c.c.c.c.c.c.c.c.c.",
"c.c.c.c.c.c.c.c.c.c.c.a e.x.x.x.k.x.9.; > 0.x.x.x.x.x.x.x.x.x.x.x.H 2.x.x.x.x.x.x.x.x.x.Q c.c.c.c.c.c.c.c.c.c.c.c.c.c.c.c.c.c.c.",
"c.c.c.c.c.c.c.c.c.c.c.a w.w.w.x.k.x.f.>  .d.x.x.x.x.x.x.x.x.x.x.x.R ;.k.x.x.x.x.x.x.x.x.i.g c.c.c.c.c.c.c.c.c.c.c.c.c.c.c.c.c.c.",
"c.c.c.c.c.c.c.c.c.c.c.c.j k Q x.k.x.x.x.x.g.k.x.x.x.x.x.x.x.x.x.x.>.j x.x.x.x.x.x.x.x.x.x.i.q c.c.c.c.c.c.c.c.c.c.c.c.c.c.c.c.c.",
"c.c.c.c.c.c.c.c.c.c.c.c.d n e.x.x.x.k.x.y.4.r.k.h.h.x.x.x.x.x.x.x.e., x.x.x.x.x.x.x.x.x.x.x.w.0 c.c.c.c.c.c.c.c.c.c.c.c.c.c.c.c.",
"c.c.c.c.c.c.c.c.c.c.c.c.c.U k.k.x.x.x.x.y.4.4.4.5.r.x.x.x.x.x.x.x.k., w.x.x.x.x.x.x.x.x.x.x.x.i.j c.c.c.c.c.c.c.c.c.c.c.c.c.c.c.",
"c.c.c.c.c.c.c.c.c.c.c.c.c.j <.x.x.x.x.x.h.4.5.5.5.r.x.x.x.x.x.x.x.x.U Q x.x.x.x.x.x.x.x.x.x.x.x.w.H c.c.c.c.c.c.c.c.c.c.c.c.c.c.",
"c.c.c.c.c.c.c.c.c.c.c.c.c.c.h Q j.x.x.x.k.y.4.4.r.h.x.x.x.x.x.x.x.x.u.q x.x.x.x.x.x.x.x.x.x.x.x.x.i.H c.c.c.c.c.c.c.c.c.c.c.c.c.",
"c.c.c.c.c.c.c.c.c.c.c.c.c.c.c.q h :.g.g.k.x.g.i.k.x.x.x.x.x.x.x.x.x.x.d 3.x.x.x.x.x.x.x.x.x.x.x.x.x.i.a c.c.c.c.c.c.c.c.c.c.c.c.",
"c.c.c.c.c.c.c.c.c.c.c.c.c.c.c.c.c.j   0 , h <.x.x.x.x.k.x.k.x.k.x.x.x.! n k.x.x.x.x.x.x.x.x.x.x.x.x.x.:.c.c.c.c.c.c.c.c.c.c.c.c.",
"c.c.c.c.c.c.c.c.c.c.c.c.c.c.c.c.c.c.Y g.w.Q q q c Y Q %.>.<.<.>.%.U h 0 w 3.x.x.x.x.x.x.x.x.x.x.x.x.x.e.a c.c.c.c.c.c.c.c.c.c.c.",
"c.c.c.c.c.c.c.c.c.c.c.c.c.c.c.c.c.c.%.x.x.k.k.>.d H R H H G c H d h 1.i.>.H i.x.x.x.x.x.x.x.x.x.x.x.x.g.q c.c.c.c.c.c.c.c.c.c.c.",
"c.c.c.c.c.c.c.c.c.c.c.c.c.c.c.c.c.c.j k.x.x.x.x.k.x.x.x.k.x.x.x.:.f i.x.e.n ,.x.x.x.x.x.x.x.x.x.x.x.x.3.a c.c.c.c.c.c.c.c.c.c.c.",
"c.c.c.c.c.c.c.c.c.c.c.c.c.c.c.c.c.c.G %.k.x.k.x.x.x.x.x.x.x.x.x.3.h &.u.G O d w.x.x.x.x.x.x.x.x.x.x.x.H c.c.c.c.c.c.c.c.c.c.c.c.",
"c.c.c.c.c.c.c.c.c.c.c.c.c.c.c.c.c.c.c.q Q k.k.x.x.x.x.x.x.x.x.x.u.j H q F 2.H c j.x.x.x.x.x.x.x.x.x.i.g c.c.c.c.c.c.c.c.c.c.c.c.",
"c.c.c.c.c.c.c.c.c.c.c.c.c.c.c.c.c.c.c.H g q U x.x.x.x.x.x.x.x.x.x.G G >.x.x.j.R q w.k.x.x.x.x.x.x.u.n c.c.c.c.c.c.c.c.c.c.c.c.c.",
"c.c.c.c.c.c.c.c.c.c.c.c.c.c.c.c.c.c.g H <.1.&.k.x.x.x.x.x.x.x.x.k.! W x.k.x.x.k.R 0 &.j.x.x.x.x.e.H c c.c.c.c.c.c.c.c.c.c.c.c.c.",
"c.c.c.c.c.c.c.c.c.c.c.c.c.c.c.c.c.c.g 3.&.i.x.x.x.k.j.<.%.%.,.e.<.Q F x.x.x.x.x.x.u.c , f G n q q c.c.c.c.c.c.c.c.c.c.c.c.c.c.c.",
"c.c.c.c.c.c.c.c.c.c.c.c.c.c.c.c.c.c.-.i.&.<.k.i.3.<.*.&.>.%.F v K I O k.x.x.k.Q u.k.k.3.c c.c.c.c.c.c.c.c.c.c.c.c.c.c.c.c.c.c.c.",
"c.c.c.c.c.c.c.c.c.c.c.c.c.c.a a c.q u.k.3.&.3.I 3 c %.1.w.k.-.1 1 x 8 <.x.x.k.Q R k.x.x.;.c.c.c.c.c.c.c.c.c.c.c.c.c.c.c.c.c.c.c.",
"c.c.c.c.c.c.c.c.c.c.c.c.c.H u.3.j O j.k.j.>.g &.%.,.j.1.*.Q x 5 ' ) Q G k.x.k.-.U x.x.k.;.c.c.c.c.c.c.c.c.c.c.c.c.c.c.c.c.c.c.c.",
"c.c.c.c.c.c.c.c.c.c.c.c.c.Y g.k.k.q i.k.x.w.Y x K 2 4 T J ~ 3 1 { { 1.  7 G k 0 u.k.x.i.R c.c.c.c.c.c.c.c.c.c.c.c.c.c.c.c.c.c.c.",
"c.c.c.c.c.c.c.c.c.c.c.c.c.I e.x.x.H %.x.x.x.K 2 ..' ^ @.] X.] 1 _ [ ,.0 ,.Y R 3.k.x.x.:.H c.c.c.c.c.c.c.c.c.c.c.c.c.c.c.c.c.c.c.",
"c.c.c.c.c.c.c.c.c.c.c.c.c.H -.x.k.w.0 e.k.x.#._ [ [ 6 *.] X.] 1 ( o.P q x.k.x.x.x.x.w.H c.c.c.c.c.c.c.c.c.c.c.c.c.c.c.c.c.c.c.c.",
"c.c.c.c.c.c.c.c.c.c.c.c.c.c.R i.x.x.Q c i.x.*.[ { [ ~ *.@.^ J v 6 ^ z % i.x.x.k.k.e.n c.c.c.c.c.c.c.c.c.c.c.c.c.c.c.c.c.c.c.c.c.",
"c.c.c.c.c.c.c.c.c.c.c.c.c.c.h >.k.x.Y f d %.&.o./ X.( < F -.%.-.,.%.f n d j Y Y g q c.c.c.c.c.c.c.c.c.c.c.c.c.c.c.c.c.c.c.c.c.c.",
"c.c.c.c.c.c.c.c.c.c.c.c.c.c.c.j Q n j c.c.g , +.3 +.$.>.>.$.%.-.<.c d c.c.c.c.c.c.c.c.c.c.c.c.c.c.c.c.c.c.c.c.c.c.c.c.c.c.c.c.c.",
"c.c.c.c.c.c.c.c.c.c.c.c.c.c.c.c.c.c.c.c.c.c.c.=.T *.d 8 R g.x.k.x.R c.c.c.c.c.c.c.c.c.c.c.c.c.c.c.c.c.c.c.c.c.c.c.c.c.c.c.c.c.c.",
"c.c.c.c.c.c.c.c.c.c.c.c.c.c.c.c.c.c.c.c.c.c.c.c.c.c.c.c.q e.x.x.x.<.c.c.c.c.c.c.c.c.c.c.c.c.c.c.c.c.c.c.c.c.c.c.c.c.c.c.c.c.c.c.",
"c.c.c.c.c.c.c.c.c.c.c.c.c.c.c.c.c.c.c.c.c.c.c.c.c.c.c.c.c., g.x.x.%.c.c.c.c.c.c.c.c.c.c.c.c.c.c.c.c.c.c.c.c.c.c.c.c.c.c.c.c.c.c.",
"c.c.c.c.c.c.c.c.c.c.c.c.c.c.c.c.c.c.c.c.c.c.c.c.c.c.c.c.c.c <.x.i.c c.c.c.c.c.c.c.c.c.c.c.c.c.c.c.c.c.c.c.c.c.c.c.c.c.c.c.c.c.c.",
"c.c.c.c.c.c.c.c.c.c.c.c.c.c.c.c.c.c.c.c.c.c.c.c.c.c.c.c.c.c.Y 3.c H c.c.c.c.c.c.c.c.c.c.c.c.c.c.c.c.c.c.c.c.c.c.c.c.c.c.c.c.c.c.",
"c.c.c.c.c.c.c.c.c.c.c.c.c.c.c.c.c.c.c.c.c.c.c.c.c.c.c.c.c.c.c.q c.c.c.c.c.c.c.c.c.c.c.c.c.c.c.c.c.c.c.c.c.c.c.c.c.c.c.c.c.c.c.c.",
"c.c.c.c.c.c.c.c.c.c.c.c.c.c.c.c.c.c.c.c.c.c.c.c.c.c.c.c.c.c.c.c.c.c.c.c.c.c.c.c.c.c.c.c.c.c.c.c.c.c.c.c.c.c.c.c.c.c.c.c.c.c.c.c.",
"c.c.c.c.c.c.c.c.c.c.c.c.c.c.c.c.c.c.c.c.c.c.c.c.c.c.c.c.c.c.c.c.c.c.c.c.c.c.c.c.c.c.c.c.c.c.c.c.c.c.c.c.c.c.c.c.c.c.c.c.c.c.c.c.",
"c.c.c.c.c.c.c.c.c.c.c.c.c.c.c.c.c.c.c.c.c.c.c.c.c.c.c.c.c.c.c.c.c.c.c.c.c.c.c.c.c.c.c.c.c.c.c.c.c.c.c.c.c.c.c.c.c.c.c.c.c.c.c.c.",
"c.c.c.c.c.c.c.c.c.c.c.c.c.c.c.c.c.c.c.c.c.c.c.c.c.c.c.c.c.c.c.c.c.c.c.c.c.c.c.c.c.c.c.c.c.c.c.c.c.c.c.c.c.c.c.c.c.c.c.c.c.c.c.c."
};
