/* XPM */
static const char *player_up[] = {
/* columns rows colors chars-per-pixel */
"64 64 194 2 ",
"   c #1E3B63",
".  c #234166",
"X  c #2B4967",
"o  c #24446B",
"O  c #2A476A",
"+  c #27496D",
"@  c #2A496D",
"#  c #2C4D72",
"$  c #2E5175",
"%  c #2F5579",
"&  c #325275",
"*  c #335678",
"=  c #37597B",
"-  c #3A5C7C",
";  c #3D607F",
":  c #435C7A",
">  c #4B5E7B",
",  c #415877",
"<  c #41617F",
"1  c #51627C",
"2  c #3E6180",
"3  c #426382",
"4  c #496B87",
"5  c #5E6C86",
"6  c #556C8B",
"7  c #5A6E8A",
"8  c #526583",
"9  c #4B748B",
"0  c #5D7185",
"q  c #5B718A",
"w  c #527A8F",
"e  c #5D7492",
"r  c #577F93",
"t  c #626E8A",
"y  c #696D87",
"u  c #61718A",
"i  c #6B738C",
"p  c #73738D",
"a  c #7E728B",
"s  c #6A7A93",
"d  c #667894",
"f  c #737993",
"g  c #7B7C94",
"h  c #806D87",
"j  c #80758D",
"k  c #867E96",
"l  c #907D93",
"z  c #598295",
"x  c #578194",
"c  c #6C819A",
"v  c #668099",
"b  c #71849C",
"n  c #7E889B",
"m  c #6E8CA1",
"M  c #7B8DA3",
"N  c #7F93AA",
"B  c #7B93A6",
"V  c #858197",
"C  c #86859B",
"Z  c #94879E",
"A  c #978B9F",
"S  c #928396",
"D  c #8589A0",
"F  c #958FA3",
"G  c #9A8EA3",
"H  c #8492A4",
"J  c #8A95A5",
"K  c #8695AA",
"L  c #8C99AA",
"P  c #879DB0",
"I  c #B98FA1",
"U  c #A890A1",
"Y  c #BE9FB1",
"T  c #9DA8B6",
"R  c #9FAEBF",
"E  c #A9AAB5",
"W  c #B5A9B7",
"Q  c #BEA8B6",
"!  c #ABB1BA",
"~  c #B5B8BD",
"^  c #CC99A6",
"/  c #D594A3",
"(  c #DA96A6",
")  c #D29AA5",
"_  c #D59DAA",
"`  c #DC9BAA",
"'  c #DE97A8",
"]  c #E29DAE",
"[  c #EB9CAF",
"{  c #E095A7",
"}  c #E79FB0",
"|  c #E99EB0",
" . c #D6A3AD",
".. c #DBA2AE",
"X. c #C0A4B4",
"o. c #C8AAB6",
"O. c #DDA5B1",
"+. c #D6AAB3",
"@. c #DDAAB4",
"#. c #DDAFB8",
"$. c #C8B5BD",
"%. c #DDB4BB",
"&. c #DCB4BB",
"*. c #E1A0AF",
"=. c #E4A4B2",
"-. c #EAA5B5",
";. c #E3AAB6",
":. c #E4AEB9",
">. c #EBABBA",
",. c #E9A8B7",
"<. c #F2A6B8",
"1. c #F1AFBF",
"2. c #E4B3BD",
"3. c #EAB2BE",
"4. c #E0B8BF",
"5. c #F1B0BF",
"6. c #BEBFC6",
"7. c #CBBAC3",
"8. c #CAB7C2",
"9. c #D1BCC3",
"0. c #DEBEC2",
"q. c #D9B6C2",
"w. c #E5B7C0",
"e. c #EAB6C1",
"r. c #E5BCC3",
"t. c #EBBBC5",
"y. c #ECBFC8",
"u. c #F3B6C3",
"i. c #FAB5C5",
"p. c #F2BBC6",
"a. c #F2BEC9",
"s. c #F9BDCB",
"d. c #F9B8C7",
"f. c #BEC1C8",
"g. c #BACAD3",
"h. c #C2C6CE",
"j. c #DFC5C7",
"k. c #C6CBD2",
"l. c #CFD5D7",
"z. c #CDD4D8",
"x. c #D3D9DC",
"c. c #E6C1C6",
"v. c #E8C1C7",
"b. c #E5C5C9",
"n. c #EEC6CD",
"m. c #ECC4CB",
"M. c #E6C9CC",
"N. c #EEC9CE",
"B. c #ECC9CE",
"V. c #F5C2CC",
"C. c #F3C3CC",
"Z. c #F9C2CE",
"A. c #F0C8CF",
"S. c #EECED2",
"D. c #EDCDD1",
"F. c #E6CFD0",
"G. c #F6C7D0",
"H. c #F9C6D1",
"J. c #F2CCD2",
"K. c #F3CCD2",
"L. c #F9CBD5",
"P. c #FBCED8",
"I. c #EED2D5",
"U. c #EFD6D8",
"Y. c #F3D1D6",
"T. c #F4D5D9",
"R. c #FAD2DA",
"E. c #F4D9DC",
"W. c #F8DBDF",
"Q. c #C6DCE2",
"!. c #CADEE4",
"~. c #D5DFE3",
"^. c #F8DCE0",
"/. c #CEE1E5",
"(. c #D2E3E6",
"). c #D4E4E8",
"_. c #DAE7E9",
"`. c #DDE9EA",
"'. c #DDE8E7",
"]. c #E3EDED",
"[. c #EAEEEB",
"{. c #FDE3E7",
"}. c #FFE5EA",
"|. c #FDEAEC",
" X c #ECF2EF",
".X c #F3F6EE",
"XX c #FFECF2",
"oX c #EDF3F0",
"OX c #F2F6F1",
"+X c #FFF1F2",
"@X c #FFF3F3",
"#X c #F6F8F2",
"$X c #FFFEF5",
"%X c #FEFDF8",
/* pixels */
"%X@X@X|.^.v.r.r.r.r.R.{.XX|.W.M.&.v.N.}.+X|.}.m.t.t.2.;.-.,.:.;.2.@.:.r.r.r.r.e.=.] ] ,.[ -.=.=.[ [ ' ] ,.>.>.t.r.S.|.+XY.m.V.s.",
"+X+X|.F.b.m.n.r.2.#.2.t.&.b.0.r.v.c.r.W.|.M.c.t.y.t.2.3.,.,.:.:.@.;.2.t.r.t.r.3.=.=.-.] <.<.;.O.] ] ` =.1.1.;.@.r.m.{.+XW.r.e.e.",
"+XY.j.M.Y.J.N.A.t.:.3.2.%.w.r.C.y.m.r.b.M.j.c.t.r.e.2.3.,.,.=.;.;.,.3.3.3.3.e.e.;...;.,.i.d.2.2.=.=.=.,.-.=.,.;.t.r.0.0.r.r.e.3.",
"c.b.M.M.J.J.J.J.C.:.2.e.@.w.a.a.a.m.m.b.b.b.m.t.m.t.t.:.1.,.:.>.,.-.;.,.,.,.;.3.3.t.2.p./ d.m.t.3.=.=.,.,.=.=.=.;.t.c.4.4.t.3.=.",
"t.v.b.S.Y.R.Y.J.A.t.:._ a.t.3.s.V.C.n.m.M.b.c.m.m.r.r. .*.` :.;.-.-.=.-.-.=.] ,.p.e.a.p./ ( C.n.3.;.;.>.,.-.} } -.3.e.2.4.4.:.O.",
"t.m.m.N.m.N.S.S.J.2.2.) V.t.p.e.V.m.n.v.c.M.n.m.C.m.C.@.=.` e.2.,.-.,.=.=.-.=.=.;.t.y.p./ ` V.r.r.e.e.3.=.] -.-.] >.t.r.4.2.:.>.",
"C.m.m.J.n.N.M.Y.Y.m.w. .t.C.t.t.V.y.C.J.m.v.v.t.C.C.G.y.,.=.V.a.p.e.2.;.=.=.-.;.t.e.r.e.' ( p.t.y.r.2.;.,.-.-.-.,.3.e.e.r.t.>.=.",
"C.C.n.N.m.N.M.S.S.n.m.+.J.J.C.y.a.V.m.v.m.c.r.m.n.n.m.C...=.H.K.C.t.r.r.:.=.;.;.y.r.t.t.( ' t.t.r.4.:.;.=.=.,.u.u.u.t.r.e.e.e.3.",
"a.m.n.n.K.K.J.R.J.J.L.+.Y.Y.J.m.C.V.C.n.n.r.m.m.v.m.r.y.O.O.L.K.Y.S.N.m.y.y.t.t.r.y.4.C.` ` t.4.r.3.:.=...;.p.2.y.y.t.r.r.e.e.e.",
"V.V.C.C.V.V.K.R.L.C.V.%.T.S.N.c.2.t.t.m.m.- - - - - - = - - = = - - - = - - t.t.r.e.r.r.) p.a.a.t.3.;.O.O.2.C.y.m.v.t.t.r.t.e.e.",
"H.H.C.C.V.V.H.P.R.;.:.@.R.Y.v.i p p p f p . o . . . . . . . . . . . . o $ < g g p G a.a._ Z.V.a.a.t.2.;.;.e.C.n.N.m.v.t.t.t.r.r.",
" . . . ... . .@.;. ._ :.R.m.v.$ - - - - O (.(.$X$X$X$X$X$X$X$X$X$X$X#X/.P 3 = = - y .. ./ s.V.G.t.t.e.t.t.m.N.M.F.M.v.t.t.t.r.r.",
"O.O. . . . . .@.@.:.>.U C V V 6 6 6 6 6 > ).).$X$X$X$X$X$X$X$X$X$X$XOX).R v d e e t j a h ` G.v.m.C.C.C.C.J.N.M.M.M.v.t.t.t.r.r.",
"L.L.K.K.V.V.C.K.V.P.;.y = - - ).!.].'.$X$X$X$X$X$X$X$X$X$X$X$X$X$X$X$X$X$X#X_.!./.c = = * d.m.D.Y.J.J.K.m.J.M.M.M.m.m.y.t.t.t.r.",
"K.J.Y.Y.J.J.N.i : : : K g.x.l.OX X.X.X$X$X$X$X$X$X$X$X$X$X$X$X$X$X$X$X$X$X$X#X#X#X~.x.g.g., , I.I.S.J.A.r.J.D.M.N.m.m.y.t.t.r.r.",
"J.Y.Y.S.J.N.S.i = - = K !.$X$X$X$X$X$X$X$X$X$X$X$X$X$X$X$X$X$X$X$X$X$X$X$X$X$X$X$X$X$X!.`.= - I.F.M.J.C.&.n.m.m.m.m.a.a.t.r.r.r.",
"J.J.N.n.m.X.& H ~.).[. X#X$X$X$X$X$X$X$X$X$X$X$X$X$X$X$X$X$X$X$X$X$X$X$X$X$X$X$X$X$X$X%X%XOX#X& & & S r.4.w.J.v.m.m.t.a.t.t.e.r.",
"J.D.n.v.v.Q = b ).`.$X$X$X$X$X$X$X$X$X$X$X$X$X$X$X$X$X$X$X$X$X$X$X$X$X$X$X$X$X$X$X$X$X$X$X$X$X= = = Z r.v.N.v.v.C.C.y.y.r.r.e.r.",
"J.N.m.v.+ t $X$X$X$X$X$X$X$X$X$X$X$X$X$X$X$X$X$X$X$X$X$X$X$X$X$X$X$X$X$X$X$X$X$X$X$X$X$X$X$X$X$X$X`.7 + + + N.n.v.v.t.t.r.r.r.r.",
"N.n.m.m.= d $X$X$X$X$X$X$X$X$X$X$X$X$X$X$X$X$X$X$X$X$X$X$X$X$X$X$X$X$X$X$X$X$X$X$X$X$X$X$X$X$X$X$X).e = * * C.C.C.a.t.t.r.r.t.t.",
"n.m.- % $X$X$X$X$X$X$X$X$X]./.$X$X$X$X$X$X$X$X$X$X$X$X$X$X$X$X$X$X$X$X$X$X$X$X$X$X).!.oX$X$X$X$X$X$X$X$XOX$X- - - - - ` ` ` ,.i.",
"n.m.- * $X$X$X$X$X$X$X#X#X`.!.$X$X$X$X$X$X$X$X$X$X$X$X$X$X$X$X$X$X$X$X$X$X$X$X$X$X).!.oX%X$X$X$X$X$X$X$X$X$X# + @ + + _  .` ` ` ",
"N.m.- % $X$X$X$X$X$X$XJ - J $X$X$X$X$X$X$X$X$X$X$X$X$X$X$X$X$X$X$X$X$X$X$X$X$X$X$X$X$X(./.$X$X$X$X$X$X$X$X$X$X$X$X$X#X- - Y a.a.",
"N.m.- * $X$X$X$X$X$X$XJ - J $X$X$X$X$X$X$X$X$X$X$X$X$X$X$X$X$X$X$X$X$X$X$X$X$X$X$X$X$XT L OXOX$X$X$X$X$X$X$X$X$X$X$X$Xl.l.u > %.",
"v.v.- * $X$X$X$X$X$X$XJ - J $X$X$X$X$X$X$X$X$X$X$X$X$X$X$X$X$X$X$X$X$X$X$X$X$X$X$X$X$X7 -  X X$X$X$X$X$X$X$X$X$X$X$X$X$X$X0 - v.",
"r.c.- * $X$X$X$X$X$X$XJ - H $X$X$X$X$X$X$X$X$X$X$X$X$X$X$X$X$X$X$X$X$X$X$X$X$X$X$X$X$X7 - $X$X$X$X$X$X$X$X$X$X$X$X$X$X$X$X0 - c.",
"r.c.- * (./.$X$X$X$X).L - H $X$X$X$X$X$X$X$X$X$X$X$X$X$X$X$X$X$X$X$X$X$X$X$X$X$X$X$X$X7 - ).(.).).$X$X$X$X$X$X$X$X$X$X$X$X0 - b.",
"c.t.- & ].].$X$X$X$X`.H O n $X$X$X$X$X$X$X$X$X$X$X$X$X$X$X$X$X$X$X$X$X$X$X$X$X$X$X$X$X8 o `._.`.`.$X$X$X$X$X$X$X$X$X$X$X$X0 - b.",
"t.t.t.t.- O $X$X$X%X- M /.).$X$X$X$X$X$X$X$X$X$X$X$X$X$X$X$X$X$X$X$X$X$X$X$X$X$X$X$X$X(./.& = )./.$X$X!.!./.$X$X$X$X$X$X_.5 - v.",
"t.t.t.t.* . h.h.k.k.= B !._.$X$X$X$X$X$X$X$X$X$X$X$X$X$X$X$X$X$X$X$X$X$X$X$X$X$X$X X]./.(.* - K H ].].!.!.!.#X#X.X].].! T s u m.",
"m.C.m.t.y.$.- - - - @.7.!.).$X$X$X$X$X$X$X$X$X$X$X$X$X$X$X$X$X$X$X$X$X$X$X$X$X$X$X_.(.!./.* - - - (.(.!././.#X#X[.Q.Q.@ - 8.K.C.",
"m.C.m.t.m.q.t 7 5 t @.A e E $X$X$X$X$X$X$X$X$X$X$X$X$X$X$X$X$X$X$X$X$X$X$X$X$X$X$X_./.1 6 I X.X.Q 6 6 6 k.#X$X$X#Xs 8 E 8.F.N.v.",
"n.J.m.v.y.C.L.K.L.G.@.k = J $X$X$X$X$X$X$X$X$X$X$X$X$X$X$X$X$X$X$X$X$X$X$X$X$X$X$X(./.+ - ` t.m.r.= - = ~ $X$X$X$X> - 9.Y.Y.Y.S.",
"v.n.m.m.y.a.C.m.V.@.:.+.9.f . o o o o + - 9 ; (.Q.Q.!.!.!.!.!.Q./.m 9 9 w 9 4 + o + o ^ ] / V.m.r.c.D.Y.f         8.S.T.T.E.T.U.",
"t.r.r.c.y.t.r.2.y.4.:.@.n.f - - - ; - - 4 w 9 )././.(././.(./.(.(.B r x z z 9 - - - - I { ] u.y.r.m.J.R.D - - - - $.S.Y.Y.T.W.E.",
"t.t.t.t.y.C.C.a.t.@.:.2.J.f - z z %X$X$X$X$X$X$X$X$X$X$X$X$X$X$X$X$X$X$X$X$Xz.- - l ,.` | ' Z.m.m.N.J.J.Y.Y.S.S.D.M.M.S.Y.Y.T.T.",
"p.a.a.2.O...O.=.;. .;.a.t.f - z r $X$X$X$X$X$X$X$X$X$X$X$X$X$X$X$X$X$X$X$X$Xl.3 2 A a.>.] ] t.m.m.D.D.D.S.Y.S.S.N.m.S.Y.Y.Y.Y.Y.",
" . .@.@.=.;.;.;.O.;.=.Z - - - $X$X$X$X$X$X$X$X$X$X$X$X$X$X$X$X$X$X$X$X$X$X$X$X$X$Xs - p.` =.m.n.v.m.n.N.M.S.S.N.N.n.J.Y.Y.Y.Y.Y.",
"a.r.m.V.H.L.H.H.y.@.:.G = $ O $X$X$X$X$X$X$X$X$X$X$X$X$X$X$X$X$X$X$X$X$X$X$X$X$X$Xu . o._ ..t.m.m.m.N.M.M.M.N.N.J.n.A.K.J.J.J.J.",
"a.4.r.c.r.r.t.K.J.+.2.G - J $X$X$XQ.Q.$X$X$X$X$X$X$X$X$X$X$X$X$X$X$X$X$X$X$X$X$X$X).Q.# - O.m.n.N.N.D.D.M.M.N.D.J.n.J.J.J.N.n.m.",
"C.n.c.0.r.r.c.J.Y.J.&.F - J $X$X$X+   $X$X$X$X$X$X$X$X$XQ.!.!.!.oX$X$X$X$X$X$X$X$X_./.# - =.V.A.S.S.S.S.S.I.S.J.J.J.A.A.n.v.c.r.",
"n.n.M.b.c.m.S.S.S.J.#.F - J $X$X$X* O $X$X$X$X$X$X$X$X$XQ.!./.(.OX$X$X$X$X$X$X$X$X`./.# - ] V.J.J.J.I.I.Y.Y.Y.Y.J.N.N.A.n.v.r.r.",
"K.A.S.S.m.J.T.S.R.R.%.F - J $X$X$X= X $X$X$X$X$X$X$X7 = $X$X$X_.q - $X$X$X$X$X$X$X_./.# - =.V.Y.J.Y.T.T.T.T.T.Y.J.N.n.N.n.v.r.r.",
"J.J.Y.Y.J.Y.T.Y.S.J.2.F - J $X$X$X* O $X$X$X$X$X$X$X1 . $X$X$X`.1 o %X$X$X$X$X$X$X].).# - ..K.J.Y.T.T.T.T.T.T.T.Y.D.N.N.n.m.v.v.",
"J.N.M.I.S.Y.Y.I.T.J.+.n.c.C - - - - X $X$X$X$X$X$X- 6.$X$X$X$X$X$X$X$ ; $X$X$X$X$Xb - - -  .K.D.Y.T.E.E.E.T.T.Y.J.J.J.J.J.N.m.m.",
"m.m.b.M.J.J.S.Y.M.N.%.G.r.g * - - 7 1 $X$X$X$X$X$X- f.$X$X$X$X$X$X$X& - $X$X$X$X$Xb - & *  .C.D.I.T.E.U.U.U.I.Y.S.J.J.J.J.J.N.m.",
"y.t.c.m.n.n.N.J.J.C. .a.a.V.t.* - .X.X$X$X$X$X$X%X- f.$X$X$X$X$X$X$X& ; $X$X$X$X$Xc - t.=.` H.n.I.T.T.U.U.I.I.I.S.J.Y.J.Y.Y.J.M.",
"p.y.m.m.m.C.C.m.C.H. .;. . .@.* - - + /.].$X$X).].- & +  X_.).$ $ $ - 2 ).(.(.N + * - H.=.=.H.N.I.T.T.T.I.I.S.S.S.Y.Y.S.J.Y.Y.N.",
"p.p.y.C.C.a.m.C.V.V.O.O.v.J.J.& - 3 & ).].$X$X].OX- - -  X`.'.- - - 2 2 ).).(.N - - - G.H. .K.D.I.U.I.S.S.J.S.S.I.Y.I.F.Y.Y.J.N.",
"t.t.y.m.m.t.c.v.a.V.;.e.N.S.J.$ - /.Q.$X$X$X%X- 4 p.] =.= - - - - - q $X$X$X_.N - W D.C.H.H.K.N.S.R.R.J.J.L.J.J.J.Y.W.T.n.n.K.a.",
"c.c.v.m.m.c.c.v.m.V.@.a.N.Y.Y.$ - (.!.$X$X$X%X- 3 V.] =.* - - - - - 0 $X$X$X_.H - W Y.G.O.O.K.J.L.H.a.:.O.=.O. . .@.V.P.Z.Z.H.i.",
"c.c.v.m.m.v.b.m.V.Z. .C.m.S.J.n.N.# # # # # & w.r.a.=.=.:.y.t.t.t.- = $ # $ * C Y.J.J.+.O.;.+.&.+.@.;.=.=.=.=. ...O.@.O. ...` ` ",
"v.v.m.m.m.m.M.N.m.V. .V.m.M.m.A.n.* - - - - - 2.r.t.=.` O.a.t.m.y.- - - - - = k &.Y.J.+...P.0.M.D.n.m.m.C.C.V.V.K.R.J.J.C.r.O._ ",
"C.C.C.C.V.C.n.n.V.V...V.m.b.v.n.m.2.w.%.2.r.w.r.w.m.3.=.O.y.t.t.m.y.C.C.y.m.C.a.r.J.R.2.O.H.W.F.b.b.v.n.C.C.C.J.R.Y.J.N.n.m.m.y.",
"p.a.a.Z.Z.V.V.V.Z.p.O.a.v.v.r.t.r.#.4.2.C.v.r.r.n.m.=.=.a.V.t.y.c.r.m.t.v.m.y.t.m.C.C.H.;.P.Y.Y.D.n.m.n.C.C.C.A.J.Y.Y.J.n.m.C.V.",
"( ( ` ` `  ..... .` ` a.c.c.c.t.t.@.V.L.K.c.R.N.J.K.=.] V.C.V.V.m.m.C.a.V.C.3.2.O.@.@.:.=.O.R.Y.J.N.m.v.m.C.C.n.J.K.J.J.n.m.m.C.",
"` ( / ` ` `  . .` ` ` a.t.c.t.y.r.C.C.K.C.n.Y.J.Y.K.,./ O.@.O.O.O.*.=.=.*.=.,.-...;.:.,.` 3.R.Y.J.D.m.c.v.n.n.n.n.n.n.n.m.v.v.m.",
"1.u.p.Z.H.Z.V.H.s.` ] a.C.r.y.a.C.y.4.2.&.w.J.T.Y.K...,.a.2.2.O.=.,.=.=.=.,.,.,.>.;. .;.` L.L.Y.n.n.m.m.m.n.m.v.m.v.v.v.v.r.r.t.",
"t.y.y.C.V.G.V.V.a.` ` ` V.m.a.C.H.V.C.2.4.w.R.J.b.R.=.=.Z.Z.Z.V.G.C.4.r.C.m.V.H.K.K.y.t.=.V.J.N.v.m.n.n.m.m.m.m.t.t.t.t.t.r.r.t.",
"w.v.m.K.t.C.C.C.a./ / ` C.C.V.V.C.K.K.r.r.r.R.Y.N.m.,.=.;.:.:.2.C.r.2.4.c.m.m.J.D.D.R.K. .V.m.N.y.m.m.m.m.m.m.m.t.t.t.t.r.r.r.r.",
"c.m.m.J.n.n.m.K.a.) / =.a.C.a.C.r.L.t.J.A.n.&.N.c.C.d.`  .2.:.2.4.:.e.2.&.n.n.v.S.M.Y.J.) V.r.c.v.m.m.m.v.m.m.m.t.t.t.r.r.r.r.r.",
"c.m.m.c.v.v.c.C.Z./ ` Z.#.v.C.#.%.%.&.n.J.J.R.J.R.%.,./  .;.3.;.3.:.t.e.2.n.N.N.M.S.M.J. .a.v.c.y.m.m.m.m.v.m.t.t.t.r.r.r.r.r.r.",
"t.t.n.t.t.2.t.C.a. ./ H.m.n.m.m.%.n.&.A.J.Y.r.r.J.K.Z.` :.;.>.>.>.;.>.3.2.w.n.J.M.S.J.G.` s.2.y.t.m.m.m.v.v.t.t.t.t.t.r.r.t.t.r.",
"XXt.r.m.V.2.C.V.Z.Z.` s.K.N.&.r.n.v.m.n.n.c.J.c.J.G.H./ u.3.:.;.,.>.;.3.2.2.n.n.D.m.K.e.s.d.p.3.t.m.m.m.t.r.t.t.t.t.t.r.t.t.t.t."
};
