/* XPM */
static char *player[] = {
/* columns rows colors chars-per-pixel */
"64 64 210 2 ",
"   c #B9966B",
".  c #BE9E7B",
"X  c #BBA17C",
"o  c #C59F72",
"O  c #C6A373",
"+  c #C4A67D",
"@  c #CCAB7B",
"#  c #C9A675",
"$  c #D1AF7D",
"%  c #D3B37F",
"&  c #4EBEEA",
"*  c #50BFE9",
"=  c #58C2EA",
"-  c #65C6E9",
";  c #BDA584",
":  c #BAB3A3",
">  c #BBB6AA",
",  c #B9B4A8",
"<  c #B8BAB6",
"1  c #D09A9F",
"2  c #C1A684",
"3  c #C3A983",
"4  c #C3AC8C",
"5  c #C7A88B",
"6  c #D0AF8E",
"7  c #CDB38D",
"8  c #D4B383",
"9  c #D9BA86",
"0  c #D5B48B",
"q  c #DCBC8A",
"w  c #D8B885",
"e  c #C6AD92",
"r  c #CCAC9B",
"t  c #CCAB93",
"y  c #C6B193",
"u  c #CAB496",
"i  c #C5B69B",
"p  c #CBB49B",
"a  c #CEB99D",
"s  c #D1B29D",
"d  c #D7B598",
"f  c #E0BF8B",
"g  c #CF97A3",
"h  c #D594A3",
"j  c #D995A5",
"k  c #D29AA5",
"l  c #D59DA9",
"z  c #DC9BAA",
"x  c #DE97A8",
"c  c #E29DAD",
"v  c #EB9CAF",
"b  c #E79FB0",
"n  c #CEA2A0",
"m  c #D1ACA3",
"M  c #D6A3AD",
"N  c #DBA2AE",
"B  c #D9A9AD",
"V  c #CEB5A1",
"C  c #C5B9A4",
"Z  c #CEBCA3",
"A  c #C6BBAA",
"S  c #D3B4A3",
"D  c #D1BCA4",
"F  c #D4BBAB",
"G  c #DBB9AC",
"H  c #D5B6A6",
"J  c #DDA5B1",
"K  c #D6ACB4",
"L  c #DDAAB4",
"P  c #DDAFB8",
"I  c #C3BDB1",
"U  c #DBB3B3",
"Y  c #DBBCB3",
"T  c #DDB4BB",
"R  c #DFBABD",
"E  c #E1A0AF",
"W  c #E1B9AB",
"Q  c #E3A4B2",
"!  c #E9A4B4",
"~  c #E2AAB6",
"^  c #E9A8B7",
"/  c #E4AEB9",
"(  c #EAABBA",
")  c #F2A6B8",
"_  c #F1AFBF",
"`  c #E4B3BC",
"'  c #EAB2BE",
"]  c #E1BABC",
"[  c #E4B8B8",
"{  c #F1B0BF",
"}  c #BBC0BF",
"|  c #E1C38F",
" . c #E4C592",
".. c #E7C994",
"X. c #EBCE99",
"o. c #E7C896",
"O. c #EED29C",
"+. c #F0D29C",
"@. c #CDC2AB",
"#. c #D2C1A5",
"$. c #D3C4AC",
"%. c #C9C2B1",
"&. c #C6C4B8",
"*. c #D3C5B2",
"=. c #DAC4B5",
"-. c #D6CAB3",
";. c #D8C9B3",
":. c #DDC4BB",
">. c #D1C9BA",
",. c #DACDBA",
"<. c #DCD1BD",
"1. c #D8D1B8",
"2. c #E2C2BB",
"3. c #E8C2BF",
"4. c #E0D4BE",
"5. c #DEBEC2",
"6. c #E5B7C0",
"7. c #EAB6C1",
"8. c #E5BCC3",
"9. c #EBBCC5",
"0. c #ECBFC8",
"q. c #F3B5C3",
"w. c #FAB6C6",
"e. c #F2BAC6",
"r. c #F2BEC9",
"t. c #F9BCCA",
"y. c #F9B8C7",
"u. c #B5C1C3",
"i. c #B7C5CD",
"p. c #BCC4C6",
"a. c #BCCCD4",
"s. c #B7CEDD",
"d. c #B9CDDB",
"f. c #B8C9D4",
"g. c #83CDE6",
"h. c #92D6ED",
"j. c #A1DAEC",
"k. c #B6D6EC",
"l. c #BAD5E7",
"z. c #BFE6F3",
"x. c #C8CBC1",
"c. c #DFC5C7",
"v. c #D1CEC2",
"b. c #DECEC0",
"n. c #CED2CA",
"m. c #DDD5C4",
"M. c #DCD8C7",
"N. c #DBD4CA",
"B. c #DED9CB",
"V. c #D7D4C6",
"C. c #E6C2C5",
"Z. c #E9C2C6",
"A. c #E5CAC5",
"S. c #E5C5C9",
"D. c #ECC4CB",
"F. c #E6CBCD",
"G. c #ECC9CE",
"H. c #E8CCC4",
"J. c #F3C3CD",
"K. c #F9C1CE",
"L. c #F0C8CF",
"P. c #E1D6C5",
"I. c #E2D9C6",
"U. c #E6D2CB",
"Y. c #E3DBCC",
"T. c #E9D1CD",
"R. c #EDCDD1",
"E. c #E6CFD0",
"W. c #F6C7D0",
"Q. c #F9C6D1",
"!. c #F3CCD2",
"~. c #F9CBD5",
"^. c #FBCED8",
"/. c #EED2D5",
"(. c #E4DED2",
"). c #EFD6D8",
"_. c #EBD4D5",
"`. c #F3D1D6",
"'. c #F4D4D9",
"]. c #F9D3DA",
"[. c #F3DADC",
"{. c #F8DBDF",
"}. c #E6E1D4",
"|. c #E9E3D5",
" X c #EBE6DB",
".X c #ECE9DD",
"XX c #F5DBE5",
"oX c #F8DCE0",
"OX c #CCEAEF",
"+X c #C9EBF3",
"@X c #D3EEF5",
"#X c #DBF2F7",
"$X c #EEECE3",
"%X c #FDE3E7",
"&X c #F0EEE5",
"*X c #F5E5EB",
"=X c #FFE5EA",
"-X c #F6ECEF",
";X c #FDEAEC",
":X c #F2F0E6",
">X c #F3F3EC",
",X c #FFECF2",
"<X c #F6EFF1",
"1X c #E8F6F8",
"2X c #F6F6F1",
"3X c #FDF3F3",
"4X c #F7F9F3",
"5X c #F9FCF6",
"6X c #FDFEFD",
"7X c #F4F8F9",
/* pixels */
"5X3X3X;X{.C.8.8.7.8.].oX,X;XXXF.T D.D.=X3X;X=XD.9.9./ / ! ! / / [ L / 7.9.8.8.7.! c c ) v ! Q Q v c j c ) ( ' 9.8.R.;X3X`.D.J.t.",
"3X3X;XF.S.D.G.C.` P ` 9.T S.5.C.Z.Z.5.{.;XF.C.9.9.9.` ( ( ) ( / L ~ ( 9.7.9.9.` Q E ! c ) ) ~ N c c c ! _ _ ~ ~ 8.D.%X3X[.8.7.q.",
"3X'.c.A.'.!.L.G.9./ ` ` T 8.8.L.9.Z.8.S.F.c.C.0.8.7.` ( ( ) Q ~ ~ ^ ( ' ' ' 7.7.~ N ~ ! w.w.' ` Q E c ! ! Q ! ~ 9.8.8.5.5.8.7.' ",
"C.S.F.F.!.~.`.!.L.` ` 7.L ` r.r.J.D.D.S.S.S.D.D.D.D.9.( _ ( / ' ( ! ~ ( ( ~ ~ ' ' e.` e.h w.r.9.' Q E ! ! ! Q Q ~ 7.C.R T 9.' ~ ",
"9.C.F.R.`.].`.!.G.9./ M r.9.( K.J.J.D.D.F.A.s 8 9 9 7 m Q z / ~ ! ! Q ^ ^ ! c Q q.' D.e.j j L.D.' ~ ~ { ( ! v Q ! ' 7.` ` ` / Q ",
"9.D.S.D.D.L.R.R.!.` ` k J.9.e.q.J.J.] =.H 0 o.O.+.X...@ 5 z { ' ( ~ S ^ ! b Q Q ~ 0.0.9.h x J.8.8.7.7.' ! c b b c ' e.9.8.` ( ( ",
"r.D.D.!.D.G.G.'.`.D.` M 0.J.9.9.J.S  .$ q O.O.+.+. .@ 8 O 2 J.r.[ 0 ..t ~ Q ! ~ 0.' 8.' c h e.9.0.9.' ~ Q ! ! ! ( ' 7.' 7.9.` J ",
"J.J.D.R.D.G.G./.R.F.J.K L.L.J.0.J.6  .8 X.O.+.+.O.q 0 q 0 w s H 8 # f o 0 L ~ / r.` 9.{ h c e.9.7.` / ~ Q Q ^ q.7.e.9.9.' 7.7.' ",
"0.J.D.D.W.W.!.].!.!.~.K !.`.!.D.J.s @ o.O.+.+.+.O...@ o | @ %  .O. .  O.o.G 9.Z.9.D.T D.x N 9.` 7.7.` J N ~ q.' e.0.8.7.9.7.7.9.",
"J.W.W.L.W.J.W.].~.L.J.T '.R.G.Z.` C.O O.+.+.+.+.O.O.| q 8 9 q q O.O.# ..o.3.9.9.7.7.9.7.k e.t.0.9.' ~ J N ` J.0.D.Z.D.9.8.7.7.7.",
"Q.Q.W.D.J.K.W.^.]./ / L '.`.D.R T 8.8 O.+.+.+.+.O.O.X.% 8 +.q w +.O.9 d J.K.D.J.7.r.0.0.l K.J.r.r.9.( / / 7.L.D.L.D.D.9.9.9.9.7.",
"N N M M N N N L ~ N k ` {.D.D.T ` 8.q  .O.+.+.+.+. .9 X.O.O.q % O.O.8 / J L N N ~ z J N h t.K.W.9.9.7.9.9.D.G.G.G.F.Z.9.9.9.7.8.",
"N J M K M l N J L ~ ( ` ~.D.R 0.0.C.# O ..% % O.O.w   | O...# 8  .q H ~ ~ ~ L J z J Q J x z J.D.D.L.J.J.D.!.D.D.F.F.8.9.9.9.8.8.",
"~.!.W.L.Q.J.L.~.W.^.P L W.D.D.9.D.L.+  .X.% $ O.O...9 X. .# | | O G J.Q.Q.Q.~.K.e.t.q.Q.x w.D.R.`.!.!.W.0.!.F.F.G.D.D.0.9.9.9.8.",
"~.!.`.`.!.!.D.G.R.^.~ L W.L.9.9.0.D.Y w ..% #  .O.O.+.O.#  .q 7 $.u Y R.G.D.R.D.9.9.J.t.z z R.R./.R.!.G.8.!.R.R.G.D.0.r.9.9.8.8.",
"!.`./.!.R.!.R.`.`.{.P / {.!.D.0.9.D.2.. @ 9 9 9 9 % $ + y 3 a .X2Xa 2 a u H S.!.!.D.D.~.z N R./.R.G.L.L.5.D.D.C.D.J.r.e.9.7.8.7.",
"`.!.G.D.D.F.!.`.'.'./ ` `.].G.D.S.A.Z >X$XB.m.m.Y.}.$X5X6X6X6X6X5X>X5X6X5X$XF A.!.`.!.`.l J G.R.G.D.7.8.5.8.!.D.D.D.0.r.7.0.7.9.",
"`.!.D.D.D.D.L.`.'.'.P / `.`.!.D.C.Z >X6X6X6X6X6X6X6X6X6X6X5X6X6X6X6X6X6X5X6X>XD /././.].N z D.!.Z.9.9.8.9.R.8.D.D.D.9.D.9.7.7.7.",
"!.G.D.Z.C.D.D.G./.]./ / ~.!.!.Z.D 2X6X6X6X6X6X6X6X6X6X6X6X6X6X6X6X6X6X6X6X6X6X>X5 `.`.!.x c W.G.D.7.` 0.8.D.R.D.D.0.9.9.8.8.8.8.",
"G.G.D.D.D.Z.D.D.R.!.L / Q.!.R.s $X6X6X6X6X6X6X6X6X6X6X6X6X6X6X6X6X6X6X6X6X6X6X6X$Xp `.].j c ~.~.r.7.` 0.7.J.J.J.r.r.9.7.7.8.9.9.",
"D.D.D.D.D.D.0.D.R.!.~ ( J.D.] ,.4X6X6X6X6X6X6X6X6X6X6X6X6X6X6X6X6X6X6X6X6X6X6X6X6X=.!.J.c c ~.Q.q.~ Q ( 7.t.Q z z c Q N z z ( w.",
"F.D.C.0.9.0.D.D.D.W.Q / r.0.H (.6X6X6X6X6X6X6X6X6X6X6X6X6X6X6X6X6X6X6X6X6X6X6X6X6X&Xs ^.j v ~ ~ Q Q c Q z ^ c b Q c c x N z c z ",
"!.D.Z.9.9.0.r.J.D.L.J z L K :.:X6X6X6X6X6X6X6X6X6X6X6X6X6X6X6X6X6X6X6X6X6X6X6X6X6X4X:.J.c c N ~ Q Q Q w.t.t.t.Q z ( t.Q.Q.r.e.r.",
"D.D.0.9.0.0.0.Z.D.W.~ c ` [ U.2X6X6X6X6X6X6X6X6X6X6X6X6X6X6X6X6X6X6X6X6X6X6X6X6X6X5X|.[ c y./ L L L ^ N Q z N N Q.W.Q.Q.~.0.8.T ",
"D.D.D.9.0.e.0.L.D.J.Q ^ 0.Y P.5X6X6X5X1X+X1X6X6X6X6X6X6X6X6X6X6X5X$X6X6X6X6X6X6X6X6X$XY E Q.~.`.'.`.!.D.Z.9.D.W.D.!.!.'.`.L.G.Z.",
"8.C.8.9.0.9.9.0.D.J.^ J ` F &X6X6X6X1Xh.- @X6X6X6X6X6X6X6X6X6X6X>X@.4X6X6X6X6X6X6X6X>X:.1 { W.!.`.R./.D.D.D.D.G.F.`.'.[.'.G.F.C.",
"8.C.9.0.9.7.` 8.D.0.~ Q Y |.6X6X6X5X#X= = z.6X6X6X6X6X6X6X6X6X6X4XD 4X6X6X6X6X6X6X6X4XP.n K.J.G.`.!.!.!.R.!.D.D.S.'.[.[.[._.R.S.",
"C.9.9.0.9.8.` 6.D.J.~ U -.6X6X6X6X5X+X= = z.6X6X6X6X6X6X6X6X6X6X6XD :X6X6X6X6X6X6X6X6X:XY J.~.!.`.!.`.!.!.!.R.F.F.'.XX[.).'.!.S.",
"0.8.9.8.0.9.9.D.S.K J m $X6X6X6X6X5X@X= - @X6X6X6X6X6X6X6X6X6X6X6X$. X5X6X6X6X6X6X6X6X6X,.Z.J.G.R././.L.!.!.G.R.).[.[.[._.`.!.Z.",
"0.0.9.9.9.0.D.!.R.D.` r $X$X$X6X5X6X1X- j.1X6X6X6X6X6X6X6X6X6X6X5X,.P.6X6X6X6X6X6X6X6X6X2Xr D.D.G.R.`.G.L.G.G.E.$X[.).[.!.R.!.D.",
"D.J.0.9.0.J.L.!.R.!.L U a a <.5X6X6X6X6X6X4X6X6X6X6X6X6X6X6X6X6X6X(.p 6X6X6X6X6X6X6X6X6X5X>Xu J.D.G.!.!.D.D.G.R.'.).E.E.`.`.!.J.",
"D.L.J.9.D.J.W.!.R.!.L ` F D &X6X6X7X6X7X-XXX*X4X2X3X6X6X6X6X6X6X6X&X; 6X6X6X6X6X6X6X6X6X6X5X&Xe Z.D.!.!.!.L.F.R./.[.F.F.'.`.L.D.",
"D.!.D.D.9.J.~.W.].W.J T Z.,.4X6X6X6X6X6X-XXXXXXXXX*X6X6X6X6X6X6X6X5X; $X6X6X6X6X6X6X6X6X6X6X6X>XZ T G.!.`.G.F.R.`././.'._.'.`.R.",
"D.D.S.D.D.0.J.0.J.L / ( C.Z }.5X6X6X6X6X<XXXXXXXXX*X5X6X6X6X6X6X6X6X-.<.6X6X6X6X6X6X6X6X6X6X6X6X$X*.C.].`./.R.G.F.R./.`.'.[.'._.",
"9.C.8.C.0.9.8.` 9.` / K D.A.D <.4X6X6X6X5X-XXXXX*X3X6X6X6X6X6X6X6X6X:Xe 6X6X6X6X6X6X6X6X6X6X6X6X6X:X$.G.'.'.R.R.G.F.!.`.`.'.[.[.",
"9.9.9.9.0.t.J.0.9.P / [ L.L.C.V u Y.2X>X7X6X2X2X7X6X6X6X6X6X6X6X6X5X6Xy  X6X6X6X6X6X6X6X6X6X6X6X6X5X4Xp `.'.!.R.R.F.F.!./.`.'.'.",
"e.t.0.` N N Q Q ~ z ~ t.9.9.9.W./.F   ; ; i }.6X6X6X6X6X5X6X6X6X5X6X6X4.D 5X6X6X6X6X6X6X6X6X6X6X6X6X6XI.:.R.R.R.G.G.L.].`.`.`.`.",
"N N L J J ~ ~ ~ Q ~ Q J.9.7.0.9.Z.C.-.2X$X<.4 4 Z ;.1.m.Y.(.(.Y.P.;.i 2 e .X6X6X6X6X6X6X6X6X6X6X6X6X6X&XV R.R.R.D.G.L.`.`.].`./.",
"0.7.0.J.~.~.Q.~.e.K ( ~.^.R.8.8.8.:.m.6X5X6X5XY.y *.,.*.@.#.Z #.e u  X>XY.$.>X6X6X6X6X6X6X6X6X6X6X6X6X2Xp E.W.D.L.G.L.!.!.W.!.`.",
"r.7.8.Z.7.8.9.!.~.K ` !.!.R.R.6.8.C.u 6X5X6X6X5X5X5X6X6X6X6X6X6XM.u >X6X:XD Y.6X6X6X6X6X6X6X6X6X6X6X6X.XH E.G.R.L.G.L.`.!.G.G.D.",
"D.D.C.8.8.8.C.R.`.!.U !.R.E.R.R.0.7.G m.5X6X6X5X6X6X6X6X6X5X6X6X.Xu M.>X#.X y $X6X6X6X6X6X6X6X6X6X6X6X$.A./.`.L.!.L.L.L.G.D.C.8.",
"L.G.F.S.C.S.R.R./.!.U !.R.R.E.R.W.0.] 4 <.4X5X6X6X6X6X6X6X6X6X6X>Xa $.4 @. X$.Z 2X6X6X6X6X6X6X6X6X6X>Xs _.`.`./.`.L.L.L.J.Z.C.8.",
"~.G.R.R.G.!.'.`.'.].T !.`.E.D.D.D.D.0.$.i ; -.5X6X6X6X6X6X6X6X6X5X#.#.Y.6X6X4X,.4 $X5X6X6X6X6X6X6X>XD U.).'.'.`.L.L.G.L.D.D.C.8.",
"W.!.`.`.!.`.'./.R.!.T ~.!.D.D.D.R.8.H $. X}.m.6X6X6X6X6X6X6X6X6X6XI.1.5X5X6X6X4X1.; M.2X6X6X6X6X&X$.,.'.'.[.'.'.`.L.G.L.D.D.C.D.",
"W.F.F././.`././.[.`.U L.C.Z.D.L.L.G.i .XM.>X6X5X5X5X5X}.B.N.}.:X}.1.@.6X6X6X6X6X6X:X#.; y @.#.e p T.[.[.[.[.`.`.`.!.L.L.R.R.D.D.",
"D.D.S.F.!.R.R.`.S.G.L W.C.Z.!.~.!.] M.:XM.}.5X2X X}.V.N.Y.1.@.A %.*.X 5X6X6X4X<.>X5X5X XZ U S./.`.'.[.)._._.'././.!.`.!.!.!.R.S.",
"r.Z.8.D.D.D.G.!.L.J.M D.r.9.H m / r >X5X.X<. X>.> #.m. X&X5XB.: : C 3 }.6X6X6X<.-.5X6X5X2.M K.D.R.).).)._././.`.G.`.`.`.!.].!.S.",
"e.0.D.0.J.J.L.D.J.K.N ~ M F :X$Xs X 2X5X4XY.i V.V.(.2X}.m.1.i < a.i.<.$.5X5X5XM.-.6X6X5X2.J ~.G.!.).'.)././././.G.`.`.R.`.`.`.R.",
"e.e.9.t.r.0.D.L.J.K.J J C.:.2X6X6X4 :X6X6X$X,.C I > < >.&.u.> > d.s. X  3 D a 3 &X5X6X>XF.J W.R.).)./.R.R.!./././.'.R.F.`.`.L.L.",
"9.e.0.D.D.9.9.D.r.J.~ 7.S.,.&X6X6XD m.6X5X5X%.> s.s.p.v.a.k.a.: i.s.(.4 (.,.,..X5X6X5XY.C.t.W.G.R.'.'.^.!.^.!.L.!.!.XX'.G.L.~.r.",
"8.C.Z.D.D.C.C.D.J.J.J r.R.,.m.6X6X$X4 &X5X6Xn.a.s.s.< M.a.k.a.: i.k.>.; 6X5X6X6X6X5X$X*.B J L.L.~.Q.r./ J Q J N M 6.0.^.Q.t.Q.w.",
"C.C.C.D.D.S.S.D.J.J.N J.D.3.m.>X6X5X<.Z 2X5Xn.s.a.s.u.N.>.} &.I < p.i 2 :X6X5X5X5X:XF m M L K 6.K L ^ J Q Q E N J J J J N N z z ",
"D.D.D.D.S.D.F.L.r.J.M J.D.F.F Y.6X4X,.p u m.N.l.i.k.p., A B.m.M.(.m.u Y t a ;.;.i e G.K J ^.5.F.L.G.L.0.0.r.Q.W.!.].`.!.L.9.J l ",
"r.D.W.D.L.!.D.D.J.J.N J.D.S.C.D 1.D H T R H ; &.> x.V.B.I.V.m.M.(.Z s J.D.G.H.Z.A.R.].T J !.XXS.F.8.0.L.W.L.0.!.].'.!.L.G.0.0.0.",
"r.r.t.t.t.J.J.J.K.e.L t.D.C.8.D.Z.5.8.6.L.C.S.N.>.V.u 4 ,.4X5X5X5X,.Z.Z.9.D.0.9.D.J.J.~.^ ^./.'.R.G.0.0.L.W.L.!.^.!.!.!.L.0.L.r.",
"x j x z z N J J z c z t.8.C.Z.Z.9.L L.~.!.9.].R.`.!./ U r :X6X6X6X}.D.r.J.J.' ` N K J / E N ].`.L.L.F.0.0.0.L.0.L.!.~.!.L.L.0.D.",
"x j h x x z N N N c z t.8.C.9.0.7.0.J.W.L.D.].!.'.W.~ h P 4 4X5X6X<./ Q E E ! ^ j Q 6.b E 7.].!.!.R.S.0.D.D.G.S.L.G.G.D.D.S.0.D.",
"{ q.e.K.Q.K.J.K.t.x c t.L.8.D.r.J.0.7.T T 8.!.'.'.W.c ^ t.Y |.5X4XZ Q Q Q ^ ^ Q 7.6.j L x ^.^.!.G.G.D.D.D.D.D.D.D.0.D.0.0.8.8.8.",
"7.D.0.J.J.Q.J.J.t.z j z J.J.r.J.W.W.L.T 8.8.].`.S.].E Q K.J.=..XZ :.' 9.D.J.J.~.!.W.0.9.Q r.^.G.0.0.D.D.D.D.D.0.0.0.8.8.9.8.8.0.",
"] Z.D.W.7.L.J.L.J.h h l t.J.J.J.W.W.W.9.8.5.`.!.G.D.( Q ~ ` U r 2.8.T ] Z.D.D.L.L.R.^.W.M r.G.G.0.0.W.D.0.D.D.0.0.8.0.9.8.9.9.8.",
"8.D.F.!.D.D.D.W.0.h h Q 0.L.0.r.7.^.9.!.L.D.T G.C.J.e.x N ` / ` ` ( 8.` T G.D.D.R.F././.M r.8.5.0.G.0.0.D.D.0.0.9.9.9.7.8.8.8.8.",
"C.D.D.C.D.Z.8.L.K.g l J.P D.J.L T T T D.!.W.{.R.].T Q h M / ( ~ ' ~ 9.7.` G.L.F.R.R.L.^.M 0.0.0.0.0.0.F.D.D.0.0.9.9.9.8.7.9.9.7.",
"0.8.D.D.9.` 9.J.r.z h Q.J.G.D.J.T D.5.R.!.].8.C.!.W.t.x ( L ( ' ' ~ ( ' ` 8.D.!.R.R.^.r.N t.6.0.0.0.0.0.D.0.0.8.9.9.9.7.9.9.9.6.",
",X9.7.D.J.` J.J.J.K.z K.J.G.T 8.D.0.0.D.D.C.!.8.!.W.Q.j q.' / ( ~ ( ~ ` ` ` D.G.L.F.L.7.t.y.r.7.0.0.0.L.8.0.8.8.9.9.9.9.8.9.0.8."
};
