/* XPM */
static char *two_walls_lr[] = {
/* columns rows colors chars-per-pixel */
"64 64 252 2 ",
"   c #C17F73",
".  c #BA897E",
"X  c #CB8C7B",
"o  c #CA8B79",
"O  c #D28C7C",
"+  c #D68C77",
"@  c #CC927D",
"#  c #D4937D",
"$  c #DA957D",
"%  c #D5977C",
"&  c #E1947E",
"*  c #D6A07E",
"=  c #BC8D8B",
"-  c #BA8A86",
";  c #BC9A8E",
":  c #BA938B",
">  c #B98C98",
",  c #AB9896",
"<  c #BC9B92",
"1  c #BC929C",
"2  c #B8999B",
"3  c #B7A89E",
"4  c #BB8EA0",
"5  c #BD94A3",
"6  c #BC9BA3",
"7  c #BD9CAA",
"8  c #B69AA6",
"9  c #BDA2AC",
"0  c #BDACAC",
"q  c #B8A5A6",
"w  c #BBB7AA",
"e  c #ADADBB",
"r  c #AAADB8",
"t  c #BCA5B2",
"y  c #BCABB5",
"u  c #B3AEBB",
"i  c #BBADBA",
"p  c #B4ACB4",
"a  c #ADB2BD",
"s  c #BCB2B3",
"d  c #B3B2BD",
"f  c #BCB2BC",
"g  c #B8B8BA",
"h  c #C48C84",
"j  c #CB8D82",
"k  c #C68989",
"l  c #CC9382",
"z  c #CC9B85",
"x  c #C4958B",
"c  c #CC958A",
"v  c #CC9B8B",
"b  c #C29A8E",
"n  c #D39383",
"m  c #DA9583",
"M  c #D39B85",
"N  c #DA9B83",
"B  c #D39C8B",
"V  c #D59789",
"C  c #C48D9C",
"Z  c #CB8D9D",
"A  c #C68C93",
"S  c #D28C9B",
"D  c #C4929E",
"F  c #CC929D",
"G  c #C49996",
"H  c #D6969A",
"J  c #D28C80",
"K  c #CCA28C",
"L  c #C8A089",
"P  c #DCAB86",
"I  c #D3A38C",
"U  c #DCA48B",
"Y  c #DDAB8C",
"T  c #D7A788",
"R  c #CCA796",
"E  c #D3AA93",
"W  c #DCAB92",
"Q  c #DBA49A",
"!  c #D6A695",
"~  c #DAB297",
"^  c #E1A98C",
"/  c #E1AA94",
"(  c #E4B093",
")  c #CB8EA2",
"_  c #C38DA0",
"`  c #D48EA2",
"'  c #C393A2",
"]  c #CC93A3",
"[  c #C39BA4",
"{  c #CB9BA4",
"}  c #C39CAB",
"|  c #CC9CAA",
" . c #CC96A9",
".. c #D394A4",
"X. c #DA94A5",
"o. c #DC9AA6",
"O. c #D49CAB",
"+. c #DB9CAB",
"@. c #D797A8",
"#. c #D89EB1",
"$. c #CE9EB1",
"%. c #E19CAC",
"&. c #E39AAB",
"*. c #E49EB1",
"=. c #C4A2A5",
"-. c #C3A3AD",
";. c #CCA4AC",
":. c #C3ABAC",
">. c #CCABAB",
",. c #C8A7A5",
"<. c #D4A3AC",
"1. c #D8A6AB",
"2. c #C5B9AC",
"3. c #DBB6A8",
"4. c #C3A4B3",
"5. c #CBA4B3",
"6. c #C3ABB4",
"7. c #C3ACBA",
"8. c #CAAAB7",
"9. c #D4A5B3",
"0. c #DDA4B3",
"q. c #DDAAB4",
"w. c #D9ABB9",
"e. c #C3B3BC",
"r. c #CBB4BC",
"t. c #C7B7B7",
"y. c #DCB3BC",
"u. c #D7B5B7",
"i. c #E3A1AD",
"p. c #E3ACA8",
"a. c #E3B2AC",
"s. c #E1BBAA",
"d. c #E3A3B3",
"f. c #E9A2B3",
"g. c #E3AAB5",
"h. c #E3ACBA",
"j. c #E9ADBB",
"k. c #E4A5B8",
"l. c #E4B2BC",
"z. c #EBB2BD",
"x. c #EABCBB",
"c. c #E5B8B5",
"v. c #E09882",
"b. c #BBC4BB",
"n. c #C9C6BA",
"m. c #D9C8BC",
"M. c #D7CDB6",
"N. c #E7C6BA",
"B. c #EFCBBD",
"V. c #B8AFC0",
"C. c #ACB5C3",
"Z. c #B4B3C1",
"A. c #BAB5C2",
"S. c #B5BBC3",
"D. c #BBBDC4",
"F. c #B5BFC9",
"G. c #A8AFC1",
"H. c #C3BBC3",
"J. c #CBBBC3",
"K. c #C8B9C6",
"L. c #D3BDC3",
"P. c #DABAC6",
"I. c #D3AFC0",
"U. c #E5B5C2",
"Y. c #EBB5C2",
"T. c #EABAC3",
"R. c #E5BBC6",
"E. c #F1B9C4",
"W. c #E2AFC0",
"Q. c #ADC6CA",
"!. c #ACC6C8",
"~. c #B3C3C5",
"^. c #BBC2C5",
"/. c #B3C5CB",
"(. c #BCC4CB",
"). c #B4CACD",
"_. c #BCCACC",
"`. c #B7CBC4",
"'. c #BBD1CB",
"]. c #B3CAD1",
"[. c #B9CCD2",
"{. c #B4CFD5",
"}. c #C2C2C5",
"|. c #C3C5CB",
" X c #C4CACC",
".X c #CAC8C7",
"XX c #D7C6C8",
"oX c #CAD4CA",
"OX c #D5D3C3",
"+X c #DAD3C4",
"@X c #D3D5CA",
"#X c #DCD4CA",
"$X c #D8D9CA",
"%X c #C7C9D2",
"&X c #DACBD6",
"*X c #C6D5D3",
"=X c #D9D9D4",
"-X c #EBC4C3",
";X c #E5CBC4",
":X c #EACCC2",
">X c #E5C5CC",
",X c #ECC5CB",
"<X c #E4CACD",
"1X c #EBCBCB",
"2X c #E4C5C4",
"3X c #F1C2C5",
"4X c #F4C6CC",
"5X c #EDD4CC",
"6X c #E7D6C9",
"7X c #F2D6CA",
"8X c #E5CAD3",
"9X c #EDCCD0",
"0X c #E4DCDC",
"qX c #EBDCDA",
"wX c #E8D9D4",
"eX c #FEDDDB",
"rX c #F3DBD6",
"tX c #D9E4D8",
"yX c #ECE4D5",
"uX c #E3E1DD",
"iX c #ECE4DC",
"pX c #ECECDC",
"aX c #E7EAD8",
"sX c #FAE3D6",
"dX c #F4E5DC",
"fX c #FBE3DC",
"gX c #F3EBDD",
"hX c #F8E9D9",
"jX c #EDF0DB",
"kX c #F4F1DE",
"lX c #FFF1DB",
"zX c #E8DEE3",
"xX c #FADDE1",
"cX c #EEEDE3",
"vX c #E7E7E3",
"bX c #F3E5E2",
"nX c #FCE5E3",
"mX c #F4EEE3",
"MX c #FBEDE4",
"NX c #FDEEE9",
"BX c #F3ECE9",
"VX c #EDF2E2",
"CX c #EEF8E0",
"ZX c #F4F2E4",
"AX c #FAF2E5",
"SX c #FBF9E6",
"DX c #F4F3E9",
"FX c #FCF4EA",
"GX c #FCF9EC",
"HX c #F5F8E8",
"JX c #FBF8F1",
"KX c #DFE5E1",
/* pixels */
"M.M.kXSXlXMXyXhXyXdXn.u.8.r.W.I.H.D.D.^.~.^._.uX6X~ W ^ M c =.;.O.i.+...@.*.%.%...F 5 R.,XT./ V O n = 6 +XM.@XAXcXFXgXAX+XmXZXAX",
"6XkXlXkXmXdXgXdXyXq :.q =.6 } 4.t f e.H.^.^.%XzXwXs.W / I x >.-.@.H ) @.*.k.&.H ] ' 5.P.,Xx.B n m n . ,.yXgXpXAXGXDXAXFXmXAXZXZX",
"M.kXSXZXAXMXMXbXm.6 >.3.P.U.I.I.w.} } 9 9 J.J.qXsXN.W ( T ; :.9  .X.&.*.&.&.X...D [ I.P.1Xc.B m # j : 2.dXgXlXGXGXcXmXgXFXmXZXkX",
"6XgXAXZXGXFXdXrXfX>.>.q.h.U.Y.W.Y.w.W.9.5.r.L.bX7XN.Y ~ K ; :.9 | +.*.*.&.X...Z 5 4.i L.1Xc.H N O X x :XsXdXgXAXFXZXZXgXMXZXZXZX",
"ZXZXFXZXDXJXbXnXnXG 1.1.T.Y.h.h.E.W.W.h.I.4.P.qX7XM.E ~ L ; 0 -. . ...] X.` ' 4 4.7.t XX;Xu.V V n X = :X5XsXhXAXAXAXAXAXmXFXAXZX",
"AXAXZXBXFXJXJXbX9X>.,.<.g.z.T.q.0.h.E.Y.R.8.P.qX7X~ E Y K ; :.r.7 } 4 5 _ 4 7 4.i i V.XX2XN.l B X V = ,.5XhXsXFXFXZXZXHXmXmXmXmX",
"ZXZXZXZXDXDXJXbXrX8X=.;.q.l.l.z.z.0.q.w.P.P.XXqX7XR ~ P K ; w e.e.t 8 8 7 8 t V.V.e V.XX;XN.z N # l = : :XsXsXhXFXZXZXgXMXmXDXAX",
"AXDXZXZXDXDXBXvXBXXXt.} 6 <.y.l.U.T.l.y.r.I.L.rX7XK ~ Y T ; :.g u V.f i p i V.G.G.G.u L.1XN.! n n o = < : :XsXsXgXAXZXZXDXDXmXNX",
"ZXGXgXSXHXHXvXVX=XoX.X0 8 =.w.y.h.Y.U.P.r.r.XXqX7XR / ^ K L 9 g Z.Z.d p p p a C.G.C.G.J.1Xx.Q n n j = G : ; N.m.n.6XgXHXBXFXFXmX",
"AXjXAXpXDXHXKXtXoX X X}.f 0 =.5.w.l.P.u.r.K.}.qX5XE / ( z ; s d S.Z.p p p i d e C.C.u K.2XN.B m n X x G < m.;X;X2.+XVXAXmXmXmXBX",
"pXZXAXZXHXoXoXb.`.'.'._. XK.7.t -.5.8.J.H.|..X0X7X3.W T v ; p g u u p y 4.4.i p Z.Z.G.7.8Xx.j m # l h sXsXhXlXlXFXAXZXZXBXFXAXAX",
"SXZXgXZXZXOXb.oX'.'.!.'.%X%XH.K.7.e.s g D.^. XuX7X~ W T L ; 2.p i i 7 4 4 4 } 6.V.V.V.A.<Xc.o $ # @ 3XsXsXMXAXAXmXBXZXZXmXmXZXZX",
"ZXpXFXZXmXZXg b.`.!.`.).)._._.|.(.(.^././.)._.uXwX~ Y Y z ; 6.s 4.5.$. .O. .D 5 t V.V.V.>Xq.l v.+ @ B.sXsXMXAXSXFXDXZXFXmXmXmXAX",
"ZXFXAXAXZXmXZXVXoX~.`.!.!./././.~././.[._.)._.uX6XN.Y U I b q 6.$.#.#.0.#.+.@.' 7 4.i K.<X3.n N + o R N.hXgXFXFXJXFXmXmXFXFXZXZX",
"FXmXmXmXAXZXJXHXVX*X*XQ.).Q.!./.Q./.Q.[.)./.(.0X7X3.^ U z x >.6. .` #.*.*.%.o.F 5 4.V.K.8X3.l $ + # : N.yXhXFXGXJXJXmXMXMXmXZXkX",
"BXFXMXmXAXZXHXJXJXvXvX~.).).].Q.Q.Q.).[.[._._.vX5Xs.Y N M c { 9.0.o.` X.&.i.&.H ' | 8.7.>X3.l $ % o ; u.wXiXcXiXJXJXFXMXFXZXZXZX",
"ZXZXgXAXMXAXAXDXDXJXKX*X^._.~.~./.{./.[.[./. XuX7XM.P % % V A +.d.d.i.o.X.+.d.%. .] 5.y.,Xa.@ N # l - q 8 bXvXBXbXnXFXNXNXFXZXZX",
"ZXkXZXAXMXAXGXHXHXuXDXD.n.e.K.|.*X_.].*X].!._.vX6X3.P T % V c ..+.i.f.f.i.+.i.#...Z $.U.4X3.l T n j A 6 7 0 q XXXXnX;XMXMXMXcXDX",
"ZXGXGXFXmXgXGXFXbXBX#Xr.7 4.7 7.H.D._._././.|.vX5X3.U ^ M n Z Z ] @.+.i.i.0.*.k...Z ] R.,Xp.l % o o = 6 8 9 9 2 6 =.XXFXmXZXZXHX",
"cXDXAXGXmXZXAXcXbX#Xu.>.} | $.} t A.|.(.(.(.(.zXrXa.U ^ N c F C ] { o.1.%.i.k.f.@.F C T.4Xa.@ % n o A ' -.6 6 2 [ =.5XAXmXDXDXcX",
"DXZXmXAX@X=X$XOX.Xn.XX>.w.q. .9.} 7 e.%X%XF.%XzXrXs.! W B x ,.[ C Z S ..@.&.X.@.o...C U.3Xa.@ m $ j - D D [ ] D 1 G MXAXZXHXZXVX",
"ZXBXFXFXZXcXw oXOX.XXXP.y.h.U.h.<.[ 9 e.|.D.%XzXrXN.W W I b :.-.] ] Z Z ] ) ] ..Z ' D R.-Xa.@ N m O h D D [ xXeXxXnXFXgXAXjXcXDX",
"BXGXBXBXcXHXVXn.n.m.t.u.l.T.j.f.0.0.| 7 K.F.H.0XrX:XE E K 2 0 y 7.4.[ 5 5 4 4 5 4 5 7 R.,Xl.n m $ X k A D ,XxXnXnXrXFXGXjXAXDXDX",
"FXcXFXmXZXHXDXVXn.n.u.>.0.h.z.z.j.0.9. .7.K.K.0XyX7XE K K < s f i i i t t t t 8 t t H.P.,X-X! m # J k A > xXnXNXNXGXFXFXZXZXFXcX",
"ZXDXmXFXAXZXZXHXDXdX1Xu.1.<.g.j.z.x.O.<.6 L.H.zXwXN.I W I ; 0 g Z.S.e r u d d u V.V.V.K.8X,XQ J X m h = 1 xXrXFXAXJXAXHXkXAXmXFX",
"FXDXFXmXmXZXFXGXGXmXeX7Xc.l.g.l.x.z.i.0.} 8.K.=XwX3.I W B b 0 A.C.G.a a a d a d F.V.V.P.8X8Xp.n m o - D , xXbXGXGXAXGXAXkXZXMXmX",
"HXmXmXmXFXGXGXHXDXdXdX1Xu.T.y.l.z.z.h.g.| 5.J.0XwX~ W ^ V b 0 g Z.e C.d e Z.d Z.F.V.Z.P.8X9Xz.n o X = 2 8 #XgXiXGXGXHXGXpXFXmXNX",
"ZXZXFXAXmXHXGXGXFXdXnX>Xu.1.y.Y.z.g.+.O.| 4.L.wX5X3./ U z b 0 g Z.G.d u u u u A.K.A.V.%X8X8Xp.m n X = 9 , , 0XaXiXJXHXVXHXgXGXNX",
"VXVXZXmXZXFXHXHXbXbX;X;.| ;.1.O.0.g.q.0.6 7.r.qX5Xs.U U v ; s p a S.g f i i i 7.7.7.i P.>X2XV N O j = 8 q , r +XiXiXOXVXAXVXBXNX",
"AXBXBXDXFXcX$X@X@XXX0 q [ <.;.O.<.| ' 6 8 r.J.qX7X3.Y U I ; s g d H.i t 4.} t } 4.7 4.XX,Xc.j n O j = 2 q XX@XuXGXBXZXZXHXZXFXBX",
"ZXmXZXmXVX=Xb.b.'.oX}.s 9 9 9 } } } -.f g }..XqX7X~ U ^ K < s p t 9 5 D _ _ ) ) ] C ' R.,Xc.n n o c - 8 q %X&XFXNXMXmXAXcXDXVXDX",
"HXZXDXZXcX@Xb.b.oXoX.Xt.t.e.e.e.e.K.H.^._.~. XqX:XE W Y K b :.9 6 > D F ) ` ` ` ] F D T.3Xc.# # o k = 6 q XXbXFXFXJXAXAXAXZXDXDX",
"cXZXZXZXDXDXDXDXDXDXDXDX=Xt.n.g S.[.!.Q.Q./. XqXB.E P ( M c F ' ) ..] H O.@.@.#.O. .1 U.4Xc.@ % @ j : 6 2 cXiXFXFXJXZXkXZXZXAXmX",
"AXZXZXZXAXZXBXmXBXBXDXcXVXHX@Xb.`.Q.Q.!.].F.*X0XB.~ P P M n H Z @.X.o.o.+.0.k.d.0.O._ 0.4Xp.@ T # @ - 2 wXdXcXiXJXFXZXZXZXmXMXlX",
"HXZXZXZXZXZXZXZXDXDXZXZXDXDXHX@Xg ).).!.F.].S.qXB.E P P % V F @.*.%.o.%.f.k.*.d.#.] C 9.4Xp.% % % @ : 2X;XdXFXFXFXZXDXHXZXZXAXZX",
"mXZXZXZXBXZXZXZXDXFXGXHXHXHXOX$X#X~.S./././.S.0XN.E P P % c F O.*.*.*.f.o.o.*.*.+.D D u.E.a.N N % @ h -XfXFXAXGXFXcXDXZXZXDXAXmX",
"ZXFXmXmXAXZXZXSXFXSXGXSXZXhXpXOXXXs |.g S.~.(.=X6XE P P % x F 0.d.f.&.X.X.*.f.*...{ ' w.3Xa.X ^ % @ h eXsXFXMXFXGXDXZXVXZXDXmXZX",
"AXMXMXZXAXZXZXGXHXGXkXlXhXhXyXN.>.e.}.g (.(. XvX6XK P Y M z >.9.O.+.S H *.f.&.&.D D } w.,Xg.n V % o . eXsXAXGXFXFXZXZXZXZXcXmXGX",
"gXmXAXAXgXkXkXZXAXaXhXdXfXfXsX:X>.G q e.}.}. XuX6XR ~ Y B x ,.-. . .+.f.&.&.&.o.D 5 8.P.1Xx.V m + o o N.eXsXFXAXNXMXZXZXZXZXZXmX",
"AXgXAXMXkXFXkX$X+XyXsX7X:X:Xu.u.l.y.-.8 J.D.%XuX5XR T Y B b >.9 5.9.q.d.O.i.O.D [ 5.7.P.>X3Xc N + o - - eXsXhXdXFXFXZXZXcXFXmX+X",
"gXAXlX+X$XOX+XOX+X6XXX:X>.<.q.x.h.q.<.6 7.K.|.vX5XN.I / I G :.7.4.w.$.9.$. .' ' 7 K.t J.8X-XH V + m - > < hXfXNXnXFXZXZXAXZXmX#X",
"SXkXSXyXM.w n.n.M.2.>.c.x.1.O.l.E.Y.<.} 9 J.|.zXrXB.Y / v ; 6.H.K.8.7 7 5 5 5 7 4.K.V.XXXX-Xp.N m   k = > , 2 rXNXNXmXZXZXAXMXOX",
"ZXZXkX6X$Xn.w n.2.:.u.l.z.j.1.1.k.E.l.q.5 J.XX0XrXB.W W I ; y H.A.K.t t t 4.t t e.A.V.%X8X,Xp.n   J k { - , , MXNXNXBXAXZXZXFXAX",
"jXZXkX#X+XM.M.M.2.q ,.q.g.j.j.k.k.j.h.h.' 5.J.bX7XN.I I B < y g A.A.f i t t V.i u A.V.K.8Xx.Q O m m = D 2 , 8XdXNXNXZXZXAXmXgXkX",
"HXVXMXmXAXAXgX+X#X;X=.y.z.g.Y.g.0.Y.z.d.| 5.XXwX7XE I Y z < s d A.A.d d p e u u Z.D.A.K.8Xx.B n J o k D eXfXNXMXNXmXmXZXZXHXmX6X",
"VXAXAXAXGXAXAXSXiX6X:Xa.O.z.g.l.Y.x.z.z.0.;.L.rX7Xb W / I < 0 a G.C.S.a a e Z.G.Z.Z.d &X>Xy.n # $ J - 2XfXFXFXFXDXAXAXZXmXAXHXZX",
"DXVXMXFXAXAXSXjXpXsXeXx.Q { l.y.y.l.z.0.@.D L.rX7XK W U B < 0 d Z.a a a a r G.e e e Z.&X>Xa.j + + @ = :XfXAXFXFXFXFXcXVXDXZXcXZX",
"VXHXAXFXGXAXkXaXiXiXMX>.[ =.>.>.<.<.q.0.{ { XXwX7XK ( U I b w r a r G.a d e Z.a Z.Z.u &X1Xc.n & % @ = :XhXdXFXFXFXmXZXHXZXDXZXZX",
"aXSXjXSXkXaXjXaXKX*X~.K.g q q 2 [ <.{ { 5 9 J.rX:XK P ^ z < 0 a e e u i i i i u d S.Z.&X>X3.m $ + % . 7XxXbXcXZXZXGXVXDXZXDXmXcX",
"gXkXSXkXHXjXjXtX*X_.).).^.^.r g 4.6 [ :.4.H.XXrX7XI P U z b s a a Z.6.4.} 7 4.i g u Z.XX>Xa.n & + @ - ,.bXBXbXgXGXkXFXmXFXDXGXmX",
"mXZXAXlXm.w b. X'.{.{.!./.S.(.}.D.D.K.K.}.}.}.iXN.E P ^ M ; 6.u r i } '  .' 4 } 7.t i J.XXq.n N + @ : , 8 bXbXbXpXAXSXFXFXmXgXgX",
"FXMXMXMXhX2.b.}.*X{.'.!.).F.(.F.F./.(.[._.~..XqXM.E ^ P z : 4.i 7.t } #.#.#.] _ } 8.7.XXXX3.M N o X : 3 8 q XXrXhXhXdXhXNXMXFXyX",
"BXNXJXNXJX&X0XtX'.'.!.!.Q.].C./.{.Q.Q.{._.~..XqX3.T T P T x :.4.} 9.k.+.+.d.#. ._ $.7.P.>Xq.@ N o @ - 1 7 8 7 2XeX5X<X#X;XMXAXZX",
"FXDXFXFXbXdXpXaXtXtXb.!.!.[./.C.{.Q.{.F./.).|.qX3.L P ( T x :.5.$.` +.d.O.@.+.@.) ' 8.P.,X3.l N n l - ] } 4 > > , m.m.nXgXMXAXkX",
"VXcXGXZXDXgXgXaXjXCXaX*Xb.!.C.!.{.{.Q./.]._.|.wXm.L T P M c | 9.0.+...o.d.f.+.X.) 1 9.P.4X3.n v.# n A C > _ > C D u.fXFXFXGXkXjX",
"VXHXcXAXAXFXFXZXaXaXaX@X*X!.!.!.{.].C.].[.(.%X0X7XL * T T l F [ O.i.+.X.X.%.*.&.` ) ' R.,Xq.n m + + J A C ) ` C a.sXfXFXGXjXHXjX",
"CXZXZXlXSXSXkXkXCXaXaXOX@Xb.).!.`.~.~._._.[.|.qX7XE L Y l V G { @.i.i.i.o.o.*.f.X.] ' R.,X1.O +     J k ` X.` H E.fXNXFXFXFXVXCX",
"VXAXgXAXlXSXSXlXjXjXyX+X@X^.b.~.^.^.D.~.^.^.%XzXrXN.L U I c F ] +...o.o.+.f.f.*.*.S C U.3Xx.B m v.  k S ` X.o.o.4XfXNXNXNXcXVXCX",
"aXSXlXMXAXAXlXjXjXaX$X.X.XJ.H.r.t.:.6.s }.}.%X0X5XN.z T n j R C Z Z @.@.+.#.%.&.X.) ] R.4Xx.B n v.v.k k ` &.S S A 2XrXNXFXmXDXVX",
"jXjXFXAXAXm.OXOXM.n.n.J.r.4.=.=.[ [ [ =.y f XXqX5X~ E I z v >.=.5 ) Z Z @.@.O.X.X.) 1 U.4Xx.Q l v.v.k A ` Z Z H Q R nXNXnXFXAXZX",
"HXjXAXm.M.M.n.b..Xn.6.;.D ' | O.+.+.@.;.6 r.L.xX1X1.W M B b :.6.t -.5 ' ) ) ) ) ] F 5 U.,XN.p.B v.J k ) ) ) o...G :Xm.bXFXFXgXMX",
"ZXgXN.M.2.w w n.}.s 9 D Z o.1.1.k.W.+.<.5 J.L.wX:X3.W T B b 0 s f i 8.} 5 _ 4 ' > 1 :.P.>X-X! B m k A Z ) ) @.A G sXfXdXFXBXMXZX",
"hXlX6XM.M.R b.M.n.q } ;.k.g.0.l.W.Y.q.;.6 6.XXwX-X~ U ! B ; s d g d e.t 4.7.t t 6.:.r.P.,XT.B V z x = ' ) C C F :XsXyXgXFXFXZXZX",
"lXlXlXB.M.M.n.n.XX6.y.9.d.z.B.E.R.E.Y.w.u.XXXX6X:Xa.( / ~ ,.t.D._. XH.e.e.f e.K.e.t.L.>X9Xx.1./ Q Q | 0.w.0.O.< N.6XgXaXFXmXAXZX"
};
