/* XPM */
static char *wall_left[] = {
/* columns rows colors chars-per-pixel */
"64 64 254 2 ",
"   c #CB8A79",
".  c #D48D7B",
"X  c #D68C7A",
"o  c #CF927C",
"O  c #D4927C",
"+  c #DA937E",
"@  c #CF7F8C",
"#  c #BC8D8C",
"$  c #BB8A88",
"%  c #BC928D",
"&  c #BC9B8E",
"*  c #B79A8C",
"=  c #BD869B",
"-  c #BC8C9D",
";  c #BC8997",
":  c #BC9B92",
">  c #BA979C",
",  c #B6A599",
"<  c #BC8DA2",
"1  c #B48EA2",
"2  c #AD9AAB",
"3  c #BC94A4",
"4  c #B59CA3",
"5  c #BC9BA4",
"6  c #BC95A9",
"7  c #B39CAC",
"8  c #BC9BAC",
"9  c #B595A7",
"0  c #AD9EB3",
"q  c #A59AB4",
"w  c #B29DB2",
"e  c #BC9CB2",
"r  c #AF8BA0",
"t  c #ABA3AD",
"y  c #BBA2AD",
"u  c #BAA7A9",
"i  c #ADA2B4",
"p  c #ACAAB9",
"a  c #B4A2B3",
"s  c #BCA4B3",
"d  c #B5ACB5",
"f  c #BBABB5",
"g  c #B4A5B9",
"h  c #B4ACBB",
"j  c #BCADBB",
"k  c #BAA5B9",
"l  c #ADB3BD",
"z  c #A7B9B8",
"x  c #B3B2BC",
"c  c #BBB3BC",
"v  c #B8B5B8",
"b  c #B8B4AA",
"n  c #CB8D83",
"m  c #C38B8A",
"M  c #C98787",
"N  c #D38C83",
"B  c #D08687",
"V  c #CB9285",
"C  c #CD9D85",
"Z  c #C4958B",
"A  c #CC938B",
"S  c #CE9C8A",
"D  c #C59486",
"F  c #D49582",
"G  c #DB9582",
"H  c #D39C84",
"J  c #DC9A83",
"K  c #D49D89",
"L  c #D6988A",
"P  c #CB8495",
"I  c #C4869A",
"U  c #C38C9C",
"Y  c #CB8B9C",
"T  c #C78797",
"R  c #D3869B",
"E  c #D48B9D",
"W  c #DA8C9E",
"Q  c #D48694",
"!  c #C5949A",
"~  c #C79798",
"^  c #D59699",
"/  c #E29786",
"(  c #CDA28B",
")  c #CBA186",
"_  c #D3A48B",
"`  c #DCA58A",
"'  c #D6A98E",
"]  c #DCAA8C",
"[  c #DAA784",
"{  c #C7A699",
"}  c #DBAC92",
"|  c #D5A997",
" . c #D9B19C",
".. c #E1AB8B",
"X. c #E0AC94",
"o. c #E2B192",
"O. c #C48CA3",
"+. c #CC8DA2",
"@. c #CC8AA4",
"#. c #D38DA3",
"$. c #DB8DA2",
"%. c #D88CA6",
"&. c #C393A4",
"*. c #CB93A3",
"=. c #C49AA4",
"-. c #C395AA",
";. c #C39BAB",
":. c #CB9CAB",
">. c #CB96A9",
",. c #D493A4",
"<. c #DC92A4",
"1. c #D394AA",
"2. c #DC94A9",
"3. c #D49DAB",
"4. c #DC9BAB",
"5. c #D89BA3",
"6. c #C29DB1",
"7. c #DA9CB1",
"8. c #E18FA6",
"9. c #E293A6",
"0. c #E295AB",
"q. c #E29BAD",
"w. c #E99CAC",
"e. c #E49EB2",
"r. c #E99FB0",
"t. c #CDA2AB",
"y. c #C3ADAC",
"u. c #CBABAB",
"i. c #C7A4A7",
"p. c #DDA2AC",
"a. c #D6A7A8",
"s. c #C3B4AA",
"d. c #DCB4A6",
"f. c #C2A4B3",
"g. c #C3ABB4",
"h. c #C2ADBA",
"j. c #CAA6B5",
"k. c #D5A2B3",
"l. c #DCA4B2",
"z. c #D8ACB4",
"x. c #C3B3BC",
"c. c #C6B7B9",
"v. c #D8B6B9",
"b. c #E4A2AE",
"n. c #E4AEAC",
"m. c #E3B2AD",
"M. c #E3BAA6",
"N. c #E4A3B3",
"B. c #E4ABBA",
"V. c #E8A7B5",
"C. c #E4B5B5",
"Z. c #E4B3BA",
"A. c #E4BABB",
"S. c #E9B7B9",
"D. c #F1AFBA",
"F. c #BBC4BC",
"G. c #B7C4BC",
"H. c #C6C7BB",
"J. c #DBCEBC",
"K. c #D8C8B7",
"L. c #D5D1BE",
"P. c #DCD3BD",
"I. c #DAD2B7",
"U. c #C5C1AF",
"Y. c #E4CCBC",
"T. c #EACBBE",
"R. c #E7C8B9",
"E. c #E3D4BB",
"W. c #E9D1BA",
"Q. c #EBC7B5",
"!. c #B7AFC1",
"~. c #AEB4C2",
"^. c #ABBDC3",
"/. c #B4B3C2",
"(. c #BCB3C3",
"). c #B5BBC4",
"_. c #BCBCC4",
"`. c #BABCC8",
"'. c #AEAEC0",
"]. c #CBBCC3",
"[. c #C6B8C4",
"{. c #DBBDC4",
"}. c #D5BEC6",
"|. c #C9ACC0",
" X c #E7BBC3",
".X c #F1B7C3",
"XX c #EDAEC2",
"oX c #ACC3C4",
"OX c #ACC5CA",
"+X c #AAC8CC",
"@X c #B4C3C3",
"#X c #BCC3C4",
"$X c #BDCAC3",
"%X c #B3C4CB",
"&X c #BBC4CB",
"*X c #B4CACD",
"=X c #BACACA",
"-X c #BBCCD3",
";X c #B4CAD3",
":X c #B7D2D5",
">X c #B1CDD1",
",X c #C2CACD",
"<X c #C7C7C6",
"1X c #D2C2CB",
"2X c #D7C6C6",
"3X c #CDD1C3",
"4X c #C5D3CA",
"5X c #D5D4C4",
"6X c #DCD4C2",
"7X c #D4D5C9",
"8X c #D8D8C8",
"9X c #C8C8D2",
"0X c #D2D3D4",
"qX c #E5C3C2",
"wX c #ECC4C5",
"eX c #EBCCC3",
"rX c #EBC5CB",
"tX c #EBCACC",
"yX c #E3C9C9",
"uX c #F2C6C7",
"iX c #E4D4C3",
"pX c #E7D6CB",
"aX c #F3D4CD",
"sX c #F5D6C6",
"dX c #E4CAD2",
"fX c #EECAD1",
"gX c #E4DCDC",
"hX c #ECDBDC",
"jX c #ECD9D4",
"kX c #F3D8D6",
"lX c #F5EBCF",
"zX c #ECE4D4",
"xX c #EEEAD5",
"cX c #EEEADB",
"vX c #E7E3DB",
"bX c #F2EBD5",
"nX c #F3EBDB",
"mX c #F4E7DA",
"MX c #F4F1DE",
"NX c #FAF3DF",
"BX c #EAE5CE",
"VX c #EADCE2",
"CX c #F4ECE2",
"ZX c #F9EDE7",
"AX c #F5F3E4",
"SX c #FAF3E5",
"DX c #FDF9E5",
"FX c #F6F3EA",
"GX c #FBF5EB",
"HX c #FDF9ED",
"JX c #F7F8EA",
"KX c #FCF5F1",
"LX c #FEFAF2",
"PX c #F1EBE6",
/* pixels */
"P.6XbXbXbXbX6X8XcX3X3Xc.u.c.v.v.c.].].].[.`.`.,XgXzX .| ] S Z i.^ p.q.2.^ 5.p.b.<.4.*.> {.qXA.n.O + V % 5 s h 0 !.i t t 2 4 7 9 ",
"nXbXnXbXbXMXnXxXJXAXLXu y.> i.> u y j.h.}.[.&X,XgXhXM.} } ( ~ u.a.^ E $.2.N.b.b.5.,.*.t.{.rXR.K O O V % y k k 0 w 0 0 7 4 8 ;.8 ",
"xXbXnXNXSXNXCXmXcXcXFXGXmXmXyXs.u.v.5 f.2 h.[.1XvXjXT.} o.( & u.i.! 2.e.e.r.4.5.,.O.;.j.{.tXS.^ F . D # 4 7 w 9 e < < < = = = = ",
"cXnXnXSXSXAXZXPXCXCXCXCXZXmXZXyXeXK.z.z.j.j.h.1XhXaXQ.} o.( * u.u &.7.N.e.0.1.*.! =.f.f.{.rXS.L J O V % 5 e 9 < O.O.I I R #.#.@.",
"cXJXAXSXHXZXCXmXCXGXCXGXHXZXSXiXiXR.v.A.v.v.f.1XkXkXK.[ ' ( : y.g.;.-.1.1.1.1.< 9 y h.g.{.tXC.^ / X N m =.3 < @.@.R E <.8.8.%.%.",
"CXHXJXAXSXCXCXCXHXSXGXDXGXSXSXbXJ.W.T.A. Xv.c.].kXkX .} ' ( ~ y.h.k 6 3 O.O.3 6 s f c j }.tXS.A / X N m ! ; I @.#.W 9.9.8.8.8.$.",
"AXJXHXGXGXZXZXCXCXGXNXMXJXDXxXxXbXW.eXz.v.{.].2XvXaX| } } ( & s.c c k 7 9 9 7 f c x !.!.}.dXwXZ L + N M T T *.%.8.8.9.W $.<.%.#.",
"FXFXHXKXZXHXHXmXmXmXSXSXxXcXnXbXsXT.T.v.v.g.}.<XhXaX| ] o.) * b v ).h h x.h.f d x ~.p !.}.dXwX{ F + N M ! T ,.2.$.W W Q <.0.2.@ ",
"SXGXHXGXKXGXnXcXAXDXNXxXMXMXL.iXT.wXC. X{.h.].1XkXaX| o...) & y.v ).!.h h d d v l l p h [.dXqX .V o n D ! U +.2.@ $.Q W q.<.E T ",
"GXGXHXHXGXCXcXAXDXnXMXxX6X6X5XJ.aXa.A.v.h.}.].<XVXaX| ....) & b c ).x x f d d d x x /.c x.yXqX{ F O D $ ! &.+.#.%.R W <.W E T #.",
"ZXDXFXLXLXAXJXAXAXBX5X5X5X8X7X2Xu 5 j.h.[.[.x 9XhXtXn...X.C & y.f c h k s s f.h.k h h h x.dXC.D O o V $ > y O.U %.%.2.E R +.I *.",
"mXCXFXHXGXFXHXnXP.6XL.5XL.H.<X<X].c.j j [.%X-X=XvXaXM.` ..C Z y.c f k y 4 3 > 8 g.j (.h x.dXS.n F O C $ 5 i.6 < @.1.+.+.@.= &.-.",
"CXCXKXHXSXGXJXDXP.H.F.H.F.#X,X=X%X).&X&X%X%X;X=XgXpXd.} ` K ~ i.g.j.j.6.>.:.*.&.3 f.!.j c.yXn.n / X V # u u w e < < 1 = = 6 8 9 ",
"mXGXGXLXGXZXSXxXL.I.U.H.F.#X%X*X%XOX%X%X9X-X%X=XgXjXM.o.H _ & u.j.j.7.3.k.4.4.,.>.6.j h c yXn.L / X n # > a e k 6.r r > 7 e 2 7 ",
"nXLXZXHXHXCXAX6X6X8X3XF.@XoX+X+X+XOX`.;X-X;X*X,XgXaXM.} H H Z u.k.&.*.4.N.2.q.b.1.-.k h x.6Xd.N J . V % 4 a !.w !.9 a 0 7 w 2 0 ",
"nXAXHXHXHXGXnXbX6XP.8X7XG.OX:X>X>X+X+X%X-X-X%X=XvXaXM.} _ K Z :.p.k.q.,.<.q.b.q.1.@.f.j c.yXn.A / F n % 9 a g 0 w w 7 w 7 7 w 0 ",
"xXDXJXJXKXFXAXmXP.P.L.7XG.G.:X@XoX*X:X+X:X:XOX,XgXkXM.] H H A ~ 5.V.r.0.<.,.3.N.3.1.&.j.v.uXd.C G + V $ 4 t d g e 9 6 6.-.-.6 9 ",
"MXAXJXLXKXHXmXmXP.E.6X5Xc <Xc _.,X$X-X+X:X>X%X-XhXkXM...H J V Z ,.e.e.V.V.N.7.p.N.3.Y t.Z.wXl.V J . D % 4 a k e e -.< < < < 3 6 ",
"xXDXLXLXFXCXzXJ.6XJ.iXH.c.y 8 s g.[.`.9X-X%X*X=XVXaXd.] ..F D ~ ! ,.2.4.r.V.b.N.N.5.I *. XuXd.A G     # 5 8 6.e -.1.>.@.@.O.U &.",
"cXHXFXHXHXGXnX8X8XiXH.v.y.t.7.>.;.8 ].[.9X&X%X,XVXjX .} ..H Z ~ ! ! 1.4.e.e.b.V.e.2.,.U S.uXm.V O .   $ ;.;.-.-.@.1.1.2.%.R Y Y ",
"KXZXHXHXJXJXMXAXH.H.3Xc.c.j.{.7.7.:.-.].].9X%X,XgXhXd.} } _ Z i.! ; U ,.,.q.<.<.0.<.#.Y  XuXn.V J + n M *.-.+.7.#.R %.9.8.$.R Y ",
"ZXGXLXHXDXMXAXAXL.3X<X2X{. Xl.XXB.3.:.;.|.1X&X=XgXhXQ.} ] ( & u.y.=.3 U O.,.Y ,.,.+.+.*.XXuXn.n + J B M Y O.*.2.2.E E <.8.8.#.@ ",
"KXKXFXDXHXMXMX5X8XH.H.c.v.Z.B.XXN.B.k.:.8 ].<X).gXzXT.| ' _ : y.f g.f.;.3 6 > - > - 3 >. XfXS.A J + N B T I #.$.9.$.W W W <.$.Y ",
"KXKXLXHXDXSXGXcX6X6XiXP.i.a.XXD. XZ.B.k.;.f._.#XgXzXsX .K _ ~ b f c h.k k f y s 8 e h.h.{.dXA.| O + F M m Y #.$.W 0.W W $.9.<.R ",
"PXKXKXKXHXSXSXSXmXY.E.R.T.a.a.N.C. XZ.l.3.;.c [.gXzXQ._ ] K % f v _.!.!.g !.x l x c j j }.dXrXt.o . N M T T +.E W q.<.<.$.8.9.R ",
"KXKXKXFXLXSXSXSXpXY.I.E.T.wXS.C.z.S..XV.4.:.h.H.gXpXd.' ] _ % y./.).'.'.'.~.l l ~.)././.9XdXrXm.C F N M T I I Y E E W %.9.w.0.E ",
"ZXLXLXLXAXGXSXMXK.I.E.W.Y.C.Z.C.C.S..XV.7.t.j.<XhXpX .' ` ) % y.x ~.!.!.).l l l /.)././.}.dXfXS.F O   m ! O.= I T +.,.<.$.8.9.W ",
"KXFXGXGXHXSXnX6XP.E.I.J.eXd.l.Z.Z.Z.B.e.4.:.f.].hXsXd.] [ H & s.v ~./.'.!.p x l x (.(.j }.dXfXl.H o n m :.=.< < ; I T Y R R R R ",
"ZXHXLXHXGXbXBXP.E.6X6XiXu :.p.4.p.l.l.B.k.;.h.c.jXaX .X.` H & b d /.`.|.!.h j f j c x.c 1XtX X~ F   o m 5 8 9 1 3 < = = I @ @ O.",
"GXLXFXGXSXnXiXP.6X6Xc.b > =.>.a.t.t.*.=.;.9 c [.hXaXd.X.` ( & u d x [.h.j.j.f.8 i.8 8 j.{.rXA.V J   M # 3 7 7 2 8 6 9 < < = = < ",
"LXJXGXHXSX6XJ.6XH.3X4X#X#Xd 8 y =.=.;.g.c.x.&X<XhXaX .} ` _ & s.v d s 9 < &.U ! Y *.U :.v.uXC.V O X n # 4 a i i h a 7 7 6.6.e 6 ",
"FXHXLXHXnXbXcX5X7X$X:X4Xz #X_.x.c.c.[.[._.`.@X,XhXaX( ] .._ & s.y 4 1 &.+.,.Y E #.4.Y U Z.uXC.F + X n ; 9 i t h i i g w e k w e ",
"AXHXGXHXFXcXcX5X7X4X4X:Xz oX*X%X`.-X%X>XOXOX%X,XBXBX+ o..._ ~ ~ # ,.+.+.1.3.7.4.q.e.+.! v.uXC.K + o D $ 5 t i i i i 0 2 0 a h a ",
"HXAXSXDXHXAX7X5X4X4X:XoX>XoX*X>X>XoXOX+X+X:X%X,XBXE.o.o...) Z ! ^ <.<.e.7.4.l.k.N.e.2.U v.qXm.A J O D $ 5 4 w i 0 0 0 2 0 i i 0 ",
"SXFXHXHXGXFXgXF.H.F.$XG.@XoX*X=X*X%X>XoX+XOX^.&XgXiX' + + + S ! E b.4.0.q.e.N.N.r.0.5.; z.qXd.n J O n % y 8 2 0 w w 2 e w 7 i p ",
"SXHXGXLXAXnXCX5X8X3XH.F.F.$X$X$X#X@X@X@X+XoX-X_.gXT.' o.] o Z ^ 5.N.N.r.e.4.4.b.N.<.+.U z.eXC.A / F   $ ! 9 9 e e 6 < e 9 7 w !.",
"GXHXFXGXGXnXmXnX8X8X8XL.5X7X7X3XF.F.z $Xz *X%X`.gXeX( o.+ o { { p.N.V.q.$.<.r.b.b.<.U :.z.wXa.^ / + B M Y ! = < = = T &.-.-.8 e ",
"FXGXKXGXGXGXnXnX8X8XL.8X5XnXcX5X5X5X3XF.G.@X&X,XhXeX( ] ..o ) s.a.p.2.#.,.r.V.q.q.+.U t.v.rXm.A / X   @ P Y @.%.1.,.Y T I ; < -.",
"KXGXGXKXSXZXDXnXBXxXxXMXP.bXmXiXP.6X5X6Xv $X_.9XvXpX{ ] [ ) Z i.i.&.*.1.V.V.q.5.3.! ;.f.}.tXS.L G X X   B R %.%.9.$.<.<.$.#.+.@.",
"GXHXKXHXGXGXSXMXDXDXDXNXDXDXNXE.P.P.6X5X8Xc #X9XVXkX{ ] ' ' Z i.i.i.z.B.q.4.4.5.Y &.j.j.}.yX.X^ / . X @ @ @ $.8.0.9.<.<.<.2.%.%.",
"FXLXHXGXZXSXnXcXzXMXxXSXDXNXmXlXI.E.I.E.6Xv <X<XVXkXM.' ] ( : u.f.f.j.k.k.7.*.! - f.x.g.}.dX X| O   . M B P #.$.9.<.W W W 9.q.0.",
"FXFXZXGXGXGXSXGXMXMXMXMXDXbXbXbXW.I.E.Y.pXu [.9XVXhXT.} } ( : y.].[.h.y ;.=.3 5 8 f [.j }.dXwXa.H     m T T Y +.0.<.9.W W W %.2.",
"HXGXGXHXSXGXAXJXcXcXcXNXP.P.6XP.E.K.Q.T.J., c.1XhXkXsX} } ( * y.c (.|.h.f.f.8 8 k f (.!.1XdXwXa.H     m ! T = I #.$.9.0.9.#.,.#.",
"FXHXHXHXCXFXAXCXcXMXnXAXNXP.Y.iXW.W.Q.T.z.> g.<XgXaXQ.' ' ) : f c _.(.(.j f f f j /././.1XdX X| O O n # ~ 5 - = +.#.<.<.<.2.1.1.",
"FXGXHXKXFXGXGXAXMXcXcXxX6XY.E.Y.eXY.eXS.a.! g.2XVXaX| _ ' ) : g.(.)./.!.h h d v p /.).!.1XdXA.K . G N $ > y 9 3 = I R #.<.1.1.*.",
"LXLXGXLXFXFXFXSXcXpXxXL.J.iXiXE.eXC.S.S.C.v.i.}.kXaXS } [ ) : y.l ~././.x l p x p ~.~.l 1XtXm.V X G n $ > y 8 9 1 = I Y +.+.&.-.",
"KXKXKXHXGXFXCXGXSX6XiXE.Y.Y.K.v.v.v.Z..Xp.t.> 2XkXaX_ ] ] ) * y.x l ~.l l l p l l ~.~.x dXtXz.n + N V # 5 7 0 w f.6 < = < < &.;.",
"FXLXKXKXGXGXCXCX6XP.U.s.b & { { u.k.l.p.z.&.5 }.kXsX' ` ..) ~ b p p ~.~.x x d l l ^.~.x dXtXn.F / F V % 4 7 0 0 k k 8 9 3 9 6 8 ",
"AXJXAXHXFXZXKXCXkXmXI.6XU.s., , : t.t.:.>.5 u }.kXaXL ..` S & b p l p h (.|.f d d /.x v dXrXn.N G O V % 5 k g 0 '.g t t w w q g ",
"AXJXHXLXKXKXZXPXnXbXP.I.iX6XU.b y.y 5 ;.6.f [.<XhXsXL ..[ C * b v l /.h.s 9 e j.h.c v d 2XwXn.A + O n # 5 k 0 0 g i t t i g q p ",
"DXSXHXHXFXFXCXcXzXbXP.P.K.E.6X2XH.[.[.[.1X<X_.<XjXR.} ..` H * b d x j e ;.>.&.- ;.f.h.j }.qXd.S + O n # 5 7 w 0 w 2 2 7 w w q q ",
"HXHXHXGXFXJXMXMXnXlXlXE.iXJ.J.8X_.-X`.`.9X=X@X,XhXK.} ....H % u.c d f.:.k.4.^ *.< ;.|.h.].qXd.V ` . n $ -.9 7 w e e 9 8 9 e e e ",
"GXGXGXHXFXFXMXxXMXlXlXlXP.P.iX5X^.%X;X;X:X=X*X$XzXd.( [ ..H % u.i.;.k.l.p.p.p.p.*.-.f.h.{.yXd.V J . n m =.6 e 6 -.6 3 &.U < -.8 ",
"ZXGXAXHXJXJXMXMXlXlXlXI.P.P.L.7X^.;X;XOX%XoXoX$XvXd.) [ .._ Z i.:.>.3.N.b.5.5.p.1.O.-.j.2XwXn.V L . N m ~ =.< < < I = T @ = O.O.",
"HXHXKXHXAXJXxXbXxXxXL.8X5X5X3XG.^.:X;XOX;X=X@X,XvXK.C [ ..K Z t.:.l.4.#.5.b.b.4.#.1.O.6.qXrXm.L / G N M m - - I @.@.@.#.E E Y I ",
"KXKXLXFXCXxX6XL.I.8XL.L.7X3XG.G.`.-XOX^.*X-X-X&XvXiX( _ ` K A ~ 3.l.e.4.<.^ 4.b.0.2.@.:.Z.uXm.n L G N B m T Y #.#.%.#.2.$.$.E P ",
"KXLXKXGXHXcXxXL.L.3X8X4XF.G.$X$X).@X*XOX&X-X*X,XgXkX( _ ` J ~ ^ ~ 4.4.e.e.2.4.b.w.<.Y *. XwXn.n F . X @ M ^ $.%.$.0.2.0.0.$.$.P ",
"KXKXKXHXSXAXxXP.H.4XF.F.4X$X$X@X$X#X#X).&X&X&X&XPXaXT.C ` _ Z ~ ! ^ 2.q.e.4.r.V.r.q.,.T  XuXD.^ J X X B M W 9.8.0.$.%.$.9.$.#.P ",
"FXKXLXLXcXbXcXG.F.4X$X:X,X#X_.<Xc.x.x.f x.[.,X<XVXfXS._ ] C D { ! Y #.2.2.7.q.q.q.<.Y !  X.X.X^ . G X   Q W 9.$.$.R %.2.%.#.@.@.",
"LXKXHXLXnXnXL.F.H.4XG.=X9Xc.k 8 5 5 i.y 8 s [.1XhXkX .| K C * a.=.U O.*.@.1.4.5.^ 5.&.- {.wXuXa.O J N N A Y E R $.8.0.$.<.+.O.@.",
"KXKXHXDXHXL.8XL.H.<X<Xc y 4 -.:.:.t.l.7.:.;.x.2XkXfXd.` _ _ & u.y.f.6 -.6 O.*.+.Y *.! 3 v.tXqXa.o J N M ~ Y ,.2.W 0.W P Y I < 6 ",
"KXKXHXHXI.8XI.8X7X1Xb 4 3 =.p.3.l.l.V.7.4.=.c.2XkXrXn.| ` S * y.c x.c k e 6 3 - - 3 > j.{.tXA. .K J n m Y ! +.,.W $.W Q T = 6.e ",
"cXDXSXDXL.P.L.6XpXK.i.3 t.z.b.n.v.XX.XB.t.=.c.H.pXeX| o.J C & b f _.).h d f g.u u g.j |.{.fX X^ K F V m &.;.O.R $.Q Q Q Y &.8 7 ",
"AXMXDXxXI.I.P.P.2Xv.u.a.Z.V.V.D.XXXXB.k.z.a.2X2X2XR. ._ _ } { c.(.&X`.x v v c.f c j v |.}.tXT.^ L F V # =.:.-.@.W Q Q P Y ;.w |."
};
