/* XPM */
static char *wall_down[] = {
/* columns rows colors chars-per-pixel */
"64 64 253 2 ",
"   c #CC8A7B",
".  c #D48E7B",
"X  c #D68C79",
"o  c #CE967D",
"O  c #D4937C",
"+  c #D7967E",
"@  c #CB7E93",
"#  c #BB8D8B",
"$  c #B98B88",
"%  c #BC9A8D",
"&  c #B9958C",
"*  c #BC869B",
"=  c #BC8B9D",
"-  c #B78A9A",
";  c #BC9C91",
":  c #B89699",
">  c #BAA79A",
",  c #BB8DA2",
"<  c #AC9AAC",
"1  c #BD94A4",
"2  c #BB9BA3",
"3  c #BC95AA",
"4  c #B39CAC",
"5  c #BC9BAC",
"6  c #B598A7",
"7  c #AD9EB2",
"8  c #B39DB2",
"9  c #BA9CB2",
"0  c #B3A3AC",
"q  c #BBA3AD",
"w  c #BDACAD",
"e  c #B8A4A6",
"r  c #BBB2A9",
"t  c #ADA2B4",
"y  c #ABADBC",
"u  c #ACA8B5",
"i  c #B2A2B4",
"p  c #BCA3B3",
"a  c #BAABB5",
"s  c #B4ADBB",
"d  c #BCACBB",
"f  c #B5A8B7",
"g  c #ADB3BE",
"h  c #AABCBC",
"j  c #B3B2BD",
"k  c #BBB3BC",
"l  c #B8B6B8",
"z  c #ADA0AF",
"x  c #C48B84",
"c  c #CB8D83",
"v  c #C88788",
"b  c #D48C82",
"n  c #D78883",
"m  c #CC9284",
"M  c #CC9D85",
"N  c #CA948A",
"B  c #CC9D8A",
"V  c #C49588",
"C  c #D49482",
"Z  c #DA9583",
"A  c #D49C84",
"S  c #DB9B85",
"D  c #D1958B",
"F  c #D19C8A",
"G  c #DD9A89",
"H  c #C3869C",
"J  c #CC869B",
"K  c #C48B9C",
"L  c #CB8B9D",
"P  c #C98895",
"I  c #D3869C",
"U  c #D38B9C",
"Y  c #DA8D9D",
"T  c #D58696",
"R  c #C4929D",
"E  c #CC929C",
"W  c #C69A97",
"Q  c #D7939B",
"!  c #E29886",
"~  c #E18E9E",
"^  c #CCA38B",
"/  c #CEA388",
"(  c #D4A48C",
")  c #DBA58B",
"_  c #DBAA8C",
"`  c #D7A787",
"'  c #CBA895",
"]  c #D5AA92",
"[  c #DCAC92",
"{  c #D5A698",
"}  c #DAB199",
"|  c #E1AB8D",
" . c #E1A68B",
".. c #E2AE90",
"X. c #C48DA2",
"o. c #CC8DA1",
"O. c #CA86A2",
"+. c #D38CA3",
"@. c #DB8DA3",
"#. c #D78BA6",
"$. c #C493A4",
"%. c #CC93A3",
"&. c #C49AA5",
"*. c #CA9BA5",
"=. c #C395AA",
"-. c #C29BAB",
";. c #CB9CAB",
":. c #CD92A9",
">. c #D493A4",
",. c #DC92A4",
"<. c #D595AA",
"1. c #DC94A9",
"2. c #D39CAB",
"3. c #DC9CAB",
"4. c #D79AA5",
"5. c #C29BB2",
"6. c #D99DB1",
"7. c #E18EA2",
"8. c #E293A5",
"9. c #E294A9",
"0. c #E29CAD",
"q. c #E699AB",
"w. c #E49EB1",
"e. c #E69AB0",
"r. c #CBA5A4",
"t. c #C3A3AB",
"y. c #C3ACAB",
"u. c #CBABAC",
"i. c #C8A5A7",
"p. c #DAA2AD",
"a. c #D8A8A9",
"s. c #C2B7AC",
"d. c #DEB2AC",
"f. c #DBB5A4",
"g. c #C3A4B4",
"h. c #CBA3B3",
"j. c #C3ABB5",
"k. c #C3ACBB",
"l. c #C8A9B8",
"z. c #DCA4B3",
"x. c #D7A8B5",
"c. c #C4B5BC",
"v. c #CCB3BC",
"b. c #C9B8BA",
"n. c #D8B5B8",
"m. c #E2A2AE",
"M. c #E3A9AD",
"N. c #E3B6AA",
"B. c #E4A3B3",
"V. c #E7A8B5",
"C. c #E3B5B5",
"Z. c #E3B5BB",
"A. c #E4BBBC",
"S. c #E9B8B9",
"D. c #F1B7BB",
"F. c #B9C4BB",
"G. c #C6C8BC",
"H. c #D8CBB9",
"J. c #DAD2B5",
"K. c #D6D2BC",
"L. c #DBD3BC",
"P. c #DBD6BA",
"I. c #CCD1BD",
"U. c #E4CDBD",
"Y. c #E6C7B9",
"T. c #E2D3BD",
"R. c #E3D5B9",
"E. c #F0C9B7",
"W. c #BBAEC2",
"Q. c #ADB4C2",
"!. c #A9BEC4",
"~. c #B3B3C2",
"^. c #BAB4C3",
"/. c #BBBBC3",
"(. c #B6BBC5",
"). c #ADAEC0",
"_. c #C4BDC5",
"`. c #C7B8C3",
"'. c #D4BEC5",
"]. c #DCBDC3",
"[. c #D6BDC9",
"{. c #E7BAC3",
"}. c #F2B9C2",
"|. c #ADC5CA",
" X c #ADC9CC",
".X c #ACC3C5",
"XX c #B3C4C5",
"oX c #BBC4C4",
"OX c #B3C4CB",
"+X c #BBC4CB",
"@X c #B3CACD",
"#X c #BCCACC",
"$X c #B9C9C5",
"%X c #B7CCD3",
"&X c #B6D1D4",
"*X c #BED3CD",
"=X c #C3C3C5",
"-X c #C3CBC3",
";X c #C3C4CA",
":X c #C2CACC",
">X c #CBC7C7",
",X c #DCC2CA",
"<X c #D5C7C8",
"1X c #CBD4C7",
"2X c #D4D4C4",
"3X c #DBD4C3",
"4X c #D4D4CA",
"5X c #D9D7C9",
"6X c #C6CBD2",
"7X c #CFD4D5",
"8X c #E6C3C3",
"9X c #EBC5C4",
"0X c #E4CBC3",
"qX c #EACBC4",
"wX c #ECC6CA",
"eX c #E5C9CD",
"rX c #EAC9CC",
"tX c #F2C5C9",
"yX c #ECD3CC",
"uX c #E4D6C6",
"iX c #F2D5CD",
"pX c #F3D3C5",
"aX c #E5CAD2",
"sX c #E5DDDC",
"dX c #EADDDC",
"fX c #EBD9D5",
"gX c #F4D6D2",
"hX c #F3D9D8",
"jX c #EAE6CC",
"kX c #EEE9D5",
"lX c #EEEADB",
"zX c #EAE5D8",
"xX c #F1EBD4",
"cX c #F3ECDB",
"vX c #F4E8DA",
"bX c #FAF2DD",
"nX c #F6F1D9",
"mX c #F0E6CE",
"MX c #E9DDE1",
"NX c #EEE9E1",
"BX c #F3EDE2",
"VX c #F8EDE5",
"CX c #F6F2E5",
"ZX c #FBF3E5",
"AX c #F6F4EA",
"SX c #FBF4EB",
"DX c #FEF9ED",
"FX c #F9F9E9",
"GX c #FDF6F1",
"HX c #FEF9F2",
"JX c #F9F9F4",
"KX c #EEF1E3",
"LX c #DEE0D3",
/* pixels */
"6 6 * +.#.Y I @ @ U o.=.4 < 7 7 4 q $.o.O.@ I I I +.I I H , =.f 7 7 s d =.X.O.1.1.1.#.:.:.:.-.8 7 7 7 i 3 = H P @ T +.$., 9 7 W.",
"4 5 * +.@.8.8.8.Y J H X.9 < 7 7 6 2 = K +.#.@.@.1.q.9.U H * 5.9 W.t i 9 9 X.H #.1.,.>.1.<.O.$.5 7 7 7 8 5 K L U 7.T L K =.5 9 9 ",
"4 3 * #.8.8.8.8.Y U L * 1 9 8 8 6 = K U #.7.9.8.8.7.8.@ J * h.g.7 7 8 4 -.K +.,.8.Q ,.,.<.o.= 3 8 7 8 9 , H O.7.Y 7.I +.H K =.5.",
"< 3 * J 8.8.Y Y 8.Y U L * 3 4 8 =.H o.#.7.9.@.@.~ ~ 7.I J * 9 8 7 i i 9 =.H #.@.Y Y 8.,.+.o.K 6 i 7 8 3 , H #.9.9.8.7.,.P H H o.",
"z 4 , @ <.1.@.U Q 4.U o.- - < 0 =.* o.3.,.Y U U ~ 8.Y U H = 4 7 < 7 8 3 $.H ,.8.T ~ 8.8.U L * 1 8 t 7 3 , , O.1.q.,.,.Y U T P P ",
"t 8 3 @ #.1.@.+.J Q 1.L = - q 0 , , <.<.Q Q U ,.8.Y U J * 6 7 t 7 8 8 3 , K @.8.~ Y 4.Q U H - -.t t 7 9 , , #.#.9.@.,.,.Y U T T ",
"f 8 3 H O.#.9.#.U U #.:.1 - < 4 3 =.;.<.o.U @.9.8.Y L H , 4 8 t 7 7 < 3 * :.8.8.8.,.,.L K = 3 9 i 7 7 9 3 O.O.#.7.9.I 8.@.~ T T ",
"f 8 9 X.O.#.9.#.I +.<.:., 5.p 8 9 5.=.O.o.1.1.,.,.J o.* 3 5 s 7 ).7 8 9 * 1.@.8.,.1.+.X.- , d p s i 8 8 =., O.#.7.9.Y @.8.I 7.T ",
"< 7 4 , X.O.#.1.e.O.X., 9 9 i t i i 5.;.6.1.#.#.O.o.X., 6 < t ).7 t 7 9 * <.,.9.+.+.L * , 9 8 7 7 7 7 4 3 , H >.#.9.@.U 1.<.O.o.",
"s f 4 6 , O.#.#.+.O.X.3 9 8 i s s f 9 =.:.#.U U +.* * , 3 4 t z 7 7 < 3 * +.+.I #.L * , 3 9 7 7 t t 4 4 5 : P L 7.9.,.U %.o.X.X.",
"0 f 0 2 1 * P P K R -.g.a 0 t u u 0 4 &.$.L J J P * K 2 4 8 0 z z 0 6 2 R P T @ P H K $.-.4 4 i f p 0 6 6 R P P I Y >.P K $.-.;.",
"e w e 2 W R P P E R R e e 6 6 0 6 e 2 $.E U v P P P $.&.2 : : 2 : : i.E T v @ @ v P E W : 1 e 4 2 2 e : i.W P v @ n T W R R W &.",
"$ $ & & x v v x v x # # $ # & - $ - $ $ v v n v x v v V $ $ $ # & $ $ $ v n @ n v x V $ $ V & $ # & $ $ x x v v @   v v v x V # ",
"m m x m D b b c m c m m m m x c N c     . c . b b c c v m   o m x m m c b n X   n       c c m m x N x c c b n n X n . . m   c c ",
"b Z O   + X O + o o + X X X + Z b . . O + Z + Z . C b . .     X   . Z Z Z X X X     . O + X X Z C O O   n b ! n X Z Z A S S Z + ",
"Z C S G ! Z S o o o + + X ! ! Z ! G + C S Z C C C C F D + + O + S S C G ! ! Z Z A A O o X X + ! S A S G G Z ! Z Z Z m o o S  .Z ",
"{ W F Q F N B W { { x c b D m m m M V V m x N { *.M.A.M.W V m D m F N B D N D v Q f.M.{ N m m m   D N m D D D x   N m.{ M.a.W { ",
"Y.Y.S.S.C.S.qXtX8X8XS.S.N.M.d.f.f.a.d.N.N.C.A.A.eXaXrXrXY.C.S.N.S.C.a.M.d.d.8X9X9X{.8X{.Y.C.N.M.C.N.a.N.N.M.d.d.d.S.}.}.S.Y.8XA.",
"wXrXwXwXrXaXeX,XaXaXeXaXrXeX0X8XwXwXtXtXtXtXwXrXaXaXaXaXeXeX9XtX9XqXqXqX{.wXfX8XeXeXaXrXrXrXrXrX8X8X8X9X8X9XqX9X8XwXtX}.wXwXaXeX",
"{.].{.[.[.,X<X>X_.k d `.c.c.c.v.n.{.{.Z.S.{.{.[.[.[.[.[.,X[.{.Z.n.n.u.x.n.v.n.].<X<X6X[.[.,XaXaXaX<X].,X{.].].,X{.].{.{.].].].<X",
": h.j.g.k.d s k ).~.~.).W.f d l.h.:.*.E H $.h.l.W.W.d W.k.g.&.R K E K K R i.h.l.d f W.j ~.s s ~.j j l.l.h.l.h.*.$.* E K X.h.j.l ",
"$.$.-.g.d d k y ).Q.~.).W.`.p 5.%.o.K $.+.X.3 g.W.W.^.^.`.p , L <.<.>.%.%.$.=.l.v.^./.^.~.Q.Q.Q.Q.s k.v.6.=.* X.%.>.o.o.X., w l ",
"2.%.$.1 g.a s ~.~.~.).W.9 g.=.=.<.3.1.1.0.$.= 9 d ^.^.`.`.3 X.1.q.e.e.1.>.U R = t.j.W.k y g ~.Q.(.k g.=.X.X.o.1.,.0.1.1.%.= w l ",
"2.4.%.$.: g.d f s W.p g.3 =.%.4.<.B.B.m.9.L 1 q l ~.~.s d 3 $.4.w.0.B.B.0.3.4.$.1 3 i d j g y g j a -.X.:.<.,.3.e.V.q.,.L K w w ",
"B.0.4.>.R 6 p l f l j.-.R %.0.0.B.m.m.M.4.E : q j g j l a q R E 4.z.z.0.B.0.3.p.K 6 q d l s h l f l.= >.3.p.3.m.0.V.3.,.L = w l ",
"0.m.0.4.$.: e a s 0 j.1 %.3.1.m.1.p.m.m.,.%.- 0 j h g g a q $.L z.z.V.3.0.B.3.3.*.&.q p f u u u k 3 $.%.B.Q m.p.0.m.0.1.E 1 j.l ",
"8.q.e.9.>.1 4 d f f j.= 4.3.0.0.Y B.m.m.4.%.= p s g g y d g.$.%.2.<.B.0.,.w.m.3.2.3 p f s j g j d 2 *.<.z.p.3.Q 4.4.0.4.= 3 a j ",
"@.8.e.w.<.1 6 d f l p 3 4.3.m.U 9.V.B.0.4.K 3 d s g Q.s d g., $.:.6.B.e.,.,.B.z.x.=.d d y h g g k g.3 z.6.B.4.1.m.0.3.$.1 q d j ",
"9.@.0.w.:.1 4 d j s p g.=.z.3.>.0.B.3.0.>.K -.k.s y ~.).^.k.3 X.>.B.9.0.0.+.6.z.6.9 d ^.s g g g k p p h.B.6.>.3.0.9.<.o.=.d s ~.",
"0.>.<.3.=.3 p d ~.j s d 5.x.o.3.w.e.1.1.L X.g.k.~.Q.Q.~.(.`.5 1 o.1.9.B.B.3.<.x.l.l.`.^.^.Q.Q.g y s d g.x.<.6.w.0.1.+.X.5 c.~.(.",
"p.4.%.&.-.p ^.~.~.(.j k k.h.%.p.V.m.>.L K $.l.k ~.!.Q.Q.~.k p : %.,.0.B.B.3.$.g.j.`.^.(.(.Q.g g g ~.s p 1 ;.z.B.3.4.o.$.g.k ~.+X",
"r.2.&.i.y.k.c.l ~.j j a k.l.h.x.<.>.E R *.r.g.a k g ~.g g f l t.P U Q 3.p.a.&.t.j._.k k ~.s j u u l a k.u.;.r.*.E K R *.y.c.l l ",
"r.i.u.i.y.y.r w w w w y.i.i.i.' W N W W r.i.t.w w w y.w r w y.y.W E W W *.r.r.i.w r w w w w y.y.w r w y.y.' ' W W r.u.r.x.j.w s.",
"% % % ; W W ; ; ; ; % B W ; ; % N m x V W ; ; ; ; ; % % % ; ; ; W W ^ ] B N V V ; ; ; ; ; W B V ; ; % % & & B % W V # ; ; V % ' ",
"/ / ] ( / B ^ ^ ^ ^ M F F ( A M A + F F / / ( ] ^ B ^ B M B ( ( M + / + + o / ^ ' ^ ^ ^ ^ ^ / / M M F M / ` / A D ) F m F F / ] ",
"_ [ ..[ _ [ ..[ ] _  . .) / / / + `  .| | _ ( ( [ [ ) ) _ [ | [ ..| + + _ _ _ _ ` [ [ _ / ` _ _ ) `  . .| |  .|  .S ) ( A ` ` / ",
"] _ [ ` ] _ [ [ [ [ _ _  .| [ _ | _ _ _ ] [ ] ] ] ] ] _ ( ) ) ) _ _ _ | ...._ _ ) [ [ ) ` ] _ ` _  ..... .) A S A o ( ( ) [ [ ` ",
"} H.E.E.N.} ' ' ^ } N.N.N.N.N.N.N.N.f.} N.Y.pXpXY.f.f.f.N.N.} ' ` _ ` ] ` / ' ' S.E.pXN.] ^ ^ ^ ( ( ] ( ( B / ] ] E.Y.f.f.} } } ",
"fXhXgXgXgXgXmXyXuXyXpXyXyXgXgXgXgXgXgXfXsXzXfXfXfXyXyXiXgXiXiXiXuXT.U.U.0XeXuXmXhXhXhXhXiXiXiXpXpXpXY.Y.n.d.Y.9XgXiXiXiXqX9XuXY.",
"MXNXhXdXhXhXdXfXzXsXsXzXsXMXsXMXMXMXMXzXMXsXLXLXsXsXfXfXfXfXsXzXdXhXsXsXsXMXNXsXMXMXhXhXhXhXhXhXfXdXfXdXdXdXdXdXdXsXdXdXdXfXfX3X",
"#X6X[.'.,Xb.<X>X>X>X>X:X:X+X6X6X+X7XOX6X#X:XXXoXl =Xb.`.b.>X=X:X=X6X+X+XoX#X6X+X_.7X'.'.[.].].].G.>X>X;X;X:X6XOX$X:X-X>X>X>X>X,X",
"OX(.>Xg.p v.n.b.`.^.(.#XOXOX%X(. X|.%X(.OX(.oX=Xc.c.l.l.j.k =X+X#XOX(.OX@XXXXX+X;Xb.b.j.u.i.-.2 t.c.oXXXXXOX@X%X&X@XoXc.v.v.v.H.",
"OX_.d g.x.{.].v.g.'._./.@X&X%X%X&X X X;X;X<Xc.l.6 ;.2.:.-.2 ^./.!. X|.@X|..XXXF.l r : : *.x.$.*.1 j._.+X+XOX X&X&XXX_.a =.-.$.z.",
"+X_.9 h.Z.Z.n.n.{.].`./.+X&X%X%X&X&X&X6X[.`.5 $.;.z.B.6.z.5 c._.%X X|.|.h F.F.1X5XuXU.s.C.Z.V.z.%.t.<X6X%X@X%X X@X(.k 5 h.z.6.B.",
"_.j.-.n.Z.C.C.n.{.n.v.k +XOX@X X X X6X_.`.=.5.x.p.V.V.6.x.&.g._.|. X@XOXXXF.2X2XK.T.Y.E.d.S.D.6.2.5 _.+X+X|.|.!.!.+Xc.;.2.6.B.z.",
"_.j.&.n.A.9XqX8Xn.n.l.k./.OX|. X@X%X_.`.5.;.x.z.Z.}.}.V.z.$.t.`.OX X@Xh l 2X3X3XR.J.R.Y.qXA.}.z.2.5 `.OX@X@X%X|.OX;Xl.=.z.V.}.B.",
"v.y.d.A.E.U.U.uX0Xn.2 _.+XOX X.X X$X_.&.;.2.{.B.A.C.Z.C.n.r.&.b.OX X!.#XF.2XK.L.J.R.Y.E.Y.A.x.u.-.t./.XXOX@X&X%XOX_.v.*.2.p.{.n.",
"n.t.u.9XuXR.xXuX0X0Xe b.(.$X.X@X$XoXd 2 z.V.M.S.S.x.Z.Z.p.;.t.b.+X X#XoXG.2X0XJ.R.J.J.R.yX0Xn.u.e j.G.oX(.h !.XX+X_.v.&.2.z.Z.Z.",
"u.e u.yXU.nXmXxXL.3XG.>X#X@X X X X(.p ;.3.V.V.D.a.C.Z.Z.2.2.2 l $X&X:XF.4XK.L.T.mXnXJ.L.U.U.n.w ; r 2X3X3X4Xl F.F.oX`.q &.p.M.D.",
"n.> yXvXZXbXxXcX3X2X4X1X$XXX X&X%XXX5 r.M.M.C.C.a.C.{.x.z.*.e b.XX@X@X$X4XcXcXnXnXxXL.0XU.T.Y.' r r qXH.uXK.I.F.F.$X_.w &.2.m.V.",
"b.: hXVXVXZXDXkXvX5X4XG.:XXX.X@X.X=Xt.i.x.8XS.a.a.tXn.n.h.&.l l .X.XXXF.1XcXkXZXbXxXL.L.T.uXT.; > 3XK.U.L.L.5XI.F.$X=Xc.2 &.p.V.",
"b.q VXSXSXSXVXcXvX3X2X>XF.oXXXF.l G.v.t.b.n.n.i.rXqX9X8Xi.2 l (..X X$X$X1X5XuXbXZXbXL.xXL.H.J.s.H.3XJ.uXJ.P.2X1X$X:X6X;Xp 2 2.C.",
"b.s.GXVXSXSXAXVXcXcX3X2XG.F.G.1X4X2XG.n.b.<Xb.0XY.uXqXuXqXe :X*X X XF.$X7X3XvXSXZXbXZXZXcXK.3X> T.T.J.R.nXP.5X2X4X-X#X:Xk 2 2 h.",
"<XSXSXNXAXVXZXFXZXvX5X5Xs.G.1X4XP.K.uXG.<X>XG.uXyXH.R.J.3Xb.:X1X*X*X$X-X4X4XVXSXvXbXcXxXkXzXL.H.U.L.P.mXjXxXP.2X4X-X$X#X=Xl t.u.",
">XZXzXAXAXAXZXcXZXnXjXK.P.2XP.2XP.P.L.5XI.G.-X3XJ.R.J.J.P.3XG.*X*X*X-X1X5X5XvXDXcXcXxXcXlXjXH.3XmXnXmXmXnXxXxX5X4X=X-X:X>X>Xn.H.",
"vXBXBXlXVXAXBXlXZXbXbX3X3XK.2XP.J.P.L.K.G.1X5XK.xXR.J.P.K.K.I.4X4X$XI.5X<X5XvXSXlXCXlXcXkXzXFX3XvXvXxXnXmXxXxXP.4X-X-X$XG.4X0XH.",
"3XcXcXBXcXBXNXBXvXZXbXbXZXxX3XxXmXnXJ.5XAXKX2XcXbXbXmXP.J.P.3X2XI.5XF.K.cXlXBXlXzXFXCXBXCXZXVXvXlXvXvXbXxXxXcX3X2XLXr F.1XL.L.3X",
"3XkXcXZXNXBXVXVXBXcXAXDXCXZXBXcXZXxXjXBXKXFXCXVXZXbXZXxXjXuXK.kXnXI.jXbXlXCXVXFXNXFXAXCXFXZXVXVXSXCXvXcXbXcXcX2XlXzXlX2X2XK.K.J.",
"vXcXZXZXBXBXSXGXSXBXVXSXAXAXNXZXSXVXNXSXAXAXAXSXDXZXSXZXlXxXuXvXnXbXFXxXlXDXBXCXCXAXCXAXAXSXSXVXVXSXAXSXZXZXZXcXlXlXlXBXL.R.R.J.",
"xXxXSXSXGXVXGXSXJXGXJXHXGXHXGXGXGXGXGXHXJXGXGXGXDXSXSXVXZXSXVXcXbXbXZXZXZXCXDXAXFXFXFXCXVXSXSXGXSXJXSXVXZXCXFXcXFXFXcXcXDXI.P.P.",
"cXvXbXCXSXSXSXGXAXGXGXFXSXGXGXGXGXGXSXGXGXHXHXSXHXGXSXHXGXAXDXDXZXSXSXSXDXHXSXDXAXAXSXDXSXGXGXGXGXJXSXSXDXHXDXAXSXSXGXGXDXDXDXxX",
"kXcXcXcXFXZXSXHXHXHXSXFXHXSXSXHXFXHXGXSXGXJXGXHXSXHXGXGXDXJXSXHXZXVXSXGXSXGXSXHXSXZXSXDXHXGXGXJXAXGXHXSXFXAXFXDXDXGXGXGXDXDXZXFX",
"L.kXxXcXZXSXFXFXAXFXFXcXcXSXHXVXZXFXDXSXAXAXSXFXAXSXSXSXFXJXFXAXFXDXGXJXGXSXGXSXSXSXSXFXSXDXJXGXSXAXSXHXDXDXGXHXGXHXGXGXGXGXFXFX",
"K.xXxXcXlXcXCXCXbXFXCXlXcXxXvXcXcXlXlXNXVXSXAXCXSXZXZXSXAXAXJXJXAXAXAXAXVXGXGXSXSXZXDXAXAXJXJXAXSXAXFXDXAXAXAXSXSXGXGXJXGXAXNXBX"
};
