/* XPM */
static char *wall_right[] = {
/* columns rows colors chars-per-pixel */
"64 64 256 2 ",
"   c #CC8A7C",
".  c #D38D7C",
"X  c #D98E7D",
"o  c #CF9A7F",
"O  c #D4927D",
"+  c #D9927E",
"@  c #C97F96",
"#  c #BC8D8B",
"$  c #B98B86",
"%  c #BC9A8E",
"&  c #BA958B",
"*  c #BC869B",
"=  c #BC8B9D",
"-  c #BA8A98",
";  c #BC9C92",
":  c #B9959E",
">  c #B8A49B",
",  c #BC8DA2",
"<  c #B38DA2",
"1  c #AC9DAC",
"2  c #A899AB",
"3  c #B695A4",
"4  c #BD93A3",
"5  c #BC9CA4",
"6  c #BD95AA",
"7  c #B49CAC",
"8  c #BC9BAB",
"9  c #B598A8",
"0  c #AD9EB4",
"q  c #AA9EB7",
"w  c #B49DB2",
"e  c #BB9CB2",
"r  c #AF89A2",
"t  c #ACA2AD",
"y  c #BCA3AB",
"u  c #B8A5A8",
"i  c #BCB3A8",
"p  c #ADA2B4",
"a  c #ADA9B9",
"s  c #B2A3B4",
"d  c #BCA4B3",
"f  c #BCABB4",
"g  c #B3A4B9",
"h  c #B3ADBB",
"j  c #BBACBB",
"k  c #B7AAB6",
"l  c #ADB2BD",
"z  c #ABBABB",
"x  c #B3B2BD",
"c  c #BDB2BC",
"v  c #B9B7B9",
"b  c #AAB5AF",
"n  c #CB8483",
"m  c #CB8D83",
"M  c #C38B89",
"N  c #C78986",
"B  c #D48C83",
"V  c #D18381",
"C  c #CC9285",
"Z  c #CB9D86",
"A  c #CD948A",
"S  c #C4998C",
"D  c #C89789",
"F  c #D29482",
"G  c #DA9583",
"H  c #D39C84",
"J  c #DC9A85",
"K  c #D6998A",
"L  c #CB8A95",
"P  c #C3859B",
"I  c #CB859B",
"U  c #C38C9D",
"Y  c #CB8B9D",
"T  c #C78694",
"R  c #D3869C",
"E  c #D38A9D",
"W  c #D68899",
"Q  c #CB939C",
"!  c #C4999D",
"~  c #C89698",
"^  c #D6959A",
"/  c #E19985",
"(  c #E08D9F",
")  c #CDA28B",
"_  c #D3A38B",
"`  c #DAA58A",
"'  c #D5A98D",
"]  c #DCAB8C",
"[  c #D9A485",
"{  c #CAA798",
"}  c #D5AB92",
"|  c #DBAB92",
" . c #D5A598",
".. c #D9B098",
"X. c #DEB08F",
"o. c #E1AA8C",
"O. c #E1AC93",
"+. c #E3B295",
"@. c #C48DA2",
"#. c #CC8CA2",
"$. c #C987A1",
"%. c #D38CA3",
"&. c #DB8DA3",
"*. c #D88CA6",
"=. c #C393A3",
"-. c #CC93A3",
";. c #C29BA4",
":. c #C394AA",
">. c #C39BAB",
",. c #CC9CAA",
"<. c #CB99A8",
"1. c #D493A4",
"2. c #DC92A4",
"3. c #D495AA",
"4. c #DC94AA",
"5. c #D49CAA",
"6. c #DC9CAC",
"7. c #D899A5",
"8. c #C89DB2",
"9. c #D99EB2",
"0. c #E18EA4",
"q. c #E293A5",
"w. c #E294AA",
"e. c #E39BAD",
"r. c #E098A6",
"t. c #E49EB2",
"y. c #E99EB2",
"u. c #C3A4AD",
"i. c #CDA2AC",
"p. c #C4ACAA",
"a. c #CAACAB",
"s. c #C8A6A5",
"d. c #DCA1AC",
"f. c #D8A8A9",
"g. c #C4B3AC",
"h. c #DDB4A2",
"j. c #DAB5A9",
"k. c #C3A4B3",
"l. c #C2ACB3",
"z. c #C3ADBA",
"x. c #CBA8B6",
"c. c #DCA3B2",
"v. c #D4ABB3",
"b. c #D9A7B4",
"n. c #C3B4BB",
"m. c #CCB3BB",
"M. c #C6B7B8",
"N. c #D4B5BC",
"B. c #DAB6B7",
"V. c #E3A5AC",
"C. c #E2B2AD",
"Z. c #E4BBA9",
"A. c #E4A4B3",
"S. c #E7A8B6",
"D. c #E4B4BA",
"F. c #E3BCBA",
"G. c #EABBBC",
"H. c #E7B5B6",
"J. c #F1BEBD",
"K. c #B8C4BB",
"L. c #C6C6BB",
"P. c #DBCDBB",
"I. c #D4CABB",
"U. c #DAD3BD",
"Y. c #D9D3BA",
"T. c #C3C0AF",
"R. c #E4CCBC",
"E. c #E7C9B7",
"W. c #E3D2BC",
"Q. c #E1D3B5",
"!. c #F0CAB7",
"~. c #ADAEC1",
"^. c #BAAEC1",
"/. c #ADB4C2",
"(. c #A9BBC4",
"). c #B4B3C3",
"_. c #BBB4C3",
"`. c #BABBC5",
"'. c #C4B3C1",
"]. c #C4BBC4",
"[. c #CCBAC4",
"{. c #C7BAC6",
"}. c #DCBCC3",
"|. c #D6BDC4",
" X c #C5AEC0",
".X c #E7BAC3",
"XX c #F2B9C4",
"oX c #ADC5CA",
"OX c #ABC5C8",
"+X c #B4C3C4",
"@X c #BCC4C5",
"#X c #B3C4CB",
"$X c #BBC4CB",
"%X c #B3CACC",
"&X c #BCCACB",
"*X c #BBCBC4",
"=X c #B4CBD1",
"-X c #BCCBD3",
";X c #B7C7D0",
":X c #BBD1D5",
">X c #BDD0CE",
",X c #C2C3C5",
"<X c #C3CCC4",
"1X c #C3C4CA",
"2X c #C1CCCC",
"3X c #CBC7C7",
"4X c #D3C2CA",
"5X c #D6C7C6",
"6X c #CCD2C8",
"7X c #D4D4C3",
"8X c #DBD3C3",
"9X c #DDD8C5",
"0X c #D5D9CB",
"qX c #DAD7C8",
"wX c #C8CAD1",
"eX c #D8C6D1",
"rX c #CDD8D4",
"tX c #EBC4C5",
"yX c #EACCC3",
"uX c #E5C5C9",
"iX c #EBCACC",
"pX c #E6C8C6",
"aX c #F2C6C7",
"sX c #E3D3C2",
"dX c #ECD5CC",
"fX c #E6D9CA",
"gX c #F3D4CD",
"hX c #F6D3C5",
"jX c #E5CCD3",
"kX c #E4DCDB",
"lX c #EBDCDC",
"zX c #ECD7D4",
"xX c #F4D9D4",
"cX c #F2D8D7",
"vX c #F2EBCF",
"bX c #EEEADC",
"nX c #E9E3D8",
"mX c #F2EAD5",
"MX c #F2EBDB",
"NX c #F7E8D9",
"BX c #F6F1DC",
"VX c #EBE5CC",
"CX c #E9DEE1",
"ZX c #EFECE0",
"AX c #F3EDE2",
"SX c #F9EBE8",
"DX c #F5F2E4",
"FX c #FBF3E4",
"GX c #F7F4EB",
"HX c #FBF5EB",
"JX c #FDF9ED",
"KX c #FFF9E7",
"LX c #FCF5F1",
"PX c #FEFAF2",
"IX c #F7F3F1",
"UX c #EFF0E2",
/* pixels */
"^.e :.#.R W @ &.@ #.>.;.S m F H ~ E.uX4Xz.n.v v f n.c c ).`.$Xv g.{ ) ] _ ..8X5X3X5Xb.A.d.S.S.G.H.S.S.H.5.i.P.I.P.8XY.Y.mXKXDXUX",
"w e :.Y T W ( W #.@.=.! M m G ` ~ tXiX}.k.l.f u f l.d j j _.`.k g.% ) [ ....iXzX5Xm.-.5.S.XX.XD.S.V.d.5.! u.|.8XqXY.Y.Y.FXBXJXUX",
"e 6 U P R W &.R *.#.@.~ M m J K f.B.iX.Xx.4 4 = = 4 6 k.z.j v v g.& _ H O...yXzX4Xg.<.5.9.S.b.A.d.i.<.: 5 f 6X0X7XY.fXP.KXJXJXUX",
":.@.U I E 0.0.&.4.%.Q Q m m J F j.aXiXN.U U <.Q Q U @.:.:.8 y l.p.) Z `  .C.iXlX4XM.u.i.,.i.i.i.<.;.3 u v <X<XL.6X7XP.JXJXJXGXPX",
"=.U Y E 2.2.0.0.R E L R V B / F  .aXaX.X@.-.3.W 3.6.3.#.-., 4 ;.a.% D H _ ..gXcX3Xn.l.>.>.;.=.5 u.d '.3X1X@X*X<Xv 7XNXNXPXPXPXLX",
"Q Y E 2.2.2.&.W &.0.^ B n B G B ^ J.XXXXU %.2.e.4.V.6.4.4.%.Y ! s.; Z ` _ E.iXCX,X,X].c n.z.n.[.{.].1X2X&X*X*X*Xi bXbXNXPXJXLXIX",
"T R W q.2.&.&.w.0.q.^ L V B G G A J.aXB.U 1.y.y.S.V.e.r.4.2.3.Q ! S _ ` K !.xXcX2X#X#X`.`.$X@X,X$X@X@X<X<X*X<XL.0XbXDXFXPXPXGXIX",
"W W q.w.r.r.2.&.2.&.W n n B B K N j.tX.X<.I r.y.V.q.r.y.y.e.6.Q ! S K [ K  .gXCX>X%X=X%X+X#X#X`.+X@X@X*X6X0X7X7X7XbXbXJXJXLXPXGX",
"T E &.q.2.*.*.$.1.I M N @   G G   j.tX.X;.@.4.e.r.V.1.2.e.e.V.<.~ S H o.[ ) iXlX+X=X:X=XoXoX=X#XK.K.<X0X7XY.fXU.Y.7XbXUXGXKXJXJX",
"T Y E %.%.$.%.$.P - U S   B G G K C.tX|.x.U Y 1.V.V.e.6.%.6.S.,.{ S J o.[ ) P.lX2X%X=X=X(.=X:X/.K.L.0XU.9XY.mXvXmXBXGXGXGXGXJXGX",
"U @.P P P @.$., , : =.! M B . G A V.tX}.x.=.#.4.6.4.9.S.c.3.<.,.s.& ` o.' ) j.kX&XoXOXoX#X=X-Xz 0X7XY.Y.I.vXBXvXmXBXDXGXJXHXJXFX",
":.:.@., @.6 6 6 6 8 5 ;.$ N B / m C.tX5Xk.k.=.-.7.A.t.c.b.x.8 u.a.& [ ] ] ' B.nX&X%X=X-X;X%X+X`.qXsXY.Q.BXVXvXBXmXBXUXGXJXHXHXHX",
"e e 8 6 9 9 7 e e 7 7 ;.$ m . / F C..X|.z. X:.@.3.3.5.i.k.k.d n.a.% C o.o._ R.kX&X+X;XwX$X`.*XK.8XP.sXY.U.vXvXvXNXAXHXGXHXHXJXHX",
"q 0 w w 7 1 w w 0 w 7 5 $ m F J A j.5X|.z.z.k.>.= @.>.:.w j ).k p.% H o.o.' R.zX,X+X1X4X].`.`.L.5X8XP.Y.Q.U.vXmXNXZXGXGXPXPXHXHX",
"p q p p t t p g 0 0 g 5 # C B G K C.pX3Xh l c l.k.>.8 k.j h h x i > Z [ ] ) hXlX4X].k.k.8 8 y g.g.T.9X8XU.U.NXNXSXSXLXLXPXPXKXFX",
"q 2 w s t t g g q g j u # C + + B H.pXjXx )._.h l.z.z.^.h l /.a i ; Z o.] H hXxX4Xu 4 <.5.i.s.: > > g.T.8XP.mXNXNXSXGXGXLXDXHXFX",
"0 7 6 3 3 5 y j 2 0 t u $ m X + O C.aXeXh /.).l x a b x /.l l a i % ) ] ` ` hXcXN.8 :.A.i.b.v.a.> { ; i i I.8X8XbXbXGXHXHXJXJXDX",
"8.4 = = - - 4 d s p 7 5 $ D O + F j.iXjXh /./.l ).b l /.~././.x p.% ) ] o._ hXcXuX;.i.c.XXD.B.v.E.I.W.Y.sX8X7XFXHXFXFXHXJXJXJXJX",
"#.@.#.#.I * - 4 8 9 8 5 & m + X A B.aXeXh (./.l l a l l ).)./.l l.; ) [ ] ) gXcX|.u.v.D.H.D.F.yXR.R.W.I.U.nX9XbXHXDXFXGXHXPXLXPX",
"#.3.4.3.1.#.* * , :.;.! $ C G . A E.jX|.x ).x h k k a h )._.).).l.; ) _ [ } gXcX4Xx.;.v.G.!.!.R.E.W.W.Y.BXBXZXZXAXGXHXAXPXLXIXGX",
"*.4.4.&.2.4.3.@.* = U Q M m F m f..XjX{.).`.h _.c k k j ^._.`.].f ; Z ' ' E.gXlX[.z.5 B.!.E.R.Q.Q.W.U.mXBXMXDXbXAXFXHXFXPXLXLXLX",
"%.*.0.w.w.w.*.%.T P - ~ N m . F f.aXjX4Xh _.j d y 8 k.d j  X_.n.g.; ) | ..!.xXnX3Xn.; R.R.!.E.Q.Y.W.W.U.FXMXMXbXDXFXSXHXHXHXLXLX",
"2.2.&.*.*.0.4.4.%.I M T N     F f.tXjX|.j '.z.3 4 : >.6 8.z.'.'.g.; ) } ' !.cXCX3X].u fXQ.Q.Q.Q.NXNXNXKXFXDXMXMXFXFXFXFXFXFXSXSX",
"4.w.0.0.*.*.4.w.&.&.L n n   B K d.E.jX4Xz.m.>.: =.<.5.b.8.x.z.l.a.% ) ] _ E.cXCX1X,XK.7XP.Y.Q.Q.vXNXBXKXFXmXMXbXmXMXFXKXFXJXJXHX",
"&.2.*.w.4.4.w.w.*.&.W @   V . G N tXuX|.z.m.@.-.5.d.6.d.D.8.,.p.s.S [ ] ' { VXkX1X$Xv qXY.9XY.Y.Y.FXKXKXKXKXKXKXmXJXFXFXHXJXHXHX",
"L Y Y 1.2.*.4.0.0.&.@   V V X G K .XiX|.x.=.U 3.7.V.e.A.6.-.<.;.s.S o ] ] ) jXZXwX`.K.K.0X7X9XU.9XBXmX7XUXbXbXvXBXMXFXAXHXFXPXHX",
"@.U * U U @.#.3.-.Y n L   B X J A C.iXv.,.U %.r.r.S.A.2.%.2.c.f.s.S o ] X.{ iXZX$X@XK.K.K.6X7X7X7XvXbXY.7XY.0X9XbXAXJXHXHXLXLXIX",
"u.8 4 4 4 , , , , U L L n . G / A b.tXB.! 1.1.y.V.V.2.2.e.A.A.f.^ S o ] o.) pXkX`.+X%Xz @Xb @XK.6X7X6XY.6X0X0X0XMXbXbXPXHXPXIXIX",
"g e 9 e y 7 9 9 6 9 ;.! M C + [ A C.tXB.P 1.2.S.A.4.6.y.t.y.S.7.~ Z o o ] } yXkX$X#XOXOXOX+X@X+XK.K.K.K.K.<XL.0X0XAXnXFXLXLXLXIX",
"h s p 7 7 7 7 w w 7 9 5 # C O + m j.R.v.T 1.e.y.A.A.A.t.4.e.e.^ ~ _ o o.o.| yXkX@X+XOXOXOX=XoX&X:X>X*XK.K.<X<XL.v nXHXFXPXPXIXSX",
"q q 0 w 1 7 0 0 q q w 4 # C . o A H.yXv.Q 4.A.t.c.c.5.6.t.4.*.E ~ A H o.] } yXlX&X%X=XoXOX%XoX=X%XOXOX=XOX>X<X<X0X7XDXJXHXFXHXHX",
"g g g 7 1 s p p g g w 7 # N . + A H.tXH.U 1.w.t.5.6.6.3.#.#.-.T ! ~ H +.] } yXlX&X%XOXoX%X#X#X%X%XOXOXOX:XrX2XrX7XDXMXFXFXFXFXFX",
"w d d d 7 0 p p a p t 9 # m . X F G.aXB.U -.4.1.Q -.@.#.4 = ;.u a.) ) o.] { sXnX@X$X`.`.].].M.n.n.].`.z >X:X<XrXY.MXNXmXJXJXHXHX",
"8 >.8.>.8 7 g g a t t > # m . G A H.aX.X<.= @.-.-.U =., 4 y f f i ; ) ] X...dXCX<X1Xn.m.k.;.5 5 5 y c v *X6X6XL.9XI.Y.BXJXJXIXPX",
"* * * * = 3 9 e 2 0 8 : $ N   G M F.uX}.k.k.8 8 9 y k.z. X{.x x i % ) ] ' h.dXzX,Xn.9 :.;.;.x.b.5.,.y : u v 8X7X8X9XMXFXHXJXPXPX",
"I P I P = < , 6 9 6 y ;.M m O H ~ E.jX|.d '. Xj l.f j ^.)._./.x f & Z ` | h.gXzX[.z.,.b.b.A.b.i.i.d.s.> dX8X8X9X8XVXMXDXJXPXPXAX",
"%.%.@ @ Y I * * , r 4 ! M m . F j.pXeXeX^._.'.^.x x l x ).~./.x l.; Z O.| h.gXcXm.l.<.9.t.S.D.D.H.b.j.sXsXP.W.U.U.BXDXGXJXGXHXHX",
"R 0.0.0.2.%.Y #.$.* U Q M m O Z H.iXeXeX^._.`.).x x l ).).~./.).f ; Z O.| h.gXzX[.l.8.y.S.XXD.D.H.H.B.yXW.W.P.W.mXKXGXKXJXJXPXHX",
"( y.y.0.0.&.R %.I P U L N B O C b.jXjXeX^._.`.l l l l ~././.(.x i ; Z O.` C.zXzX].M.>.9.S.XXD.C.C.C.yXR.sXP.R.sXFXFXDXJXPXGXPXHX",
"@ 0.0.( ^ q.2.&.%.#.T N n B . F f.uXjX{.j c h k x h x l h ).).v f & K | _ E.zXkX`.].8 ,.9..XG.G.b.f.f.yXR.sXP.NXBXKXJXGXGXLXHXGX",
"( 0.q.0.W ( q.q.*.%.T N n B G F  .G.jX}. Xk.d e t d k f j j c f i ; ) _ | hXzXkXz @Xf ;.v.b.S.G.H.D.f.p.5XpX8X8XNXFXFXKXJXLXGXIX",
"R 0.0.( W W &.q.4.%.I L n B G G Z H.XX.X8., < 4 : : : 9 >.k.z.l.p.; _ ` | !.mXkX&X+Xc y i.b.S.S.S.D.B.N.M.L.I.fXsXMXFXJXHXPXPXGX",
"@ %.0.w.0.W W 4.6.#.U L N B / G m C.XXXX-.U #.-.=.Q Q U P =.=.u.a.% Z | } E.nXkX*X+XwX[.8 ,.5.A.XXA.uXN.8X3XI.<XMXDXBXJXHXPXIXSX",
"@ R &.0.w.*.R %.3.#.! ! N m G G C H.aXJ.Y 1.4.4.7.7.7.3.#.Y U ! s.; H O.| j.xXkX-X+XwX[.m.8 ,.c.4..Xv.N.m.L.3XL.GXKXDXKXHXHXLXLX",
"#.I %.*.4.4.3.#.8.:.=.! $ N . G m C.XXD.U -.6.S.A.d.V.6.6.3.U ~ ~ S H o.' h.zXCX&X#X$XwX{.'.y ;.:.8.b.u.N.L.qX8X9XbXGXKXHXJXHXNX",
":.@.I $.#.<.8.:.6 k.7 s.$     J S Z.aX.X@.#.1.A.A.V.A.A.e.6.1.Q S D H [ | h.iXZX2X#X;X-X2X].].l.8.6 y g.I.9X8X8XI.nXDXJXHXPXHXAX",
"6 4 , @.* , :.:.7 f t t $ C   J D j.aX}.,.-.3.A.6.6.t.A.t.t.e.^ A F G [ ] j.xXCX$X#X=X:X=X:X&X`.,Xv ,XL.7X7XU.8XMXAXDXGXJXGXFXMX",
"7 9 6 6 6 6 e e k k t > $ D O J D j.aXB.8.:.3.6.S.7.2.4.e.y.S.3.Q A H J | Z.xXlXwX%X-X=XoX=X%X%X#X&XK.K.7X7X7XU.MXDXGXJXJXKXFXNX",
"t p 7 t e 1 w w 0 h b > & C O H m j.pXm.z.8.:.3.6.S.w.&.1.t.9.b.<.S Z [ ] j.xXkX1X-X-X-X=XoX%XoXOX=XOXK.0X7X7XY.bXDXFXJXJXJXFXMX",
"p 2 t 8 w w 7 g s g t t & M X G C j.8X'. Xk.:.-.9.6.r.A.4.#.:.i.i.% Z H O.Z.dXkXwX(.-X:X`.=XoXOX=XOXOXK.K.Y.Y.7X9XMXAXHXHXHXJXMX",
"2 2 d 3 r r r 8.w w s : # F X / F j.pXM.j j >.:.Q V.y.r.6.b.k.a.a.% K [ O.Z.fXCX;X=XwX:X=X#X+X%XOX%XK.K.L.K.Y.7XbXFXDXPXPXHXHXAX",
"7 6 4 , , , , 6 e e d 5 # B X + C j.pXM.j ^.d 8 =.-.^ <.,.i.l.f p.S _ ] | ..fXnX&X#X(.$X;X$X@X+X&X&X*XK.L.T.I.9XHXFXHXHXHXHXAXbX",
":.@.* I U #.3.$., 4 u.5 # C . G   F.iXM.h _.j d 8 : : ;.8 d j c p.; ) ] ' E.dXnX2X$X$X{.j j ].v 6X<X<X6X8XI.fXU.AXSXHXPXHXJXUXZX",
"#.I R 1.1.2.*.3.@.:.>.=.# A . F C F.eXv h ).^.h l.k.y 8 f j x x y S Z ] ' h.dXkX1X`.{.'.z.x.u > 7XL.0XY.8X9XfXFXFXHXHXPXJXLXGXDX",
"*.@ R W 2.2.Y %.*.#.U ~ M C F C  .B.eX_.)./.).g v t c c h g `.`.i % ) X.| } dXCX4X[.[.m.N.B.B.yX8XqX7X9XmXmXBXFXSXAXZXHXPXLXHXJX",
"I R w.r.E E W W 4.%.T Q M m O H f.uXjX{.).~.).h h k k l _.)./.).g.& ) ] +.) gXlX4X'.m.}.F.F.E.yX8XP.MXmXbXFXFXJXbXAXGXHXJXPXDXGX",
"T 4.q.^ W E &.&.4.*.T L N B O O ~ iXjX1X_.a _.h h k j j h ^._.c p.% ) X.} { fXlX[.|.x.B.D.yX!.fXmXBXVXBXBXFXbXMXbXHXGXHXHXHXHXHX",
"W q.q.^ ^ ^ r.&.*.*.T L N B G H A tXjX3X^.^.^.j f u 9 7 w d ^.'.a.% ) ] X.} gXlXeXN.B.B.B.tXR.vXmXmXKXBXFXDXJXbXAXSXHXFXHXHXHXSX",
"*.0.q.( r.2.&.R $.$.- U M B X G A G.pX4Xj j l.k.: : =.: , 8 d l.p.; { ' | ..gXcX[.m.}..XB.R.R.R.mXBXBXFXDXKXDXGXAXbXAXHXFXHXKXMX",
"*.4.q.&.2.E $.$.@.@.: ! M B O / K H.pX|.f f u.4 ! U #.5.<.=.;.a.s.% _ ] | Z.xXlX|.8.N.B.G.F.E.sXdXBXFXKXJXDXGXAXMXZXFXHXFXFXFXMX",
"$.$.*.@ I P P @., 9 8 ! & C . G K G.tX}.k.k.;.=.Q 7.e.e.6.c.,.;.p.; ) +.| !.xXcX4Xz.z.x.v.B.B.R.sXNXNXSXHXAXZXAXAXGXBXKXFXmXAXmX",
"@ , P * , 4 6 :.9 1 u u # C . O A G.aX5Xx.>.U 3.4.r.e.y.e.1.-.i.a.; ) +.| !.xXlX1X{.j 7 k.5 B.v.a.iXSXAXSXGXbXZXbXBXFXFXFXmXbXmX",
"6 6 :.7 9 s w w q g k y # B O G K F.iX}.u.;.#.3.e.A.e.2.%.1.3.i.a.; S +.| Z.xXCX1X`.1X{.m.z.u u.u > : u p.HXGXAXbXmXMXmXmXMXmXMX",
"7 e e 9 7 g q w q j g y # A X G V..XiX}.:.:.9.e.A.e.4.2.6.y.6.,.p.& _ ` O.h.gXCX-X=X`.`.{.[.N.N.v.B.v.m.L.I.3XUX8X9XMXmXbXmX8X8X"
};
