/* XPM */
static char *walls_noup[] = {
/* columns rows colors chars-per-pixel */
"64 64 253 2 ",
"   c #B58E7C",
".  c #CA8D7B",
"X  c #CA8B79",
"o  c #D28D7B",
"O  c #D58979",
"+  c #CB937E",
"@  c #C9947C",
"#  c #D3927D",
"$  c #D8967E",
"%  c #D6A07E",
"&  c #BD8D8C",
"*  c #B88A88",
"=  c #BC9A8E",
"-  c #BB918C",
";  c #BA8B97",
":  c #AB9794",
">  c #B99998",
",  c #BAA39D",
"<  c #A9A39B",
"1  c #AA9DA7",
"2  c #BD94A3",
"3  c #B39DA3",
"4  c #BC9BA4",
"5  c #B59EAB",
"6  c #BC9CAB",
"7  c #BA95A6",
"8  c #B899AB",
"9  c #ACA6A7",
"0  c #B4A3AC",
"q  c #BCA3AC",
"w  c #BCADAD",
"e  c #B7A6A6",
"r  c #B9B7AD",
"t  c #AEADBB",
"y  c #ACABB6",
"u  c #BBA4B3",
"i  c #B4ADB4",
"p  c #BBACB5",
"a  c #B4ADBB",
"s  c #BCADBB",
"d  c #B4A5B4",
"f  c #AEB2BE",
"g  c #AABABB",
"h  c #B3B2B5",
"j  c #B3B2BD",
"k  c #BBB3BC",
"l  c #BABABD",
"z  c #B9B7B5",
"x  c #CB8E82",
"c  c #C68789",
"v  c #D58D83",
"b  c #CC9383",
"n  c #C7988A",
"m  c #D49483",
"M  c #DA9483",
"N  c #D39A85",
"B  c #DB9A84",
"V  c #D39C8B",
"C  c #D3958A",
"Z  c #C38D9D",
"A  c #CB8D9C",
"S  c #C88994",
"D  c #C3929D",
"F  c #CB929D",
"G  c #C69998",
"H  c #D3959A",
"J  c #D28B9D",
"K  c #E09E88",
"L  c #CCA28C",
"P  c #CAA184",
"I  c #D2A48D",
"U  c #DCAB8D",
"Y  c #D9A789",
"T  c #CAA697",
"R  c #D3AB94",
"E  c #DCAB92",
"W  c #D8A696",
"Q  c #D7B298",
"!  c #CDB093",
"~  c #E1A98D",
"^  c #E1AA93",
"/  c #E1B092",
"(  c #C58DA1",
")  c #C394A2",
"_  c #CB93A2",
"`  c #C49BA4",
"'  c #CB9AA4",
"]  c #C39CAB",
"[  c #CB9CAA",
"{  c #CA94AB",
"}  c #D393A4",
"|  c #DA95A4",
" . c #DC96AA",
".. c #D59CAB",
"X. c #DC9CAC",
"o. c #D79AA5",
"O. c #CC9BB1",
"+. c #D99DB2",
"@. c #D48FA3",
"#. c #E19CAC",
"$. c #E297AB",
"%. c #E39DB2",
"&. c #C3A2AC",
"*. c #C3ACAC",
"=. c #CBABAB",
"-. c #C8A4A6",
";. c #D4A3AB",
":. c #DCA2AD",
">. c #D5A7AB",
",. c #C6B7AC",
"<. c #DCB6A8",
"1. c #C3A5B3",
"2. c #CBA4B3",
"3. c #C3ACB4",
"4. c #C3ACBA",
"5. c #CAABB7",
"6. c #D4A4B3",
"7. c #DCA5B3",
"8. c #D4ACB4",
"9. c #DCABB4",
"0. c #D8A9BA",
"q. c #C3B3BC",
"w. c #CBB4BD",
"e. c #C7B8B7",
"r. c #DDB3B4",
"t. c #D7B6B8",
"y. c #E3A2AE",
"u. c #E3ACA4",
"i. c #E2B2AC",
"p. c #E2B9A9",
"a. c #E2A3B3",
"s. c #E2ABB5",
"d. c #E2ACBB",
"f. c #E9A8B7",
"g. c #E4B2BC",
"h. c #EAB2BD",
"j. c #E5BBBC",
"k. c #EABCBC",
"l. c #E6B8B3",
"z. c #BBC3BB",
"x. c #ADC0BE",
"c. c #C9C6BB",
"v. c #D8C6BB",
"b. c #D9D2BF",
"n. c #E8C9BA",
"m. c #E9D1B9",
"M. c #ECCFB5",
"N. c #B9AFC0",
"B. c #ADB3C3",
"V. c #B3B3C2",
"C. c #BAB3C2",
"Z. c #BCBCC4",
"A. c #B6BCC6",
"S. c #A8AFC1",
"D. c #C3BAC3",
"F. c #CBBBC4",
"G. c #C9BAC6",
"H. c #D3BDC4",
"J. c #D9BAC6",
"K. c #DDAFC2",
"L. c #E5ACC1",
"P. c #E5B3C2",
"I. c #EBB4C2",
"U. c #E6BAC4",
"Y. c #F2B7C3",
"T. c #ACC4C5",
"R. c #AEC7CA",
"E. c #B3C3C4",
"W. c #BBC3C5",
"Q. c #BCCBC4",
"!. c #B4C6CB",
"~. c #BDC5CB",
"^. c #B4CACB",
"/. c #BCCACB",
"(. c #B5CAC5",
"). c #BBD2CB",
"_. c #B8CCD1",
"`. c #BCD3D2",
"'. c #C3C4C5",
"]. c #C4C4CB",
"[. c #C7C9C9",
"{. c #DCCDC4",
"}. c #D3C3CB",
"|. c #D8C8C8",
" X c #C6D3C9",
".X c #DAD3C4",
"XX c #DBD3CC",
"oX c #D6D4C9",
"OX c #C6CAD2",
"+X c #D6C9D6",
"@X c #C9D5D4",
"#X c #D9DAD6",
"$X c #ECC3C4",
"%X c #E5CCC5",
"&X c #ECCCC3",
"*X c #ECC5CB",
"=X c #E5CACD",
"-X c #EACCCC",
";X c #E4C5CB",
":X c #F2C2C5",
">X c #F3C9C9",
",X c #ECD5CC",
"<X c #ECD9CE",
"1X c #E5D5C6",
"2X c #F3D9CD",
"3X c #F2D5CA",
"4X c #E4CAD3",
"5X c #EBCCD1",
"6X c #EBDDD3",
"7X c #E4DDDC",
"8X c #ECDBDA",
"9X c #E5DAD4",
"0X c #F3DAD4",
"qX c #F3DDDB",
"wX c #F8D8D6",
"eX c #E9E2CE",
"rX c #F4E3CB",
"tX c #E5E4D4",
"yX c #ECE3D5",
"uX c #E4E3DC",
"iX c #ECE4DB",
"pX c #E5E9DB",
"aX c #EDEBDC",
"sX c #EBE9D6",
"dX c #F4E3D5",
"fX c #F3E4DB",
"gX c #FBE4DC",
"hX c #F3EDDD",
"jX c #F9ECDE",
"kX c #F5E8D6",
"lX c #F4F1DE",
"zX c #F8F1DE",
"xX c #EDF1DF",
"cX c #E7DEE2",
"vX c #F8DEE0",
"bX c #E4EAE4",
"nX c #EDECE3",
"mX c #E8E5E3",
"MX c #F5EEE3",
"NX c #FAEDE3",
"BX c #F6EDEA",
"VX c #FAEEE9",
"CX c #FAE5E2",
"ZX c #EEF1E2",
"AX c #F5F2E4",
"SX c #FAF3E4",
"DX c #FBF8E6",
"FX c #F6F3E9",
"GX c #FCF4EA",
"HX c #FDF9EB",
"JX c #F6F9E6",
"KX c #FFF9F1",
"LX c #DCE4DE",
/* pixels */
"b.1XlXlXhXlX.X.X{.{.t.t.w.8.J.J.D.'.Z.W.W.E./.uX,XQ E ~ V n -.2.o.#.X.@.@.%.y.#.} _ > U.*XY.^ C v n ; u d a 5 XXCXGXCXGXVXJXaXpX",
"b.zXSXSXJXJXiX.Xv.e =.e ` ] O.] q k p '.'.W.OX7X6X<./ ^ P n =.2.o.H _  .a.a.$.H _ ) 2.J.*XU.V m m b * 1.u d q +XVXCXGXNXNXAXJXaX",
"zXSXzXSXHXSXyXfXe.-.=.8.U.P.6.0.0.&.] q u G.}.7X2XM.E / L n =.q ' | X.%.%.$.$.H D ` w.J.-Xl.V B X b > 8 8 8 : 3 XXVXKXGXNXAXhXJX",
"jXlXlXSXlXHXGXqXwX=.-.l.9.U.I.K.P.7.L.8.2.4.H.vX2XM.U Q L = *.q ..X.%.%.$.| @.( ) 1.3.H.-Xl.H B o C c 2 ] 8 > : : NXVXNXlXAXJXAX",
"SXMXAXhXKXHX9XgXwX-.>.>.I.Y.s.g.Y.L.P.d.K.1.J.0X2X<.Y / P = *.&.[ { { }  .@.{ 2 1.4.p }.;Xl.C B O M & [ ; ; > - : v.NXNXhXAXAXAX",
"hXSXhXAXGXSXKXfXgX=.=.9.9.g.h.s.a.d.I.I.U.2.}.8X0XQ ! U L = *.4.&.7 ( ( ( ; 7 u 4.a a }.{.n.b B O v c Z ; ( D r.%Xn.1XjXAXlXFXAX",
"hXAXSXSXGXGXGXiXfX|.e ` 8.g.Y.h.h.9.d.8.J.H.}.8X2X! E U L = w q.4.u 0 3 5 5 u s N.t k }.;Xn.V V M O S D ( ( ..3X<XzXNXGXZXFXAXMX",
"AXAXAXhXHXSXMXmXoX}.e.3 -.;.d.h.I.U.g.0.8.F.H.8X,XT Q / ! = *.k k j p p p a a V.B.S.a F.&Xk.V m $ v & Z ; { wXvXjXSXGXMXAXFXMXGX",
"lXSXhXSXAXJXLXpX[.[.[.p 3 &.r.L.h.I.P.J.w.w.}.qX&XR ^ ~ P G w z V.V.h i y y f f S.B.a G.-Xk.E m o x & 2 ( ( CXgXjXGXNXSXMXFXBXFX",
"JXsXSXjXJXsXpXpX).Q./.W.q.0 6 0.0.g.K.t.F.e.'.8X2XW / / n = p j A.t i a p p j t B.B.t D.%Xk.V m B C - 2 ] ` vXgXNXSXKXGXFXAXFXBX",
"lXlXzXDXSXyXxXz.).^.`.`.].D.D.8 ] 2.5.F.G.].[.7X1X<.E Y P = w h a a p p 1.1.u a N.B.V.k 4Xk.. M v b ; 3 7 7 qXNXMXGXGXSXZXFXnXGX",
"AXAXAXkXDXoXz. XQ.).^.).OXZ.+XG.k q.p l W.W.].uX,Xp.U U L = r h p u 6 7 2 7 ] 4.N.V.N.C.4Xl.X M N c * ] u 6 q 8XhXGXMXKXMXnXKXBX",
"hXNXSXhXb..Xz.z.Q.(.^.!._.`.OXA.~.~.A.!.!.!./.LX,XQ / ~ n = 3.p 1.2.O.{ ..{ D 2 u N.N.N.;X9.# B # x - q d u 0 iXiXFXHXMXHXMXAXFX",
"NXSXhXyXaXeXsXpXbXE.E.!.!.!.!.!.A.!.!._._.^.~.uX1Xn.U B V = *.3.2.+.7.%.X.X.o.F 6 1.s D.=X<.m B # x * 6 5 1 e 9 oX9XFXSXMXMXAXAX",
"CXNXMXhXSXAXpXpXpXbX@XE.^.R.R.T.R.!.!._./.!./.mX,Xp.U ~ N n =.3.{ }  .a.%.#.| F 7 u 4.G.4Xr.+ $ o x ; 5 p d 9 e 9 oX.XiXSXhXJXAX",
"MXMXNXSXSXSXJXiXpXbXbXW.T.`.R.R.R.R.!.`._.!.].uX,Xp.Y B N n ' 6.7. .@.} #.y.y.H _ [ 4.4.;X<.+ $ # x & e 0 i 9 < oXtXaX#XSXAXAXSX",
"AXAXMXNXVXVXGXGXuXpXLX Xz.Q.W.(.!._.!._._.!.OXLX<X<.U % % V C ..a.y.y.H H X.y.X._ _ 2.0.*Xi.+ $ @ b - > 3 e oXoXMXAXFXAXMXFXBXBX",
"lXAXJXfXGXKXVXGXGXtXoXc.c.l D.G.OX/.!.@X_.T./.cX,X<.U % $ m S } %.#.f.f.a.X.%.%.o.( 6.U.*X<.b Y # X - , e 9XuXiXGXSXZXAXFXFXBXBX",
"xXaXJXMXVXVXGXVXfX.X{.e.e ] ] 4.D.W./.`.!.!.].mX,X<.U ~ N C S F } o.X.y.y.#.a.f.} A _ U.:Xi.b $ X X - G e |.CXjXGXGXSXSXSXMXBXBX",
"lXlXAXSXGXGXGXiX.X.Xt.*.` ` O.O.u C.].~.~.!.~.cX3X<.E ~ B C F D _ ' o.:.y.a.a.a.| _ D Y.:Xi.+ $ o X c > ` ;XNXNXMXGXFXAXAXAXFXBX",
"jXSXhXnXSX#XnXoX{.c.v.8.0.0.O.O.] 6 q.OXOXA.OXcX0Xp.W ^ V n ' ` Z A J |  . . . . .} Z P.:Xi.. B o M c ' G 5XCXCXCXGXJXAXAXAXJXMX",
"b.NXJXAXAXZXz.c.c..Xt.|.P.L.L.L.6.` ] q.].Z.OXcX0Xn.W E L G *.*.` ( A J @._ _ } Z F 2 U.*Xi.. B M X c S D ;XwXNXNXGXAXAXAXlXSXNX",
"1XjXSXnXZXJXZXc.c.t.t.t.P.I.I.f.7.7.[ 6 G.Z.G.cX0X&XR I L = w p 4.] ) 7 2 ; ; 2 ; 2 ] J.5Xl.b B M v c * G > -X0X0XSXAXZXAXnXVXNX",
"{.jXaXFXZXJXpXsX6X{.,.>.6.9.I.I.f.7.6.( D.D.G.cX6X3XQ L L , p z p D.p p p u d u u 1.G.J.;XY.W M M v c & - ; T , {.hXJXAXAXMXGXMX",
"NXSXhXSXAXZXJXpX8XqXgXr.>.;.s.h.h.h.;...7 F.G.7X8Xn.L E T - w k V.V.t y f h V.j V.N.N.G.4XU.W v . N x - wXwX2XqX6XSXKXZXZXFXFXMX",
"NXNXSXMXZXFXHXHXMXqXwX&Xr.k.9.s.k.k.s.7.[ 5.D.9X9X<.I E V = *.Z.B.S.f f f j j B.C.C.C.+X4X*Xu.v # X   >X2XjXgXjXGXGXBXnXFXFXFXBX",
"SXMXNXMXAXFXFXHXiXfXgX;X8.t.g.k.h.h.f.a.[ 1.F.8X1X<.E ~ V n w k V.f B.j t V.j V.C.C.B.+X+X5Xk.m . + R &XwXNXjXSXGXGXHXKXHXnXBXGX",
"NXMXSXMXAXFXSXKXGXfXgXqXt.r.r.r.h.s.:...[ 2.H.9X,X<.^ K V n w j B.B.t a a a a C.C.D.N.G.4X*Xu.B + X c n.gXjXlXSXGXGXGXHXFXSXFXMX",
"hXhXhXSXAXJXKXAXVXCXqX=X-...:.:.:.9.9.7.6 5.w.qX3X<.U Y V - r h f A.k k a s 4.s 4.4.s J.4XU.V B . . & &XfXjXhXSXGXGXKXGXFXAXAXMX",
"lXSXaXhXlXMXJXJXmXmX+Xe &.[ ....;.[ ) 4 3 q.'.8X3X<.U U I = 3.h h D.p u 1.] u ] 1.] 2.}.;Xl.x # o x * > yXhXsXAXGXGXGXGXGXAXAXAX",
"zXb.1XAXAXAXbXz. X XW.z 0 q 6 ` ] ] &.q.l '.[.7X3XQ U ~ L , w i d q 7 D ( A ( ( { ; ` U.$Xl.m M X v   G {.oXaXlXNXMXiXfXSXSXAXAX",
"zXhXlXlXAXoXz.c. X XQ.l l e.w.w.F.F.C.Z./.A.[.9X3XL E U V = *.q 6 Z A ( A @.@.| } F ) Y.:Xl.b # o C - > e z oXyX8XmXiXaXlXlXlXAX",
"kXlXlXZXZXAXMXMXlXsXpXxX#Xc.e.'.A.R.R._.R.!.].uXm.Q U / V n ' ( A  .} }  .X. .%. .{ Z P.:Xl.N $ @ @ : 4 5 1 d 9 1 e.< oXSXhXSXAX",
"zXzXaXAXFXFXMXMXSXJXsXeXpXuXXXW.(.R.R.R.!.!. X9Xm.! Y / m C J A  .@.X.X.X.+.f.%.a...F 7.>Xi.+ B @ @ * 4 d 5 1 4.}.uXZXAXMXJXFXAX",
"zXDXZXZXAXAXMXSXDXzXzXxXpXtXnXoXx.(.!.B.!.!.A.uXm.R Y U N C H } X.X.X.:.f.a.+.%.+._ D 6.:Xu.m B + b * 4 7 5 u 8XmXuXGXHXMXSXnXFX",
"1XkXSXAXZXFXSXMXSXDXAXJXJXtXpXtX#XZ.A._.A._.l 7X&XI U Y N C H ;.a.X.y.y...X.%.7...D D r.Y.l.N B M v & G ] 7 2 qXqXiXGXSXAXSXBXGX",
"NXSXJXMXZXFXHXHXSXGXSXAXDXsXdXtX|.z ~.A.A.A.].9X&XR U U $ C G :.y.y.X.} | y.f.%.} ' 4 8.:Xi.b K v v c J S ; ; wX0XhXDXSXJXSXGXBX",
"NXMXMXMXFXHXFXFXGXGXGXHXyXyXdX%X3.3.D.l ~.~.].mX&XL / ~ N n -.>.;.o.H H %.y.$.X.D ) ] 8.*Xs.b B K v c c ( J F h.wX<XdXzXSXSXMXBX",
"NXNXNXAXFXJXFXHXGXKXSXNXfX0X1Xn.=.4 9 q.G.D.].7X3XW U / N n -.-.' J X.a.$. .$. .D > 5.J.5Xk.V C O O c S S J @.o.&X2XdXDXSXMXMXBX",
"NXNXMXlXAXFXFXSXGXCXgXqX%X&X<.r.g.r.&.4 F.F.OXcX,XT I U I n *.q 2.7.f.a.%.%.+._ ) 2.3.H.*X$Xb m O O c c J S @. .T $X%XSXSXMXFXFX",
"NXjXSXSXDXJXsX.XoX{.=X;X>.T <.k.s.9.;.4 w.F.].cX,Xn.I ^ W = *.q.1.0.+.+.+.{ { 7 { K.d G.4X$XW m O X c c S J | o._ G > NXSXzXGXAX",
"SXAXeXsXsXr c.c..X*.=.J.j.9.;.s.k.h.>.' ] F.}.7XqXn.^ W n = w k F.5.] 8 { 7 { 8 4.D.N.J.;X$Xu.B O X c S S A J J ;.-.e SXjXjXAXAX",
"zXzXhXb..Xc.,.c.e.*.8.8.g.f.:.:.f.Y.f.>.D H.}.cXqX>XQ R L , w Z.D.D.d p u u u d C.k N.}.4X$X^ m X . c G ; ; ( _ D *X-XCXNXSXhXAX",
"lXlXlXzXDXAXtXtXc.T =.r.g.h.I.y.f.h.f.g.D 2.G.mX,Xn.I U L = w l h Z.a a d N.N.N.C.V.C.G.5XY.W o $ @ c G D ; >XwXwXvX0XCXNXMXZXJX",
"kXDXhXSXlXJXHXSXfXgXT 9.s.h.L.I.d.h.h.y.' 6.}.8X6XR L U n = w h l j h h y y t j V.C.V.].5Xj.V m o b & G > 5XqX0XwXVXGXNXjXNXJXnX",
"AXhXSXNXSXGXGXHXkX0X0X8.;.s.d.L.I.I.Y.h.7.-.H.vX2XL U Y Y L e z h h z y j y V.t j B.C.+X4Xr.m # o x - > , fXdXdXjXGXGXSXSXSXSXJX",
"AXAXMXmXGXBXHXAXsXkX&Xl.H >.d.P.K.L.I.a.} _ H.8X3XL / % N n =.c.oXoX|.z h y f y f h C.+X;X9.b o v C & e < iXtXeXAXAXGXHXMXMXFXnX",
"hXGXGXKXVXHXFXpXtX.X1X*.&.` 5.O.0.6.7.9.' ` H.qX2XP / U @ n dXiXiXaXXXoXr i i k V.j a +X4Xl.b B M x & > w oXpXsXtXAXJXSXSXFXFXnX",
"SXHXNXGXHXAXpX#X X Xz.z.l 0 0 5 [ +.` ] > e H.2X>XI Y Y P Q 2XfXyXhXiXfX{.r 3.p N.D.N.+X;X<.m B v V * 4 u d #XLX7XHXJXSXhXSXFXMX",
"SXSXGXSXsX.XoXz. X(.(.T.E.A.j q.5.> &.3 u w.|.0X3XY I U P M.kXdXGXGXGXyX{.*.*.p 4.N.N.+X;Xi.+ B o . n 4 d y y a mXnXMXNXGXCXMXFX",
"SXJXSXHXb.z.r  X).).).R.!.E.~.D.q.D.'.[.'.l |.dXn.! E ! P rXkXHXAXSXGXSXgX,X: 3 p u N.}.U.i.N K . . * ) 5 d 1 9 9 < SXSXhXGXFXZX",
"JXJXJXDXxXr z.z. X).).T.!.^.E.!.].W.Z. X'.[.c.0Xv.Q U ! M.rXjXSXSXDXSXGX0X{., : u s p H.n.i.m B o x & 4 5 1 : 9 c.yXGXNXGXnXFXFX",
"AXJXAXJXHXXX#XoXQ.).(.T.T.R.B.R.R.R.T.^.Q.z }.9Xv.P ! ! M.rXSXSXhXSXSXHXdXb.=., : u w H.&Xu.# B . n * ` 3 9 }.uXiXiXCXVXVXMXZXZX",
"xXJXSXHXlXDXaXiXLX#X(.x.(.!.T.x.^._.T.(.W.@XXXXX{.m.m.m.rXsXSXSXSXGXGXSXdX1X, v.jXqX|.,Xn.u.m N x n * 4 > > iXyXNXGXGXKXGXSXFXFX",
"AXlXGXSXSXGXfXuXpXLXbX@X(.E.x.g ^.(.x.bXbXuXiXfXdXrXrXm.rXDXlXHXJXMXGXSXdX{.1XdXqXfXCXgXn.<.+ Y W R 3X3XXX: 9XiXGXGXKXVXMXAXZXZX",
"lXJXhXNXSXNXiXiXiXpXbXbXLXbXuXz.(.^.#XbX7XMXqXfXfXeXrX1XrXlXHXFXGXGXGXNXhXdX<XdXdXyXiXdXdXM.n Q =.jXgXNX<X,.yXyXSXGXKXVXGXMXJXZX",
"MXMXNXNXNXNXNXSXFXnXuXpXpXiXiXmX'.[.nXnXuXGXGXGXeXkXeXkXyXGXKXBXMXGXHXMXaX6XyXdXzXHXSXNXdX3X  m.3XjXNXHXhXeX1XrXyXKXVXKXBXBXSXAX",
"NXVXMXNXjXNXMXAXHXFXHXHXSXaX8XaXmX#XtXfXSXGXSXSXHXlXeXJXAXSXFXVXGXMXnXFXGXGXSXSXSXSXJXSXDXv.m.m.gXSXGXSXGXhXb.zXyX6XKXVXBXMXAXAX",
"VXMXNXMXAXMXAXlXaXJXJXAXzXSXjXyXpXGXHXSXDXSXSXSXAXAXlXJXAXAXGXMXMXMXBXBXGXJXSXzXhXHXJXSXlX.Xm.kXDXSXGXHXJXhXb.b.hX1XFXMXFXGXGXxX",
"VXMXAXAXlXAXxXlXlXAXlXaXzXDXSXyXJXHXDXlXDXzXSXJXAXZXAXAXSXSXSXNXMXNXSXFXMXMXAXSXJXJXFXAXlX.XkXkXDXDXGXSXGXiXr <X9XDXGXBXBXSXhXAX",
"MXFXMXAXAXlXAXAXJXAXAXAXSXjXlXzXnXMXAXDXJXlXnXMXAXFXAXaXSXAXAXMXhXMXMXFXBXAXFXAXSXlXMXZXJXAX1XzXJXHXHXHXVXGXNXSX9XHXFXKXMXBXSXSX",
"SXMXnXAXlXlXlXlXMXlXaXSXMXhXhXSXFXFXAXhXlXAXJXMXnXSXJXAXlXzXhXzXzXMXAXnXMXMXMXhXhXMXAXAXSXhXeXSXHXhXFXGXVXVXjXSXSXAXHXKXBXMXSXhX",
"SXMXSXMXlXSXAXjXMXSXGXMXAXSXSXMXGXMXSXzXzXlXNXBXVXMXMXNXlXzXhXlXhXzXAXFXBXMXMXSXSXNXMXMXSXmXNXjXMXJXVXVXVXVXSXfXlXJXKXFXFXSXMXSX",
"SXSXAXMXMXzXjXhXMXMXMXBXMXMXMXSXNXMXAXhXhXzXMXBXBXGXNXiXb.hXlXlXzXzXAXAXZXSXMXNXjXSXMXGXMXSXNXNXAXhXVXBXVXVXNXSXMXhXHXHXBXFXSX.X"
};
