/* XPM */
static char *wall_corner4[] = {
/* columns rows colors chars-per-pixel */
"64 64 256 2 ",
"   c #B2927B",
".  c #CB8C7D",
"X  c #CA8B79",
"o  c #D38D7C",
"O  c #D68B7A",
"+  c #CC947E",
"@  c #D4927D",
"#  c #D8967E",
"$  c #D6A07E",
"%  c #BB8C8C",
"&  c #B78B8A",
"*  c #BC9A8E",
"=  c #BC918C",
"-  c #BC869A",
";  c #BC8A9C",
":  c #BA8997",
">  c #AB9796",
",  c #BA9797",
"<  c #AA8C96",
"1  c #BAA59E",
"2  c #BB8DA2",
"3  c #B38DA2",
"4  c #AD9CAC",
"5  c #AA99A9",
"6  c #BC94A4",
"7  c #B49CA4",
"8  c #BB9BA4",
"9  c #BC96AA",
"0  c #B39CAB",
"q  c #BC9CAB",
"w  c #B394A5",
"e  c #AB9DB3",
"r  c #A69DB2",
"t  c #B39EB1",
"y  c #BC9EB3",
"u  c #AEA4AB",
"i  c #B4A2AD",
"p  c #BCA1AC",
"a  c #BCADAD",
"s  c #B9A7A7",
"d  c #B9B7AD",
"f  c #ADA1B3",
"g  c #ADAAB9",
"h  c #B3A3B5",
"j  c #BBA4B3",
"k  c #BBABB5",
"l  c #B4ADBB",
"z  c #BCADBB",
"x  c #B4A9B7",
"c  c #AEB2BE",
"v  c #AABABB",
"b  c #B3B2B5",
"n  c #B3B2BD",
"m  c #BBB3BC",
"M  c #BABABD",
"N  c #B8B7B6",
"B  c #CB8E82",
"V  c #C48788",
"C  c #D38E82",
"Z  c #CC9383",
"A  c #C8998A",
"S  c #D49483",
"D  c #D99583",
"F  c #D49A85",
"G  c #DB9A84",
"H  c #D39C8B",
"J  c #D49689",
"K  c #C48594",
"L  c #C3869A",
"P  c #C48C9C",
"I  c #CB8C9D",
"U  c #CA8896",
"Y  c #D38B9D",
"T  c #D7889C",
"R  c #C4929E",
"E  c #C99699",
"W  c #D4959A",
"Q  c #E09E88",
"!  c #CCA28C",
"~  c #CAA184",
"^  c #D2A38D",
"/  c #DCAB8D",
"(  c #D9A789",
")  c #CAA695",
"_  c #D3AB94",
"`  c #DCAB92",
"'  c #D8A796",
"]  c #D7B298",
"[  c #CDB093",
"{  c #E1A98D",
"}  c #E1AA93",
"|  c #E1B092",
" . c #C38DA1",
".. c #CD8CA2",
"X. c #C686A0",
"o. c #D48DA2",
"O. c #DB8DA3",
"+. c #DF8CA8",
"@. c #C393A3",
"#. c #CC93A3",
"$. c #C39AA4",
"%. c #C29CAB",
"&. c #CB9CAA",
"*. c #C897A8",
"=. c #D393A4",
"-. c #DB93A4",
";. c #DC95AA",
":. c #D59CAB",
">. c #DC9BAB",
",. c #D798A7",
"<. c #CC9BB1",
"1. c #D99DB2",
"2. c #E18DA4",
"3. c #E58FA8",
"4. c #E29BAC",
"5. c #E392A7",
"6. c #E39DB2",
"7. c #C3A2AC",
"8. c #C3ABAC",
"9. c #CBABAB",
"0. c #C8A4A7",
"q. c #DCA2AD",
"w. c #D5A6AC",
"e. c #C9B4AD",
"r. c #DBB6A9",
"t. c #C3A4B2",
"y. c #CBA4B3",
"u. c #C3ACB4",
"i. c #C3ACBA",
"p. c #CAABB7",
"a. c #D4A4B3",
"s. c #DCA5B3",
"d. c #D4ACB4",
"f. c #DCABB4",
"g. c #D8A9BA",
"h. c #C3B3BC",
"j. c #CBB3BD",
"k. c #C7B8B7",
"l. c #DDB3B4",
"z. c #D6B6B8",
"x. c #E3A2AE",
"c. c #E3ACA4",
"v. c #E2B2AC",
"b. c #E2B9A9",
"n. c #E2A3B3",
"m. c #E2ABB5",
"M. c #E2ACBB",
"N. c #E9A8B8",
"B. c #E4B2BC",
"V. c #EAB2BD",
"C. c #E5BBBC",
"Z. c #EABCBC",
"A. c #E6B8B3",
"S. c #BBC3BB",
"D. c #ADC0BE",
"F. c #C8C6BB",
"G. c #D8C5BB",
"H. c #D9D2BF",
"J. c #E7C9B9",
"K. c #E9D1B9",
"L. c #EDCEB5",
"P. c #B9AFC0",
"I. c #ADB3C3",
"U. c #B3B3C2",
"Y. c #BAB3C2",
"T. c #BCBCC4",
"R. c #B6BCC6",
"E. c #A8AFC1",
"W. c #C3BAC3",
"Q. c #CBBBC4",
"!. c #C9BAC6",
"~. c #D3BDC4",
"^. c #D9BBC7",
"/. c #DAB5C9",
"(. c #E4ACC1",
"). c #E5B3C2",
"_. c #EBB4C2",
"`. c #E8BAC7",
"'. c #F5B9C8",
"]. c #FFBFD0",
"[. c #ACC4C5",
"{. c #AEC7CA",
"}. c #B3C3C4",
"|. c #BBC3C5",
" X c #BCCBC4",
".X c #B4C6CB",
"XX c #BDC5CB",
"oX c #B4CACB",
"OX c #BCCACB",
"+X c #B5CAC5",
"@X c #BBD2CB",
"#X c #B8CCD1",
"$X c #BCD3D2",
"%X c #C3C4C5",
"&X c #C4C4CB",
"*X c #C7C9C9",
"=X c #DCCCC3",
"-X c #D7C6C9",
";X c #C6D3C9",
":X c #DAD3C3",
">X c #D8D4CA",
",X c #C6CAD2",
"<X c #D7C7D6",
"1X c #D9DAD5",
"2X c #C9D5D4",
"3X c #ECC2C4",
"4X c #ECC5CB",
"5X c #E5CACE",
"6X c #E8CAC8",
"7X c #F2C5C6",
"8X c #ECD5CD",
"9X c #EBDACC",
"0X c #E5D5C7",
"qX c #F2D7CA",
"wX c #E4CBD3",
"eX c #E6C8D5",
"rX c #F9C3D5",
"tX c #EBDBDA",
"yX c #E7DBD6",
"uX c #F2DBD4",
"iX c #F2DDDB",
"pX c #F5D8D3",
"aX c #F4E3CB",
"sX c #E5E4D4",
"dX c #ECE3D5",
"fX c #E4E3DC",
"gX c #EBE4DB",
"hX c #E5E9DC",
"jX c #ECEBDC",
"kX c #EBE9D6",
"lX c #F4E3D5",
"zX c #F3E4DB",
"xX c #F3EDDD",
"cX c #FBECDD",
"vX c #F7E6D8",
"bX c #F5F1DE",
"nX c #F9F1DE",
"mX c #ECE2CE",
"MX c #E7DEE2",
"NX c #F2DFE0",
"BX c #E4EAE4",
"VX c #E8E7E3",
"CX c #F5EEE3",
"ZX c #FAEEE3",
"AX c #F7ECE7",
"SX c #EEF2E2",
"DX c #F5F2E3",
"FX c #FAF3E4",
"GX c #FBF8E6",
"HX c #F6F4E9",
"JX c #FCF5EA",
"KX c #FDF9EB",
"LX c #F5F8E6",
"PX c #FEFAF0",
"IX c #FCF7F1",
"UX c #DCE4DE",
/* pixels */
"H.0XbXbXxXbX>X:X=X=Xz.z.j.p././.W.|.M |.}.|.XXfX0X] ` } F A 0.y.:.x.:.,.=.4.x.4.=.#.; `.4X`.} G S Z % p x x t l e h 4 5 w 8 w -X",
"H.nXFXFXGXGXdX=XG.s e.8 $.&.%.%.p h.h.%XT.|.,XVXuXr.` { F A 9.7.,.W o.,.6.N.4.W #.@.y.-X4XZ.W D S Z = p j h e t y t y %.8 6 q `.",
"nXnXnXFXKXFXdXvXk.0.9.d.).).g.g.g.7.%.p j Q.Q.tXuXL.` | ^ * 8.7.=.,.4.6.6.4.2.=. .$.j.^.4XA.H J C B % q y y 0 q 9 2 3 - - - 2 `.",
"xXbXDXFXDXJXJXzXvX9.0.l.l.`._.B._.a.).a.y.j.~.NXqXL./ ] ! * 8.p &.>.6.6.4.-.=.I @.t.k ~.6XA.H G O S % $.0 9 2  .2 X.X.X.Y ..2 '.",
"FXZXDXDXKXKXyXzXiX) w.w.Z._.m.V.'.V.M.M.(.t.^.iXqXG./ | ~ * a 7.*.<.=.=.=.=. .6 t.i.k -X6XA.H G @ C V $.2 2 L X.o.o.3.5.O.-.=.'.",
"xXDXxXDXJXFXKXiXNX9.9.f.f.M.V.m.n.M._.`.`.y.-XtXqX] [ / ! * 8.i.%.6 2 @. . .6 j z z z -X-XJ.Z J C D V R ; P I o.2.3.3.5.2.-...'.",
"CXDXDXDXJXJXJXgXAX-X8 0.d.B._.V.V.a.M.g.~.~.~.tXqX[ ` / ! * 8.h.h.j 7 7 q 0 j P.l g l -X6XZ.A G o C V E L ..O.O.2.3.5.T -.-.K '.",
"DXDXDXcXJXJXCXVX-X-Xk.s $.w.B.V._._.B.z.p.j.-XtXqX) ] / [ * 8.m z n z N x k n U.I.I.l Q.6XJ.' S D C % P L =.+.2.2.T T W -.-.L `.",
"bXDXxXGXDXLXUXhX*X*X*Xa 7 7.B.M.(._.`.).j.j.-XMX8X_ } { ! * s m U.U.b x b u c I.E.I.U.!.6XZ.' D . S V E I ..4.T T T O.-.>.E : _.",
"DXxXDXcXGXkXhXhX@X XOX|.T.i q g.g.B.g.z.j.%X!.tXqX_ } | A * e.n R.c b x x z b c I.I.I.h.6XJ.J D F Z & #.P X.o.Y T o.-.Y U U E `.",
"xXbXbXGXDXkXSXS.@X@X$X$X&XW.i.q %.y.p.Q.%X&X*XyX8X] ` ( ! * a n l l k k t.t.i.x U.I.U.z 5XZ.. C o B = $.6 2  .;.;.o.o.o.K L @.`.",
"DXDXcXxXLX:XS.;XS.$X{.@X,XXX<XW.z h.k M |.|.*XfX8Xb.` / ~ * d x k i.q 3 6 6 q j P.P.U.m wXA.. # o Z % 8 t.%.@.@...o.....L @.%.`.",
"CXFXZXbX:X:XS.S. XS.oXoX#X,X,XR.XXXXR..XoX.XXXVX9Xb./ { A * d k t.y.<.<.:.#.R 6 j P.P.P.5Xf.. Q o Z % q j q 9 2 - 2 2 ; @.@.q `.",
"FXZXjXdXkXsXkXsXBX}.}..X{..X.X{.R..X.X$XoX.XOXfX0Xb./ ( H A 8.u.y.1.1.s.6.>.,.#.q t.z W.5Xw.F G o Z & p j e t y 3 3 3 6 %.3 0 <X",
"AXZXZXxXFXnXkXhXUXBX2X}.oX{.{.{.{.{..X#XoX.XXXfXqXr.{ ( F A 9.y.*.=.;.n.6.4.-.E @.t.P.!.5Xr.Z # S B & 7 j h h x r e h t 0 0 y <X",
"AXxXZXFXGXFXLXjXBXBXBX|.[.$X{.{.{.{.oX#X#XXXXXVX8Xb.{ G F A $.d.n.;.o.=.4.x.x.W @.&.p.i.5Xr.+ # S B = q y x t y e 4 0 h 0 w t <X",
"CXDXCXZXJXJXJXJXsXhXUX@XS. X}.oX}.$X.X#X#X.X,XfXqXr./ $ $ H A :.n.x.x.-.=.;.x.q.=.@.a.z.4Xv.+ ( + A & 7 0 x j t w w %.9 9 6 q ^.",
"bXFXGXzXJXJXAXJXJXsX:XF.F.h.W.!.,X.XoX2X#X[.OXMX9Xr./ $ # S U ,.4.x.N.x.x.>.n.4.,...<.).'.r.+ F @ . & 8 0 z y q *.2 2 2 2 2 q ^.",
"jXjXDXDXAXJXJXAXzX:X=Xk.s 7.q i.W.XX&X#X.X.XXXVX8Xr./ { F J U I #.,.q.x.x.x.n.N.=.I *.`.7Xv.Z # . X % 8 0 t.q %.<.<.o.X.L L %.eX",
"nXSXDXLXJXIXJXiX>X:Xz.9.8 &.1.<.j Y.&XOXXX.XXXMX8Xc.` { F J E P #.#.,.x.q.x.n.n.,.I R ).7Xv.+ # O C & $.%.9 <. .o.;.+.+.o.I  .`.",
"cXDXCXjXCX>XSX>X=XF.G.9.g.g.<.1.%.p h.,X,XR.,XMXuXA.` ` H A &.$.P I Y =.-.4.;.;.>.,.; `.7Xv.. G # O V @.$.@.,.o.T O.5.-.o.I K `.",
"H.CXGXCXHXSXS.%XF.=Xz.-X).(.(.(.1.$.%.h.&XT.,XMXpXJ.' ` ! * 9.8.&.I E I =.#...=.P I , `.7Xv.. G C O V L  .#.=.+.T T 5.2.-.Y K rX",
"0XcXFXCXSXLXDXF.F.G.k.z.g.`._.N.s.s.&.q !.T.!.MXtXK.] ^ ! , a k p.t.%.6 , 2 ; 6 2 6 %.`.4XA.S D D O V K I o.O.5.3.T Y Y 4.W U '.",
"=XZXjXHXSXLXhXkXtXJ.e.w.s.M._.V.V.s.a. .W.!.W.MXtXqX] ! ! * a n x h.z j k j h 0 j t.W.~.6X7XW D # C V K ..T 2.O.2.O.Y W -.=.Y rX",
"ZXFXCXDXSXLXDXgXdXzXiXl.w.w.m.V.V.V.q.w.8 Q.W.MXyXG.^ ` ' * a T.U.R.g g n n n n P.P.P./.eX3X} C @ S V K K o.T +.-.-.Y =.W W Y rX",
"cXZXFXCXCXLXHXKXCXiXiX7Xl.C.l.f.A.Z.x.a.&.p.!.yX8Xr.^ } H * a m I.E.c c c n U.c R.Y.Y.,XeX5Xv.C . + V P L L U T o.-.-.-.4.5.Y ].",
"FXCXZXCXDXHXHXJXtXAXvX4Xd.l.B.Z.V.V.N.m.&.t.Q.yX0Xr.` { H A a m U.g I.c l U.n U.Y.Y.U.!.<X4XZ.J o . V $.; ; ; L Y o.o.o.+.O.Y V.",
"ZXCXFXCXHXHXHXPXFXzXiXvXz.l.l.B.V.m.>.:.&.y.~.yX8Xr.` { A A 8.n I.c c b l l l U.Y.!.P.,XwX5X} J o . % $.9 2 ; ;  ...I T T T o.N.",
"xXxXxXDXDXGXKXDXJXAXtX5X9.:.:.q.s.s.f.a.%.p.j.tXqXr./ ( H * d b c R.m m z z z i.i.i.z ^.5X`.H G . C & 8 7 0 3 6 3 - 2 I K K L s.",
"nXDXkXxXDXCXLXKXVXMX-Xs 7.&.w.:.w.&.$.8 7 h.%XtXqXr./ ( H * u.b b W.z k t.p y %.7.p p.^.5XA.B @ . B & 8 0 0 0 y q 9 ; ; : : 2 (.",
"nX:X0XDXDXSXBXS.*X;X%XM i p q $.*.%.7.u.M %X*XtXqX] / { ! , d x j p $.;  .P .. .*.P $.`.3XA.# # X B % 8 0 e e x e t 0 q t.%.%./.",
"nXxXbXbXDX>XS.F.;X;X XN M k.j.j.!.!.T.T.OXR.*XyX6X^ ` { ! A 8.j 8 ; R I I =.o.-.#.I R ).7XA.+ @ o Z & q e h x x e e f t u.q q p.",
"xXnXDXbXSXCXDXAXnXkXsXjX1XF.h.W.U.#X{.{.{..X|.fXK.[ ( | S E #.#...=.=.W ;.>.;.6.>.#.P ).7XA.Z # X Z = 7 0 f f e r f r e t k j !.",
"nXnXjXSXLXHXCXZXGXnXkXsXkXUX1XS.oX{.{.{.oX.X,XyXK.] / | S J E I ;.-.>.>.1.1.(.6.n.:. .f.rXv.+ ( + Z = , 0 e h h f r e t t 0 5 Q.",
"nXnXDXDXHXSXDXFXGXGXLXSXkXsXSX>XS.+X{.R..X.XR.fXK._ / ( F J W W 1.>.:.x.m.n.1.6.:.#.R a.7Xc.@ # S Z % 8 q 0 w t e t t 4 i h p ~.",
"0XkXCXCXSXHXDXCXGXGXDXLXLXsXgXdX>XR.R.#XR.#XM yXJ._ / ( H Z W :.n.x.x.x.>.>.6.6.q.R ; f.'.v.F G # S % $.6 9 9 @.9 t t y q w j ^.",
"nXFXFXCXSXHXJXJXZXJXGXDXLXkXkXyX-XM |.R.R.XXXXyX6X_ / { F Z E w.x.x.>.W =.4.N.4.,.$.R d.'.v.B { o C V T K L - -  .2 6 6 %.@.t.%.",
"ZXZXCXCXGXLXHXJXJXZXKXJXlXdXlX0Xu.k W.M T.XX,XMX6X^ / { F Z 0.f.:.,.W W 6.N.4.4.R @.7.z.4Xv.Z J O C V V K o.+.2...L P ; P : @.rX",
"ZXZXCXHXGXHXHXJXJXJXJXZXlXmXK.6X9.8 s h.W.W.&XMXqX_ / / F A 0.0.#.=.>.N.4.;.4.,.R , y.^.4XC.H D O O C T U T +.2.+.;.,.o.=.I - rX",
"ZXZXCXbXHXHXHXAXJXAXzXiX6X6Xl.l.B.z.0.7 Q.!.,XtX8X) / | ^ * 9.7.y.f.n.n.6.6.1...@.y.u.-X5X3XA D O O V K T T +.3.5.5.+.4.W =.;.rX",
"ZXcXFXDXGXnXjX:X:X>XwX6X9.0.v.A.m.m.w., p.Q.&XMX6XJ.^ ` ' * 8.h.t.g.a.1.1.<.X.2 9 !.%.^.5X3XH G X o V V U T O.3.5.o.-.-.-.>.,.'.",
"DXDXdXkXkXd F.F.G.e.9.).C.s.w.v.Z.V.w.$.7.Q.-XMXiXK.] ` A * a m !.y.%.9 %.9 <.9 i.!.x <X5X3Xc.J O X V P L I Y O.5.O.-.T Y W >.rX",
"nXnXbXH.:XF.S.F.e.e.z.w.B.N.q.q.N.'.V.f.R ~.-XMXiX7X] ` ! * a T.W.h.x j y y j h W.n z -XwX3X} S o X = R ; - X.o.-.O.;.-.-.=...`.",
"nXxXbXcXGXnXsXmXF.s 0.l.A.V._.q.n.V.N.m.R p.!.MXuXJ.^ ^ H , d R.n T.n n x P.P.z l U.U.!.eX`.} o o + V @.6 ; - X.o.;.-.-.;.;.*.].",
"xXGXxXCXbXHXKXDXdXvXE l.M.V.M._.M.V.V.x.*.9.-XtXpX) ^ / A * a b M N b b g g l n U.Y.U.Q.wXC.H S # S & @.%.9 2 2 L I o.o.=.=.@.rX",
"xXxXGXCXGXDXJXKXxXuXpXl.w.m.M.(._.V.'.V.s.&.~.NXqX! / ( ~ ! s m b b b b N g U.g c U.T.<XwXl.S @ O . = q 0 t 9 2 ; L I Y =.#.@.`.",
"DXDXCXAXIXHXKXDXkXvX6XA.E w.(.(.(.(.V.m.=.#.~.iXqX[ | $ $ A e.F.>X-X;XN b u c g c c n <X5Xl.B O o B = q e e t %.9 2 - : ; @.q eX",
"xXJXAXPXAXJXJXhXsXH.0X9.0.$.p.y.a.a.s.s.&.@.~.iXqX~ / | + A uXjXgXjX0X>Xb b b n Y.U.l <X5XA.Z G D A & 7 h e e z y 9 6 @.6 8 q eX",
"FXJXZXJXKXDXhX1X;X;XS.S.S.u h q &.w.*.0.8 8 ~.pXL.^ / ( ~ ] aXlXsXCXdXzX:Xa u.m P.W.P.<X5Xw.S D @ A & 8 j f g P.e e 4 i i 0 0 /.",
"JXFXJXFXsX0X>XS.;X+X+XD.}.R.b k y.8 p 7 k k.=XuXqX^ ^ / ~ L.vXlXJXGXJXiX=X8.8.u.z P.P.<X5Xv.+ D S . * , j e r e e g 5 u u 5 y ^.",
"DXGXGXJXH.S.d ;X@X$X@X{..XR.&XXXh.h.W.*X%Xk.-XuXJ.[ ] ^ ~ aXvXJXDXFXJXFXzX8X> > i.k P.-X3Xr.F Q . X & , 0 t r h P.5 e u 5 4 h <X",
"LXLXHXGXjXd S.F.;X@X@X[..X#X[.XXXX|.|.;X|.*XF.tXG.] [ ] L.qXnXFXGXGXFXJXuX=X1 > j k z ~.J.c.# G . V E , y y 5 0 e w u 7 a 0 h eX",
"bXLXDXDXKX1X1X;XS.@XoXD.[.{.v {.{.{.[.@X XM -XyXr.) [ [ L.mXGXFXxXGXZXJXlX=X9.1 > u.a ~.3Xc.+ ( B A & E 7 7 w j w wX>X=X>X> i -X",
"SXLXFXKXbXGXjXhXUX1X+X[.oX}.[.v oXoX+X[.|.2X>X=X:XK.K.K.aXaXFXDXFXJXFXJXlX0X1 G.zXiX5X5X6Xv.# F Z V = 0., w 7 < z.tX8XmX=XwX> k.",
"LXjXKXGXFXGXzXgXBXhXBX2X}.}.D.D.oXoX[.BXBXfXgXzXlXaXaXK.aXGXnXKXFXCXJXFXzXH.0XlXlXzXzXvXJ.] Z ( ] ' pX7X6X> , 9.8X8X9X0X0X9X>XG.",
"bXGXCXcXZXZXtXgXVXhXBXBXhXBXUXS.OXOX2XBXyXCXiXzXvXmXaX0XkXbXKXHXJXJXJXZXzXlX9XzXlXgXzXdXlXL.A | _ vXvXvX8Xe.9.9.qXpX0XmXmX0X9X9X",
"ZXCXZXZXcXZXZXDXCXjXhXhXhXhXhXVX|.*XVXjXgXJXJXJXmXkXaXkXdXJXIXHXCXFXIXCXgXtXdXvXnXKXFXZXlX0X  L.qXcXZXKXvX8Xz.e.6XlXcXnXnXnXcX9X",
"ZXAXZXCXZXCXZXDXGXHXGXKXAXzXgXzXCX1XdXjXJXJXZXGXGXxXsXGXGXFXAXAXHXAXAXHXHXJXGXFXGXDXGXFXGXJ.K.K.vXZXJXJXFXZXH.uXqXcXZXFXnXGXnX0X",
"AXCXZXZXDXCXbXDXSXHXLXDXcXFXcXdXgXHXKXFXFXGXDXGXGXDXDXLXDXCXJXAXAXAXDXDXHXJXDXnXxXKXLXDXxX:XH.vXGXJXHXJXJXCX=X0X8XKXJXKXJXGXGX9X",
"AXAXDXDXbXDXSXbXDXDXbXjXDXGXFXlXHXKXLXnXFXGXnXHXSXDXDXDXDXFXFXCXCXFXHXDXCXDXcXFXGXHXLXDXDX:XvXvXKXJXJXHXCXCXk.0XtXJXJXJXPXKXKX9X",
"DXDXDXCXDXbXDXDXGXDXCXDXnXcXxXDXCXCXHXGXLXxXSXCXDXHXDXxXDXDXDXDXCXCXSXAXHXDXAXDXDXDXZXDXGXDX0XFXFXIXHXPXJXJXCXJXyXHXPXPXKXHXJXZX",
"HXCXCXDXbXDXbXbXCXjXDXFXDXxXxXGXHXHXDXjXbXDXGXCXSXCXDXCXbXnXxXnXbXSXAXAXSXCXCXCXxXxXDXDXDXjXmXFXJXFXHXHXxXFXCXZXAXHXIXIXHXHXFXxX",
"FXCXDXCXCXnXnXCXCXDXFXCXCXFXFXCXFXCXDXnXbXnXAXAXHXAXCXFXnXnXbXnXxXnXHXDXDXDXCXFXFXZXCXAXHXzXZXcXCXGXDXHXnXbXFXCXCXCXIXLXSXDXFXZX",
"FXDXCXDXbXDXcXxXZXCXCXHXAXCXCXDXAXCXDXxXcXDXAXAXAXHXZXgXH.jXbXxXnXnXDXDXDXCXCXZXCXFXCXHXCXFXZXZXZXcXxXbXbXnXxXCXFXCXIXHXDXDXDX9X"
};
