/* XPM */
static char *wall_corner3[] = {
/* columns rows colors chars-per-pixel */
"64 64 256 2 ",
"   c #CD8C7C",
".  c #C88C7B",
"X  c #D38D7C",
"o  c #D88B7B",
"O  c #CB927E",
"+  c #D3927D",
"@  c #D9937C",
"#  c #E1957E",
"$  c #D5A07E",
"%  c #BB8D8B",
"&  c #B58D8A",
"*  c #BD9A8C",
"=  c #B8948A",
"-  c #BD859C",
";  c #BD8B9D",
":  c #B88B97",
">  c #B99899",
",  c #AC9596",
"<  c #BC8DA3",
"1  c #BC8EA8",
"2  c #AC9DAC",
"3  c #AD99A4",
"4  c #BD93A4",
"5  c #B59CA4",
"6  c #BC9BA4",
"7  c #B49BAC",
"8  c #BC9CAB",
"9  c #B795A9",
"0  c #AC9DB1",
"q  c #A79BB2",
"w  c #B29DB1",
"e  c #BC9DB1",
"r  c #AF8EA1",
"t  c #B4A2AC",
"y  c #BCA2AC",
"u  c #BDACAC",
"i  c #BAA5A6",
"p  c #BAB5AC",
"a  c #ADA1B4",
"s  c #ACAAB8",
"d  c #B4A3B4",
"f  c #BBA4B3",
"g  c #BBACB5",
"h  c #B4ACBB",
"j  c #BBACBB",
"k  c #B2A8B8",
"l  c #AEB2BE",
"z  c #ADB9B9",
"x  c #B4B2BC",
"c  c #BBB3BB",
"v  c #B8B7B7",
"b  c #ADA1A8",
"n  c #CB8E83",
"m  c #C68888",
"M  c #D38D81",
"N  c #CC9384",
"B  c #C29A8D",
"V  c #CD9C89",
"C  c #C99587",
"Z  c #D49383",
"A  c #DA9584",
"S  c #D49C84",
"D  c #DB9A84",
"F  c #D69A8A",
"G  c #C4869A",
"H  c #C48C9C",
"J  c #CB8B9D",
"K  c #C88897",
"L  c #D38A9D",
"P  c #D6899C",
"I  c #C4939E",
"U  c #CB939D",
"Y  c #C49A96",
"T  c #D5969A",
"R  c #E29A8A",
"E  c #CDA38D",
"W  c #C7A389",
"Q  c #D3A38C",
"!  c #DBAB8C",
"~  c #D8A689",
"^  c #CCA895",
"/  c #DCAC92",
"(  c #D7A896",
")  c #D8B198",
"_  c #D3B195",
"`  c #E0A78D",
"'  c #E2AB95",
"]  c #E2B193",
"[  c #C28CA1",
"{  c #CD8EA4",
"}  c #CA86A0",
"|  c #D48DA2",
" . c #DB8DA3",
".. c #D08EA9",
"X. c #C494A3",
"o. c #CC94A3",
"O. c #C39BA4",
"+. c #C295AA",
"@. c #C29BAB",
"#. c #CB9CAB",
"$. c #CC99A6",
"%. c #D393A3",
"&. c #DC93A4",
"*. c #D39AA5",
"=. c #DC94A9",
"-. c #D49CAB",
";. c #DB9BAB",
":. c #D898A7",
">. c #C79DB0",
",. c #DA9BB1",
"<. c #E18DA4",
"1. c #E292A5",
"2. c #E49CAC",
"3. c #E394A9",
"4. c #E29DB1",
"5. c #EB9EB0",
"6. c #C3A3AC",
"7. c #CCA3AB",
"8. c #C4ACAB",
"9. c #C9A7A7",
"0. c #D4A3AD",
"q. c #DCA2AC",
"w. c #D5ADAD",
"e. c #C5B3AE",
"r. c #DBB6A7",
"t. c #C3A4B2",
"y. c #C2ABB4",
"u. c #C2ACBA",
"i. c #CBA9B5",
"p. c #DBA4B2",
"a. c #D5AAB4",
"s. c #DCABB4",
"d. c #D7A8B6",
"f. c #C3B4BD",
"g. c #CAB4BC",
"h. c #C7B7B6",
"j. c #D2B3BC",
"k. c #D9B5B7",
"l. c #E2A2AD",
"z. c #E1AEA6",
"x. c #E3B4AA",
"c. c #E3A3B4",
"v. c #E3ACB5",
"b. c #E4ADBA",
"n. c #E9A7B9",
"m. c #E4B3BB",
"M. c #EAB3BC",
"N. c #EABCBD",
"B. c #E4B7B7",
"V. c #F0A8BE",
"C. c #B9C3BC",
"Z. c #C8C5BD",
"A. c #D7C5BC",
"S. c #DAC9B5",
"D. c #E8CABA",
"F. c #E8D2BA",
"G. c #EAC7B2",
"H. c #BAAEC1",
"J. c #ADB2C1",
"K. c #A8BFC2",
"L. c #B3B4C2",
"P. c #BCBBC3",
"I. c #BAB8C4",
"U. c #A7AEC1",
"Y. c #C3BCC3",
"T. c #CBBBC4",
"R. c #C7B8C6",
"E. c #D6BBC5",
"W. c #CAB6C9",
"Q. c #EBB4C2",
"!. c #EABAC3",
"~. c #E6B8C5",
"^. c #F4B7C6",
"/. c #F0B2C6",
"(. c #ADC3C5",
"). c #ADC7C9",
"_. c #B4C3C3",
"`. c #BBC3C5",
"'. c #B4C4CA",
"]. c #BBC4CB",
"[. c #B4CACB",
"{. c #BCCBCA",
"}. c #BBCBC5",
"|. c #BBCDD3",
" X c #B4CCD1",
".X c #BBD2D2",
"XX c #BED3CF",
"oX c #C3C4CC",
"OX c #C2CBCC",
"+X c #C9C6C6",
"@X c #DCC4C4",
"#X c #D2C2CC",
"$X c #DCCECB",
"%X c #D6C8C5",
"&X c #C9D2CA",
"*X c #DBD3C4",
"=X c #D8D5CA",
"-X c #C7C8D2",
";X c #DAC7D7",
":X c #D8D9D7",
">X c #C6D8D1",
",X c #EACCC4",
"<X c #E4CACD",
"1X c #EACBCC",
"2X c #E8C6C7",
"3X c #F4C3CA",
"4X c #E4D4CB",
"5X c #EDD5CC",
"6X c #E4DBCC",
"7X c #E9D9CE",
"8X c #E6D5C3",
"9X c #F1D5CC",
"0X c #F4D7C8",
"qX c #E6C9D3",
"wX c #F8C6D2",
"eX c #E5DCD3",
"rX c #EBDDD3",
"tX c #E4DBDC",
"yX c #ECDBDA",
"uX c #EAD7D4",
"iX c #F3DCD4",
"pX c #F3DEDC",
"aX c #F9DBD7",
"sX c #DDE2D8",
"dX c #F5E2CA",
"fX c #E6E4D5",
"gX c #ECE3D4",
"hX c #E4E4DC",
"jX c #EBE5DA",
"kX c #ECEADC",
"lX c #E8E8D9",
"zX c #F3E4D3",
"xX c #F3E3DB",
"cX c #F3EDDE",
"vX c #FAEDDD",
"bX c #F7E5D7",
"nX c #F3F1DE",
"mX c #FBF2DE",
"MX c #EDE6D0",
"NX c #E6DEE2",
"BX c #ECEBE1",
"VX c #E6E8E4",
"CX c #F5EEE2",
"ZX c #FAEEE4",
"AX c #F8EAE6",
"SX c #EFF0E2",
"DX c #F5F2E3",
"FX c #FAF3E5",
"GX c #FCF8E6",
"HX c #F6F4E9",
"JX c #FCF5EA",
"KX c #FDF9EB",
"LX c #F7F9E6",
"PX c #FDFBF0",
"IX c #FBF6F1",
"UX c #DFE8E3",
/* pixels */
"#X@X~.^.^.^.^.^.Q.^.~.qX;X;X;X;XE.;XqX^./.wXwXwX^.^./.V.n.Q.W.g.u.E.E.E.t.wX^.wX^.wX^.3X3X~.qXqXW.E.;XNX%X8.A.7X7X6X4XrXcXcXnXgX",
"5 6 ; { L J J K G X.X.6 7 3 w q 9 y X.{ G G H L T =.P P G H +.6 y 2 f t.@.4 [ =.:.:.U *.X.+.6 8 w w w w i , 4XuXvXZXGXGXGXCXDXcX",
"3 6 - J &.1.:.%.K K K ; +.r w 7 @.; G G J %.L T T ;. .L G - @.t.f 7 f 9 +.< ..| 2.%.T ;.%.$.X.8 7 2 e 5 3 4X4X8XZXFXGXJXJXHXFXDX",
"9 @.G L &.1.%.=.:.L K K X.8 7 8 4 ; G J | 1.&.:.&.3. .L K - 6.t.e d w w +.[ ..=.%.L %.3.%.%.- 1 7 t 3 b 4X%XeXMXvXmXGXKXJXDXDXDX",
"7 8 - }  .=.|  .1.P P J G 4 8 8 +.[ { =.1.1.&.P T &.| J K - >.d 0 a q e +.[ { =.T P 1.1.| { G +.9 2 b b *XeX4X6XGXFXGXKXKXKXHXIX",
"w e - } =. . .|  .1.P | - < t 7 +.< } =.1. .P P &. . .J - < 7 w 0 a w 9 9 [ =.=.P 1.2.T | J - +.d 2 2 b $XeXeX6XmXFXKXGXKXPXHXIX",
"w e 1 - ..<.<.P P &. .| G r 7 2 1 1 ,.=.=.P P 1.<. .| { - 9 w a 0 q w 7 +.[  . .P 1.1.%.L G < 9 2 s 0 b $X4XrX7XgXcXFXJXAXKXDXHX",
"0 w e - .. .3. .P P =.{ < r 7 0 9 1 >.{ L P <.3.1.L J } : w w 0 a q w 9 < | 1.<.1.1.%.| G : 1 9 h a 0 2 3 g.iX5X4X7XeXeXfXAXCXHX",
"k 2 9 4 }  .<.<.P P %.X.9 e j d 9 8 +.{ {  .1.1. . .K ; < 7 d s q w w e -  .<.<.<. ...} < 1 >.W.a U.0 9 e , 9.9.w.iX1X6XZXZXZXZX",
"a 2 7 < G } <. .3.| ; 4 7 d d 0 k e @.#.=.=. .&.P K G ; 9 7 d k k k w +.- | <.<.<. .} < 1 9 0 q H.q 0 7 6 : > w.B.A.D.h.ZXZXZXcX",
"s t 7 8 [ }  . .| [ 4 e w 0 k H.k j t.@.+...| | | G - ; 9 7 a k a 2 7 4 G L P P | G - < 8 7 q a q a 0 f 8 > : w.9XZXvXvXDXnXcXDX",
"k g t 9 H G K K H < @.f f d d 0 2 7 8 @.X.H J J G G ; +.8 7 2 2 t 5 8 +.} G P P K G < [ 8 y 2 t w H.8 3 i ; 1XaXAXJXZXZXGXnXDXnX",
"i i y O.X.I K U U I I 6 8 8 8 5 5 5 6 X.o.K G G K G I I 4 > 5 6 5 > O.Y K m m m K K I I > 6 5 5 e 5 > 6 Y Y 1XvXJXDXPXSXKXSXLXSX",
"% % % % K m m m % % = % % % % % & = % % m m m m m m B = % % % : : % = m m n o m . m m % % % = & % % % = & = aXbXFXKXHXKXLXPXDXSX",
"Z N C N Z Z N Z C   N N M M C n N   .   n   X A Z     n . . n n C n n n X o o o   . m n N Z n N n N n . m B ^ vXbXGXKXKXKXZXJXZX",
"M Z X   Z X + + + + @ o o o @ + + X X o @ A A @ @ X     X . X X . Z Z A o A o o X   o M A M X A Z X Z   Z N ( ^ dXbXFXJXJXJXAXZX",
"A Z A F D D A N + @ @ o # # A @ D D @ @ D D A A M Z F A A S A + S D S D R A A F M A A Z + + + S D D R D R A F ) D.8XMXnXLXDXFXZX",
"' T V F V V C ( ' S     + + N N O O N + O O N ( ( ' B.' F n N S N O O S N N T n ' z.' F F N O N N O A Z M Z F C = F.F.MX*X6XZXFX",
"!.N.B.B.k.N.N.2X!.3XG.B.r.r.w.k.r.x.x.x.x.w.m.2X2X2X1X2X2XB.B.B.B.x.z.s.x.v.N.D.~.2X2XN.B.B.k.x.w.r.r.r.z.r.r.D.F.F.8XS.vXCXCXZX",
"wX1X2X<X1X1XqXqXqXqXqX<X2X<XqX2X1X1X3X,X3X1X3X1XqXqXqXqXqX2X^.3X3X3X!.3X2X2X2X<X1XqX<XqX<X1X1X1X2X,X@XB.,X,XD.bXdXFXcXnXGXFXCXCX",
"~.E.E.%X#X#X#XW.W.H.c f.f.R.R.u.j.k.N.~.~.~.E.E.T.#X#X#X#XE.~.~.M.s.s.a.i.j.@X#XE.#X#X#X#X#X;X;X;X#X#X%XA.$XbXjXvXJXFXCXcXDXDXcX",
"4 7.i.8.g v I.L.J.L.x x c j u.y.i.0.X.I G > @.u.j x J.j u.t.O.H J K I X.O.6 y.y.j x x l x x j j H.c j g p %XbXgXJXJXJXKXCXCXnXDX",
"X.X.O.6.y.k s l J.J.x s g y.t.#.{ J K U %.I 4 g j I.I.Y.u.6.X.J %.-.o.U o.> O.t.g.R.c L.I.x x h R.H.e g u rXxXjXJXZXPXJXFXFXDXnX",
";.o.I X.8.g x l J.J.x c y.@.4 o.%.=.=.=.=.U ; t.c L.L.P.j 6.X.%.4.4.;.;.*.U I 4 8 g j x l l l L.H.W.j e , xXbXxXJXJXHXHXSXDXnXnX",
";.=.%.J 4 t.j L.J.J.k t.4 $.J :.=.c.c.n.=.| 4 y h J.L.L.j e { =.,.5.c.c.4.;.=.o.< >.k H.J.s s l g u.6 , > S.bXgXxXJXHXHXHXCXDXCX",
"n.2.=.%.H 6 k x L.h u.6 X.T ;.4.c.c.2.n.&.%.; d L.L.J.h g e [ %.,.4.4.p.n.5.=.3...1 e I.J.L.l z u.u , i 9.9.D.zXzXJXHXHXBXCXDXDX",
"4.c.3.3.U ; e c h h t.+.U :.2.l.;.,.4.c.=.U : f h L.L.H.R.@.H | ,.p.s.,.2.5.5.4...+.>.j s s s k g e.<XD.S.8XF.zXrXJXLXSXDXCXZXZX",
"=.4.2.2.%.H 7 h s j y 4 U q.l.3.| p.v.c.;.o.9 g L.J.J.k j t.J | -.-.n.,.=.5.5.4.,.+.e h d x z p =X*XzXzXzXzXbXbXgXFXLXCXCXCXZXZX",
"%.:.2.2.T I 5 g h g t.: #.q.l.%.=.c.l.;.T J O.y a l L.H.H.t.I J %.q.q.q.T T 2.4.,.@.f j v k v =XfXfXGXFXFXFXFXcXCXFXDXDXDXCXZXZX",
"=.o.;.2.T I 7 j h x g 5 7.p.-.%.l.c.q.;.%.H @.u.h J.L.L.c y.O.U U :.q.l.q.T ;.c.d.@.f c z z %X$XfXGXFXFXJXDXKXJXGXZXcXDXHXCXDXZX",
",...&.;.$.X.y x l J.h u.i.,...=.4.4.-.%.L K t.c L.J.U.J.I.Y.y ; L =.;.l.l.*.%.p.i.u.Y.P.z p $XVXcXFXJXJXHXIXBXHXFXZXZXvXCXDXAXHX",
"p.-.%.-.O.6.f.x I.L.x j i.>.-.c.n.;.%.J J X.y.j L.J.J.J.J.z t 6 %. .4.l.l.q.$.7.t.g.P.z v s =XxXrXJXFXJXHXSXIXIXZXCXFXvXcXnXDXDX",
"6.6.6 6.y.u.f.z x c c g g y.i.0.%.=.%.J X.6.g v c x x h x v x 6.H L %.-.p.0.6.y g Y.c v v v Z.jXgXzXGXGXGXnXKXIXHXIXxXDXnXnXDXnX",
"8.8.8.9.8.u e.p u u u u e.8.9.$.T N K %.7.8.u p y.e.8.u p g u g Y T T U $.7.7.8.e.u u p p i u zXzXzXdXmXmXmXHXLXIXHXJXvXnXnXnXnX",
"* B B B Y * * = * * * * * = * N C Z Z C B B * > = * B B * * * W N N N N N C B B = * * * * B B * _ F.dX0XdXMXGXDXIXJXJXCXnXDXDXcX",
"~ ~ Q Q E E W ^ E E V V Q Q S S O S F F V Q ^ E E E V V V ^ E E S S S S S Q F V Q Q E E O V ~ V W W ~ G.F.dXgXcXyXZXZXFXnXcXCX4X",
"~ ~ ' ] ! ! ! / ' ' ~ ~ ! ~ @ ~ $ $ ~ ! ' ! E E / ' ` ` ~ ~ ` ! ! ! ! ! ~ ! ! ! ! ! ! ~ ! / F / / ! ! _ ^ F.8X*XcXGXmXDXSXnXJXjX",
"! / ] ` / _ _ ) ] ' ' ' ! / ! ! ] ! ! ! ( ( ( ) Q ^ / ~ ! ! ' ! ! ! ~ ! / / ! ! ~ ] / Q ~ ( ' / ( Q / E _ F.dXgX7XkXnXDXDXDXAXAX",
"_ x.G.G.r._ ^ ^ E ( x.x.r.r.r.r.S.r.r.r.r.D.,X0XS.r.r.r.r.r.( E _ _ ( ( ^ ^ ^ E x.F.F.G.^ B ^ E W ( ^ _ W S.MXdXbXmXDXnXDXCXAXZX",
"rXiXaXaXiX0X0X5X5X5X5X7X7X7X7X7X0X7X4X7XiXrXpXyXgXrX5X4X9X9X9X9X,X8X,X,X,X,X5XiX0XiXiX5X9XiX5X0X0XF.G.G.S.F.dXzXzXGXDXnXnXCXFXZX",
":XVXtXyXpXyXyXpXyXyXyXhXVX:XNXNXeXhXNXNXVXNXtXtX:XNXuXuXuXyXyXhXeXhXtXtXNXNXNXVXNXNXNXpXyXrXrXiX0XiXrXrXeX*XiXzXmXGXGXnXkXDXGXCX",
"OX-X+X#XE.E.#XT.#X+X+X{.].OX-X].-X{.].-X-X-XW.I.T.T.T.T.T.T.+XoXOX{.`.oXP.-XW.-X-X-X#XT.@XA.j.A.@XA.+XZ.+X%XjXjXGXmXDXDXDXDXcXCX",
"`.P.R.g.f i.E.E.R.g.oX`.'. X].I._.'.'.].I.Y.R.W.g.i.i.t.i.u.`.`._.[.'.I.I.|.Y.R.W.W.E.t.a.O.Y O.> g.+XP.}.:XVXBXJXJXJXLXDXDXnXDX",
"`.+Xg f j.~.E.a.j.f.+X`.]..X|.|.|..X'.].-XoXj R.@.@.,.#.#.5 c }.(.[.K. X|.I.R.R.u.t.6 X.$.p.*.-.6.t oX].|.z VXhXrXFXFXLXKXDXFXnX",
"P.Y.f a.Q.~.s.s.E.j.g.v ].|. X|.|.|.|.OX-Xf.6.O.$.q.c.;.p.6 f.`.).).)._.z Y.f.i 6 @.0.v.c.M.4.q.O.t -XOX.X[.VXVXBXkXDXAXKXCXCXCX",
"T.f.6 j.b.Q.d.Q.Q.j.u.c `.'.'. X[.[.{.oXY.8 #.p.q.v.v.q.s.O.y.P.).).[._.P.Y.5 6.a.0.M.v.M.^./.p.7.@.R. X(.(._.:XVXhXPXJXJXCXDXDX",
"f.g.6.s.Q.b.c.^.Q.s.t.c ].'.).[.|. X`.c f #.0.v.b.M.^.b.p.#.>.R.(. X'.x Y.y.> k.s.v.!.M.b.Q.~.d.0.4 T.].). X}.C.+X:XIXIXAXIXCXCX",
"g.y a.~.Q.p.V.M.M.k.6.j ].'.).).'.-XR.f @.0.c.b.N.B.M.v.p.0.6 f.].'._.:X%Xe.w.k.B.M.v.v.s./.s.,.*.7.f.'.[. XXX}.Z.kXhXKXAXZXCXDX",
"j.6.s.~.M.v.M.B.v.d.7 W.I.I.).).C.`.f @.-.Q.n./.v.v.M.B.;.0.@.g.C.C.>XfX6X4XD.k.B.v.p.p.M.M.b.0.> 8.Y.].(.C.K.C.sXVXjXjXZXZXnXcX",
"E.O.i.~.s.m.M.v.k.@.R.;X-X X X).}.v 6.#.>.Q.n./.v.v.B.v.-.0.8 g.Z.=XnXMXlXzX8Xk.m.0.q.V.V.v.B.7.i v `.[.(.(.z UXVXhXcXJXFXcXmXnX",
"i.#.~.m.!.M.m.0.@.t R.].OX[.).[.}.+Xy @.d.p./.v.0.B.B.k.7.@.g f.Z.sXlXfXgXgXiX1X9.q.m.Q.b.s.w.^ i `.I. X).).C.UXlXjXFXJXDXnXGXnX",
"k.+.~.k.Q.s.a.9.i g.|.OX X(.[.C.v Z.i 7.d.E.E.p.w.k.k.w.7.@.u h.eXlXlXGXGXbXbX2Xw.B.s.B.s.0.U i v '.'.).). XC.lXlXGXFXcXCXDXDXkX",
"i.6.k.s.d.s.9.> s C..X.X|.[.C._.+XZ.h.7.w.@Xj.w.k.4X<XpX1X5 c v kXfXDXGXDXFXvXbX@Xk.k.k.k.a.B.8.P.(.). X(.(.>XkXlXGXDXCXDXDXSXHX",
"j.9.7.a.d.7.O.h.&XXX.XC.[.'.>XUXVX=X$Xj.%X%Xj.e.aXpXaXpXNX$X+X&XVXxXDXFXGXGXZXiX4Xw.i.7.9.aX,X$X_.). X.X[._.lXlXMXmXGXDXDXSXHXDX",
"A.8.6.0.O.0.@X+XC.}.[.XX[.C.VXhXhXjX$X4XZ.%XZ.%XxXxXxXBXAXVX&X&XjXJXKXJXJXGXJXbX*Xe.8.8.aXaXbX$XOX[.XX[.[.:XUXfXgXGXDXDXBXCXHXBX",
"*XS.w.bXaXAXxX=X&X}.}.}.XXVXUXkXlXJXjX=X%XZ.Z.fXjXcXjXHXZXVX-X&XLXJXFXJXFXFXJXFX*XA.e.A.zXAXxXjX>X>X>XXX&XsXlXkXmXGXCXHXKXCXAXIX",
"*X*XxXjXAXxXyXjXkXSX}.&X}.UXkXfXDXPXLXjX=XZ.Z.lXjXJXJXIXSXPXZ.Z.CXHXDXDXDXFXKXnXA.Z.S.MXCXJXDXfX&X&XC.Z.&XhXfXgXnXnXDXHXSXHXAXAX",
"*XjXfXKXrXJXKXDXlXsXSXv v SXfXGXKXDXDXKXSXp LXlXJXJXJXZXIXPXVXC.HXCXCXCXKXDXFXFXnXC.C.fXKXDXJXGXlXS.C.C.hXjXkXkXDXDXSXHXHXAXZXAX",
"nXmXDXLXKXCXFXFXGXlXfX=X=XfXGXmXDXFXKXFX&XLXSXSXCXJXJXJXLXBXSX:XHXDXCXnXPXHXHXLXLXp Z.DXFXFXDXDXmXMXp p =XLXKXDXCXDXDXDXDXZXvXvX",
"nXmXFXDXIXKXDXGXcXGXJXJX*XcXmXGXKXFXnXDXLXSXSXLXCXCXHXJXDXCXDXFXCXDXDXDXHXLXLXDXKXfX*XFXCXDXLXKXmXMX=XCXKXLXnXDXDXCXAXDXCXZXvXvX",
"nXnXGXLXCXDXFXnXGXcXCXCXJXrXcXDXCXkXDXDXSXFXDXDXDXcXCXCXFXBXFXDXnXDXDXCXcXCXDXJXZXkX*XDXDXDXCXJXLXmXFXKXPXSXKXnXCXFXAXJXZXZXvXmX",
"nXnXDXGXAXcXFXSXkXDXFXDXCXcXnXnXCXJXCXDXnXmXDXcXCXDXDXFXnXcX=XnXnXcXDXFXCXZXCXCXKXfXCXDXCXDXCXJXmXGXJXDXHXHXLXDXZXCXCXCXHXCXnXnX",
"8XZXCXZXBXZXnXnXnXcXDXFXCXDXJXcXCXFXCXcXmXDXcXcXDXDXCXDXnXDX*XnXnXSXFXcXJXZXAXCXvXFXFXcXGXCXCXJXJXJXLXIXHXPXcXcXvXZXZXCXDXDXnXnX",
"8X*XZXCXJXcXGXnXmXnXkXSXDXFXcXDXZXcXFXDXvX*X*X8XFXDXDXDXnXnXnXnXnXnXFX*XZXCXZXZXCXCXmXCXcXvXJXZXJXCXIXHXDXSXDXmXmXvXZXCXCXDXnXnX"
};
