/* XPM */
static char *wall_up[] = {
/* columns rows colors chars-per-pixel */
"64 64 256 2 ",
"   c #CC8C7D",
".  c #C9877B",
"X  c #D48D74",
"o  c #D48D7C",
"O  c #D78A7A",
"+  c #CD927D",
"@  c #D5937C",
"#  c #DA947C",
"$  c #DB9B7D",
"%  c #D79578",
"&  c #DBA07E",
"*  c #E4A57D",
"=  c #E09F7F",
"-  c #D47E93",
";  c #CE7E93",
":  c #BE8D8B",
">  c #BC8B88",
",  c #BC978C",
"<  c #BC8D9D",
"1  c #BB8898",
"2  c #BB9B94",
"3  c #BA9798",
"4  c #BBA09A",
"5  c #BD8CA2",
"6  c #AC9DAD",
"7  c #A89AAA",
"8  c #B495A5",
"9  c #BC94A4",
"0  c #BB9CA5",
"q  c #BB95AA",
"w  c #B39CAD",
"e  c #BB9CAC",
"r  c #B69AA6",
"t  c #AC9FB3",
"y  c #A69DB4",
"u  c #B49DB2",
"i  c #BA9DB3",
"p  c #ABA1AF",
"a  c #BCA3AD",
"s  c #B6A4AA",
"d  c #ACA2B3",
"f  c #ACAEBB",
"g  c #A9A6B6",
"h  c #B2A2B4",
"j  c #BCA5B2",
"k  c #BCACB4",
"l  c #B3A4BA",
"z  c #B4ACBC",
"x  c #BAADBA",
"c  c #B6AAB7",
"v  c #ACB3BD",
"b  c #A7B5BC",
"n  c #B3B3BD",
"m  c #BAB2BD",
"M  c #BBBBBE",
"N  c #B9B6B5",
"B  c #B9BBAE",
"V  c #CD8D82",
"C  c #C28A8B",
"Z  c #C68784",
"A  c #D28C82",
"S  c #D18286",
"D  c #CD9D83",
"F  c #C99388",
"G  c #D29383",
"H  c #DA9481",
"J  c #D49D83",
"K  c #DC9B83",
"L  c #D59A8B",
"P  c #C48496",
"I  c #C5849B",
"U  c #CC859B",
"Y  c #C38B9C",
"T  c #CB8B9C",
"R  c #CA8795",
"E  c #D48396",
"W  c #D4849B",
"Q  c #DB859D",
"!  c #D48B9C",
"~  c #DB8B9D",
"^  c #D58796",
"/  c #C6959A",
"(  c #D6959A",
")  c #E09A84",
"_  c #E1869D",
"`  c #CEA488",
"'  c #D3A284",
"]  c #DCA483",
"[  c #DDAA84",
"{  c #DCAD8B",
"}  c #D6A58A",
"|  c #D9A897",
" . c #D8B399",
".. c #D3AC8F",
"X. c #E3A583",
"o. c #E3A984",
"O. c #E3AC8B",
"+. c #E6A888",
"@. c #E3A79A",
"#. c #E1B29D",
"$. c #E3B289",
"%. c #CB8DA2",
"&. c #C389A2",
"*. c #D48DA3",
"=. c #DC8DA2",
"-. c #D988A4",
";. c #C393A3",
":. c #CB93A3",
">. c #CB9BA5",
",. c #C49BAA",
"<. c #CB9BAA",
"1. c #C498A7",
"2. c #D494A4",
"3. c #DB93A4",
"4. c #DC9AA6",
"5. c #DC94A9",
"6. c #D49CAB",
"7. c #DC9CAB",
"8. c #D498A7",
"9. c #C29DB2",
"0. c #DB9EB1",
"q. c #E18DA3",
"w. c #E292A5",
"e. c #E295AB",
"r. c #E29CAC",
"t. c #E199A4",
"y. c #E39DB2",
"u. c #E998B3",
"i. c #C4A2AE",
"p. c #C3AAAE",
"a. c #CAA7A8",
"s. c #DEA1AD",
"d. c #D6A6AA",
"f. c #DCB4A7",
"g. c #C4A4B2",
"h. c #C1ABB4",
"j. c #C8A9B7",
"k. c #DDA3B1",
"l. c #D7A9B4",
"z. c #C3B4BD",
"x. c #C8B6BB",
"c. c #D8B4B6",
"v. c #C3B5AC",
"b. c #E1A2AE",
"n. c #E2ADA8",
"m. c #E4B6A8",
"M. c #E3A3B4",
"N. c #E4ABB4",
"B. c #E6A8B7",
"V. c #E4B5BB",
"C. c #EBB4BC",
"Z. c #E7BAB8",
"A. c #B9C2BB",
"S. c #A7C0BC",
"D. c #C8C7BB",
"F. c #D8CCB8",
"G. c #DCD3B5",
"H. c #D5D3BD",
"J. c #DBD3BC",
"K. c #D9D5B8",
"L. c #D3CDAB",
"P. c #E6C2AC",
"I. c #E3CCBC",
"U. c #E7C9BA",
"Y. c #E2D2B5",
"T. c #E3D3BC",
"R. c #E4D9B8",
"E. c #F1CDB8",
"W. c #ADAEC1",
"Q. c #B6ACC1",
"!. c #ADB3C2",
"~. c #ACBBC3",
"^. c #B3B3C3",
"/. c #BAB5C3",
"(. c #B3BBC5",
"). c #BCBBC3",
"_. c #B7BAC8",
"`. c #CBBAC4",
"'. c #C5B9C4",
"]. c #DBBDCA",
"[. c #D8BBC6",
"{. c #D7BDD3",
"}. c #E8BAC2",
"|. c #F0BBC1",
" X c #ACC4C5",
".X c #ACC5CA",
"XX c #ADCACC",
"oX c #ABC6C5",
"OX c #B5C4C5",
"+X c #BBC3C5",
"@X c #BDCBC3",
"#X c #B3C5CB",
"$X c #BBC4CA",
"%X c #B3CACC",
"&X c #BBCBCD",
"*X c #BBD2CC",
"=X c #B4CBD2",
"-X c #BCCCD3",
";X c #BBCBD6",
":X c #B6D1D5",
">X c #AFCCD0",
",X c #C5CBC3",
"<X c #C3C5CA",
"1X c #C8C8C8",
"2X c #D4C2CB",
"3X c #D6C9C8",
"4X c #CAD5C9",
"5X c #D5D4C4",
"6X c #DBD4C3",
"7X c #D9D8C7",
"8X c #C2CCD2",
"9X c #C4C7D0",
"0X c #CBCFD1",
"qX c #E5C5CA",
"wX c #E4C9CC",
"eX c #EAC9CB",
"rX c #E9C8C5",
"tX c #E3D4C3",
"yX c #ECD3CC",
"uX c #E5D7C5",
"iX c #E8C8D3",
"pX c #EDD5D2",
"aX c #EEDAD5",
"sX c #E9DBDC",
"dX c #F1D6D3",
"fX c #F1DAD8",
"gX c #F1CEC6",
"hX c #EEE7D4",
"jX c #EDEAD5",
"kX c #EDECDA",
"lX c #EAE5DA",
"zX c #F2EBD5",
"xX c #F3ECDB",
"cX c #F8E9D9",
"vX c #FBF2DD",
"bX c #F4F0DB",
"nX c #EAE6CB",
"mX c #DFDDE2",
"MX c #E5DDE3",
"NX c #EADDE4",
"BX c #E6D6E1",
"VX c #F0DBE1",
"CX c #E6E2E3",
"ZX c #F3EDE2",
"AX c #F9EDE5",
"SX c #F6F3E5",
"DX c #FAF3E5",
"FX c #F6F4EA",
"GX c #FCF5EB",
"HX c #FCF9ED",
"JX c #FCF8E6",
"KX c #FDF6F2",
"LX c #FDFAF2",
"PX c #F6F7F2",
"IX c #E9F0E0",
"UX c #DFE0E4",
/* pixels */
"AXZXAXKXPXFXJXJXJXGXZXFXKXGXDXvXSXLXLXFXPXGXAXDXGXKXGXGXFXFXHXSXJXKXHXSXPXFXGXGXAXDXDXAXxXxXcXZXxXbXxXxXxXDXFXJXDXSXZXkXkXxXzX6X",
"SXGXKXKXLXLXGXHXGXKXKXKXKXGXJXJXHXKXHXJXKXGXDXHXKXGXAXFXKXJXZXFXJXKXHXHXKXLXKXGXGXDXGXJXJXJXGXFXAXHXDXxXxXJXGXAXbXJXJXDXxXjXzXtX",
"FXFXKXKXLXLXFXGXGXKXKXKXKXKXKXSXLXHXGXHXLXKXSXJXKXKXKXKXGXHXGXJXKXPXFXLXPXLXGXKXPXKXPXPXHXHXHXJXHXHXJXGXHXGXGXKXHXJXFXGXZXcXxXhX",
"kXJXLXGXLXLXPXPXGXKXKXKXKXKXLXKXGXGXGXJXLXGXSXDXGXLXGXJXKXGXJXJXHXLXHXHXGXLXFXHXKXLXLXPXLXPXPXHXHXKXLXKXKXLXLXGXKXHXFXJXAXFXxXxX",
"6XH.H.JXxXjXSXJXZXJXGXFXGXGXPXFXGXGXAXDXFXJXFXDXGXAXJXDXAXJXJXDXxXvXJXSXGXPXKXHXHXFXLXKXGXFXLXLXKXGXHXJXPXKXGXKXAXKXGXJXJXDXkXxX",
"K.K.tXJ.xXxXZXxXkXDXFXSXGXGXFXFXFXAXDXDXHXDXSXSXGXSXJXxXxXJXxXxXcXtXjXbXJXFXGXJXJXSXGXGXGXZXFXJXJXAXSXSXKXFXxXJXKXGXZXxXFXDXkXkX",
"G.G.T.tXH.xXhXcX6XxXbXxXAXcXZXGXZXDXSXSXFXSXFXZXFXGXcXjXZXlX5XzXzXF.J.nXzXvXAXvXDXbXJXDXcXyXzXDXxXhXSXSXDXSXbXjXAXAXxXxXDXbXkX7X",
"G.K.6XH.B B tX6XH.zXkXjXvXcXhXcXkXJXJXbXbXSXGXlXIXxXhXzX5Xx.4X5X6XJ.J.G.G.cXvXvXzX5XZXDX6XJ.bXzXhX6XxXJXbXSXvXbXxXZXxXzXxXjXkX5X",
"F.6X7X@X*X@X,X7X6XjXjXbXbXjXzXxX7XSXkXkXjXbXlXZXGXxXuXJ.7X4X,X4X4XD.K.K.G.G.Y.zXK.5X4X,X6XF.G.K.J.H.H.H.H.vXvXvXxXxXDXvXjXbXIXIX",
"x.D.,X&X*X*X@X7XH.zXzXzXjXzXzXnX3X6X7XjXbXxXZXZXGXxXJ.H.,X*X4X*X*X,X7XR.G.G.R.G.J.5X,X@XH.J.J.G.J.7X5XH.H.nXvXvXxXFXSXHXxXxXJX,X",
"| p.v.<X%X*X@X4X7X6XcXcXhXJ.J.T.D.6XnXbXbXzXAXZXGXAXJ.H.@X*X*X4X8X4XA.J.G.T.T.T.uXD.,X1X,X7XJ.J.7XD.D.A.H.tXvXAXSXJXFXSXcXJXFX1X",
"d./ 0 z.OX%X&X4XF.tXU.zXT.G.J.J.v.7XH.zXzXJXAXGXGXzXG.5X@X#XoX%X*X,Xs uXtXI.T.I.eXx.3Xx.D.D.6X7X4XD.+XA.7X6XhXcXDXSXFXDXAXAXN `.",
"N.4./ ,.@X*X&X,X6X6XR.L.G.G.J.D.p.6XJ.K.zXT.ZXKXDXuXK.H.OX.X#X XS.z.3 a.rXrXtXU.a.f.[.l.i.x.M A.@XA.%X@X1XH.uXzXkXFXSXGXDXAX0 x.",
"N.r.3./ z.@X%XOX3X6XK.G.R.J.6Xv.2 I.G.G.Y.G.xXJXHXzXnXH.#X>X.X~.A.k >.8.l.c.gXd.d.V.}.l.6.1.<X#X%XOX.X&X<X6XtXhXkXFXJXJXcXfXp.h.",
"B.M.7.:.k ).#X.X+X,XJ.K.L.6Xx.0 a.U.Y.Y.Y.R.bXkXbXbXzXK.@X=X=X%X/.a >.s.B.C.N.s.c.Z.B.k.6.,._.%X>XXX.X%X1X5XJ.J.bXkXbXvXcXuXa.j.",
"}.B.7.>.,.'.%X.X$XM 5X5X5XH.j.1.a.f.U.Y.Y.Y.zXvXK.K.K.H.#X;X=X#XM 0 d.6.C.C.n.b.Z.N.C.0.8.9.$X=XXX>XXX-X1XF.J.J.kXkXzXI.gXa.4 c.",
"V.N.N.8.0 `. XXX#X~.(.(.A.A.j.:.l.c.I.T.Y.Y.Y.Y.G.G.H.A.OX%X.X#X'.,.6.k.V.}.B.Z.C.B.B.6.<.h.+X%X%X.X%XOXx.0 rXtXyXzXtXU.gXc.0 `.",
"V.Z.b.4.1.x.OX.X=X;X=X.X%XOXi.6.s.l.Z.I.T.Y.Y.Y.G.tX5XA.OX%X=X#Xz.a 6.l.B.V.C.}.B.B.6.1.e `.@X.X%XXX.XOX`.q c.F.I.R.U.U.C.d.k x.",
"l.C.N.r.2.x.$X%XXX=X%XXXoXM 1.5.s.C.C.I.I.Y.Y.T.J.5X4Xb S.%X.X_.'.0 :.N.B.|.}.N.B.M.6.,.'.).-X=X.XXXXX.Xz.l.c.V.rXJ.rXU.N.>.k '.",
"d.N.t.r.:.g.+XoX~.oXXXXXoX+X>.4.M.C.C.Z.U.I.I.F.7X5XA.A.%X#X=X#XM p.:.M.0.B.N.l.M.>.1.'.<X-XXX=X>X.X>X%Xh.j.V.c.c.f.c.Z.N.<.N +X",
"k.6.7.8.<.j.+XXX>X>XXX:X:X1X<.2.s.N.N.N.N.U.gXuX3XA.A.S.XX.X_.#XOXN >.r.5.M.0.6.2.<.x.<X-X%X;X-X:X=X-X$X<Xz.c.}.Z.l.}.c.6.<.'.#X",
"l.1.:.,.j.`.OX:X=X>X.X>X%X+Xg.;.8.8.l.>.3 4 s x.A.OXoXoXXX.X=X#XOXB 0 2.8.6.,.1.g.x.<X8X#X%X:X:X=X:X8X_.$X'.`.c.c.c.].c.i.j.OX#X",
"1Xz.'.m /.<X#X=X;X.X#X=X#X+X'.j 9 / i.j.k N D.A.OX#X%X.XoX.X#X#X#X$X'.j.'.j.h.M <X_.$XOX%X.X#X#X%X.X#X=X#X(.+X).`.[.l.g.x ).#X#X",
"0X1X0X1X<X9X-X8X=X8X<X<X9X<X1X2X}.2X[.2X1X,X0X&X9X-X&X#X$X#X-X=X8X9X'.'.`.`.'.+X).@X&X%X%X&X-X-X-X-X$X$X8X8X8X<X1X[.].2X1X9X9X8X",
"qXfXsXsXZXsXsXCXMXBXsXVXfXlXfXfXCXfXsXNXCXVXNXNXNXNXMXBXsXmXlXMXNXMXBXBXBXMXBXBXmXmXUXCXMXMXCXUXmXCXCXCXNXMXCXCXsXNXVXVXNXCXNXNX",
"U.U.rXtXyXyXpXyXyXU.Z.c.U.rXyXyXdXdXdXdXfXfXfXfXdXpXeXeXrXuXtXtXpXsXfXdXpXpXaXfXfXlXsXaXaXpXfXfXaXpXdXyXpXpXyXyXyXpXdXaXaXaXfXfX",
" ... . . .P.P. .` % % ' } } ` D ` L D ..f.yXE.P.} } } } ........` | #.#.f. .f.P.gXE.Y.f.n. .m.m.f.#.m.m.m.#.| ...... .m.P.Y.f. .",
"{ { { ] ] ] = % = * o.o.$.o.{ o.{ O.{ ] ] .. .} { +.+.+.$.* * * o.o.o.[ { [ ` { { { { { [ +.+.O.O.$.O.] [ O.o.{ { { { } $. .{ { ",
"& & X.K X.K ] o.X.X.[ & [ & o.o.+.X.X.X.X.+.O.$.o.* * = * * * $.* [ o.] * { [ o.K ] X.+.+.X.) $ J $ * X.& [ [ $.+.o.X.o.$.$.{ [ ",
"} ` L J G J ] ' J ' & & & ` D D ' J J J L L ` ` ] ' & % & % $ & ' ' $ $ ` + D ' } ' L ' K K $ K J J J J & + & ` J ' ] ' ` ` ' ' ",
"a.2 2 2 / / / / F , , , 2 2 2 2 2 2 2 3 3 3 2 2 2 , , F , F F / 4 4 / 4 3 3 2 / 2 2 2 2 F C F F / 2 / 2 2 2 2 / 2 2 2 2 2 2 2 , ",
"x.k k k g.a./ / >.a.a.a.B s k k k B k k k k N s k p.a.a./ / :.,.p.k h.h.h.h.h.k k k B a./ / F T a.j.g.g.a B k v.k h.h.h.g.i.j.a.",
"'.m v N <.:.! ~ ( 8.i.l /.n z f f n l /././.).k a ,.d.k.7.2.*.Y a k m z n ^.).^.z m j.:.W ! ( >.k.9.j.z.v v m m n M N j ,.<.6.6.",
"'.^.~.f 1.! ~ w.r.M.<.i l !.!.!.v !.n /.).^./.x i.:.k.B.k.r.=.*.q k ^.^.v !.!._.^.x 1.T -.3.7.N.0.<.9.j.n b ^./.n n j e 6.2.8.7.",
"_.~.^.h &.*.5.r.b.s.<.0.9.x z f b !.~.(.(.).z.l.s.T 3.M.M.4.3.2.Y e ).(.!.!.!.^.n j Y ! 3.5.r.M.3.2.0.l.j z ^.!.^.j 1.2.7.( 2.b.",
"b v z q ;.5.4.s.4.8.0.k.0.,.N z v !.~.b n c ,.0.B.b.( 7.k.4.7.( T 9 /.~.W.!.!.W.z a Y 3.r.y.M.r.2.4.r.:.0 k v !.n i %.2.b.4.T 4.",
"n c a Y T 7.7.7.2.7.r.M.y.:.i.m ^.!.W.f ^.g.2.u.y.M.q.( s.s.r.~ ! / c !.b !.b b x r R ( 7.M.M.5.2.r.s./ / k Q.!.Q.w %.3.s.s.8.2.",
"M k / T 2.k.k.7.5.M.7.r.e.*.q h.^.W.b f x 9.-.u.r.b.b.3.4.M.r.3.! Y k n f W.W.W.k 9 T t.y.B.u.-.7.b.b.2.< i.z f Q.q %.=.4.b.y.5.",
"m h.%.-.5.7.y.0.u.M.7.r.5.*.e x f f b g z e *.5.r.0.N.b.0.B.y.y.~ T 9.x ^.W.W.Q.i Y ( 4.M.k.5.5.M.r.5.2./ g.z z Q.i %.! q.r.M.y.",
"n k U ! 5.0.B.M.M.e.y.e.-.I x ^.v b b b n i %.*.7.4.7.M.0.M.y.e.~ ! 9.Q.^.^.^.Q.g.Y T 3.k.B.5.}.y.y.=.%.e j.z ^.^.j 9 *.=.w.y.M.",
"^.j T Q ! 4.N.k.7.5.3.=.*.1.z ^.v f b v v s q &.%.3.7.7.M.s.k.s.( T i.m f !._.Q.e < / t.M.M.M.0.2.2.%.;.c Q.Q.W.^.n j 9 ! =.w.t.",
"n k Y =.3.4.y.2.3.%.T %.1.j._.(.^.^.f !.^.n g.g.;.T ! 3.7.b.s.4.( T e m _.~.(.^.j 3 R t.r.5.8.:.&.;.<.g.Q.W.Q.^.!.!.z a / T ! t.",
"b N ;.! ~ ^ ~ ! T / 8 a x n !.!.^.^.^._._._.)./.j.,.%.=.! =.e.=.! T a /._.(.^.^.h.< ^ ~ ~ W T ;.j.j k ^.W.^.W.W.b b b N s i.:.T ",
"n M 9.:.T U E T >.a.h.k z z v z ^.z Q.Q.^.n v n h.9.<.%.T T T T R / g.m x ^.Q.Q.z.,./ ^ W :.<.l.h.x f ^.W.Q.^.^.v v v n N k i.;.",
"9X2X}.[.].}.[.qX].3Xc.].2X{.2XiX3XwX2X3X2X`.2X2X].[.`.`.j.j.c.[.[.}.].{.[.{.{.{.`.].}.[.}.[.[.x.z.'.z.'.m z.z.`.2X2X2X2X2X2X}.].",
"iXiXiXiXiX3XiXrXeXeXeXqXrXiXiXrXiXeXgXeXqXwXiXiXiXiX}.wXpXwXqXeXeXwXiXiXiX{.iXiXiXiXqXeXeXeXwXwXqXwXqXqXwXrXwXiXqXqXeXrX3XqXiXiX",
"Z.Z.C.|.rXC.Z.n.m.N.m.n.n.d.n.m.f.N.N.Z.|.rXrX|.rXU.n.n.n.f.m.m.m.Z.C.|.gXeXwXqX|.Z.m.m.N.n.n.m.n.f.n.m.Z.Z.|.eXeXrXZ.Z.Z.Z.C.|.",
"| L @.n.| | A O A A G G G H @ + G F V ( | @.b.| D F V G G + @ + G G A L f.m.f.| ( L V V G G @ G + + + +     ( @.( F G L L L L n.",
"J K K H   @ # # H ) ) $ ) $ $ $ K @ @ X o H H L K # # ) K H $ $ O # H H H $ % % # # K # H H $ ) $ $ $ $ G @ # # # # H ) K H H H ",
"@ # K K H H # O # # X X X X % # H o % # # o X X O X O # H @ X X X X X X X X % X # # # # X X X % # % + @ o H X % O # # @ o A # O ",
"V + + V o o A O o @     o A o A V V o @     .   X O H A V F A . o V   A     + + @ o o         G A V V F F A o @ o @ V G G V V V ",
"C > > C . . - . Z Z C > > : P C C C C > > : > . . O ; Z : : P : , : C C C : > Z Z Z Z Z > > C C C : : > : C C Z   Z : : : : : C ",
"a 0 9 ;./ T Q - - U ;.a w 6 u w i q w 8 s 1.R ; - - ^ / e u i i w u 8 w r r Y I U ; U ;.s r w r e e i i e e 9 / T Y 3 0 a a s j ",
"g.e q ;.%.=.q.q.W Y 9 h d g Q.Q.l t h s 3 < P W - - U &.u t t d u t d d 7 8 < U -.%.%.,.p p d h l l l l l i q 5 1 I 5 8 t h h l ",
"T Y ! ! ! ~ t.~ ! P < s d y t t u t s 8 < 1 W _ Q _ ^ Y 7 y t h u w d 7 8 1 ; Q -.-.*.:.e j l Q.l h d h e 9 Y ! 2.! U I 8 p c z ",
"! ! =.w.! ~ 3.( 2.P < e 7 7 t t 6 6 w 3 P R W =.~ ~ _ T 8 d d u x p 7 8 Y ; Q q.=.5.-.8.>.e i u h d d s 5 < -.e.3.=.Q W 3 7 6 p ",
"! ~ ! w.=.^ 3.3.! I 5 q w t t l z j 5 1 -.*.8.2.7.5.-.&.t p p d u Q.p 8 U - q.q.3.3.3.T :.,.u u l g u 8 %.5.-.Q 3.q.- q.&.w t Q.",
"E ! ~ t.3.! =.5.3.*.&.q q u g d l 8 1 U *.*.2.7.5.-.q.; 7 p y g t d w 8 R E Q -.5.3.! W *.6.5 w 7 7 8 5 *.=._ E ~ w.q.W I q u t ",
"^ E Q _ w.3.=.5.-.U I 5 q t 6 h i 1 P *.-.5.5.=.-.=.-.&.i y p p d t 8 < U =.=.w.w.~ ~ ~ w.*.5 u t 6 1 I -.5.q.Q ~ 3.w.*.I 5 u l ",
"E E Q ~ ~ 3.=.r.w.-.%.;.w s p w 8 1 U =.5.5.5.-.e.w.-.%.u 6 p 7 d t < 1 R =.5.w.~ ~ ~ w.w.-.5 i d s 5 U W =.q.q.! ~ 4.2.; &.u y ",
"%.&.; - =.3.2.3.=.W I 5 8 p d u 9 < %.3.5.5.=.=.w.-.I ;.u h d d h u 1 ; ^ ~ 4.3.=.3.2.( -.-.; 9.u w r < R W =.e.2.( 2.3.&.&.u y ",
",.;.; %.%.( 3.3.q.Q U 9 u g d h e &.! =.w.=.~ w.w.=.I 9 u t d l l j ; E ^ ~ 7.3.5.5.3.~ W &.5 q u t w 9 Y W ! 3.r.2.4.w.-.; w y ",
"u i i q 1 I ! _ Q Q %.q u t y 7 u q T q.w.=.2.4.( T < q d g l l h g.U - ^ =.w.e.=.q.~ E U Y 8 u t t w 8 < Y U -.=.w.q.q.q.I q y ",
"Q.t i u 9 :.E - - - &.q d g y t u q %.-.q.=.4.2.2.R Y g.l Q.t l l e I ; E ~ -.-.Q E E E T 1.u d d t 7 r e &.*.; W Q _ q.- ; q 7 "
};
