/* XPM */
static char *wall[] = {
/* columns rows colors chars-per-pixel */
"64 64 212 2 ",
"   c #DE8C6A",
".  c #DD8A67",
"X  c #DB9C6D",
"o  c #DF9177",
"O  c #E5866B",
"+  c #E38C6D",
"@  c #E8896F",
"#  c #E18265",
"$  c #E2916F",
"%  c #EA8B72",
"&  c #E59372",
"*  c #EA9275",
"=  c #E39D74",
"-  c #E99977",
";  c #E2947B",
":  c #ED9479",
">  c #EB9B7A",
",  c #DAA06E",
"<  c #DEA473",
"1  c #DFA874",
"2  c #DEA87E",
"3  c #E3A376",
"4  c #E1AA77",
"5  c #E5A67A",
"6  c #EAA37C",
"7  c #E4AD7B",
"8  c #E9AA7E",
"9  c #E6B17E",
"0  c #DC7D95",
"q  c #FF6F8D",
"w  c #FD718F",
"e  c #F3738F",
"r  c #E27C95",
"t  c #EF7A96",
"y  c #ED7D99",
"u  c #E87B96",
"i  c #F27591",
"p  c #FE7593",
"a  c #F27895",
"s  c #FE7B96",
"d  c #FF7C9B",
"f  c #BF8D8D",
"g  c #BA8EA2",
"h  c #AC99AC",
"j  c #A895A6",
"k  c #B791A4",
"l  c #BC9AAC",
"z  c #B696AA",
"x  c #AD9EB2",
"c  c #B49EB3",
"v  c #BA9AB1",
"b  c #B8A1AF",
"n  c #AEA0B6",
"m  c #AAAAB6",
"M  c #AFA2B8",
"N  c #ACADBA",
"B  c #B2A2B4",
"V  c #B3A4BB",
"C  c #B5AEBD",
"Z  c #BAA9BE",
"A  c #BBA7B4",
"S  c #ADB1BF",
"D  c #B7B5BC",
"F  c #B2BBAF",
"G  c #CD8385",
"H  c #C7888A",
"J  c #CA9787",
"K  c #CB9888",
"L  c #C79483",
"P  c #C58A96",
"I  c #D9849B",
"U  c #E89C82",
"Y  c #ED849B",
"T  c #E4889E",
"R  c #F2849C",
"E  c #FE819C",
"W  c #FF899E",
"Q  c #E69E91",
"!  c #ECAD82",
"~  c #E8AB86",
"^  c #F1A282",
"/  c #E7B280",
"(  c #E9B583",
")  c #ECB987",
"_  c #EAB48A",
"`  c #EDBA8A",
"'  c #E5B48D",
"]  c #F0B98C",
"[  c #EAA49C",
"{  c #E8A896",
"}  c #EBB59D",
"|  c #E7B596",
" . c #CC8DA6",
".. c #D38BA3",
"X. c #DB8DA3",
"o. c #C394AC",
"O. c #CB95A8",
"+. c #DF92A7",
"@. c #DE94A9",
"#. c #D49BAD",
"$. c #D699AA",
"%. c #CD9DB1",
"&. c #C29CB4",
"*. c #D79BB2",
"=. c #E48CA4",
"-. c #EB8AA2",
";. c #FF85A2",
":. c #FE8BA4",
">. c #FF8DAB",
",. c #F38BA5",
"<. c #ED93A4",
"1. c #EF95A8",
"2. c #E799AC",
"3. c #F293A6",
"4. c #FE92A6",
"5. c #FF93AC",
"6. c #FF99AD",
"7. c #F29FAF",
"8. c #E59EB1",
"9. c #FF94B2",
"0. c #FF9CB4",
"q. c #FF9FB8",
"w. c #F29CB3",
"e. c #D7A3AD",
"r. c #CFADBA",
"t. c #C7A6B6",
"y. c #DEA4B4",
"u. c #D3ACBA",
"i. c #D3A3B5",
"p. c #C7B5BE",
"a. c #CAA3AD",
"s. c #EDAAA5",
"d. c #E7A5A7",
"f. c #EAB9A5",
"g. c #EEAFB3",
"h. c #E9ACB9",
"j. c #FFA2B5",
"k. c #FFA4BB",
"l. c #FFABBD",
"z. c #F2A4B8",
"x. c #EFB0B4",
"c. c #EBBAB7",
"v. c #F0B1B6",
"b. c #F3B6BD",
"n. c #B4C2B7",
"m. c #B5C2B8",
"M. c #EAC1A9",
"N. c #EBC4B2",
"B. c #ECCABD",
"V. c #EEC6B8",
"C. c #F1CBBB",
"Z. c #BBAAC1",
"A. c #AFB4C3",
"S. c #ABBCC1",
"D. c #B2B6C5",
"F. c #BDBCC6",
"G. c #B6B9C9",
"H. c #BCBBCB",
"J. c #B8B6C2",
"K. c #CFB9C2",
"L. c #C6B8C9",
"P. c #D9B9C7",
"I. c #FFAFC1",
"U. c #E7B4C3",
"Y. c #FFB4C4",
"T. c #F5B9C2",
"R. c #F6BDCC",
"E. c #FFB9C9",
"W. c #FBB7C4",
"Q. c #ACC0C5",
"!. c #AFC7CE",
"~. c #ACCCCD",
"^. c #AAC8C7",
"/. c #B4C4CC",
"(. c #B8C3C8",
"). c #AECDD1",
"_. c #B3CBD2",
"`. c #BECDD5",
"'. c #AFD4D6",
"]. c #B1D3D6",
"[. c #B2D6D8",
"{. c #BBD1D8",
"}. c #B5D9DB",
"|. c #BADCDE",
" X c #BBD1D6",
".X c #BBDEE0",
"XX c #CCC3CA",
"oX c #DFC2D5",
"OX c #D9C0C8",
"+X c #EDCDC4",
"@X c #EFC2C0",
"#X c #F5C4C9",
"$X c #F2D4CD",
"%X c #E9C5D9",
"&X c #FAC2D3",
"*X c #F3CCD3",
"=X c #FCC6DA",
"-X c #F3D9DA",
";X c #F5D3D8",
":X c #FFCBE1",
">X c #EFDDE9",
",X c #F5DEE0",
"<X c #FAD9E4",
"1X c #FDDEEA",
"2X c #F8DAE4",
"3X c #F7E1E4",
"4X c #FEE3EE",
"5X c #FBE9EE",
"6X c #F8E3E7",
"7X c #FDECF3",
"8X c #FFF0F7",
"9X c None",
/* pixels */
"9X9X9X9X9X9X9X9X9X9X9X9X9X9X9X9X9X9X9X9X9X9X9X9X9X9X9X9X9X9X9X9X9X9X9X9X9X9X9X9X9X9X9X9X9X9X9X9X9X9X9X9X9X9X9X9X9X9X9X9X9X9X9X9X",
"5X7X8X8X8X8X8X8X8X8X8X5X5X5X8X8X8X8X8X8X8X8X8X7X8X8X8X8X7X5X5X3X,X,X,X5X5X5X5X5X3X3X5X8X8X8X8X7X5X5X5X5X5X8X8X8X8X8X8X8X8X8X8X8X",
"-X-X-X3X5X8X8X8X7X-XN.M.N.N.B.3X5X5X8X7X3X+XN.N.;X-X-X$X| 1 1 9 7 < 1 1 4 4 4 1 1 1 / ,X8X8X5X-X-XB.N.N.N.$X5X6X3X-X$XN.C.C.C.C.",
") ) 9 M.+X+X+XV.| < 9 9 9 9 1 X 2 +XB.| , , 7 7 1 < < 4 1 1 ) ` ` ` ` ' ) ( ( ( _ ) 1 M.$X$XV.2 , 4 4 7 , , _ M./ 9 9 ( ) ` ) ) ",
"` ` ] ) 4 4 4 9 9 9 ( ( ) ( ( 9 4 , 4 5 9 9 ) 9 7 ( ) ) ( ( ( ` ` ( ' _ ( ( ( ) ] ] ) 9 9 9 ( ( ( ) ( ( ( ( ( ( ( ) ( ( ) ` ) ` ",
"( ` ( ( 7 4 ( ) ( 9 ) ( 9 ( ) ` ) ) ) ` 9 ( 9 9 9 ( ( ( ( ( ' ( ( ( ) ) ( ( ( ( ( ( ( ( ) ` _ ` ` ` ) ` ) ) ) ) ( ) ) ) ` ` ` ` ",
"7 9 7 7 7 9 9 9 ( ( 9 9 9 9 9 9 9 7 4 4 9 4 4 4 1 1 7 7 9 1 9 9 9 9 7 7 9 7 9 1 4 7 9 9 ( 9 ( ( 9 ( ( ( 7 7 7 7 9 9 9 9 9 9 9 ( ",
"m.m.m.m.n.n.n.n.n.m.F n.m.m.m.n.m.n.m.n.n.n.n.n.n.n.n.n.n.n.m.m.n.n.n.m.n.m.m.m.n.m.m.m.m.m.m.m.m.m.m.m.m.m.m.m.n.n.m.m.m.m.m.m.",
"'.'.'.'.'.'.'.'.].'.'.'.'.[.[.'.'.'.'.'.'.'.].].'.'.'.'.'.'.'.'.'.'.'.'.'.'.'.'.'.'.'.'.[.[.'.[.'.'.'.'.'.'.'.'.].'.'.'.'.[.[.'.",
"K.].'.'.'.'.'.).~.'.'.'.}..X.X|..X'.~.(.p.XX].].'.'.[.[.'.'.}.|.}.[.'.).XXg.v.XX X[.'.'..X|..X.X'.'.'.'.'.'.'.'.'.'.'.D p.K.'.'.",
":.3.m.).).].].].'.'.'.'.'.[.].[.}.(.e.4.6.j.h.].'.}..X.X].).|..X.X|.~.d.j.l.E.&XW.OX X'.[.|.|.{.].~.^.!.'.'.'.'.'.(.d.6.6.6.h.'.",
"5.W R D._.{._.!.'.~.^.'.'.].!.!.Q.$.4.6.6.l.j.m.).'.{.!.).!.!.].].~.a.4.j.l.W.E.l.l.&XP.). X X!.!.!.!.!._.{._.'.m.1.0.j.j.j.7.).",
"l.6.W e._. X X_.Q.Q.!.Q.!.!.!.!.D W 5.l.I.I.Y.T.(.!._.{._.!.!.Q.^.S.W 6.0.l.W.Y.j.l.W.l.8.(.!.!.).!.!._. X X!.D <.5.j.j.l.l.4.L.",
"l.j.4.W F._._.).).!.!.!.!.!.!.D 3.5.j.l.I.Y.Y.j.z.!._._.!.!.!.S.^.i.>.6.l.Y.Y.j.j.E.Y.l.5.1.!.!./.!._._. X_.D 4.4.j.I.E.l.b.4.(.",
"l.l.6.W *.!.!.!.!.!.!.!.!._.^.#.5.6.l.Y.Y.Y.j.0.I.U./.!._._._.!.!.a.6.6.l.W.Y.0.l.E.l.l.5.1.!._.{.!.!._._._.<.5.j.Y.W.E.E.Y.4.p.",
"W.l.6.4.3.!.!.!.!.!.^.!.!.~.S 3.0.Y.Y.Y.Y.k.0.I.I.k.h.!.!.{.{.!.Q.<.6.0.l.W.l.l.W.Y.l.6.5.1.!._._.!._.{. Xu.5.Y.l.E.Y.Y.W.j.3.(.",
"W.Y.j.5.W !.!.!.!.Q.Q.!.!.!.t.4.j.l.Y.Y.j.0.l.E.Y.j.y.!.!._._.!./.T 5.j.Y.E.l.W.W.l.l.6.:.u.!.!.!.!.!.!.!.1.0.I.Y.Y.l.Y.Y.l.1.!.",
"Y.Y.l.6.:.p.!.!._.{.{.!.!.!.#.6.j.l.E.l.l.I.E.Y.l.0.y._.!.!.!.!.^.<.6.l.Y.W.W.E.Y.l.6.4.1./.{._.!.!.!.!.r.6.l.Y.E.Y.l.Y.Y.k.1.!.",
"Y.Y.l.j.5.r.!.!._._._.!.!./.<.6.j.E.Y.Y.Y.E.Y.l.l.5.y.Q.^.!.!._.!.2.4.j.l.E.E.Y.k.j.6.3.H.!.{._.!.!.!.!.y.0.I.Y.E.l.l.Y.l.5.r.).",
"l.l.6.6.4.r.!.!.S.Q.!.!.!.!.1.5.j.W.E.Y.Y.Y.j.0.6.1./.!.!.!.!.!.!.a.4.k.j.l.l.j.j.6.:.L._._._.!.).!.!.!.u.q.I.E.Y.l.Y.Y.l.5.r./.",
"6.6.0.6.4.r.!.!._._.!.{.{. X1.:.l.j.Y.l.l.j.:.W ;.H.!.Q.!.).!.!.!.r.W j.6.k.0.6.4.W F.!.{.{.{.{.{.{.{.!./.U.I.Y.Y.l.Y.Y.j.:.!.!.",
"<.W 4.W 8.!.!. X{._.!._._._.y.;.4.5.j.4.W W 2.r./.!.!.!.!.!.!.!.!.XXW :.4.6.4.:.y./.{._._.!.`._.{._.{.!.!./.U.I.k.Y.E.l.5.d.!.).",
"!.F.F.L./._._._._.!.!./.).!./.1.W W 8.y.y.F.!.!.!.!.!.!.!.!.).!.!.).F.y.y.8.u.F.!.!._._.!.!.).)./.!.!.!.!.!.!.H.P.b.k.6.u.!.!.!.",
"`.`.`.`.`.{.{.XX`.`.`.`.`.`.{.XXXX`.`.`.`.{.{.XX`.`.`.!.!.!.{.XX{.XX_.^.!.!.).!.!.!.`.`.`.`.{.XX`.`.`.`.`.`.XX{.`.`.`.`.`.`.`.`.",
"2X2X1X4X4X1X4X4X4X4X4X4X4X4X4X4X7X4X4X4X4X4X4X4X4X1X4X>X2X>X4X4X4X4X1X>X>X>X>X>X>X>X4X4X4X4X4X4X4X4X4X4X4X4X4X4X1X4X4X4X4X4X4X4X",
"*X*X*X*X2X2X1X<X;X#Xf.g.c.*X;X<X2X2X<X1X4X4X4X1X<X<X*X*X*X*X*X*X<X<X2X2X2X2X4X4X4X4X4X4X<X<X1X4X<X<X1X<X<X<X<X<X<X<X1X4X4X4X4X1X",
"! ! | { { @XV.{ 2 X = 3 8 5 3 3 3 3 = ~ c.;X;Xc.5 5 6 3 8 5 8 8 6 ~ | } | } } V.;X;XB.f.s.} } } f.} } } } f.5 5 3 6 } } C.*Xf.{ ",
"! ( 8 ! ~ < = = = 5 8 8 ! ! 8 8 8 ~ 8 3 3 _ ! 5 8 ! ~ ~ 8 8 ! _ ~ ~ 8 6 5 8 6 3 ~ _ 6 8 8 8 ~ ! 8 ! ! ! 8 8 ! ) _ ! 8 8 ! ! 8 ! ",
"> 6 6 6 > 6 ! 6 ! 5 ! ~ 5 8 6 ! ! 6 ! 8 6 _ ! ! 8 ! ~ 5 6 ! ! ! ! ! 5 8 6 ~ 8 8 3 4 8 ! 8 6 6 3 > 6 6 6 8 8 8 8 ! ! 8 ~ ! ] ! ! ",
"> > > > - - > > > > ! = = - - - > > > > - > > > 6 > - - - > - 3 > 6 > - - - > > ^ > > > - - - - > - > > - - > > > > 6 6 ^ ^ > > ",
"K J J J J J J K J J L J L J J J J J K J K L J J K J J K K K K K K K K J J J J J K J J J K K J J J L K K J J J J J J J J J J K K ",
"D.A.D.A.A.C a.@.@.t.A.A.D.A.A.A.A.A.A.A.D.D.D.A.D.C C a.+.I ..A D.D.A.A.A.A.A.D.A.A.A.A.b =.d :.i.D.A.D.A.A.A.A.A.D.A.A.A.A.D.t.",
"A.D.D.S.N T E >.6.0.i.N A.A.A.S S A.A.A.H.H.H.D.N %.z.q.6.5.E E m A.A.A.A.G.H.G.A.A.S $.E W >.9.q.u.A.A.A.A.A.G.D.H.G.S m %.w.6.",
"H.H.D.S T E :.0.q.k.3.c S A.A.S A.A.A.G.H.H.H.Z 2.:.0.k.k.0.5.;.T S D.D.A.D.G.D.A.A.O.s ;.:.0.I.q.:.8.Z.A.A.G.G.G.D.V 2.6.:.>.k.",
"H.G.A.A R E 5.9.q.9.5.z.t.A.A.S S A.D.H.H.H.L.z.k.:.6.k.k.0.>.;.R b (.H.A.S A.A.A.S R E :.0.0.k.9.:.0.w.C A.A.A.A.m I 4.0.5.:.0.",
"G.A.A.O.E 5.0.k.k.>.j.k.6.%.A.A.A.A.A.A.A.A.-.q.k.0.>.0.k.0.0.:.E l D.D.A.S A.A.A.b s ;.0.j.k.0.5.9.k.5.<.S A.A.A.c W 5.q.0.:.0.",
"N N m Y ;.6.0.0.5.6.k.0.0.;.i.A.A.A.A.A.A.i.:.q.k.q.9.:.k.k.9.>.;.I A.A.A.A.A.N N O.;.:.0.k.k.6.>.k.0.5.E t.S S S l E 6.0.k.5.>.",
"A.A.l d >.0.k.6.>.k.0.0.0.>.@.A.A.A.A.N N %.:.0.0.I.k.>.0.k.0.6.;.T S A.S N A.A.N T ;.0.k.k.k.:.0.k.0.5.E Z A.S S z E 4.0.q.k.>.",
"S D.I E 9.q.k.9.q.q.q.q.4.E +.A.N N N m A.%.;.:.0.q.I.q.9.k.k.0.:.E t.A.A.A.A.A.m Y ;.>.k.I.0.9.k.0.q.:.,.C N S D.B R ;.6.9.k.k.",
"A.N R :.5.9.I.k.k.0.0.0.W E Z A.A.A.A.A.A.A E :.9.9.9.I.k.k.q.0.W E %.A.A.A.A.A.m Y ;.9.I.q.k.k.0.0.:.;.+.A.A.A.S N Y E ;.9.q.k.",
"A.S s W ;.0.k.k.j.5.5.;.E +.A.A.A.S N A.A.N  .E :.5.0.0.k.k.k.q.5.E #.A.D.G.A.A.N Y ;.6.k.k.k.0.5.;.;.R Z.N N A.S.D.C R E 5.5.0.",
"D.S s W 5.6.k.5.5.;.d E #.S A.G.A.A.A.D.A.A.D.A R ;.;.5.0.q.0.k.4.E %.G.G.H.G.A.N Y E 6.6.5.9.:.;.,.#.D.A.A.A.A.A.D.D.C Y E ;.6.",
"A.A.R E ;.E :.E s s =.Z.A.A.A.G.G.A.A.G.H.G.H.F.J.=.E ;.:.:.6.:.;.E %.D.H.G.G.A.A.Y d :.;.W ;.-.t.C A.A.A.A.A.A.N A.A.A.Z.a.E :.",
"A.A.A.R s s s -.#.A.A.A.A.A.A.A.A.A.A.A.A.A.A.A.A.A.t.@.d d E s s =.A.A.A.A.A.A.A.t.R s E +.%.D.A.A.A.A.A.A.A.A.A.A.A.A.A.A.C E ",
"oXoXoXoX%XoXoXoXoXoXoXoX%XP.%X:X:X:X%XP.oXoXoXoXoXoXL.H.L.H.H.P.%XoXoXoXoXoXoXoXoXoXoXoXoXoXoXL.H.H.L.F.H.L.J.P.oXoXoX%XoXoXoXoX",
":X:X:X:X=X:X:X:X:X:X:X=X=X=X:X:X:X:X:X:X:X:X:X:X:X:X:X:X:X:X:X:X:X=X:X:X:X:X:X:X:X:X:X:X:X:X:X:X:X:X:X:X:X:X:X:X:X:X=X:X:X:X:X:X",
"T.&XR.&X=XR.R.x.g.x.x.g.g.g.g.g.T.v.b.R.R.=X=X=X=XR.x.x.x.x.b.b.b.b.b.&X:X:X:X=X&XT.h.v.v.g.g.g.x.x.g.g.T.T.R.=X=X=XT.T.b.W.T.=X",
"- U { s.d.{ o .   $ & o * & & $ $   $ ; s.s.s.{ o ;   & & & & + & =   ; s.R.s.d.{ o   + & & &   $ $ $ + . . Q d.{ ; & : 6 > 6 { ",
"- - ^ -   & - - - > > > U > - > > & $ & % * : : > ; - ^ U > > - % - ; : & U ; % - - > ; * : U U - - > - & $ $ - & - > > > - : : ",
"* : : > : ; * % * * @ % % % % : : @ % % % % @ @ @ @ % : * : % @ @ @ O % @ % % % : : : : % O % % * * % % % : % : * % * % % % : % ",
"% % % % % % % % % % @ @ @ @ % % @ @ @ @ % O . O O @ % @ % % @ % % @ O O O @ @ % % % % O O # O @ % % % % % % % @ % % % * % % % % ",
"f f f H f f G G H f f f f f f f P f f g f f f f G G H f f f f f f f f f f f f f f P f f f f P g f f f P f f f P f H f f f P f P ",
"M M M x c ..d p i v M M n M M V V M M M M M x r w w p c M M M M n n n n A.x x g t t  .M M M M M M M M M M M x v v v n M M V Z.V ",
"Z.M o.X.,.>.>.d d r M n n M V Z.V M M M M k y d d d p  .M M M M M M M M x x 0 e s d d %.M V M M V Z V Z.Z n o.d p p 0 h M V Z.Z.",
"l -.d >.d 9.9.>.d p o.n M n V V M x M M g w d d ;.>.;.t x x M V V M M x h 0 s d d ;.:.,.M Z.Z.Z.Z.Z.V V V z ;.;.:.>.d 0 n M V Z.",
"p d >.9.d >.9.>.:.p I n n x M M x x M z w d d 9.5.>.;.t x M M V Z.V h h k a d ;.9.9.9.9.*.M V Z.V V V M h -.;.9.>.>.:.d k x V M ",
"d 9.d 9.9.d 9.9.>.d t x x x Z.Z.Z.Z.h a d d 9.9.9.9.>.a x M M M V V V x i d ;.>.9.9.9.d d Z.V V V V V c y 9.d d 9.>.d d ..x Z.Z.",
"d d 9.9.9.d 9.9.>.d p v x Z.x Z.Z.x 0 p >.9.9.9.9.9.d t M x x M M V n g p d :.>.9.9.d d 9.9.0 n M M h 0 9.q.d d >.9.>.d r x V V ",
"q d d 9.9.>.d 9.>.d d l x x x M M k d d >.9.9.d 9.9.d ..M M M M M M n I p >.:.9.9.9.d d 9.9.p M x M g d d 9.9.d d 9.>.;.w h x M ",
"i d d d >.9.9.9.9.d p &.A.M M M M r d d 9.9.>.>.9.9.d o.M M x x M M j w d 9.9.9.d d 9.9.9.d p V M M g p d 9.9.9.;.>.9.>.p  .M M ",
"c u d d d 9.9.9.9.d w g x M M M x p d >.9.9.d 9.9.>.p c M M M M V Z.0 p d >.9.>.d 9.q.9.9.d p M M M c i d d >.9.9.d 9.9.d e x x ",
"M M t p >.d 9.9.>.d w v x M M M M d >.9.9.9.>.9.9.d w M M x M Z.Z.Z.0 d d 9.9.>.9.9.9.9.d d y M M M M M q d d 9.9.9.9.9.;.w M V ",
"M M M o.y d >.d >.d y M M M x x M  .d >.9.>.>.9.>.d y M Z.M x Z.Z.x 0 p d 9.9.9.9.9.d d d y c M M x h x o.t d d 9.9.9.9.d w x x ",
"Z.M M M c o.d p p a o.M M M M M M V &.9.d >.9.9.>.d ..V Z.Z.M M Z.M r w d d >.;.d d d y 0 M M M M M x n M V  .p d d d >.d t V x "
};
