/* XPM */
static char *wall_corner2[] = {
/* columns rows colors chars-per-pixel */
"64 64 256 2 ",
"   c #CC8C7C",
".  c #C78B7A",
"X  c #D38D7C",
"o  c #D48C79",
"O  c #CB927D",
"+  c #D5937D",
"@  c #D8967D",
"#  c #B98C8A",
"$  c #BC9B8E",
"%  c #BA948C",
"&  c #BB8D91",
"*  c #BC869B",
"=  c #BE8A9D",
"-  c #B8879A",
";  c #B9979A",
":  c #AD9293",
">  c #BBA195",
",  c #BB8DA2",
"<  c #B48DA1",
"1  c #AD9CAD",
"2  c #AD98A7",
"3  c #BD93A4",
"4  c #B69CA2",
"5  c #BC9CA5",
"6  c #BC96AA",
"7  c #B49CAC",
"8  c #BC9CAB",
"9  c #B495A7",
"0  c #AC9EB3",
"q  c #AE9FB9",
"w  c #B39DB2",
"e  c #B99DB3",
"r  c #AF8FA4",
"t  c #ABA3AA",
"y  c #B4A3AD",
"u  c #BCA2AB",
"i  c #BAA8A7",
"p  c #B7B6AC",
"a  c #ADA1B4",
"s  c #ACADBB",
"d  c #ABA9B5",
"f  c #B3A3B3",
"g  c #BBA3B3",
"h  c #B4ACB6",
"j  c #BBACB4",
"k  c #B3ADBB",
"l  c #BBACBA",
"z  c #B6A5B9",
"x  c #ADB2BD",
"c  c #ABBBBB",
"v  c #B3B2BD",
"b  c #BBB3BC",
"n  c #B7B7B6",
"m  c #CC8E83",
"M  c #C38C8B",
"N  c #C78787",
"B  c #D38C83",
"V  c #CC9384",
"C  c #C39A8D",
"Z  c #CC9D8A",
"A  c #C89688",
"S  c #D49483",
"D  c #DA9483",
"F  c #D49B85",
"G  c #DB9B83",
"H  c #D39C8B",
"J  c #D5968A",
"K  c #C48B95",
"L  c #C38B9C",
"P  c #CA8C9C",
"I  c #C78798",
"U  c #D38B9D",
"Y  c #D7889D",
"T  c #C4919D",
"R  c #CC939C",
"E  c #C6979A",
"W  c #D3939B",
"Q  c #CEA28C",
"!  c #C6A289",
"~  c #D3A38B",
"^  c #DAA68C",
"/  c #DCAB8D",
"(  c #D8A686",
")  c #CCA895",
"_  c #D4AB94",
"`  c #DBAC92",
"'  c #D7A695",
"]  c #D9B198",
"[  c #D9B090",
"{  c #E2AB8E",
"}  c #E2A895",
"|  c #E1B092",
" . c #C38DA1",
".. c #CC8DA2",
"X. c #D58CA2",
"o. c #DA8EA3",
"O. c #D38FA8",
"+. c #C493A2",
"@. c #CC93A3",
"#. c #C29AA5",
"$. c #C39CAB",
"%. c #CC9CAB",
"&. c #C798A7",
"*. c #D393A4",
"=. c #DC93A5",
"-. c #DC94AA",
";. c #D49BAB",
":. c #DB9BAB",
">. c #D596A9",
",. c #D99DB2",
"<. c #C99FB2",
"1. c #E38EA5",
"2. c #E292A5",
"3. c #E39DAC",
"4. c #E497A9",
"5. c #E29EB3",
"6. c #C3A4A5",
"7. c #C3A3AD",
"8. c #CBA1AC",
"9. c #C3ABAC",
"0. c #CCA8A8",
"q. c #D3A3AC",
"w. c #D9A8AC",
"e. c #C5B1AC",
"r. c #DAB6A7",
"t. c #C3A5B3",
"y. c #CBA4B3",
"u. c #C3ABB4",
"i. c #C3ACB9",
"p. c #CAAAB5",
"a. c #D4A4B2",
"s. c #DBA4B2",
"d. c #DCABB4",
"f. c #D7ABB7",
"g. c #C3B3BC",
"h. c #C7B7B8",
"j. c #DDB2B3",
"k. c #D4B2BC",
"l. c #DDB3BB",
"z. c #D5B8B5",
"x. c #E4A4AB",
"c. c #E2B4A9",
"v. c #E2A3B3",
"b. c #E2ABB5",
"n. c #E4ACBB",
"m. c #E7A8B9",
"M. c #E4B3BD",
"N. c #EBB3BD",
"B. c #E6BAB7",
"V. c #F2ADBE",
"C. c #E09983",
"Z. c #BBC3BB",
"A. c #C8C4BB",
"S. c #DAC5BA",
"D. c #DAD3BD",
"F. c #E8C6B8",
"G. c #E6D3BA",
"H. c #ECCCB4",
"J. c #B9ADC1",
"K. c #ADB2C1",
"L. c #AABFC0",
"P. c #B4B3C2",
"I. c #BAB4C2",
"U. c #BBBCC3",
"Y. c #B7BDC4",
"T. c #C4B5C2",
"R. c #C3BCC4",
"E. c #CABBC4",
"W. c #C9B8C7",
"Q. c #D5BDC3",
"!. c #D8B9C8",
"~. c #DBBCD2",
"^. c #E5AEC1",
"/. c #EBB4C2",
"(. c #E5BAC3",
"). c #ECBCC4",
"_. c #E8B8C7",
"`. c #F4B8C6",
"'. c #E9BFD3",
"]. c #ACC3C5",
"[. c #ACC8C9",
"{. c #B3C4C5",
"}. c #BBC2C5",
"|. c #B3C6CA",
" X c #BBC5CA",
".X c #B4CACB",
"XX c #BCCBCC",
"oX c #BCCAC5",
"OX c #BACDD1",
"+X c #BCD1D2",
"@X c #BBD1CF",
"#X c #C3C2C5",
"$X c #CBC3CC",
"%X c #C3CBCC",
"&X c #C7C8C7",
"*X c #D4C2C4",
"=X c #DACCC4",
"-X c #D7C6C9",
";X c #C8D3CB",
":X c #D9D5C8",
">X c #C7CAD1",
",X c #D8C7D5",
"<X c #C9D5D2",
"1X c #D9DAD4",
"2X c #ECC2C4",
"3X c #E4CCC3",
"4X c #E3CACC",
"5X c #EACBCD",
"6X c #EAC8C6",
"7X c #F4C4C8",
"8X c #ECD5CB",
"9X c #EBDACD",
"0X c #E5D6C8",
"qX c #F3D7CA",
"wX c #E5CAD4",
"eX c #E7C8D3",
"rX c #F8C3D1",
"tX c #ECDCD4",
"yX c #E4DCDC",
"uX c #ECDCDC",
"iX c #E7D9D3",
"pX c #F3DDD4",
"aX c #F4DCD7",
"sX c #DBE3DB",
"dX c #F5E2CC",
"fX c #E4E4D5",
"gX c #ECE3D5",
"hX c #E4E4DC",
"jX c #ECE5DB",
"kX c #EBEADD",
"lX c #E9E9D9",
"zX c #F3E4D4",
"xX c #F3E4DB",
"cX c #F9E4DC",
"vX c #F3EDDC",
"bX c #F7E8D6",
"nX c #F4F1DD",
"mX c #F9F2DE",
"MX c #E9E5CF",
"NX c #DFE7E3",
"BX c #E5E3E2",
"VX c #E9EAE3",
"CX c #F5EEE3",
"ZX c #FAEDE3",
"AX c #F7ECE7",
"SX c #F5F2E3",
"DX c #FAF3E5",
"FX c #FDF9E6",
"GX c #F5F4E9",
"HX c #FBF5EA",
"JX c #FDF9EB",
"KX c #F7F9EB",
"LX c #FDF9F1",
"PX c #FBF6F0",
"IX c #EDF1E2",
"UX c #E7DEE1",
/* pixels */
"MXnXmXCXKXPXSXSXnXSXZXZXAXIXCXCXZXZXDXSXSXSXCXDXCXGXCXGXCXnXZXmXvXnXvX:XzXZXAXCXCXAXSXnXDXSXAXAXCXSXSXvXDXDXAXAXZXAXZXSXSXnXnXmX",
"vXmXZXCXHXLXIXIXDXvXZXZXCXGXHXSXZXDXcXvXSXCXCXGXGXCXIXCXGXCXmXvXmXnXnXzXDXSXAXHXHXnXvXSXSXnXCXCXSXSXSXSXnXSXCXZXZXZXCXCXCXmXnXnX",
"vXSXDXAXKXLXKXSXvXSXmXZXKXKXGXGXCXiXnXnXSXnXSXZXCXCXCXGXCXnXCXCXnXvXDXmXCXDXAXAXSXSXSXnXvXDXSXCXSXmXvXSXnXSXSXIXCXCXSXCXSXnXnXnX",
"SXHXHXHXLXLXSX0XFXcXDXHXGXJXJXHXFX:XnXKXkXDXDXCXZXCXGXCXSXSXCXCXDXCXnXSXCXSXGXCXSXSXnXnXFXSXSXGXvXSXnXnXSXSXSXSXGXGXCXSXSXSXnXnX",
"sXDXPXLXPXHXJXgX3XS.cXHXGXLXJXDXvXzXD.nXnXJXDXDXZXZXSXCXGXGXGXCXDXSXnXDXSXnXSXSXCXSXSXFXFXSXHXGXzXDXDXnXvXnXnXSXSXSXSXSXSXCXCXSX",
"1XHXHXPXPXPXFX0X0XS.cXZXHXHXFXFXzXG.:XnXKXSXJXZXZXDXDXDXSXCXAXHXCXHXDXnXDXnXnXDXJXDXmXFXSXJXLXjXjXbXZXSXnXSXSXSXnXnXvXSXSXDXCXZX",
"0XSXHXHXHXZXmX8X8XS.ZXPXHXFXDXbXH.qXG.mXFXSXDXFXFXDXFXHXSXCXAXAXAXAXDXmXFXzXvXFXDXZXJXDXxXlXyXhXvXxXCXGXFXKXDXSXSXvXmXZXZXAXZXCX",
"fXvXDXZXDXZXpXqXr.z.8XcXHXZXcXqXH.% G.zXvXKXHXHXxXgXgXgXSXHXHXAXPXPXFXzXMXMXzXgXHXHXHXhXkXBX&X%XBXjXhXkXkXhXlXFXDXSXZXZXZXCXZXCX",
"0XgX0XgX9X9X8XqX0.z.p.tXZXaXcX] ] A H.bXpXgXjXjXgXgXzXzXCXHXHXHXAXHXSXgXD.dXdXzXgXCXhXVXsX<X@X.XZ.NXVXsXIXNXlXlXgXxXZXZXZXZXCXZX",
"D.=X0X9X0X9X9XqX0.: : wX8XaX' ' H O ] 3XcXcXaXxXxX0XD.bXDXHXZXGXLXGXFXdXG.dXdXbXvXjXVX1XNXZ..X+Xc Z..X{.<XNXsXNXjXgXFXSXFXFXGXCX",
"e.: 0X=XiX0XtXe.: ; ; ; ; % M V G J c.3X3X4XuXZXz.6.0XdXDXDXKXSXSXFXbXdXG.G.G.3X=X:X1X{..XZ.@X[.c ].[.[.].[.sXsXfXlXDXDXKXKXGXIX",
"=X> 4 wX:X=X:X4 u 5 7 4 u # A O G O ] 2X*X9.u.: > e.3XzXmXDXSXGXKXmXdXH.) _ ! S.iX&XZ. X.X.X].|.[.L.[.Z.].@XZ.;X<XfX:XFXnXSXKXIX",
"eXu y 2 t t t 2 7 r 7 7 ; % .   C.H c.3X*Xl u.7.; > 4XzXDXDXDXJXFXDXdXH.[ [ ] z.tX$XoX%X;XY.#X XY. X|.]..X.X@X;XZ.Z.p vXJXKXKXSX",
"wX7 2 t d t 2 t f 1 w g 4 # V X D V r.B.*Xi.z l 7 : 8XzXDXHXSXSXDXzXdX! ! [ _ H.aXA.h.R.>XU.E.T.}.}. X|.[..X@X@XA.Z.p :XSXFXJXKX",
"!.e 1 f t t a q q q z z ; & m X G S c.6X,Xl J.g.l 9.i =XgXDXJXDXzXbXH.! [ ( ! qXaX*Xh.j i u 3 8.l n P.}.[.[.@X;XZ.;XfXfXHXHXDXZX",
"~.w 2 a a a 0 z J.q a z 7 % m D D V j.eX,XI.I.I.l l i 0XvXtXvXgXbX9X] Q ( / Q qXaXQ.6.5 +.8.%.8.5 i y b Z.Z.@X1X;XIXCXFXHXHXHXHX",
",X7 6 3 6 3 9 t.e q q f 8 # m D J J j.6X,Xl v P.s v h p ;X0XtXxXfXdX$ V { / Z qX9XQ.#.;.s.f.a.a.q.0.7.6.i 4X:XjXjXHXSXJXJXSXHXAX",
"eX#.+. .* L = 6 e w 0 w 7 & m X J m b.4X,Xb v v s K.s d p &X1X:XA.e.A ( @ [ Q 8XaX*XT ;.s./.^.n.n.b.w.%.F.6XcXzXFXSXSXFXGXCXAXGX",
"'.+.@.......L * , e e e 4 # S X B m B.4X$Xb x x s K.x v c c p p p i ! H | [ C pXuX*X%.s.m.`././.N.b.x.q.j.qXpXcXDXDXDXSXSXCXSXCX",
"`.&.*.*.X.X.I L * , 6 8 T # B D + F B.4X$Xv P.P.P.P.d s h n v U.n e.C ! ^ ~ ) qXaX*Xy.;.b.V.N.n.`.N.b.j.f.E ZXxXHXDXKXSXSXCXCXDX",
"rX&.:.4.=.-.=.*.I * , , T & B o + } F.eX$Xx U.P.l J.l l P.P.P.P.n i C Q ^ ~ F.aXuX*Xp. .b.N.N.x.3.N.N.M.j.0.) h.iXMXSXSXnXnXnXvX",
"`.P X.=.o.2.=.=.X.I *  .E N . o + } ).wX,Xk R.J.z e t.e g z W.W.}.n ; Z ` c.F.aXUX-XW.#.s.n.V.b.s.x.b.M.f.z.e.h.D.Z.A.D.:XnXmXnX",
"rX=.*.U Y =.o.2.o.X.L I K # N o D } ).wX~.J.T.z 6 3 +.%.#.8 i.T.I.i $ Q ' | 6XaXUX$XW.$.#.w.N.N.x.q.w.B.z.e.9.=XA.A.p fXMXMXDXnX",
"`.;.:.=.=.1.Y 2.1.o.X.I N . o o J ' eX,XW.T.T.t.+.*.P :.:.a.a.p.g.e.$ ' ` ^ F.8XUX$XE.p.5 0.d.b.B.B.0.w.2X0X4X:X:XkXSXJXSXFXbXmX",
"`.:.O.-.-.1.2.2.1.1.o.I N N o o D R 2XeXW.T.i.3 ..3.4.4.x.v.,.8.u 9.$ ~ / ` ) 8XUX>XI.W.2 9.f.z.j.z.6X3XaXxXCXGXCXSXJXGXSXCXZXDX",
"rXI ..*...-.o.1.4.1.X.Y N N B o D J B.eX~.t.6 P :.=.2.x.x.:.-.&.6.0.A F / / ) 8XBXY.$XR.h.t 6.p.3X3XpXbXZXZXHXHXPXGXGXHXHXCXZXmX",
"rX+.= =  .L L X.O.X.Y I I . B X G . c.eXk.7.; T 4.4.x.x.W W :.a.q.0.A ( / | ) 6XUX>X XP.U.h.b l :XzXgXbXHXHXHXSXHXGXGXGXDXZXZXZX",
"7 y.$.+.6 , +., *  .L L P B B D ( . c.7Xf.#.@.>.5.x.x.2.*.:.v.s.a.W V F ( ` ~ 3X1X>XY. Xv oXb :XiXlXzXDXDXHXJXGXKXHXHXSXCXAXAXZX",
"~.u 9 7 g 7 7 9 6 $.6 #.; M m + @ F c.7Xx.T T ;.m.3.-.,.v.v.v.v.;.W V F @ [ [ G.yXY.|.OX|.L.Y.:XfXlXfXKXDXKXFXJXnXGXSXDXCXZXjX0X",
"Q.y g f 0 w q 1 w w 7 8 5 M A S + F c.N.d.K *.:.v.v.^.5.s.:.-.5.*.P J F / [ _ F.UXU. XL..X.X.X{.;XnXfXkXCXHXDXSXSXvXSXSXCXDXGXCX",
"T.y w 7 w 0 0 0 q w 1 7 ; # m   ( O c.rXb.P :.5.m.,.5.,.-.:.=.=...X.J F { / _ 3XUX>X|.|.[.].|.{.A.;XfXkXfXkXDXHXSXnXSXSXSXvXCXDX",
"T.u z z 0 0 a 0 0 q w w i % m . F V B.7XN.P @.:.5.,.,.,.*.*.*... .&.A ( { { ] 3XUX>XY.|.[.|. X{.A.A.A.1XVXkXhXIXCXSXSXnXZXSXvXCX",
"T.e u g 7 7 w q a J.q w 7 # O     F B.7X(.T P *.O.>.....P T L 3 $.p.C Z { ^ ~ qXyX$X}.oXU.h.W.g.h.h.h.h.Z.oX;X;X&XZ.:XSXnXmXnXmX",
"!.<.$.$.8 7 7 1 z f q w 5 # S o @ O B.2X(.#.L +.@... . .+.5 t.g h h.$ ) } { ] qXuX&X#Xn g.j 7.3 $.u i y b &X<X%X&XVXGXCXSX:XD.mX",
"^. .- - - - , e e 2 w 7 4 & . . + m j.4X!.i.t.$.e 6 t.t.j l I.v h p $ ! ^ ^ r.qXyXE.g.7 4 #.%.s.;.q.7.7.4 ,XBXVXKXKXSXDXvXvXmXnX",
"m.I I P P , , < 6 < 7 8 #.& m + S Z 2XeX!.i.i.l l l l l l v Y.c c p $ C ( ^ r.8XuXh.p.#.d.s.s.s.s.q.8.8.eXaXZXHXSXJXDXvXSXCXCXDX",
"m.Y Y Y P .. . .* * , , +.# m X J x.6XeX$XJ.W.T.I.P.k s b v K.x h p $ Z ^ ' r.8XiXQ.t.$.;.3.b.M.n.l.l.z.aXxXjXDXFXZXDXDXSXGXCXCX",
"/.Y o.O.-.O.X.X.I ..*  .T & m X H B.5XwX$Xk I.I.P.P.K.s v x K.P.n j $ Z / ^ r.8XiXE.y.%.x.N.N.N./.M.l.z.4XxXzXgXFXDXFXCXCXCXAXHX",
"`.*.-.1.=.o.o.X.Y I I K K M m X B c.6XwX$XI.U.I.x K.K.P.x x x x b 9.$ H / ^ S.0XyXE.p.$.s.b.N.M.b.b.M.z.8XpXgXvXFXDXDXCXDXGXCXCX",
"`.R =.o.-.-.1.2.Y U U I I N B B S ' 2XwXE.l h b v v s v d x v I.g.j M H } ( F.9XuXg.W.8 q.;.N././.m.w.w.j.aXxXgXjXDXSXSXCXCXGXHX",
"rXW =.:.U U 1.4.2.2.U I N N D D S ' F.7X!.i.t.g 7 f g l i b l l n e.$ ~ ( ] qXpXyXW.W.i.#.s.b.n.m.`.b.0.0.z.=XlXjXkXGXSXSXvXnX:X",
"rXK W 2.=.Y U 1.2.o.U K M N B D D V B.5X!.$.3 ; 3 ; - 9 3 $.7.t.j 9.$ ) ~ _ 3XaXUXU.R.W.$.8.a.b.V.m.).N.z.h.S.A.&XGXGXIXIXSXmXD.",
"`.I U =.-.4.o.Y o.=.O...L N   D G O w.6X(.T P T ......>.P P ..&.9.9.$ ~ ~ ] F.pXyX>XU.>XT.7.%.;.m.n.d.!.-X*X*X&X&Xn GXSXFXnXmXD.",
"`.P U U o.1.X.Y O.>.+.+.#.N B + G O c.7XN.K *.:.:.:.-.:.U W P K #.7.C Q ` ` r.gXUX>X X X#XT.7 <.a.%.f.a.p.S.*X-X:XVX<XGXSXnXmXbX",
"_. .P U o.-.-.O...<.$.$.#.# . + @ V c.7X(.L R :.v.v.s.v.:.3.*.@.L #.A H ^ ` r.9XUXOX{.OX>X#XT.7 <.<.&.$.e.z.=X-XVXPXGXCXSXSXvXmX",
"'.$.= I ....O.;.&.$.e e #.# . o @ A c.7X(.@.P *.v.v.v.v.x.q.>.*.P R J F ( ^ ] 9XUX X[.|.OXXX XR.t.t.7.8 z.=X:XCXAXGXPXIXCXSXvXmX",
"'.6 ; L L * , , 6 e k y i # . o ( V w.7X(.q.P >.v.v.:.s.v.m.5.5.W m J F @ / S.9X1X>X]..X+X|. XOXU.U.#XA.A.D.lXSXJXDXHXHXCXHXHXcX",
"~.7 8 3 +.$.6 w w f z a ; # V o F A j.7Xk.a.+.@.:.v.>.W =.3.5.5.:.R J S @ | ] dXBX>X XOXOX|.OX|..X{.XXZ.;XfXlXlXSXHXSXHXAXCXZXGX",
">Xw 7 7 e 7 2 1 1 f k f 4 # V + @ V j.4Xg.p.$.@.O.5.v.:.>.X.-.f.9.6.A F @ { c.qXyX%X|.OXOX.X[.[.[.[..XXX}.NXkXkXfXKXKXKXmXSXCXZX",
",Xq 7 7 1 e w 0 l f f y ; % m + G F r.eXT.t.t.#...:.3.3.x.:.O.&.u.i $ Z @ { c.9XUX X|.OXOX.X[.|.[.[.[..X X<XNXsXkXfXSXnXnXnXHXCX",
",X9 < #., < < r f 1 a f 7 & m o C.S w.4XT.l u.$.@.>.:.3.v.s.,.<.u.9.C F ( | c.9XyXXX.XOXOX.X X{.{..X.X{.|.{.oXVXhXlXfXIXMXSXHXZX",
"eX3 #.+. .I < , 3 9 f g 8 & B X D S r.4Xg.v h t.; T @.W @.;.y.p.p.9.A F { { c.9XUXoXY.|. XY. XU.U.>XOX.X.X].XXoX&XZ.D.D.mXzXvXSX",
"_.$.P K I X.O.O...$.6 e 5 & m D @ o B.4Xb P.s l t.$.3 ; ; 8 g j i.e.C Z ~ / r.8XBX%X XY.U.g.i.i.E.$X X%X+X[.XX@X;XZ.1XDXzXnXDXnX",
"'.3 I I Y o.o.-.O. ., $.#.M B D + . N.eXb v v v l l t.t.t.j l k l u.% Q [ ` r.8XyX$X#XR.T.i.p.<.8 h.R.%X>X+X.X@XZ.VXfXHXDXDXnXnX",
"_. .P P X.1.o.Y X.P L , T M N D D H ).eXT.P.K.K.s P.k h l h v U.b 9.; ! ` ] _ 8XyX*XW.T.E.l.^.n.y.t.7 T. XXX%XXXVXsXlXDXnXSXnXnX",
"_.L P =.o.o.Y Y Y -.*.I E M X + S } ).eXW.K.K.K.K.P.k a h v x Y.b j > ! ` ` ) qXuX*XW.E.^._./.m.n.l.7.8 n &XoX;XkXlXHXSXSXnXIXSX",
").R W 2.Y Y Y o.o.2.U P K N O + O ^ M.wX~.P.s P.k P.J.l h l I.b v e.% ~ / / _ qXaXQ.W.k.f.M././.n.^.q.8.; h.A.=XhXDXZXHXSXGXCXCX",
"`.R W 2.Y 1.1.1.1.X...L E N   + F Z F.eX$XP.s v l z 7 7 7 7 g b g.j $ Q / / ) qXuX*X!.M.f.n.d./././.).w.7.i S.cXgXDXDXFXSXGXCXCX",
"`.P 2.2.2.2.o.o.U ..L = P M S o G O B.4X-Xv l l g 6 , L T ; #.u n i ! Q / / ] pXuXQ.p.(._./.d.s.n.^.M.s.j.0.0.cXzXJXDXDXCXCXGXGX",
"`.W W Y 2.1.Y ..L  .< , +.M J + @ Z B.3X-Xg 9.9.3 @.@.*.*.*.@.$.j i > Q { / c.qXuX-Xu.k.l.M.(.).^.^.M.).w.w.) pXcX0XJXJXCXAXCXGX",
"/.K P W P I L * , , 6 7 5 M m + G H B.5X*Xi u #.P *.=.3.3.x.:.;.i 9.C Q | / H.8XuXE.h.u p.f.f.(././.(.l.d.q.0.bXzXHXFXSXGXvXvXCX",
"'.L & * - , , e 6 7 e g 8 & m S D H B.6XQ.z.T P >.=.1.3.3.3.=.@.8 9.$ Q | [ H.zXyX$XE.g u 8 $.f.f.a.(.M.j.0.6.z.cXjXSXJXHXmXDXvX",
"~.6 $.3 8 e 0 w w w w t.u # V + D W N.rX!.p.+.@.-.3.v.v.*.W *.;.8.0.C H / _ r.iXyX>X}.R.E.h.i.7.8 %.#.$.6.7.9.*X=XjXKXDXFXnXmXD.",
"~.7 6 9 2 q q 0 J.a z g u %   V J ' 2XeX(., @.*.5.v.v.-.*.;.3.,.,.q.A ~ / [ r.9XBX>XU.#XU.R.Q.W.k.k.f.f.k.Q.*X4X1X:XSXnXnXnXG.G."
};
