/* XPM */
static char *collect[] = {
/* columns rows colors chars-per-pixel */
"64 64 225 2 ",
"   c #301D19",
".  c #3E211A",
"X  c #352525",
"o  c #3D3838",
"O  c #321721",
"+  c #751C1C",
"@  c #4F2D1B",
"#  c #652719",
"$  c #7A2514",
"%  c #61371A",
"&  c #7C3E1A",
"*  c #5E0B2E",
"=  c #501C29",
"-  c #630C2E",
";  c #6A0E2E",
":  c #730E2E",
">  c #780F2E",
",  c #6A1129",
"<  c #6A1226",
"1  c #761821",
"2  c #75112C",
"3  c #7C112E",
"4  c #761726",
"5  c #650B31",
"6  c #6C0C31",
"7  c #730E32",
"8  c #7A0F33",
"9  c #7D1131",
"0  c #462E2C",
"q  c #562D26",
"w  c #48312E",
"e  c #4E3534",
"r  c #682E23",
"t  c #63322B",
"y  c #7B461C",
"u  c #58443D",
"i  c #57402E",
"p  c #744C2D",
"a  c #742940",
"s  c #4D4343",
"d  c #514949",
"f  c #584E50",
"g  c #665859",
"h  c #775957",
"j  c #6A4F4F",
"k  c #6D5F61",
"l  c #6E6263",
"z  c #786867",
"x  c #7D7372",
"c  c #7E7364",
"v  c #811D1C",
"b  c #9E2A0F",
"n  c #8B2319",
"m  c #872514",
"M  c #952914",
"N  c #992A12",
"B  c #922514",
"V  c #9D3016",
"C  c #AA3B13",
"Z  c #A43512",
"A  c #A02C10",
"S  c #84122E",
"D  c #8A132E",
"F  c #8A1B2C",
"G  c #94152E",
"H  c #98162E",
"J  c #831131",
"K  c #8A1231",
"L  c #8B1F33",
"P  c #921A34",
"I  c #A51B2A",
"U  c #B21E26",
"Y  c #98292E",
"T  c #B93835",
"R  c #AF302F",
"E  c #C03731",
"W  c #924D1D",
"Q  c #A84718",
"!  c #B34516",
"~  c #B74A17",
"^  c #B84C18",
"/  c #B84D18",
"(  c #BC531A",
")  c #BD5C1B",
"_  c #B6501E",
"`  c #A65C1C",
"'  c #B5641D",
"]  c #AB611F",
"[  c #8C4428",
"{  c #BA5523",
"}  c #B0502F",
"|  c #BD6A34",
" . c #C15B1A",
".. c #C4621B",
"X. c #C9661C",
"o. c #CB6C1C",
"O. c #CE711D",
"+. c #C24C3F",
"@. c #CE7121",
"#. c #AA3C42",
"$. c #963850",
"%. c #8F544B",
"&. c #A75746",
"*. c #BD4545",
"=. c #BD724E",
"-. c #BE6F48",
";. c #B55F65",
":. c #876A69",
">. c #8C7579",
",. c #887375",
"<. c #91787C",
"1. c #8F6A6F",
"2. c #C25B4A",
"3. c #C47252",
"4. c #C7786B",
"5. c #CF833E",
"6. c #8A8174",
"7. c #CA8652",
"8. c #CA8E79",
"9. c #997E83",
"0. c #AF7D89",
"q. c #9C8386",
"w. c #938D86",
"e. c #A8878B",
"r. c #AB8B92",
"t. c #B38A93",
"y. c #B8969D",
"u. c #AB9290",
"i. c #B7A592",
"p. c #BF9AA1",
"a. c #BDA4A7",
"s. c #B3B0AA",
"d. c #C49096",
"f. c #D3B291",
"g. c #C79BA3",
"h. c #D594A3",
"j. c #D995A5",
"k. c #D59DA9",
"l. c #DC9BAA",
"z. c #D599A6",
"x. c #E29DAD",
"c. c #EB9CAF",
"v. c #E79FB0",
"b. c #C4A5AA",
"n. c #C7A6AC",
"m. c #D5A3AD",
"M. c #DBA2AE",
"N. c #D4BCA2",
"B. c #CEADB3",
"V. c #DDA5B1",
"C. c #D5ACB4",
"Z. c #DDAAB4",
"A. c #DDAFB8",
"S. c #D7A6B0",
"D. c #DDB4BB",
"F. c #D8B6BB",
"G. c #C5B6AD",
"H. c #E1A0AF",
"J. c #E3A4B2",
"K. c #EAA4B5",
"L. c #E2AAB6",
"P. c #E4AEB9",
"I. c #EAABBA",
"U. c #E9A8B7",
"Y. c #F1ABBB",
"T. c #E4B3BD",
"R. c #EAB2BE",
"E. c #E0B8BF",
"W. c #F1B0BF",
"Q. c #D8C2AB",
"!. c #C4C2BA",
"~. c #DBCBB5",
"^. c #DBC9B7",
"/. c #DFD3BE",
"(. c #E0D4BF",
"). c #DDBDC2",
"_. c #E4B7C0",
"`. c #EAB6C1",
"'. c #E5BBC3",
"]. c #EBBCC5",
"[. c #ECBFC8",
"{. c #F3B5C3",
"}. c #F2BBC6",
"|. c #F2BEC9",
" X c #F9BDCA",
".X c #FAB6C6",
"XX c #DEC3C6",
"oX c #DAD6CB",
"OX c #E6C1C6",
"+X c #E8C1C7",
"@X c #E5C5C9",
"#X c #ECC4CB",
"$X c #E6CACD",
"%X c #ECC9CE",
"&X c #F3C3CD",
"*X c #F9C2CE",
"=X c #F0C8CF",
"-X c #E4DBCB",
";X c #E2D7C5",
":X c #EDCDD1",
">X c #E6CFD0",
",X c #F5C7D0",
"<X c #F9C6D1",
"1X c #F3CCD2",
"2X c #F9CBD5",
"3X c #FBCED8",
"4X c #EED1D5",
"5X c #EFD6D8",
"6X c #E7DAD2",
"7X c #F3D1D6",
"8X c #F4D4D9",
"9X c #F9D3DA",
"0X c #F3DADC",
"qX c #F8DBDF",
"wX c #EAE6DB",
"eX c #ECE8DE",
"rX c #E7E2D5",
"tX c #E7E0CF",
"yX c #F8DCE0",
"uX c #EDEBE2",
"iX c #FDEAEC",
"pX c #FEE4E8",
"aX c #FFECF2",
"sX c #FFF2F2",
"dX c #FFF9F6",
/* pixels */
"dXsXsXiXqXOX^.].'.'.9XpXaXiX0X$X).[.$XpXaXaXpX[.[.]._.J.K.K.I.L.T.Z.P.`.'.'.'.`.J.v.x.K.c.K.J.J.K.x.x.x.Y.I.I.`.'.:XiXsX8X#X&X X",
"sXsXiX>X@X#X&X].E.A.P.].D.@X).].[.[.).yXaX$X).[.[.].P.`.Y.Y.P.P.Z.L.I.`.].]._.`.J.J.K.x.Y.Y.J.M.x.x.j.c.W.W.U.Z.E.$XpXsX0XOXR.R.",
"sX5XXX$X8X1X%X=X].D.R.T.D._.OX%X[.[.).[.$X).@X[._.`._.I.I.I.J.P.P.U.I.`.`.`.`.`.P.M.U.K.Y..XR.T.J.J.x.K.U.K.J.U.{.'.'.XX^.'.`.R.",
"OX@X$X$X1X2X7X=X&XP.T.`.Z.E.|.|.[.[.$X>X).$X%X[.[.].].U.Y.U.P.I.U.K.P.I.U.J.P.R.R.`.T.}.j..X|.].R.J.H.U.U.H.K.J.P.`.OXD._.].R.L.",
"].OX$X=X8X9X7X7X%X].A.m.|.].R. X|.[.=X[.>X[.[.[.[.].`.k.H.l.I.P.J.K.J.U.K.v.H.J.{.`.&X}.j.j.&X@XR.L.P.W.I.K.v.x.K.`.`.T._.T.P.V.",
"].+X@X%X#X=X:X:X1XT.T.z.&X`.}.{. X[.=X[.).$X=X[.,X[.,XZ.H.l.`.P.I.U.K.J.v.K.K.J.L.].].].h.l.&X].`.`.R.R.K.x.K.v.v.I.].]._.P.I.I.",
"&X#X+X1X%X%X%X8X7X@XR.m.].#X].`.<X[.=X4X[.[.[.[.=X,X,X[.U.H.,X[.}.`.P.P.J.J.K.L.].`.`.R.x.h.}.].+X].R.P.J.K.K.K.I.`.`.`.`.`.P.L.",
"&X&X#X=X#X%X%X:X:X=X#XC.1X1X&X&X[.,X[.[.>X).].#X#X=X[.|.M.H.<X<X,X].].`.I.Z.L.P.].'.].{.j.j.].].`.R.T.V.H.J.U.{.`.{.].`.`.`.`.`.",
"&X#X#X#X2X&X=X9X1X1X2XC.7X8X=X#X[.|.[.=X=X).[.#X[.@X'.[.H.M.2X2X7X:X:X[.].|.].].'.[.E.#Xz.l.].R.`.E.P.L.M.L.{.R.}.].].'.`.`.`.`.",
"*X,X&X=X,X,X2X3X3X&X&XD.8X%X=X+X_._.[.[.[.'.#X#X%X[.[.=XM._.|.1X7X:X1X,X&X&X].].].`.`._.z. X&X}.].R.L.Z.M.I.&X+X#X#X+X].].`.`.].",
"*X,X=X&X*X*X<X3X9XL.L.Z.8X7X@XE._._.'.[.[.[.=X,X%X@X%X,XZ.`.|.2X2X1X1X<X<X&X#X|.`.|.|.[.k. X&X|.&X`.R.L.A.`.&X#X%X#X+X[.].].].`.",
"M.M.m.m.M.M.m.Z.L.m.k.T.qX#X#XE._._._._.).'.=X2X1X=X%X[.Z.J._.S.C.Z.Z.J.V.V.V.V.J.M.M.M.z. X*X,X].}.`.`.].#X%X%X:X#X@X].'.].'.'.",
"S.S.m.m.m.m.m.Z.Z.P.I.T.2X#XE.#X[.[.)._._.).,X2X1X:X4X1X3XS._.S.A.Z.J.Z.L.L.Z.Z.M.J.V.J.l.j.&X#X#X&X&X&X&X=X%X%X:X#X+X].].].`.'.",
"2X2X1X=X,X*X&X2X=X3XL.Z.=X+X#X].[.[._.[.'.[.1X2X1X4X%X%X XZ.[.,X&X<X&X1X<X&X<X,X}.|.{.<Xl..X#X%X7X7X1X=X+X1X$X$X$X@X#X].].].].'.",
"2X1X7X7X7X=X%X%X=X3XA.Z.=X=X`.#X[.[.[.[.[.$X=X[.%X4X4X%X|.Z.[.[.&X&X%X:X1X%X%X].e.t.&X Xl.l.:X4X4X4X1X=X'.1X1X%X%X#X|.[.].].'.'.",
"1X1X7X7X=X=X%X7X8XqXA.R.9X=X&X}.[.%X[.1X,X:X=X%X4X$X%X1X[._.%X>X@X1X:X4X:XXX,.z ,.b.+X2Xx.l.:X4X$X%X=X=XE.=X@X@X@X&X|.}.].`.`.'.",
"7X1X=X%X#X%X=X7X8X0XP.P.8X8X:X@X#X#X:X:X:X%X=X%X%X4X4X:X[.t.y.y.).[.:X4XXXu.x x p.7X:X7Xk.H.%X%X%X&X].E.E.E.1X+X#X&X].&X`.}.`.`.",
"7X1X#X}.+X#X=X7X7X8XP.P.2X8X1X#X%X#X%X%X;X$X=X=X:X7X8X[.a.g d d x a.B.:Xu.s q.).8X4X7X9XM.z.%X1X+X`.].].+X%X+X@X&X#X].#X`.].R.].",
"1X%X#X(.OX#X%X=X7X8XP.P.1X1X1X@X@X#X#X%X%X%X%X=X=X#X#XB.z s.uXrXw.o f r.o O X 9.a.XX1X1Xl.H.1X=X#X`.E.OXOX%X%X#X+X+X].].'.'.OX'.",
"%X%X#X#X#XOX#X#X:X1XL.I.2X=X=X#X&X#X#X%X:X7X2X1X=X=XB.f s.uXuXuXoXoXs.e a 6 2 =   :.XX3Xj.x.2X3X&XR.T.}.R.&X&X&X&X}.].`.'.].'.].",
"%X#X&X+X+X}.+X+X%X=XL.P.*X&X#X#XW.#X&X&X=X=X=X,X%X1Xn.d !./.tXeXuXuX).5 d.E U D [ p <.#Xx.x.2X*X{.L.H.T.R. XH.H.x.H.J.x.l.l.U.}.",
"#X#X+X#X+X#X#X&X=X&XL.P.#X+X+XR.+X,X2X=X#XD.P.P.Z.g.,.w.G.6.u.-XuXuX).$.#.T I K Q y z *Xj.c.U.Z.L.H.H.K.H.K.x.K.x.x.l.l.x.l.x.x.",
"%X#X+X].].+X#X&X%X&XM.l.L.S.C.m.Z.L.P.D.D.C.Z.A.Z.n.6.x c c i./.oXuXoXa.8.4.#.K Q y h T.x.x.M.P.H.H.K..X.X X XH.l.I.*X<X<X|.}.}.",
"=X#X+X+X}.].}.#X=X&XL.H.P.E.}.R.Z.Z.P.E.%X2X=X&X%X%XF.6.o 6.tX;XoX6XuXuX-X^.;.Y _ ` [ :.j.I.m.C.Z.L.L.M.H.H.M.M.<X&X<X<X2X].'.D.",
"#X+X+X].].&X+X&X#X&XJ.U.}.].#X&X}.#X,X&X$X%X<X&X%X%X).e.,.!.uXuXuXuXuXeXwX-Xd.| ^ ^ Q p j g g B.8X7X=X=XOXOX&X=X=X1X1X9X7X=X#X+X",
"OXOX].].}.].].].#X&XI.V.R.E.+X<XOX+X=X=X1X%X&X#X#X'.y.z !.eXuXuXuXuXwXrX(.~.~.8.| )  .Q & & y h a.:X7X%X#X#X#X%X$X7X8X8X8X:X%XOX",
"].+X].].].`.R.'.#X+XL.J.R.A.=X2X2XE.OX=X$X&X:XC.a.u.g !.uXuXuXuXeXrX/./.~.~.;X~.7.) / / ^  ...[ h a.=X=X=X1X%X#X@X8X0X0X5X4X:X@X",
"OX+X].+X}.E.E.'.%X&XZ.L.,XE.&X=X2X=XOX+X:X).F.u.u u i.rXuXuXuXuXeX-XQ.~.tXwXtX~.3.( ~ (  .o.@.) % l 7X1X1X2X=X$X$X8X0XeX8X8X4X@X",
"].].].].].].].+X+XC.Z.L.&X=X=X8X8X&X1X%X'.>.w i ] | f.-XeXuXuXuXeXeXrXwXtXtX;XQ.2.( ( )  .O.O.' % l 7X=X=X1X%X$X5X0X0XyX5X4X1X+X",
"].+X].].].+X#X%X1X#XP.Z.,X7X=X=XE.=X+X:.d p W ` ' O.5.f.-XuXuXuXuXeXtXtXtX;XN.7. .~ / ) o.O.o.) % g 7X=X%X%X%X4XuX0X6X5X4X%X1X&X",
"#X#X+X].+X&X&X=X%X1XZ.L.#X#X7XE.A.<.:.p W ` ..)  .o.X.7.f.N.(.eXeXwX-X-XN.n.7.{ ~  ./ ~ o.O.) Z # l =X=X&X%X$X:X8X8X>X:X7X7X1X&X",
"&X&X&X+X&X&X1X3X7X1XC.P.%X%X$XD.6.p % ` o.O.o...o.o.o.o.5.7.8.~.~.Q.N.N.3.| { ! ! ! ~ /  . .C N # z 1X7X=X%X%X4X5X8X$X$X8X8X=X@X",
"%X=X#X+X}.&X2X1X3X=XC.P.=X%XXXu.i ' O.X.o.O.o.X.@.@... . .( @.-.=.=.=.-._ ^ ^ ^ ^ ^ ^ ^ C Z N r :.C.:X1X1X=X:X:X4X4X5X8X5X7X7X:X",
"+X%X#X#X+X+X=X#X&XP.P.P.#XF.e.p ' O.O.X..... .(  . .^ ~ ~ _ _ ~ / / ~ ~ ! C ! ! C C C C A N # :.g.'.:X8X8X:X$X:X%X:X:X8X8X0X0X4X",
"].OXE.#X#XW.R.P.+XR.P.C.%Xb.i ] O.O.X.( ~ ! ~ ! ^ ^ ~ ! ! ! ! ! ! ! ! ! n + 1 1 + + N b b # %.b.'.#X1X8X8X8X4X:X:X$X%X4X7X0X0X0X",
"].].}.+X+X&X&X].].L.P.T.=Xb.@ ' ../ ~ / / / / / ^ ^ V B B n B v n n v v 2 : : : > 2 v N b . t.%X#X:X1X1X7X4X4X:X:X$X%X:X1X:X8X8X",
"}..X+XR.Z.M.H.L.L.k.K.}.].g.@ ' X. .~ C V N N M N M 2 - ; ; - ; - ; - * 3 S D H H K < B b . r.[.#X=X%X:X:X4X1X4X%X%X:X2X8X7X7X1X",
"M.M.Z.L.H.L.L.L.Z.L.J.*X].y.. W / C A n - - < < < , D D K S K G H H D ; - - 7 G G F , n m e r.%X#X@X%X%X%X%X%X%X%X@X1X8X8X7X1X8X",
"+X].+X*X2X2X,X2X}.C.P.2X7Xb.X F I 1 < 2 S D D S D S H H > - * ; G D ; S 8 7 6 6 J K - m   0.[.%X@X#X%X%X%X%X%X%X=X%X&X1X1X1X1X7X",
" XR.E.OX].R.+X1X1XA.P.2X7Xa.X #.} F S H S : ; 3 K J G 3 > 3 7 7 ; 8 * 8 8 K > 5 J K < + q t.[.[.=X%X:X%X:X$X%X4X1X#X:X2X1X%X%X$X",
"&X#X].)._.'.@X1X8X1XD.1X:Xa.X &.2.#.I H > > 5 6 7 7 J 5 7 J J J - 7 * 6 K G > ; J , v q 1.l.|.=X1X%X4X:X:X4X4X:X1X=X=X=X%X#X+X'.",
"%X%X;X@XOX@X%X4X:X1XC.1X5Xa.X } 2.E I 7 ; J 8 J 5 7 8 5 5 J K S - 7 6 5 ; : : 8 J , m 0 0.x.<X1X4X7X7X4X7X7X7X7X1X%X=X%X&X@XOX'.",
",X=X7X4X%X1X8X4X8X9XD.1X7Xa.e R 2.T H 5 5 8 K G - 7 8 6 5 ; > : 6 7 8 6 7 J J G D - m q 0.v.|.7X1X5X8X8X7X8X8X7X7X%X&X&X&X#XOX'.",
"1X=X1X7X=X7X8X7X:X1XT.1X1Xb.g %.T U P 7 5 7 3 3 5 7 J J 8 : : > J K K K 3 > > > > + # :.y.J.2X:X7X8X0X0X5X5X8X8X7X=X%X%X%X@X+X@X",
"=X%X%X:X4X7X4X4X8X1XC.=X@X'.b.w &.*.T K 7 5 - ; > J S S S S 3 3 J 8 S 3 4 1 + + + r 1._.k.k.2X:X7X5X0X0X5X0X8X7X8X1X=X=X=X%X#X@X",
"%X@X@X%X=X7X:X7X$X=XD.,X'.].).g %.} U I G K D K D K > < < ; < < < ; < < + $ $ # r :.B.2XV.V.[.,X4X8X8X5X5X7X7X4X:X1X8X=X1X1X=X#X",
"}.+X+X#X&X%X%X=X,X#XS.|.[.,X`.y.u = < 4 < ; ; , < < + m m B n $ $ $ m $ t s s s g n._.}.J.k.<X%X:X8X5X5X6X4X4X:X%X1X8X7X7X3X7X$X",
"}.}.#X+X+X&X=X#X=X<Xl.L.m.S.A.A.y.a q _ Q B v B B m #   w w 0 w 0 0 w w 9.%X&X,X:X,X,X,XJ.H.<X%X:X5X0X5X4X4X4X4X4X7X7X%X7X7X7X%X",
"}.}.}.&X*X}.#X&X*X&XL.S.#X1X1X7X7Xy.:.i @ @ . . . @ h 0.d.y.y.r.r.g.n.).).=X1X7X).).=X,X<XM.,X:X5X5X4X1X:X:X1X1X4X4X4X4X1X7X1X%X",
"].].}.+X+XOXOX#X}.&XL.R.#X:X7X1X9X#XB.<.,.:.<.<.<.e.d.c.[.].[.#X[.].[.[.[.:X%X4X:X4X%X=X<X,X,X:X:X8X9X1X2X7X2X:X1X8X0X9X%X%X<X[.",
"OXOX#X@X#XOXOX#X&X&XZ.&X:X1X7X2X=X7X=X#X].E.`.'._.<Xl.x.`.[.[.'.].[.[.'.%X%X@X1X%X4X3X,XH.V.,X,X<X<X[.`.J.J.J.m.m.Z. X3X<X X<X.X",
"OXOX#X#X@X@X@X#X&X*XM.+X#X:X=X=X=X=X=X&X'.].E.R._.|.v.H.P.[.].[.[._.[.[.[.%X[.=X3X:X1XC.V.Z.C.F.C.Z.P.H.M.J.J.m.m.Z.Z.S.k.V.x.l.",
"#X#X#X#X#X#X#X%X#X&Xm. X@X$X#X%X#X'.+XE.Z.E.'.E.'.[.J.l.V.[.].[.[.].}.[.].[.].]._.9X:XC.S.3X).$X:X%X[.[.[.,X,X,X1X3X7X,X,X'.Z.k.",
"#X+X&X&X=X=X=X%X*X*XM.#X#X$X#X=X&XE.E.T.T.`.E.'.'.[.{.H.V.[.`.].|.[. X|.[.=X|.[.).[.2X_.S.<XqX:X$X'.[.=X,X,X[.,X8X7X7X:X#X#X[.[.",
".X X*X*X*X*X&X*X*X}.J.&X@X+X^.{.'.A.E.T.#X#X'.'.%X[.V.J.}.,X].[.[.[.[.[.[.[.].].[.|.[.2XJ.3X7X8X=X%X[.[.=X,X=X=X3X7X7X,X=X=X,X|.",
"j.j.j.k.l.m.M.m.k.x.l. X+XOX+X+X].P.&X2X1XOX8X%X:X<XV.x. X|.|.,X$X[.|.[. X[.`.`.S.Z.V._.J.V.3X1X:X=X%X[.[.[.,X%X,X1X,X=X=X=X[.[.",
"x.j.j.z.l.M.M.M.x.x.x.}.].OXOX].`.&X&X,X&X%X9X1X8X,XU.j.V.M.Z.V.V.H.J.J.H.H.K.U.l.Z.U.L.x.`.7X7X:X=X$X'.+X#X#X%X=X%X#X#X#XOX#X#X",
"R.W.}.*X*X*X*X*X*Xj.H. X&X'.}.#X|.[._.D.D._.7X8X8X,XV.U..X`._.V.J.U.v.v.J.U.`.J.`.L.M.L.l.<X3X7X=X=X#X#X#X%X#X+X#X[.#X+XOX'.'.[.",
"R.#X}.&X&X,X&X&X Xk.j.l.*X#X#X*X,X,X&X_._.).8X2X@X3XH.H. X<X<X|. X|._.`.[.[.}. X1X,X[.].J.|.7X%X[.#X#X&X#X&X&X[.[.[.[.[.].'.].'.",
"E.+X&X=X].&X&X&X Xh.h.k.&X&X*X&X,X,X,X'.'.'.8X7X%X#XI.x.Z._.U.U.,X)._.).[.[.=X1X=X=X9X1Xk.,X#X=X[.[.#X&X#X#X#X+X].'.'.]._.].'.'.",
"OX#X#X1X#X#X#X=X}.h.h.L.}.&X#X&X'.7X].1X:X#X).:X'.,X.Xj.m.`.P._.`.Z.`.Z.).:X%X[.:X$X4X9Xk.,X).).[.[.#X#X#X#X#X[.].].].].].].'.'.",
"OX#X#XOX#XOXOX&X*Xg.j.*XA.OX&XL.D.A.T.#X1X,X3X:X0XA.U.h.l.P.`.H.`.P.{._.).[.=X%X%X4X%X1Xm.|.[.[.[.@X%X[.#X#X#X].'.]._.]._.].]._.",
"+X#X#X+X+XT.R.#X+XH.h.,X&X%X#X+XA.=X).=X1X7X'.'.:X,X Xl.U.Z.U.`.`.J.`.`._.).%X,X%X:X:X<Xl. X_.].[.[.[.[.+X+X[.'.].].].`.].].].'.",
"iXR.E.&X&XR.&X&X*X*Xl.*X=X%XE.R.#X[.#X=X=X'.1X'.1X,X<Xj.`.`.P.U.v.`.J.`.Z._.%X%X:X#X<X_. X.X X_.[.[.,X[.OX'.].].].].].`.'.[.].'."
};
