/* XPM */
static char *exit[] = {
/* columns rows colors chars-per-pixel */
"64 64 119 2 ",
"   c #3E3F3F",
".  c #444645",
"X  c #4D504F",
"o  c #515754",
"O  c #555A55",
"+  c #585D55",
"@  c #585C5B",
"#  c #615F57",
"$  c #5A6056",
"%  c #626757",
"&  c #636857",
"*  c #6B6559",
"=  c #6E6859",
"-  c #716A5A",
";  c #7C6D5C",
":  c #6E7359",
">  c #72765A",
",  c #757C5B",
"<  c #787C5B",
"1  c #606462",
"2  c #666A65",
"3  c #656C69",
"4  c #696E6C",
"5  c #6E7371",
"6  c #737977",
"7  c #757C7A",
"8  c #787F7C",
"9  c #8D765F",
"0  c #A4755E",
"q  c #A7785F",
"w  c #957A61",
"e  c #9E7F62",
"r  c #AC7D61",
"t  c #79807D",
"y  c #85835E",
"u  c #89805E",
"i  c #86895E",
"p  c #8A8E5E",
"a  c #A7855F",
"s  c #9A856F",
"d  c #949660",
"f  c #9E9462",
"g  c #979A61",
"h  c #9C9F62",
"j  c #A28163",
"k  c #AC8664",
"l  c #AB8C64",
"z  c #B28463",
"x  c #B38965",
"c  c #BA8C66",
"v  c #BC8E68",
"b  c #A19763",
"n  c #B19364",
"m  c #BA9567",
"M  c #B49D64",
"N  c #BC9867",
"B  c #BE9168",
"V  c #BD9A68",
"C  c #B8987A",
"Z  c #A2A863",
"A  c #B5A564",
"S  c #B5AF64",
"D  c #BBAE66",
"F  c #B3B466",
"G  c #BCB766",
"H  c #B6BC66",
"J  c #BCB966",
"K  c #C39467",
"L  c #C29469",
"P  c #C59A6A",
"I  c #CA9C6A",
"U  c #C3A369",
"Y  c #CFA06B",
"T  c #C1A868",
"R  c #D0A16B",
"E  c #D9AD6B",
"W  c #C2B268",
"Q  c #C8B66A",
"!  c #C5BB68",
"~  c #CBBF6A",
"^  c #DDB26C",
"/  c #C5C469",
"(  c #CBC56A",
")  c #CACB6A",
"_  c #CED16B",
"`  c #D0D16B",
"'  c #D4DB6C",
"]  c #7D8582",
"[  c #818985",
"{  c #8A938F",
"}  c #949289",
"|  c #8E9793",
" . c #919A96",
".. c #949E9A",
"X. c #98A39E",
"o. c #AFAB9F",
"O. c #9BA5A1",
"+. c #9FA9A4",
"@. c #A1AAA7",
"#. c #A3ADA9",
"$. c #A9B4AF",
"%. c #ACB5B2",
"&. c #AFB8B5",
"*. c #B0BAB6",
"=. c #B2BCB8",
"-. c #C6A780",
";. c #D9BB88",
":. c #C2BEAE",
">. c #B6C1BC",
",. c #B8C3BF",
"<. c #DEC08A",
"1. c #BAC6C1",
"2. c #BECAC5",
"3. c #C0CDC7",
"4. c #C5D2CC",
"5. c #D9D6C1",
"6. c #DFDDC7",
"7. c #D9E4DE",
"8. c #E0EBE5",
/* pixels */
"^ ^ ^ ^ ^ ^ ^ ^ ^ ^ ^ ^ ^ ^ ^ ^ ^ ^ ^ ^ ^ ^ ^ ^ ^ ^ ^ ^ ^ ^ ^ <.6.8.8.8.8.8.8.8.8.8.8.8.8.8.8.8.8.8.8.8.8.8.8.8.8.8.8.8.8.8.8.8.",
"^ ^ ^ ^ ^ ^ ^ ^ ^ ^ ^ ^ ^ ^ ^ ^ ^ ^ ^ ^ ^ ^ ^ ^ ^ ^ ^ ^ ^ ^ ^ <.6.8.8.8.8.8.8.8.8.8.8.8.8.8.8.8.8.8.8.8.8.8.8.8.8.8.8.8.8.8.8.8.",
"^ ^ ^ ^ ^ ^ ^ ^ ^ ^ ^ ^ ^ ^ ^ ^ ^ ^ ^ ^ ^ ^ ^ ^ ^ ^ ^ ^ ^ ^ ^ <.6.8.8.8.8.8.8.8.8.8.8.8.8.8.8.8.8.8.8.8.8.8.8.8.8.8.8.8.8.8.8.8.",
"^ ^ ^ ^ ^ ^ ^ ^ ^ ^ ^ ^ ^ ^ ^ ^ ^ ^ ^ ^ ^ ^ ^ ^ ^ ^ ^ ^ ^ ^ ^ <.6.8.8.8.8.8.8.8.8.8.8.8.8.8.8.8.8.8.8.8.8.8.8.8.8.8.8.8.8.8.8.8.",
"^ ^ ^ ^ ^ ^ ^ ^ ^ ^ ^ ^ ^ ^ ^ ^ ^ ^ ^ ^ ^ ^ ^ ^ ^ ^ ^ ^ ^ ^ ^ <.6.8.8.8.8.8.8.8.8.8.8.8.8.8.8.8.8.8.8.8.8.8.8.8.8.8.8.8.8.8.8.8.",
"^ ^ ^ ^ ^ ^ ^ ^ ^ ^ ^ ^ ^ ^ ^ ^ ^ ^ ^ ^ ^ ^ ^ ^ ^ ^ ^ ^ ^ ^ ^ <.6.8.8.8.8.8.8.8.8.8.8.8.8.8.8.8.8.8.8.8.8.8.8.8.8.8.8.8.8.8.8.8.",
"^ ^ ^ ^ ^ ^ ^ ^ ^ ^ ^ ^ ^ ^ ^ ^ ^ ^ ^ ^ ^ ^ ^ ^ ^ ^ ^ ^ ^ ^ ^ <.6.8.8.8.8.8.8.8.8.8.8.8.8.8.8.8.8.8.8.8.8.8.8.8.8.8.8.8.8.8.8.8.",
"E E E E E E E E E E E E E E E E E E E E E E E ^ E E E E E E E ;.5.7.7.7.7.7.7.7.7.7.7.7.7.7.7.7.7.7.7.7.7.7.7.7.7.7.7.7.7.7.7.7.",
"I I I I I I I P I I P I I P I P I I I I I P P I I P I I Y P P -.:.3.3.3.3.3.:.3.3.3.2.2.2.2.2.2.2.2.2.2.2.2.2.2.2.2.2.2.2.2.2.2.",
"c v v v v L L v B B v L L v L L v v v v x x x x x x x x l x c C #.%.%.%.&.&.&.&.%.%.%.%.%.&.%.&.&.&.&.&.&.&.&.&.&.%.&.%.&.%.%.%.",
"c v I I L I I I P P P I I I I K I L B k 9 ; ; ; ; ; ; ; ; 9 k C o.&.=.3.1.1.1.,.,.,.1.,.&.&.,.,.,.2.,.,.,.2.,.,.2.,.1.1.,.,.&.%.",
"v L I Y Y Y R R R R R R Y Y Y Y R I L j - $ $ @ o o o o o * r C o.&.3.4.4.4.4.4.4.4.4.3.&.&.3.4.4.4.4.4.4.4.4.4.4.4.4.4.4.2.=.%.",
"v L I Y R R R R R R R R Y Y R R R I L n b g g i & o o o o * j C o.&.3.4.4.4.4.4.4.4.4.2.&.&.2.4.4.4.4.4.4.4.4.4.4.4.4.4.4.2.=.%.",
"v L I Y R R R R R R R R Y Y R R R I L U ( ` ) F > o O @ + - j C o.=.3.4.4.4.4.4.4.4.4.2.=.=.3.4.4.4.4.4.4.4.4.4.4.4.4.4.4.2.&.%.",
"v L I R R R R R R R R R R R R R R I L V ~ ` _ F : & i d d f n C o.=.3.4.4.4.4.4.4.4.4.3.=.=.3.4.4.4.4.4.4.4.4.4.4.4.4.4.4.2.=.%.",
"v L I R R R R R R R R R R R R R R I L P ~ ` _ F > : F _ ) ( P C o.=.3.4.4.4.4.4.4.4.4.3.=.=.3.4.4.4.4.4.4.4.4.4.4.4.4.4.4.2.=.%.",
"v L I R R R R R R R R R R R R R R I L V W ( _ / Z Z / _ / W V C o.=.2.4.4.4.4.4.4.4.4.2.=.>.2.4.4.4.4.4.4.4.4.4.4.4.4.4.4.2.=.%.",
"c L I R R R R R R R R R R R R R R I L m A J _ ' ' ' ' _ J A N C o.>.2.4.4.4.4.4.4.4.4.2.*.=.2.4.4.4.4.4.4.4.4.4.4.4.4.4.4.3.=.%.",
"v L I R R R R R R R R R R R R R R I K N A G _ ' ` ' ' ) J A m C o.=.2.4.4.4.4.4.4.4.4.2.=.=.2.4.4.4.4.4.4.4.4.4.4.4.4.4.4.2.=.%.",
"v L I I R R R R R R R R R R R R R I K L A G / _ ` _ _ ( J D m C o.>.2.4.4.4.4.4.4.4.4.2.=.=.2.4.4.4.4.4.4.4.4.4.4.4.4.4.4.1.=.%.",
"L L I R R R R R R R R R R I K K I I L m n A / ` ` ` ` ~ A n c C o.=.2.4.4.4.4.4.4.4.4.2.=.=.2.4.4.2.&.%.%.#.%.#.$.$.%.=.2.2.=.%.",
"v L I R R R R R R R R R R I r r K P L z k l Q ` ` ) ` ! a r x C o.&.2.4.4.4.4.4.4.4.4.2.=.=.2.4.4.,.O.} { { { { { { { X.,.2.=.%.",
"v L I R R R R R R R R R R K r r I I B c z x T Q Q Q Q T x z c C o.=.2.4.4.4.4.4.4.2.=.%.%.%.%.=.2.,...[ [ ] [ ] ] ] [ ..=.2.=.%.",
"v L I R R R R R R R R R R K r r K I K c c c B N L N N B m c v C o.>.2.4.4.4.4.4.4.>.O...@.#...O.,.=...[ t 7 6 7 7 t [ ..,.2.%.%.",
"v L I Y R R R R R R R R Y I r r K I K x a 9 w w w w w w w r l C o.=.2.4.4.4.4.4.4.>...| @.@.| ..,.=. .[ t 6 6 6 6 7 [ ..=.2.=.%.",
"v v I Y R R R R R R R R Y K r r K I L j ; & # # # # # # + ; j C o.=.2.4.4.4.4.4.4.>...| @.@.| ..=.,...[ 8 6 6 7 7 7 [ ..,.2.&.%.",
"v L I R R R R R R R R R Y I c c I I L r = X + X o o X o o * j C o.=.2.4.4.4.4.4.4.>...| @.@.| ..,.>...] 4 3 5 5 3 4 ] ..,.2.=.%.",
"v L I R R R R R R R R R Y I I I R P K s & + X X o o o o o & j C o.=.2.4.4.4.4.4.4.=...| @.@.| ..,.=...6 @ X 4 4 X @ 6 ..=.2.&.%.",
"v L I Y R R R R R R R R R R R R R I B l 9 t t < t : + X + & q C o.*.3.4.4.4.4.4.4.1...| @.@.| ..>.>...6 X . @ @ . X 6 ..,.2.=.%.",
"v L I Y R R R R R R R R R R R R R I L N S F F F S h : X X = a V o.>.2.4.4.4.4.4.4.=...| @.@.| ..>.>...6 X   . .   X 6 ..=.2.=.%.",
"v L I Y R R R R R R R R R R R R R I K L ! ) ( ( ) S p , t p a N o.>.2.4.4.4.4.4.4.,...| @.@.| ..,.=...6 o . . . . o 7 ..=.2.&.%.",
"v L I Y R R R R R R R R R R R R R I L N S G G G J J H H H S M N o.*.3.4.4.4.4.4.4.=...| @.@. ...=.>...8 1 o o o o 1 8 ..,.2.=.%.",
"L L I Y R R R R R R R R R R R R R I L m A S S F F J ) ' ' ( V C o.*.2.4.4.4.4.4.4.>...| @.@.| ..>.>...t 5 3 3 3 3 5 t X.>.2.>.$.",
"c L I Y R R R R R R R R R R R R R P L m A S S A S J ) ` ` ~ P C o.=.2.4.4.4.4.4.4.>...| @.@.| ..>.>.X.[ t t t t t t ] X.>.2.&.$.",
"v L Y Y R R R R R R R R R R R R R I L m M A M Z A D ( _ ` ~ A -.o.=.2.4.4.4.4.4.4.=...| @.@.| ..>.,.+... . .X. ...|  .X.1.2.=.%.",
"c L I R R R R R R R R R R R Y Y R I L c a a a r a n ! ` ` ~ P C o.=.3.4.4.4.4.4.4.>...| @.@.| ..>.2.>.&.&.>.&.>.=.>.>.>.2.2.&.%.",
"v L I I I I I I Y I Y I I Y I Y R P K c r r r r 0 l W ( ( Q P C o.*.3.4.4.4.4.4.4.>...| @.@.|  .>.4.4.4.4.4.4.4.4.4.4.4.4.2.=.%.",
"v v L L L L K L K L L K L K L L L K v c z z r z z c P U U P N C o.>.2.4.4.4.4.4.4.>...| @.@.|  .>.4.4.4.4.4.4.4.4.4.4.4.4.2.=.%.",
"v L v L L L L L L v L v L c z c c x c c L v v L K K B B v v v C o.*.2.4.4.4.4.4.4.,.O...#.#...o.>.4.4.4.4.4.4.4.4.4.4.4.4.2.=.%.",
"v L L L I I L I L I I L r r r r r r r z K I P I P P P I I L L C o.*.3.4.4.4.4.4.4.3.>.%.%.%.&.=.2.4.4.4.4.4.4.4.4.4.4.4.4.2.=.$.",
"v L I Y Y R R R R R R K z r q q r 0 r r K Y Y R R R R R R I L C o.*.2.4.4.4.4.4.4.4.4.3.=.=.3.4.4.4.4.4.4.4.4.4.4.4.4.4.4.2.=.$.",
"c L I Y Y Y R R R R R I K K c K v c K K I Y R R R R R R R I L C o.>.2.4.4.4.4.4.4.4.4.3.=.=.2.4.4.4.4.4.4.4.4.4.4.4.4.4.4.2.=.%.",
"v L I Y R R R R R R R R I R R R Y Y Y R R R R R R R R R R Y L C o.*.2.4.4.4.4.4.4.4.4.2.=.=.3.4.4.4.4.4.4.4.4.4.4.4.4.4.4.2.=.$.",
"v L I Y R R R R R R R R I R R R Y Y R R R R R R R R R R R I L C o.>.2.4.4.4.4.4.4.4.4.2.=.=.3.4.4.4.4.4.4.4.4.4.4.4.4.4.4.2.=.%.",
"v L Y R R R R R R R R R R R R R R R R R R R R R R R R R Y I L C o.*.2.3.4.4.4.3.4.3.4.3.&.*.3.4.4.4.4.4.4.4.3.4.4.4.4.4.4.2.=.%.",
"v L I R R R R R R R R R R R R R R R R R R R R R R R R R Y I v C o.&.>.,.>.>.,.,.,.=.1.=.&.&.=.=.1.=.=.,.1.=.,.=.,.=.1.=.>.=.%.$.",
"v L I R R R R R R R R R R R R R R R R R R R R R R R R R Y I L C o.$.$.$.%.%.%.%.%.%.%.%.%.&.%.%.%.%.&.%.%.%.%.%.%.%.%.%.%.%.%.%.",
"v L I R R R R R R R R R R R R R R R R R R R R R R R R R R I L C o.&.>.,.,.,.,.,.,.,.,.,.=.1.,.,.,.,.,.1.,.,.,.,.,.,.1.1.1.=.%.%.",
"v L I Y Y Y Y R R R Y Y Y R R R R R R R R R Y R R R R R Y I L C #.=.2.4.4.4.4.4.4.4.4.4.4.4.4.4.4.4.4.4.4.4.4.4.4.4.4.4.4.2.=.%.",
"v v L L I L I L L I I L I L L I I L P L L I I L L I I L I L L C o.=.3.4.4.4.4.4.4.4.4.4.4.4.4.4.4.4.4.4.4.4.4.4.4.4.4.4.4.3.*.%.",
"v v L v L v L L L L v v v L L v v v L v L v v v v v v v v v v C o.=.2.4.4.4.4.4.4.4.4.4.4.4.4.4.4.4.4.4.4.4.4.4.4.4.4.4.4.2.*.%.",
"v L L L L L L L L L L L x z r r z r z z L L L I L L I L L L v C o.=.3.4.4.4.4.4.4.4.4.4.4.4.4.4.4.4.4.4.4.4.4.4.4.4.4.4.4.2.*.%.",
"v L I Y Y Y Y Y Y Y Y L r r 0 0 r 0 0 r L R R R R R R R Y I v C o.=.3.4.4.4.4.4.4.4.4.4.4.4.4.4.4.4.4.4.4.4.4.4.4.4.4.4.4.2.=.%.",
"v L I R R R R R R R R I v z z r c z r c I R R R R R R R R I v C o.=.3.4.4.4.4.4.4.4.4.4.4.4.4.4.4.4.4.4.4.4.4.4.4.4.4.4.4.2.&.%.",
"v L L R R R R R R R R Y Y I Y I I I I I Y Y R R R R R R R I L C o.=.3.3.4.4.4.4.4.4.4.4.4.4.4.4.4.4.4.4.4.4.4.4.4.4.4.4.4.2.=.%.",
"v L I Y R R R R R R Y Y Y R Y Y R R R R R R R R R R R R R I L -.o.=.3.4.4.4.4.4.4.4.4.4.4.4.4.4.4.4.4.4.4.4.4.4.4.4.4.4.4.2.*.%.",
"v L I R R R R R R R R R R R R R R R R R R R R R R R R R R I B C o.=.3.4.4.4.4.4.4.4.4.4.4.4.4.4.4.4.4.4.4.4.4.4.4.4.4.4.4.2.=.%.",
"v L I R R R R R R R R R R R R R R R R R R R R R R R R R R I L C o.=.3.4.4.4.4.4.4.4.4.4.4.4.4.4.4.4.4.4.4.4.4.4.4.4.4.4.4.2.=.%.",
"v L I R R R R R R R R R R R R R R R R R R R R R R R R R R I L C o.=.3.4.4.4.4.4.4.4.4.4.4.4.4.4.4.4.4.4.4.4.4.4.4.4.4.4.4.2.=.%.",
"v L I R R R R R R R R R R R R R R R R R R R R R R R R R R I L C o.&.:.3.1.3.1.1.1.2.1.2.2.2.1.2.2.1.2.1.2.2.1.1.2.1.2.1.1.,.%.%.",
"v L I Y R R R R R R R R R Y Y Y R R R R R R R R R R R R R I L C o.%.&.*.&.*.*.*.&.*.*.*.*.*.*.&.=.&.=.&.*.*.*.*.*.*.*.*.=.%.%.%.",
"e e l l l l l l l l l l x l l l l l l l l l l l l l l l k k j s }  . . . . . . . . . . . . . . . . . . . . . . . . . . . . . . .",
"* * * * = = = = = = - = * - - * = = = = = = = = = = = = - * # * 2 3 3 3 3 3 3 3 3 3 3 3 3 3 3 3 3 3 3 3 3 3 3 3 3 3 3 3 3 3 3 3 ",
"o o o o o o o o o o o o o o o o o o o o o o o o o o o o o o O o o o o o o o o o o o o o o o o o o o o o o o o o o o o o o o o o "
};
