/* XPM */
static char *floor[] = {
/* columns rows colors chars-per-pixel */
"64 64 73 1 ",
"  c #C596A0",
". c #CC96A2",
"X c #C79DA5",
"o c #CC9AA6",
"O c #CE9EA9",
"+ c #D197A5",
"@ c #D19AA7",
"# c #D39DAA",
"$ c #DA9DAC",
"% c #E19EAF",
"& c #CEA4AD",
"* c #CDA8AF",
"= c #D3A3AE",
"- c #D9A1AE",
"; c #CFACB3",
": c #D5A6B1",
"> c #DBA5B2",
", c #D4ABB3",
"< c #DAABB5",
"1 c #D7AFB8",
"2 c #DCAEB8",
"3 c #D2B1B6",
"4 c #D5B2B9",
"5 c #DCB3BB",
"6 c #D7B8BD",
"7 c #DAB9BE",
"8 c #E2A5B3",
"9 c #E1A9B6",
"0 c #E2ADB9",
"q c #E2B4BE",
"w c #E8B2BF",
"e c #DFB7C0",
"r c #D7BCC1",
"t c #DDBCC2",
"y c #E4B7C0",
"u c #ECB6C2",
"i c #E3BCC4",
"p c #EABCC6",
"a c #ECBFC8",
"s c #F1BAC7",
"d c #F3BDCA",
"f c #DDC1C5",
"g c #DEC5C9",
"h c #DFC9CB",
"j c #E2C1C7",
"k c #E5C4CA",
"l c #EBC4CC",
"z c #E5CACD",
"x c #E9C9CE",
"c c #F2C4CD",
"v c #E6CDD0",
"b c #EBCDD1",
"n c #F3C7D1",
"m c #F8C5D1",
"M c #F2CBD3",
"N c #F9CBD5",
"B c #F7CFD8",
"V c #E6D2D3",
"C c #ECD2D5",
"Z c #EDD6D8",
"A c #EDD9DA",
"S c #F1D1D6",
"D c #F3D5D9",
"F c #FAD1D9",
"G c #F2DBDD",
"H c #F8D8DD",
"J c #F6DDE0",
"K c #FDE3E7",
"L c #FFE6EA",
"P c #FDEBEC",
"I c #FFEDF2",
"U c #FFF3F3",
"Y c #FFF8F6",
/* pixels */
"YUUPJktti7FKPPJzriVIIILktae190025,2iiiee>>-8%89>--+-w02iivPUVklc",
"UUPVgkzj745j6gffiirJIvgiiiee0022,25yiiie>>9=08,=-$$>wq9,tzKUGfyq",
"UZfhSSxxj4q757fkihrhhgrkiy1e00:220qqwqei<=<<wwq5>>->9>9<ittftfyq",
"ghhhxSSxx2qq17ljaavigghiaiy<00222>200<<5qiqp+mciq<:99>>><ij66iq<",
"jjkVSSZCxj,&lpqlakxvviihkti&:@22<8><<>->piap.@lzq,<qw8>-<qtq7q2:",
"jjkzzxxVx65&lqlwnkxirvvaxkl,>Oye00<<>8<><iji.@ljiyqq>>>8-qii7525",
"llkVxzzZSzq*llpqxivVhikaxlba<:aapw5<>><<pqiq@+jijiq<>99<0qy7iiq>",
"llkzkxzCxzk,zxzkaxaahhrklzla:>nMxjii5><2jtip@@piiq4<=>9wqppy7yyq",
"jllzMxbSSxS,SSbkaaavvrlakztp::BbZvxljlqjqk7l&=wqiq5<=<pqpjjiyyty",
"ccxxcxMFSxx4Dzvjeeihxrklzikx:1abCvbxlkjjjqjqXwljpq3>=qljlkjjiiyt",
"nbxcccMFF11,DCk7rerakibbvkxb1yaMCCBnnnklqlkj=ccjpi533ykzvzkjiiit",
"==**&&&<2=&2Hzj7eirrrebMbvvi,:e;,,,>:::*>&::.ccbiiypikzzzkjjiiit",
"****=&&,<1q5Sk7kiirrrtbMbvCSb:e;,,::<<,,=-<:=+ckzklxkbxzzzjjfiit",
"MNMbxcxMxF<,bjkjaztiiibbbvvvaeibMnxMMMMnwlwm-wkbSSSxkbzzzkjjipii",
"bSCSCxzbbS1,Slpjaaiazzxavvvva;aakxbbxzzkkkcl==kVVCxxtbxvxkkppitf",
"SSCbbxvCZH,5HbljivhbxvbvbzzbaehzkxVVbzxbbkkM==bVvvxx7zzkkzkpiytt",
"SxzzkzxSAH35SSzkkzbVVVbzvCCxn;avkxxCVVVAVSVSO:kVxl7f7tbkkkiapjyi",
"CxzhkkxCCD25SCbzzkzzhhzbvCZxaezhgxbSAAVVSbCD$OxCjiiijzjklkjkyyyf",
"bxkkkkzbCD22SSbkkkzzzzxxxzbSaetvkzSDGAAVbSCSO$Mxjf7jfzzzkjjj7ftf",
"xxkkkjkkvM32MxxkklkxCCMbxbble;aihzCDAAAVkbDDO$MMay2aycxllaiiyfyi",
"zkkljkjkxx<5ckljiaxbbxxcbbbb<:xxxvCDAVVVgkDc-$MMp<<5qd,->->#==9p",
"xkjjjkklxx<2ljjijcMbj744131l52lxVAAAAVAVSDMS.8<3<----9-->###=###",
"xkjjpjllxl==,,,*:3<443,<,;3e>lMxCAAAAAAVzkbx-$:<<--sddd-=9aNNaaa",
"vkkjjjjkxx<=57jy,<4tzCbclkbk1NzbCCAAAAAVhktc-d<,,<<,====mxMMMk77",
"kkjjjjlxkx>9iiljjlMxzxbxlxzl1MxfAAAAAAVVVjjt$cxDDCbljjjbzxbDSxzj",
"fjjipjijkc0:yyjMijzxvzxljzjf<xxkCCAAGAVVSkjt uMMCVvzkzkzzSAACCzj",
"ijjijqqtkj<:53MxStjbzzx7kjjx,lxzCCAGAGAVVbklOcxkSvbbbMzzhAGACVvh",
"jjjjpt7txz<<M7kbSxfjbxxxjf7k,xxvSAVAAAAAAbx&&cMCSCSbbSbzhAGGGAbh",
"ifiijiikk;<,xbxSbcMzt7jljt6j:lxvxCVCADACCSx&:ckbvvCbxbzzAAGGVVMh",
"jjjijjkxVk2:xSxbtbxfj77p7kkc:pikkVAADAAACbMX-#lkxVCbxzzVGAAACbbz",
"llkjjkxbvb,4kkCfftfjf7555xxx:pqikVVCVMSCSMc=OOpxkxbbzzhVAAVVCSMx",
"lxkpaMMSbS,2zzzf7<5jj77qyxpp=lttkVVvzzCbbkao##ilkjMCbbzVVAhVCSxj",
"zvkkplCMSM,4zzCzkkakttkiiil:2cxttfSzxkiqllp<#OykikvbSzzvZCCZZZCv",
"lkkkkklll125kkzxvkxakttkjlp<1iw5llqjccpa55wo-.cjtjbDZbvvzvCZZAZZ",
"jttkjpq6jq2;zzCSxxMbbj7jkjp225wllllqi::<:=<+#$pjtkbZZZCvvzvbZZAA",
"ijijpllji125xMjSBxkbtbjjkxnq::&<:=:&&<:=>-<#-@clkvbSZSCvvzvvCZZZ",
"pljq:::<<&9liiixvzivzVCkfSB<&q,*&=yqqpqpcqlq--ijzxxxVCbvxxvSDZCb",
"==,:-<<,:<>cpijjiterkfxCzCB<=ljlkik4pfylclpp-:kxkkkxvvvzxkbDDbSZ",
"atlxMNnMi:2NSx7ftterzkCSZxc,,nqkkj5qqitclkl1==ixgkkvzVvxxzbbbvbC",
"jqtjitiSC31SCbC7ttee4zzbbxM>,M<5lcf554klklj==:lkvvvvzzvxxzvMbbxk",
"lzh7ttfvSb4CxVVxjty5likkxxm=<q5<llcp44pjjpq&#>lbbbVbbVVbbvxxxkjf",
"xlhkhkvCvC3bVVzxbaielklxlj=>>M5lcijpq5qqp50&>-xbCVCCCZSCbxxxxkft",
"MxVbzbZCSD5CSzkzlliikkiijl&=,Mfxl55q1515qkqj:>xMCCZZZAZSCxxxkkfi",
"SxCCvSDCVb5Mxzkzvtti7jlett**FSSxjyij645jjxtq=:MbCZAAZAZZCxxxzkkk",
"CkzCCCCCZC3xfgxxxb55ik5ekk4&Sbvvjkkki7jtzbjl=&bbCZGAAAVZSxxxxzkk",
"kkgzbbVCxb4xjkbnbi552ilpqic<xVkffjyjjkztkxkB==kbCZAAAZVZbCCMCCxk",
"jjjkzxzbvl*plli<2:#$$:>->=>-pljj5ijjjlMSk7qp=#bxVZZZVZCCbCSCCSVz",
"ajkkjlxklc=<&*<<2:$#:-$>-c>8wi1j55ipzbxbzzxM>:nxVAZZCVbVVCCCVSCx",
"appkljlxcc:,kbSSDjbnllwqcc--lkj3rriaavbSrrxbm:xbCZCvvbbCCCvvCCbv",
"pipkkpjkpl2yxVSbDzSxjqkp7j->wjileiazzvzCvCxlnnMvVZJSbnSbSbJZxxba",
"fgjlkfjkkl<jxSSxxSzkjqjj7n--qljtiiiizhkvvbSb::vbbnp2:e:=&,aBandd",
"jjgkhjhzxc&lkvxzxSxkii77qk--2kijiihiaxkvZbb*:133:11::>:==;e*::-#",
"kkkkzkkvjl&lkzkxzjj7*6q7jj<=:kjliiaitiiirBx**BrzxxzaaaabMBBbxt:&",
"jllxMxxzcc:lzhkxk7q66jf7tkq-*pwkzaxaallltbBe,nGvvtazzvnbZZbvxkki",
"sdacccllda-lkjffq477xjjfkj-<plwkiiiikkiiaxkM<FbZvzavvavvBSSbvkxa",
"ooo=o=:&&:#ljfjjp3nMSjSxbS-:ckllzvazlaye*;:e>:DCvxhiazvabbMbxkax",
"#.o##====##aijjjqllMzzSCSb2o:,::e#>>-#>e::2>=yDCbxkjjzxlzzzkkjkk",
"wupcNcaMd#-alfjaljq677SDCb>>a55::>>>>e>%0<:2@NMZzxzkkzkkkkkkjftj",
"yjjaaMcla##=xkalNxl677DCkD:>nnncnariazaMbbai:lBxjkzkzkkjikikjiit",
"7kzbylxlc .OcxlcxxMij7DSxl0><22qatretaxbbvDb&ckzkkllkllkiiiittii",
"jhzxzlkxaX.,jxjciSibxl6xgkp##525e1eerzzivvCSXlgrgkkkkkljiiiiiiti",
"jzzjkjjxc Oc2kl4446zSbDbZ5>.:1q,e2yerxxvvvvM&akkikkkkkkjijtetiit",
"jjzii7jla&.mlzkl4x6xvStfbbm@0122022eervbvbxb:dettalkkjjijiiiiiti",
"Pytkl7lkcdOcxx77xkkxxjbjbnm.yy2220<e1exxbkbydaaeaaxkjfjjjiiiiijj"
};
