/* XPM */
static char *full_wall[] = {
/* columns rows colors chars-per-pixel */
"64 64 251 2 ",
"   c #B4917B",
".  c #CD8B7B",
"X  c #C88979",
"o  c #D58C74",
"O  c #DB8C75",
"+  c #D38E7C",
"@  c #DB8C7A",
"#  c #CD927D",
"$  c #CE9B7B",
"%  c #D3937D",
"&  c #DC937C",
"*  c #D8977A",
"=  c #D4896C",
"-  c #E2967D",
";  c #E3987B",
":  c #D7A37E",
">  c #C4A27D",
",  c #B58B8C",
"<  c #BA8C8D",
"1  c #BA8888",
"2  c #BD958A",
"3  c #BA8C97",
"4  c #AC9B99",
"5  c #BA9293",
"6  c #B8989B",
"7  c #A8908D",
"8  c #B1A29C",
"9  c #AA9EAA",
"0  c #B49BA4",
"q  c #BB9CA4",
"w  c #BC9CAB",
"e  c #B89AA8",
"r  c #B199B1",
"t  c #ACA3A8",
"y  c #B2A5AC",
"u  c #BCA2AD",
"i  c #B9A7A7",
"p  c #B8B5AC",
"a  c #ACA4B3",
"s  c #ABABBA",
"d  c #B3A5B2",
"f  c #BBA5B3",
"g  c #BBADB3",
"h  c #B3ADBC",
"j  c #BDACBA",
"k  c #B8A6BA",
"l  c #ACB3BE",
"z  c #ABB4B6",
"x  c #B5B2B5",
"c  c #BBB2B4",
"v  c #B3B2BC",
"b  c #BBB3BC",
"n  c #BABBBC",
"m  c #B9BDB8",
"M  c #C88688",
"N  c #D38D82",
"B  c #CC9385",
"V  c #C5968A",
"C  c #C6998A",
"Z  c #D49383",
"A  c #D59C82",
"S  c #DB9B83",
"D  c #D69788",
"F  c #C48E9C",
"G  c #CB8C9D",
"H  c #C98895",
"J  c #D38B9D",
"K  c #D68899",
"L  c #C4929E",
"P  c #C99799",
"I  c #D2929D",
"U  c #DA949F",
"Y  c #E39982",
"T  c #CDA38B",
"R  c #DDA483",
"E  c #DDAA83",
"W  c #DCAC8B",
"Q  c #D5A688",
"!  c #DDB18B",
"~  c #CAA694",
"^  c #D8A994",
"/  c #D8B496",
"(  c #E2AA89",
")  c #E2A797",
"_  c #E3B38C",
"`  c #C78DA3",
"'  c #D58DA3",
"]  c #DC8EA2",
"[  c #C494A3",
"{  c #CD94A3",
"}  c #C49BA4",
"|  c #CB9AA3",
" . c #C39CAB",
".. c #C998A9",
"X. c #D494A4",
"o. c #DB93A4",
"O. c #D49CA5",
"+. c #DE95A9",
"@. c #D39DAA",
"#. c #DC9CAC",
"$. c #D999A6",
"%. c #C39DB3",
"&. c #DC9EB1",
"*. c #D29BB0",
"=. c #E18EA3",
"-. c #E29CAD",
";. c #E297A8",
":. c #E49EB1",
">. c #C7A7AA",
",. c #D4A3AD",
"<. c #DDA2AD",
"1. c #D8AAAB",
"2. c #DCB3A4",
"3. c #DCB2AC",
"4. c #DBBAA7",
"5. c #C2AAB3",
"6. c #C5A7B7",
"7. c #D3A4B2",
"8. c #DDA3B3",
"9. c #D9ABB7",
"0. c #C5B6B9",
"q. c #D9B5B5",
"w. c #C7BBAD",
"e. c #E3A7AB",
"r. c #E2B3AC",
"t. c #E3A3B3",
"y. c #E3AAB3",
"u. c #E3ACBA",
"i. c #E8A8B7",
"p. c #E3B3B4",
"a. c #E4B3BC",
"s. c #EBB2BD",
"d. c #E7BAB9",
"f. c #B7C6BB",
"g. c #B4C8B8",
"h. c #C8C5BC",
"j. c #D9CABB",
"k. c #D9D2BE",
"l. c #E8CBA9",
"z. c #E7C9BA",
"x. c #E8D3B9",
"c. c #F3CDB8",
"v. c #AEAEC2",
"b. c #B6ACC2",
"n. c #AEB3C2",
"m. c #A9BAC4",
"M. c #B3B3C2",
"N. c #B4BAC5",
"B. c #BBBCC3",
"V. c #B8B7C7",
"C. c #C5BBC3",
"Z. c #D9BAC3",
"A. c #E5B4C2",
"S. c #E9B9C3",
"D. c #F1B7C1",
"F. c #AEC9C5",
"G. c #ACC4CA",
"H. c #ADC9CD",
"J. c #AAC4C7",
"K. c #B3C4C4",
"L. c #BBC3C5",
"P. c #BBCCC4",
"I. c #B3C4CC",
"U. c #BBC4CB",
"Y. c #B4CCCC",
"T. c #BACBCC",
"R. c #B3C9C4",
"E. c #BCD2CC",
"W. c #ADC8D2",
"Q. c #B2C6D2",
"!. c #B8CCD5",
"~. c #B8D1D5",
"^. c #C3C5CD",
"/. c #C3CCCC",
"(. c #C7C7C5",
"). c #DDCDC5",
"_. c #DCCCC9",
"`. c #D5C4C7",
"'. c #C6D5C8",
"]. c #D3D4C4",
"[. c #DDD3C5",
"{. c #DDD3CB",
"}. c #D7D7CB",
"|. c #CDC3D2",
" X c #C4C9D2",
".X c #D9C8D4",
"XX c #C4D6D4",
"oX c #DCDAD7",
"OX c #EACDC2",
"+X c #ECC4CB",
"@X c #E3CBCC",
"#X c #EAC9CC",
"$X c #E6C7C5",
"%X c #F1C4C9",
"&X c #EBD4C5",
"*X c #EDD5CD",
"=X c #EADBCD",
"-X c #E3D5C8",
";X c #F2D4CC",
":X c #F6D7C7",
">X c #E4C8D5",
",X c #ECD4D2",
"<X c #E4DBD5",
"1X c #EBDCD5",
"2X c #EBDDDC",
"3X c #E6DBD9",
"4X c #F4DCD3",
"5X c #F5DBD7",
"6X c #F3C7D4",
"7X c #DDE6DA",
"8X c #ECE4CD",
"9X c #E9E5CE",
"0X c #F8E3CA",
"qX c #ECE4D4",
"wX c #EEE9D5",
"eX c #E5E5DB",
"rX c #ECE5DA",
"tX c #E5E9DC",
"yX c #EDEBDB",
"uX c #E5E7D5",
"iX c #F3E4D4",
"pX c #F2EAD5",
"aX c #F2E4DB",
"sX c #F3ECDD",
"dX c #FAECDC",
"fX c #FAE6D7",
"gX c #F4F1DE",
"hX c #F9F1DE",
"jX c #DCDCE1",
"kX c #E3DEE4",
"lX c #E9DEE3",
"zX c #FBDEE3",
"xX c #ECE4E1",
"cX c #EDECE2",
"vX c #E3E7E3",
"bX c #F4EEE3",
"nX c #FAEEE4",
"mX c #FBEFE9",
"MX c #F4EAE6",
"NX c #EEF2E4",
"BX c #F4F2E4",
"VX c #FAF3E5",
"CX c #FCF9E5",
"ZX c #F5F4EA",
"AX c #FBF4EA",
"SX c #F6F9EB",
"DX c #FCF9EC",
"FX c #F4F9E5",
"GX c #FBF5F1",
"HX c #FCFAF1",
"JX c #F7F7F2",
/* pixels */
"BXbXbXVXhXBXdXBXgXgXVXBXDXZXZXJXZXMXZXBXgXgXBXBXVXVXsXgX[.gXVXnXdXhXdXVXbXSXBXBXk.}.k.dXVXdXbXBXVXyXgXVXBXbXBXbXmXmXmXbXnXVXVXFX",
"bXBXBXbXnXbXBXsXgXBXVXDXVXDXJXJXGXbXbXsXhXhXVXsXbXVXgXVXwXVXVXnXhXk.hXbXbXyXBXBXgXhXhXhXdXdXVXyXsXVXhXgXVXBXBXbXnXnXbXbXZXZXBXBX",
"BXsXnXBXbXBXbXBXbXVXVXVXVXAXAXmXSXbXVXsXVXdX8XAXdXnXsXhXVXgXgXBXsX-XgXBXBXBXVXdXsXdXNXBXnXnXBXFXbXgXBXsXgXgXBXNXbXZXbXmXFXFXBXVX",
"nXVXbXgXBXBXbXbXVXVXVXVXAXnXAXAXAXnXnXsXdX[.aXVXnXnXVXsXBXBXNXsXgXdXBXBXFXbXnXnXnXsXFXgXVXVXyXNXBXBXqXVXwXCXyXVXNXBXbXVXZXNXDXBX",
"gXgXbXBXBXBXBXbXVXVXVXCXsX-X9XhXVXVXVXVXnX-XqXCXVXSXVXBXBXBXVXBXBXbXbXbXAXMXmXnXVXVXBXgXsXVXHXZXBXAXaX[.VXVXhXsXVXDXVXAXZXVXSXVX",
"gXnXBXbXBXNXbXBXbXAXAX{.p w.9XhXCXVXDXnXVXh.p FXDXBXDXAXBXbXhXBX{.ZXbXmXAXAXAXmXVXgXsX{.AXVXSXAXGXbXuX].{.wXqXDXVXCXVXVXVXZXBXZX",
"hXdXBXBXNXBXBXbXaXrXrXoXw.g.].uXVXVXBXSXeXp h.tXFXFXZXAXbXbXsXNXg.vXAXGXmXAXGXmXuXFXg.uXBXVXAXmXAXaXxXm f.tXsXrXgXBXVXBXmXAXmXAX",
"sXBXBXBXbXBXbXVXrXrXtX'.h.'.f.].wXVXSXBX7X].h.].NXVXZXAXbXAXnXNXf.E.AXmXAXAXAXrXNXg.h.'.rXAXmXAXaXaXtX/.P.P.vXrXrXtXsXsXbXAXmXAX",
"bXVXBXbXBXVXVXVXrXuX7X/.E.E.'.'.uXsXsXxXh.0.j.{.VXAXAXZXAXAXFXNXXXE.tXDXhX9XpXyXoX(.P.'.].rXVXwXwXtXvXP.Y.Y./.'.'.yXyXpXVXAXZXmX",
"nXbXZXbXVXVXhXpXuXcXXXY.~.~.E.E.].iX1XaX>.>.>.OXsXAXVXSXAXZXVXtXXXXXcXpX8X8XwXpX_.(.'.(.}.{.pX9XuX7XR.H.~.~.Y.~.(.j.wXiXVXSXGXZX",
"bXbXBXZXbXVXhX8XuX7XY.W.~.~.J.R.{.-X5X>.1.u.9.$XaXBXSXFXAXAXsXxX/.L.@X4XiX8XqX5X9.Z.Z.Z.0.[.k.7X7X'.g.G.Y.!.!.T.w.>.aXsXDXZXJXJX",
"bXBXBXbXnXVXVXiXyX}.g.J.H.H.G.f.>.d.<.p.t.i.s.%XaXsXFXFXVXnX1XcXB.n } z.fXz.*X0.7.u.S.1.1.w.f.'.g.g.Y.U.!.XXB.b 0 ~ iXsXDXZXZXJX",
"nXBXBXnXVXVXdXsX7XK.H.J.J.W.I.c >.I <.e.s.i.D.1.$XwXwXFXVXsXrXoXn g | ,.1.p.a.8.7.S.s.<.U >.(.K.F.F.E.H.~.^.6.e | 1.4XsXtXFXHXZX",
"gXhXbXBXAXVXaXuXtXg.H.W.W.W.B.u | <.y.a.D.i.8.>.@XiXpXwXqXrXeX(.b f | $.p.s.s.*.u.S.y.y.U O.L.Y.~.H.F.~.T.(.>.@.,.d.*XrXyXSXHXmX",
"hXgXVXmXZXsXrXuX7Xg.J.J.N.U.0.q ,.i.p.a.s.t.<.p.q.z.qX8XwXrX}.m 0.w @.<.a.a.u.A.S.i.s.$.$. .N.G.Q.Q.H.E.^.5.} q.q.j.*XsXAXSXSXAX",
"hXsXBXbXrXrXrXvXg.l m.W.Q.C.5.} 8.9.A.a.1.#.u.S.q.$X-X=XrX].R.L.C.w @.8.u.a.9.S.A.A.8.@.| >.T.H.Q.Q.G.T.m i $X#XaXsXVXDXGXAXAXmX",
"nXVXbXVXVXyXtX/.R.~.H.W.H.N.>.@.*.A.A.9.9.A.D.A.u.1.>.{.}.K.R.K.b w 7.t.i.S.S.d.u.t.#...u 0.T.H.G.W.G.R.m [.1XMXMXnXCXhXCXSXAXAX",
"nXbXBXVXVXVX}.'.Y.G.!.H.H.N.} #.&.a.S.a.A.A.A.t.8.| >.0.n I.H.G.C.>...8.i.S.d.a.i.8...[ C.L.T.Q.G.Y.J.g.}.k.bXaXMXAXDXBXSXDXVXVX",
"nXBXBXBXVXDXuXeXoXn Q.G.Y.C.O.o.t.s.D.a.s.s.:.:.@.w 0.L.J.H.G.I.C.j ..t.8.y.e.<.<.@...C.U.~.!.!.W.G.F.f.].[.pXsXVXAXSXDXGXGXAXmX",
"bXBXZXZXVXnXsXrXxXtXT.T.~.(...] -.e.i.y.e.<.I ` w 0.U.N.G.H.H.I.U.j [ t.-.t.<.,.| ..0.^.!.!.!.!.!.~.~.f.].k.dX0XVXAXAXGXJXJXGXJX",
"BXBXNXZXAXnXVXiX1XrXR.K.T.^.6.{ $.O.t.O.F L >.c n !.G.G.Q.Q.Q.I.I.n e +.' X.} u g C.^.U.Q.W.!.!.!.Q.Y.R.h.k.pXfXiXVXHXGXZXGXGXmX",
"BXcXZXZXAXVXCXhXsXuX'.P.K.B.0. .[ L @.,.7.C.C.U.U.G.G.I.Q.N.Q.U.K.L.6.7.7.7.5.0.C.L.U.Q.G.Q.G.Q.Q.Q.I.K.f.].k.fXpXdXVXSXmXSXZXZX",
"sXgXBXbXVXVXVXCXqXuX].(././.(.Z.`.Z.`.|.^.|.|.|.^.^./.Y.N.U. X^.^.^.L.C.(.C.B.B.^.N./. X XT./.^. X XU./.T.(.].k.pXpXyXsXVXVXVXBX",
"BXVXbXbXnXDXBXFXuXyX[.1X<XrX2X2X2XxXlXkXkXkXkXlXlX2X3X3X3X3X3X2X2X3XeX7XoXoXkXjXjXjXkXlX3XxX3XtXlXlXlXkXjXvXuX=Xx.pXsXyXdXVXVXgX",
"gXBXsXdXnXAXCXrXuXiXz.4.z.z.&X;X;X;X*X,X,X5X2X,X;X;Xz.c.x.&X&X&X;X;X*X:X,X*X1X2X2X2X2X5X4X;X-X8X*X*X*X1X,X5X:X:Xx.:X=XrX@XbXDXFX",
"CXgXVXdXdXVXyXyXqX0Xc.^ / T T T T T C ^ z.OXz.z.~ ~ T ^ Q Q ~ ^ ~ / 2.r.2.2.r.z.OX&Xz.r.2.2.4.4.4.4.4.r.3.1.^ ^ ~ ~ [.sXsXaXZXZX",
"NXsXhXdXdXnXrXrXwX0Xl.Q ! _ Q Q ! ( W Q R W ^ Q W ^ ( _ _ E E E ^ W W Q W E Q Q ^ ( ) ^ W ^ W ^ W W E ( ) ( ( ( / l.uXyXrXcXZXJX",
"rXBXhXdXdXVXAXxX[.x.x.Q ! : E E ( : ( ( ( ( _ ( ( ( ( R : : ! ! ! E E E E E ( ( R R R ( W Q : : : : : : ( ( ( ( ! 0XiXsXBXDXGXGX",
"}.sXhXhXVXVXmXqXwXqX0Xx.l.> $ T $ R R % * S A Q D D D A A A * A A Q Q A $ $ : Q * ( S A A A S Z * A A * * * * T T c.0XdXAXAXAXGX",
"bXBXVXsXsXVXVXSXAXCXiX8X:X0Xx./ C V C C C C V V V C V B B Z B B C V V V 2 C 2 2 C C C C V Z Z Z B V C 2 V V C P 6 6 fXdXAXAXmXGX",
"nXbXVXsXBXBXBXSXSXZXAXAXhXfXiXiXrXp i 5.g g c c c 5.>.| X.J X.[ f c g j g x p p c c >.>.| H K K O.5.c c c c b x c p {.yXDXZXHXGX",
"bXVXbXBXVXBXBXZXAXGXmXAXhXDXuXyXtXf.n v V.V.N.v d >.>.<.@.X.' ` f h M.l v.M.N.N.l l k q L J =.;.8.7.j v l n.m.n.l n c bXxXHXZXZX",
"BXBXVXMXMXZXmXbXSXVXVXnXAXSXBXuXqX].x n V.V.N.j } X.#.t.t.:.' { q d v l n.M.n.n.z v } G ' U :.:.-.I 7.6.x l N.N.V.b.>.q {.AXBXSX",
"NXgXbXnXnXmXbXZXAXMXSXVXBXVXSXsXqX[.p N.V.V.j 6.8.o.o.t.t.#.] ' F u B.N.n.v.n.n.l d F K o.=.:.:.;.U &.6.j s l v s j e ,XmXZXSXBX",
"gXsXVXnXnXnXbXAXmXAXSXSXBXDXAX4X-X].z v V.b...8.y.$.' #.:.:.-.' G [ V.N.n.v.n.n.h w ' ' -.&.u.8.X.+.:.*.w k z x c _._.AXBXZXSXBX",
"BXgXnXnXnXbXBXVXnXAXVXDXDXAXaXaX`.m s n.b.k ..#.e.e.$.X.:.:.+.] ' ` k v b.n.n.s d e ` ] &.&.8...$.&.&.X.3 f x z <XsXsXSXBXDXbXVX",
"gXBXbXbXBXVXhXpXpXpX8X8XwXiXz.$Xx z l h k f { ;.;.e.e.X.&.8.&.*.J G f v v.v.M.b.6.e ' o.t.t.t.X.*.t.-.O.` 6.s z sXpXwXCXHXAXZXnX",
"BXBXBXgXhXVXhX8XwXj.x.z.z.OXi p x s s s k 6.` ' e.$.t.:.&.A.&.&.' G f x n.n.M.v 6.3 ' o.e.t.#.+.&.:.$.I ..f s z yXpXwXVXHXAXAXVX",
"bXBXbXBXnXVXVXqXqXOX>.,.| 3 g v s m.m.v.v u G I ;.o.:.:.:.8.&.#.=.J f h v n.n.v w 3 X.$.t.8.:.t.:.;.U F %.k b.l xXpXwXSXGXAXnXAX",
"BXBXsXVXnXnXVXyXrXfXS.L `  .b.n.n.v.s v.v y } L I +.;.:.t.t.t.-.] J u x n.n.l v f 3 I o.i.t.:.:.+.' X.L f b.v.h '.BXrXSXJXGXZXVX",
"BXNXBXbXZXZXSXZXrX2XzX3 %.b.n.N.m.v.h M.h x c u ` ' ' +.+.&.&.;.=.' u s V.N.N.v f 3 J =.=.=.+.X.{ [  .5.b.M.v.M.x }.sXrXSXJXZXVX",
"gXBXbXZXBXSXBXSXrXaXzX6.6.k n.N.n.n.V.V.V.n B.0.*.*.` ' ' ' #.' J G f x V.V.N.h 6.[ ' ] ' J G [ %.6.6.h M.n.M.s t p (.ZXmXGXmXZX",
"nXnXaXVXDXBXDXVXaXaX{.>.g j v M.v V.h v.M.v l h b.6...e ` ` 3 3 F [ f b V.v.M.V.j w 3 F 3 } >.5.b.k v l n.l v x p p p w.AXmXnXZX",
"nXnXAXdXsXVXCXhX1XwX-Xh.`.`.`..X.X.X.X|.|.|.|.|.C.Z.Z.Z.Z.*.A.A.S.S.`.(..XC.|.C.|.`.S.S.S.Z.Z.C.0.B.B.B.n v c xXcXcXuXBXqXAXAXVX",
"VXsXVXVXVXdXVXiXqXk.$X$X$X`.@X@X>X#X>X@X>X>X.X.X>X>X@X@X+X+X%X+X+X#X#X>X>X>X>X>X@X#X%XS.%X6X#X#X@X@X_._.).@XrXbXxXFXZXbXAXZXBXBX",
"BXgXhXhXk.&Xj.&Xx.2.2.2.e.y.q.3.r.r.p.d.%X%X%X$X$Xz.1.3.r.r.p.p.p.d.d.S.6X6X6XS.$Xa.r.r.p.r.9.p.3.1.r.3.d.OXsXrXDXDXJXGXSXnXFXFX",
"BXBX=Xk.fXj.x.  B # A % % Z B % + + N D ) ) ) ) Z D % % A # N N % # . D e.d.e.^ D B + # # A # + . @ + % X c.fXsXSXZXAXGXGXAXZXFX",
"NXBXVXVXpXhXx.c.^ Y & Y ; Y ; ; ; O O @ + @ Y N & * & Y Y & Y - O ; & & Z D * % & Y ; ; * * Y Y ; ; ; ; & # z.fXCXDXGXGXGXAXVXgX",
"nXsXHXSXDXCXiX:X^ ) . + @ o O O * o O @ @ O = O = = O o & @ @ O O = O = o o o O O & & & o . @ O O o O O N Z B 5XfXdXAXHXAXDXAXSX",
"sXVXZXZXSXSXCXfXdX~ B N X . % # . # N N N . X . o o & N + N N N . Z o . # # # . & @ % . X X N . # # % . Z N V V fXfXAXBXHXSXSXbX",
"VXBXDXZXSXSXVXVXdX;X< 3 5 , 5 , 5 , 3 F < < M M X M M H < 5 , , < 1 , < , ~ , V M M M 1 , 5 5 < 5 , < < 3 < 3 3 4 @XxXZXZXZXHXVX",
"BXBXBXDXBXDXVXDXnX,Xw e w 0 0 u 0 q q 0 w [ H M M H H G  .0 t 9 0 6 6 @X*X,X#X5 M K L L 6 i 0 0 0 y w 0 q  .[ q 6 6 t rXJXDXVXZX",
"bXBXbXAXAXAXVXdX=X@X0 d 9 a s k f 6 t 6  .3 H K H K J ` r r a t t ).5XaXiX,XaX5XM K H 5 i 6 8 t k b.r b.f  .F H H < ).[.}.SXAXAX",
"bXbXbXVXnXaXfX=Xw.7 4 9 a 9 a t _.rXqX<X7 3 J K K K ' ` 0 r a t w.{.nXsXVXdXsX;XG I d.4X).).{.g b.r a s r 0 L I I P ;XiXDXHXnXmX",
"bXVXbXnXw.j.j.&XiXiXqX`.0 t t <XrXrXwX8XOXM K =.=.' ` 3 0 r a a ].wXsXwXpXhXpX4XP c.4XfXVXsXaX_.d d d t g 3XnXfX4X0XiXaXVXAXmXAX",
"BXbXnXmX,X=XfXiX4X1X1XqXt 9 c 2XrXqX8X4X4XP o.=.+.&.S.5X2X2Xh y eXgXsXCXCXVXgXqX~ 4XdXsXBXsXiX).r d y 3XrXbXrXBXsXyXaXnXaXGXZXZX",
"gXBXAX<X=XsX8XsXVXSXGXrX(.t rX2XrXZXrXiX4XP $.$.O.%X4X4XiX<X(.t eXbXSXAXAXDXVXrX).eXyXcXNXZXAXmX].8 [.rXbXbXbXnXbXbXaXMXbXDXZXZX",
"gXgXVXAXAX{.rXDXVXSXMXvXxX0 nXAXAXAXVXVXiX$XI X.+X5X9XwXqXqXaXw.rXbXAXSXVXDXAXnXbXZXSXJXDXAXmXbXwXj.qXVXAXSXGXGXAXmXxXbXbXZXFXSX",
"CXCXVXHXSXbXBXBXDXNXHXZXZXVXbXAXVXVXVXAX<X-X~ 5 OXqXwXhXVXVXbX4 1XaXZXSXSXAXAXAXZXBXbXSXSXZXnXVXwX[.CXBXVXDXZXAXAXmX{.rXSXVXDXgX",
"CXVXDXZXmXAXBXFXFXBXJXJXZXVXVXsXVXVXVXZXyXbXmXnXVXVXVXDXAXVXbX{.qXbXAXDXAXAXmXmXbXMXbXBXbXBXBXBX=X9XsXBXFXBXDXVXAXMXbXbXVXDXBXVX",
"hXVXnXVXZXMXBXBXCXBXAXZXBXwXVXhXgXgXCXbXZXBXAXAXVXVXSXZXZXZXNXmXMXVXZXFXVXBXSXVXmXZXZXBXbXBXBXBXBXVXBXBXBXBXVXhXsXgXDXCXBXVXVXnX",
"VXVXsXAXbXGXbXgXsXBXbXZXbXBXgXgXgXgXBXZXNXBXbXBXsXVXZXZXZXSXZXMXnXVXZXBXBXZXBXZXnXbXbXZXBXBXZXBXBXBXBXBXBXBXsXVXhXVXsXBXBXsXnXOX",
"bXMXAXmXBXBXNXCXgXBXZXnXZXZXNXFXNXBXVXZXmXMXBXVXBXBXVXZXcXcXVXVXbXVXBXNXZXNXNXbXZXnXNXBXZXBXVXBXbXZXbXZXZXcXVXbXBXBXNXNXBXBXnX-X",
"].ZXNXJXNXBXBXsXVXBXbXMXZXZXZXNXZXyXmXMXmXZXVXBXBXbXnXnXFXFXnXsXnXVXZXcXBXFXNXZXnXnXZXNXbXbXbXnXnXbXZXNXZXZXbXZXBXBXZXNXBXBXVXqX"
};
