/* XPM */
static char *two_walls_ud[] = {
/* columns rows colors chars-per-pixel */
"64 64 256 2 ",
"   c #CD8C7B",
".  c #CB8A77",
"X  c #D48C73",
"o  c #DB8C74",
"O  c #D38C7C",
"+  c #DB8E7B",
"@  c #CD927C",
"#  c #CE9B7B",
"$  c #DC9475",
"%  c #D3937D",
"&  c #DC927C",
"*  c #DD9A7D",
"=  c #D4987B",
"-  c #D5886E",
";  c #E2937C",
":  c #E2977A",
">  c #E08E75",
",  c #D6A57E",
"<  c #CCA07D",
"1  c #B88C89",
"2  c #BA928B",
"3  c #BB968A",
"4  c #BA8C96",
"5  c #B99596",
"6  c #AA9A9A",
"7  c #AC9DA6",
"8  c #B29DA4",
"9  c #BD9BA5",
"0  c #BC9CAB",
"q  c #B799A7",
"w  c #B697AA",
"e  c #ACA2A4",
"r  c #B6A4AD",
"t  c #BDA2AD",
"y  c #BBA8A9",
"u  c #ACADBC",
"i  c #AAABB7",
"p  c #BBA5B3",
"a  c #BCACB3",
"s  c #B3AEBB",
"d  c #BBADBA",
"f  c #B6A9B5",
"g  c #ADB2BE",
"h  c #A9B5BC",
"j  c #B5B1B5",
"k  c #BBB2B5",
"l  c #B3B2BC",
"z  c #BBB3BC",
"x  c #BCBABE",
"c  c #B7BDB7",
"v  c #BBBDAA",
"b  c #BCA39E",
"n  c #C48787",
"m  c #CD9384",
"M  c #C4968A",
"N  c #C4998B",
"B  c #C79688",
"V  c #D49283",
"C  c #DA9483",
"Z  c #D49C83",
"A  c #DB9C84",
"S  c #D79889",
"D  c #C48C9C",
"F  c #CC8B9D",
"G  c #C78799",
"H  c #D38B9D",
"J  c #DA8B9D",
"K  c #D58699",
"L  c #C4919C",
"P  c #C89798",
"I  c #D5969B",
"U  c #D18F83",
"Y  c #E59981",
"T  c #E19683",
"R  c #E1909F",
"E  c #CAA28B",
"W  c #D4A284",
"Q  c #DDA383",
"!  c #DDA984",
"~  c #DBAB8B",
"^  c #D7A78A",
"/  c #CCA796",
"(  c #DCAC91",
")  c #D8A796",
"_  c #DAB496",
"`  c #D1B394",
"'  c #E2AB8C",
"]  c #E3A985",
"[  c #E3B08D",
"{  c #E2A697",
"}  c #E7B195",
"|  c #CB8DA2",
" . c #C68EA1",
".. c #D48DA1",
"X. c #DC8DA2",
"o. c #C394A4",
"O. c #CD94A3",
"+. c #C49AA5",
"@. c #CB9BA4",
"#. c #C49CAA",
"$. c #CB9CAC",
"%. c #C995AA",
"&. c #D493A3",
"*. c #DB94A5",
"=. c #D49CA6",
"-. c #DA9AA6",
";. c #DD94A9",
":. c #D49CAB",
">. c #DC9CAC",
",. c #D596AA",
"<. c #D79CB2",
"1. c #C79EB3",
"2. c #E18DA3",
"3. c #E29CAC",
"4. c #E395A7",
"5. c #E39EB2",
"6. c #E99EB5",
"7. c #C4A4AC",
"8. c #C7A7A9",
"9. c #D3A2AB",
"0. c #DCA2AD",
"q. c #DAA9A9",
"w. c #C6B4A6",
"e. c #DCB5A8",
"r. c #C3A4B3",
"t. c #C3ABB4",
"y. c #CAA9B6",
"u. c #D3A4B3",
"i. c #DDA3B4",
"p. c #DDABB5",
"a. c #D9ACBA",
"s. c #C3B2BB",
"d. c #CBB4BC",
"f. c #C6B9BA",
"g. c #D9B4B8",
"h. c #E2A2AE",
"j. c #E2ABA8",
"k. c #E2B6AA",
"l. c #E3A3B3",
"z. c #E3ABB4",
"x. c #E3ACBA",
"c. c #E8A9BA",
"v. c #E2B3B2",
"b. c #E4B2BD",
"n. c #EBB3BD",
"m. c #E7BAB9",
"M. c #F2B6B8",
"N. c #B7C3B9",
"B. c #B6C4B6",
"V. c #C8C8BA",
"C. c #D9C8BB",
"Z. c #DBD2BC",
"A. c #D7C2A5",
"S. c #E5C7B8",
"D. c #E5D1BA",
"F. c #E8CBB5",
"G. c #AEAFC1",
"H. c #ADB3C3",
"J. c #A8B9C3",
"K. c #B3B3C2",
"L. c #B4BAC5",
"P. c #BCBBC4",
"I. c #BAB7C7",
"U. c #B5AFC1",
"Y. c #C3BDC4",
"T. c #C8B9C3",
"R. c #D8BBC4",
"E. c #C8BFD0",
"W. c #E6B6C1",
"Q. c #EAB5C2",
"!. c #EABCC3",
"~. c #E6BAC4",
"^. c #F2B8C2",
"/. c #ACC5CB",
"(. c #ADCACD",
"). c #A9C5C6",
"_. c #B3C4C5",
"`. c #BBC3C5",
"'. c #B3C5CB",
"]. c #BBC4CB",
"[. c #B2CBCC",
"{. c #BCCACB",
"}. c #B8CCC3",
"|. c #BAD1CB",
" X c #ADC9D1",
".X c #B3CCD3",
"XX c #B7CBD5",
"oX c #B7D2D5",
"OX c #AED1CF",
"+X c #C4C5CB",
"@X c #CCC3CB",
"#X c #C2CBCC",
"$X c #C8C7C6",
"%X c #D3C1CB",
"&X c #DAC9C6",
"*X c #CAD5CA",
"=X c #DCD4C3",
"-X c #D5D4CA",
";X c #D8D5C8",
":X c #C8C6D1",
">X c #DBC9D5",
",X c #DADAD5",
"<X c #C8D7D4",
"1X c #EAC3C4",
"2X c #E3CCC4",
"3X c #EBCBC4",
"4X c #E4C4CD",
"5X c #ECC4CC",
"6X c #E3CBCE",
"7X c #EACBC9",
"8X c #EED5CD",
"9X c #E7D5C9",
"0X c #F1D5CC",
"qX c #E5C9D4",
"wX c #EDD6D2",
"eX c #ECDAD4",
"rX c #E5DDDB",
"tX c #EBDDDC",
"yX c #E4D9D4",
"uX c #F8DBD6",
"iX c #F1C4CE",
"pX c #D9E3D8",
"aX c #ECEAD4",
"sX c #E4E4DC",
"dX c #ECE5DB",
"fX c #ECEBDB",
"gX c #E9E7D6",
"hX c #F3E5D5",
"jX c #F4E5DB",
"kX c #FCE2DB",
"lX c #F3ECDC",
"zX c #FAECDD",
"xX c #F3E9D6",
"cX c #EEF2DE",
"vX c #F4F2DE",
"bX c #FAF3DC",
"nX c #FBE7CF",
"mX c #DCDCE1",
"MX c #E4DDE2",
"NX c #EADEE3",
"BX c #FEDEE1",
"VX c #EDEDE2",
"CX c #E7E4E2",
"ZX c #F4EDE3",
"AX c #FAEDE4",
"SX c #F8E9E5",
"DX c #EEF2E3",
"FX c #F4F2E4",
"GX c #FAF3E5",
"HX c #FBF9E5",
"JX c #F5F4E9",
"KX c #FBF4EA",
"LX c #F6F9EA",
"PX c #FCFAEC",
"IX c #F5F9E5",
"UX c #FEF9F0",
/* pixels */
"FXFXFXGXGXhXlXFXZXGXKXSXJXDXvXaXFXJXDXcXcXbXAXAXFXFXFXlXAXGXFXFXFXFXKXSXAXKXVXJXJXDXKXFXSXAXZXJXFXFXFXFXFXFXlXHXAXZXKXZX9XC.;X=X",
"lXHXZXAXlXGXFXFXFXZXKXAXZXFXFXlXAXJXFXDXIXvXSXFXDXDXFXJXKXAXZXJXFXFXFXSXFXFXJXIXVXJXJXZXKXKXZXZXGXFXFXFXvXFXvXGXGXGXGXAXZXGXzX=X",
"bX9XD.zXFXFXFXJXJXKXKXKXFXFXKXZXKXSXvXFXvXbXGXZXIXDXvXFXAXAXFXZXFXIXFXFXJXFXKXSXFXZXDXLXZXKXFXFXFXAXAXGXvXcXFXlXZXFXAXJXFXvXbXbX",
"D.D.A.D.bXFXKXFXFXFXJXGXzXGXKXUXKXKXGXlXD.eXxXZ.FXFXDXDXZXAXKXZXFXFXFXFXVXSXAXSXGXFXcXFXUXKXIXFXSXGXzXAXHXcXFXIXFXFXJXZXFXlXvXGX",
"F.A.A.A.bXvXbXPXvXcXaXbXnXD.bXGXHXHXGXKX=X=XZ.D.lXFXJXJXFXFXJXJXFXVXKXKXFXIXAXKXAXSXLX-XGXlXIXDXDXFXGXAXAXzXJXfXFXFXFXJXPXHXvXvX",
"D.` ` A.Z.bXbXHXHXaXaX=Xw.w.xXfXFXHXKXGX=XA.w.Z.GXGXSXAXJXvXDXJX;X;XZXKXKXJXAXAXZXLXfX;XFXJXJXFXDXDXPXfX9X=XVXPXJXPXLXLXIXHXaXvX",
"V.V.v B.=XPXHXLXIXlXfXpXB.B.fXgXvXHXPXfX*XB.B.Z.lXGXAXAXGXFXZXDXB.c 9XGXPXJXJXJXIXJXB.-XKXJXKXKXLXLXDXB.c -XZXSXZXLXLXfXdXlXxXfX",
"*X$X{.N.;XaXLXLXKXZXsXpX}.|.pXVXaXxXJXZ.V.V.V.=X=XbXUXKXGXGXFXDX|.N.;XGXHXGXPXJXDXV.V.*XfXGXKXPXPXLXVX}.}.#X-XSXCXdXjXjXjXjXdXZX",
"&X@X`.|.-XvXgXIXfXsXpX|.oXoX*XcXfXfXaX;Xf.f.C.Z.Z.HXLXLXJXJXZXJX<X}.;XvXbXHXHXKX$XV.#X*XdXZXFXKXKXfX*XOX|.[.{.sXCXlX2XkXuXg.tXZX",
"9.7.k `.$XpXaXaXxXVXpX|.oX[.|.N.gXhX9X2X/ 8.w.2X9XxXLXLXUXZXZXJX|.<X-XfXaXaXaXjX&X$X$XV.;XjXVXKXZX*XB.OXOXOX|.{.-X&X/ q.0.8.s.rX",
"p.+.#.s.`.*XaXxXxXdXN.[.[..X[.}.ZXjX3X8.=.z.q.3XnXaXIXLXJXJXSXJX#X+Xy S.xXaXdX6Xg.a.4Xd.f.;XsXDXsX*XN.).OXOXoX#Xf./ 9.0.=.9.y.%X",
"q.I L y.$X#X-X=XZ.;X_.).(.(.'.+Xy S.p.v.x.c.n.1X8XlXIXLXJXJXFXJXx x 5 9.2XD.eXg.u.x.n.g.8.f.$X*XN._._.OXoXoX`.j 5 8.q.>.n.p.q f.",
"j.0.&.o.z #X*X*X*XB.).(. X XI.d +.=.=.z.x.b.n.q.9XxXaXbXJXFXFX,Xx r @.I v.q.n.u.p.b.n.0.>.+.P._.'.).[.[..X].T.#.$.0.x.n.v.W.#.d.",
"M.z.-.#.p Y.$XN.B.}.(. X).(.Y.p :.-.n.z.n.n.9.8.2XxXlXxXHXFXJXc f.a 9.-.z.^.Q.<.a.W.z.j.*.8.P..XoX(.(.OX#XT.#.%.0.n.n.n.W.g.#.d.",
"!.z.>.<.#.T.`._.(.).J.). X_.s.+.9.n.p.W.n.0.9.b.g.jXgXxXZ.FX*X$Xf.9 $.3.x.Q.x.a.W.b.p.=.&.+.].(. X X(.{.@Xs.7.b.x.W.n.c.^.0.7.d.",
"!.R.i.,.o.g.`._./.).).(.).].7.O.0.x.W.b.p.0.n.W.g.&X9XZ.=X;XN.N.x 9 :.>.n.b.x.Q.W.x.e.9.@.y.]./.XX X(.{.d.#.u.x.b.Q.c.n.c.p.8.f.",
"!.W.c.-.@.y.`.'.XXXX.X X).[.@.-.0.b.b.a.p.b.!.b.a.u.w.&X-X_._._.z 0 :.l.n.W.W.W.z.z.:.@.y f.{.(.L..XJ.].y.$.a.W.n.n.i.n.Q.a.y f.",
"~.Q.c.3.:.t.`.'.'.XX X X)._.+.*.0.x.n.b.b.W.x.z.p.+.t.f.x './._.Y.7.%.i.c.Q.m.v.z.h.%.+.s.`.XXXX'.'./.].s.$.x.Q.n.l.x.W.l.9.a Y.",
"!.p.>.=.@.t.`._.J./.(. X(.`.@.4.l.n.!.b.c.Q.l.l.:.9 f.P._.[./.XXY.t.$.l.h.l.z.0.3.:.%.T.].XXXXXX X(.(.].s.y.g.W.n.p.b.W.W.$.s.Y.",
"a.9.9.9.7.t.N.'..X.X(. XOX#X$.*.i.l.x.p.x.i.O.o.#.d.P._./.(. XL.].d +.l.3.l.0.=.O.#.T.+XXXXXXXXXoX.XoX'.I.T.R.R.a.p.!.Q.<.#.P.].",
"g.5 +.9 r.Y.{.oXXX(.(.(..X+Xy.&.=.:.l.:. . .#.s.x {._.).(.'..X(.].x 9 ,.X.,.+.y a T.+X{.XX XXXoX X X.X'._.`.f.d.W.W.Q.x.1.r.]. X",
"&Xy.d.s.s.+X_..XXX].].'._.P.d.$.+.L :.9.u.T.E.Y.`._.).'.'./.'.'./.`.y.u.u.u.y.f.Y.]._.XX/.'.J. X[..X(.'._.].Y.d.y.R.u.8.y.T.L.'.",
"&X@XE.@X:X:X:X:X+X+X+X+X{.{.@X@X%XR.%X%X@X@X%X@X@X+X#X}.g {.#X+X#X$X].Y.$XY.P.`.:XL.:X+X:X{.#X{.].#X{.#X#X:X$X@XE.$X%X%XE.:X:X:X",
"6XtXrXNXNXmXmXCXNXtXtXtXsXsXsXrXtXdXMXsXMXrXMXNXNXNXrX,XyXsXrXtXtXrXCX,X,XmX,XmXmXmXMXMXCXdXyXsXrXCXMXMXCXtXtXtXrXrXrXrXCXMXNXNX",
"3X3X3X0XwXwXeX8X8XS.e.k.S.3X9X0X0X0XwXwXeXeXeX8X8X8X3X3X3X3X3XD.8X0X8XeXeXwXeXtXrXtXeXuXwX8X0XhX8X8X8X8XwXwX0X8X0X8XeXeXeXdXwXwX",
"_ q._ q.e.m.S./ E # Z ^ ^ ^ E E E E N ) S.3X3XC./ / ) ) ) ^ ) ` / ) _ e.j._ v.S.0X3XS.k.e.e.A.e.k.k.k.k.e.e.) ) E / _ A.F.D.e.e.",
"} { { ' ^ W W < , , , ] ] ! ! ! ! [ ~ ^ ^ ( ` ^ ^ ~ ~ ' ' ' ~ ~ ( ~ ~ ^ ! ~ ^ ^ ( ( ( ) ~ ~ ` ~ ~ ' ' ' ( ( ( ( _ ~ ~ ^ ! ( ( ( ",
"' ^ Q A A Q Q ~ ] , , ] ] ] ] ] ! ] ] Q ! ' ' ~ ~ ~ ] Q Q ] ] [ [ ! ! ! ! ! ] ] Q A ] ' ' W = W < * Q ! ! ~ ~ ~ [ ! [ ~ [ } ' ~ ",
"{ S Z S Z Z T S , ] W < = Z V C = * A C C Z Z Q ^ W # # = = Z = Z W A # # # < W , A Q A Z W Z = = Z A Z W Z Z S W Q Z Z Q A A Z ",
"8.N N P P m m U V V B 3 3 3 P M N N M M B N M N 3 M B m m Z m B N N N N 3 E N 3 B B N B M V V V m N M N 3 3 N N M N N N M B B B ",
"f.x y y 7.8.&.I =.:.7.a k j z j j j j z s.z k a t.8.8.=.I H H P t.z z a a k a v k a t.8.I D K J :.7.a k z k k a a j y j t.7.y.8.",
"].h g x t 9 F O.,.<.t.d h h g h h h H.H.K.L.L.z r 7.9.u.:.&.&. .p s l g H.K.H.L.h l f 9 L H 2.;.i.y.t.s l l K.K.h L.x a f 0 r.y.",
"+XP.s f  .H I 4.>.p.1.w s u l u G.H.K.L.K.L.U.r.#.O.0.l.l.>...,.9 r l h K.K.H.L.h j +.G ..X.6.6.3.O.<.y.d g K.x l x 1.%.:.O.%.0.",
"Y.x z 1. .X.*.3.3.>.%.1.p U.d s G.H.H.H.P.I.s.T.l.-.-.l.l.>.*.| D p L.L.K.G.H.H.J.r D K *.;.5.5.*.*.<.u.a s K.l h r o.,.3.*.&.>.",
"P.s d w | X.3.3.3.&.5.6.<.p d G.H.H.J.H.K.r.%.<.l.>.F 0.l.i.4.&.G %.U.I.H.H.H.G.l 0 | X.3.>.x.i.&.,.>.<.+.f u h h 7 o.&.3.4.H -.",
"I.s 0 w %.;.l.>.*.>.6.6.<.%.p K.H.J.J.H.U.r.%.6.6.l.&.&.i.l.>.&...o.f K.G.H.H.u p q | X.>.i.i.$.=.0.3.&.4 p s G.g 7 o.*.3.3.-.&.",
"x d 9 D ;.-.i.=.H h.4.h.4.%.0 d G.G.H.i f 1. .>.>.l.h.I >.z.>.;.J D t l G.G.K.U.y.w ..*.l.l.l.&.:.l.3.*.L r.s u G.w | 2.4.h.l.,.",
"z t. .G >.3.h.>.h.h.-.h.;.| 1.d i u h i f 1.| &.>.>.h.0.0.l.3.3.J F p l G.G.H.d r.4 ..;.h.h.3.;.i.0.4...o.t.d G.K.w | X.4.4.c.i.",
"T.p | K *.3.l.l.5.>.3.-... .a s g H.g g d p | J 3.>.l.l.<.l.5.4.X.F 0 l l H.H.l t 4 O.-.l.l.l.l.3.;.*.F +.a s H.H.s o.J X.4.3.i.",
"Y.1.K 2.J 3.l.l.5.-.&.&.G $.d l g i i g s r 9 | &.*.*.3.l.l.l.6.2...t l K.K.h l p 4 &.*.h.c.l.3.:.&.&.L a f s K.H.U.r.G ..4.&.>.",
"I.y.F J 4.*.3.;.X...G o.#.p U.L.L.g l K.l l j t | ..X.2.>.3.6.>.2.| t l K.L.L.l p D H 2.2.*.;.&.| o.0 p l K.K.U.H.l d a L L &.*.",
"P.p D F H H O.| F | %.#.t.z K.K.u g K.I.K.P.P.x y.O.F | ..&.<...H F t l I.I.L.l r.o.F *.J F F o.$.r.d d l G.G.G.u u g l y 9 O.O.",
"$Xz r.+. . .G | 1.r.t.d d s s U.U.K.s s l l g j d t.7.o. .4  . .D L a z T.G.K.U.t.t D D D o.7.t.d s G.G.K.K.K.K.U.K.U.s f s.r.q ",
">XR.R.R.W.Q.Q.~.R.&X%XR.R.%X>XqXqXqX>X:X:X:X@X+X+X%XT.d.a.u.a.~.W.~.%X%XE.E.:XE.%X%X~.W.W.&XR.d.s.P.Y.I.I.U.K.E.E.@X>XR.@XE.R.R.",
"qXqX4XqXqXiXiX5X6X>X6X5X4X4X4X4X4X6X4XqXqXqX>X>XqXqX4X4XiXiXqX7X7X5X4XqXqXqXqXqX6XqXiXiXiX5X7XqX6X6X6XqXqX>X>X>XqXqX4X4X6X6X5X5X",
"!.S.!.1X!.n.m.g.e.e.v.z.p.g.v.k.z.z.m.!.5X5X5X1X1X!.p.e.g.e.k.e.m.m.m.!.iXiX5X5X!.m.j.k.k.v.p.v.g.q.q.v.g.m.1X3X1XS.m.m.v.m.m.^.",
"{ S ) q.{ ) C . @ @ % V @ # = X = . m Z I { { { V S V V = % @ = = @ . S z.M.j.) ^ V O % @ @ m O @ % = X - O S { ) V @ Z S C S j.",
"} A A V X * > > $ : : Y Y * : $ : $ X $ $ C T C C * ; Y : $ : $ X : $ ; S S O % % C : : $ * Y Y : * : $ > > o T + A * * Y > T T ",
"{ O * T ; ; o > o $ o o - X X $ $ X $ & X X o X o - > > $ $ X - X - - + X X O & + + ; ; o - > o ; o o - o ; & & & + X X $ o + + ",
"{ U   O O O + O O O   . U   % . . . & . O   . O O O O O @ @ @ @ @ U   . U   O V C O O . O .       % @ % O C .     O V m   U V U ",
"$.4 4 2 1 n U n n D 4 1 2 1 2 2 1 B 2 1 2 4 2 1 1 . n n 2 1 1 2 5 1 1 4 1 4 4 1 n G 1 4 4 5 6 4 2 1 / S.F.2 M 3 2 M 1 1 2 2 1 1 ",
"u.9 9 +.D G K G G G o.t r e 8.1X3X3X2X9 9 #.4 4 1 M.uXuX1X&X6 r 7 7 w q 7.9 5 4 G 4 o.9 0 7 r 7 f.D.=XzXjXkX5 5 5 5 8.2X2Xw.y b ",
"R. .L F H I J H K G 0 w 7 e jXkXhXjXSXBXL 4 4 L uXuXkXhXjXS.6X7 p w r 7 8 6 5 4 4 G D o.0 w p 7 9XxXxXaXlXkX5 3 5 S.8XeXhXxXhX2X",
"1. .F H K R 4.2.K G 9 7 e fXZXjXaXIXGXuX5 4 L uXkXAXGXJXKXZXSXSX>X:X%X7 6 ;XkXuXuXiXP &.+.p f SXjXlXlXvXzXzXe.5 3XkXjXxXaXfXlXZ.",
",.| -.4.J J R *.;.G 4 7 &XVXjXfXPXIXKXGX2X5 5 kXkXKXPXIXKXGXxXlXtX-X-Xk yXlXxXhXkXkXBX@.@.+.e CXVXJXPXKXPXGX2X7XkXkXjXjXlXDXaX;X",
"| G F *.J J -.I G | 4 6XSXlXdXPXIXPXGXGXeXAXeXKXjXJXLXLXKXJXfXKXUXKX,X;XdXxXHXHXHXkXuXP D +.qXVXdXPXJXPXPXFX2X2XSXjXKXPXJXLXKXGX",
"S.3XP I I L 7X7Xa.G 1 jXhXlXJXHXJXPXFXFXvXFXFXFXKXKXJXPXJXJXLXLXUXLXJXfXdXKXKXPXLXjXkXL I o.5XSXKXKXKXKXFXGXf.C.jXGXPXKXKXHXGXbX",
"=XhXkX!./ 8XjXjXkXm.S.0XjXbXGXHXFXFXKXSXFXIXFXDXSXFXKXFXDXJXJXLXJXJXIXsXPXPXKXKXUXeXSXL I @.uXjXKXKXGXGXlXbX=X=XGXHXlXzXGXGXGXGX",
"xXkXhXC.tXwXKXUXSXuXS.2XxXGXGXIXFXZXKXSXZXSXVXFXIXFXFXvXDXJXKXSXGXlXlX9XGXGXGXPXKXUXKXKXgX=X&XKXKXGXFXFXFXIXFXvXFXcXvXGXGXzXSXFX",
"xXzXjXSXKXKXJXGXAXGXzXZ.zXJXSXGXSXKXAXSXAXJXJXKXGXZXFXFXJXFXKXSXFXlXGXzXGXGXJXGXFXKXGXFXvXFXzXbXFXSXZXZXFXZXFXDXFXFXFXFXFXJXKXFX",
"GXzXKXKXZXZXFXLXHXGXAX=XGXKXFXFXFXJXZXFXJXJXJXZXZXFXGXFXFXZXJXJXFXvXZXGXlXGXFXFXJXGXFXIXcXDXGXSXHXGXJXFXFXFXFXFXFXFXFXDXFXKXfX9X",
"FXPXAXAXHXFXVXDXFXIXGXZXZXDXFXJXFXFXJXJXZXFXKXFXJXGXZXZXKXFXZXJXDXFXGXIXGXGXDXZXSXGXFXfXIXFXSXFXZXZXFXZXFXFXvXFXGXFXDXDXFXFXJXZX",
"FXfXKXZXFXFXFXIXFXfXKXSXKXKXJXZXFXFXIXcXlXGXzXbXlXSXGXAXGXGXFXcXFXFXKXSXJXFXFXFXJXDXZXJXFXFXZXKXAXKXFXFXFXSXGXAXAXAXJXJXJXZXZXKX",
"JXDXKXFXFXlXHXFXDXDXZXAXdXZXSXVXIXDXcX9XvXzXZ.2X;XlXKXGXlXvXvXFXFXJXSXJXSXZXFXFXFXFXJXFXFXFXJXSXFXFXDXIXZXAXKXAXAXAXZXJXJXAXFXSX"
};
