/* XPM */
static char *walls_nodown[] = {
/* columns rows colors chars-per-pixel */
"64 64 251 2 ",
"   c #B98B7C",
".  c #CD8D7B",
"X  c #C98B79",
"o  c #D28D7C",
"O  c #D68979",
"+  c #CC917C",
"@  c #C7927D",
"#  c #D4937D",
"$  c #D8957E",
"%  c #B67F92",
"&  c #C87E82",
"*  c #BC8D8C",
"=  c #B88B88",
"-  c #BD938C",
";  c #BC9B8E",
":  c #B89789",
">  c #B98B98",
",  c #A99898",
"<  c #B9989A",
"1  c #AA8F8D",
"2  c #BBA199",
"3  c #B2A497",
"4  c #AD9CA8",
"5  c #BD94A3",
"6  c #B49BA5",
"7  c #BD9CA5",
"8  c #B59DAB",
"9  c #BB9AA9",
"0  c #BE8FA3",
"q  c #ACA4A8",
"w  c #B4A3AC",
"e  c #BCA2AC",
"r  c #BAA7A7",
"t  c #B7B6AC",
"y  c #ACADBB",
"u  c #ABAEB3",
"i  c #BBA5B3",
"p  c #B4ACB6",
"a  c #BBACB4",
"s  c #B3ADBB",
"d  c #BBADBA",
"f  c #B6A5B3",
"g  c #ADB2BD",
"h  c #ABBBBB",
"j  c #B3B2BD",
"k  c #BBB3BC",
"l  c #B8B7B5",
"z  c #C68C81",
"x  c #C88A87",
"c  c #D48E83",
"v  c #CC9384",
"b  c #CC938A",
"n  c #C39A8D",
"m  c #CC9D8A",
"M  c #C59786",
"N  c #D49382",
"B  c #DA9483",
"V  c #D49B85",
"C  c #DB9B83",
"Z  c #D29C8B",
"A  c #D4958A",
"S  c #C38C9A",
"D  c #CA8D9C",
"F  c #C98B93",
"G  c #D38B9D",
"H  c #C4929D",
"J  c #CB949D",
"K  c #C4999A",
"L  c #D2959A",
"P  c #CEA28C",
"I  c #C6A289",
"U  c #D3A38B",
"Y  c #DAA68C",
"T  c #DCAB8D",
"R  c #D8A686",
"E  c #CCA896",
"W  c #D3A592",
"Q  c #D4AB94",
"!  c #DBAC92",
"~  c #D8A797",
"^  c #D9B198",
"/  c #D9B090",
"(  c #E2AB8E",
")  c #E2A895",
"_  c #E1B092",
"`  c #C88EA2",
"'  c #C493A2",
"]  c #CC94A4",
"[  c #C29BA4",
"{  c #CC9CA5",
"}  c #C39CAA",
"|  c #CC9DAA",
" . c #C596A9",
".. c #D494A4",
"X. c #DB94A5",
"o. c #D49BAB",
"O. c #DB9CAB",
"+. c #D797A8",
"@. c #DA9DB2",
"#. c #CD96AA",
"$. c #E39DAC",
"%. c #E59AA8",
"&. c #E29EB3",
"*. c #C3A4A5",
"=. c #C3A3AD",
"-. c #CBA1AC",
";. c #C3ABAC",
":. c #CCA8A8",
">. c #D3A3AC",
",. c #D8A7AB",
"<. c #C4B4AC",
"1. c #DBB6A6",
"2. c #C3A5B3",
"3. c #CBA4B3",
"4. c #C3ABB4",
"5. c #C3ACB9",
"6. c #CBABB4",
"7. c #D4A4B2",
"8. c #DBA4B2",
"9. c #DCABB4",
"0. c #D7ABB7",
"q. c #C3B3BC",
"w. c #C7B7B9",
"e. c #DCB2B3",
"r. c #D4B2BC",
"t. c #DDB3BB",
"y. c #D5B7B6",
"u. c #E4A4AB",
"i. c #E2B4A9",
"p. c #E2A3B3",
"a. c #E2ABB5",
"s. c #E4ACBB",
"d. c #E7A8B9",
"f. c #E4B3BD",
"g. c #EBB3BD",
"h. c #E6BCBD",
"j. c #E6B9B5",
"k. c #F1B5BF",
"l. c #E09983",
"z. c #BBC3BB",
"x. c #C9C5BB",
"c. c #DAC7BB",
"v. c #D9D3BB",
"b. c #E8C7B9",
"n. c #E5D3BA",
"m. c #ECCCB4",
"M. c #BAAFC1",
"N. c #ADB2C1",
"B. c #AABFC0",
"V. c #B4B3C2",
"C. c #BAB4C2",
"Z. c #BBBCC3",
"A. c #B7BDC4",
"S. c #C4B5C2",
"D. c #C3BCC4",
"F. c #CABBC4",
"G. c #C9BAC9",
"H. c #D5BDC3",
"J. c #D9BAC6",
"K. c #E6AFC0",
"L. c #EBB4C2",
"P. c #E5BAC3",
"I. c #ECBCC4",
"U. c #E5B5C1",
"Y. c #F1B5C2",
"T. c #ACC3C5",
"R. c #ACC8C9",
"E. c #B3C4C5",
"W. c #BBC2C5",
"Q. c #B3C6CA",
"!. c #BBC5CA",
"~. c #B4CACB",
"^. c #BCCBCC",
"/. c #BCCAC5",
"(. c #BACDD1",
"). c #BCD1D2",
"_. c #BBD1CF",
"`. c #C3C2C5",
"'. c #CBC3CC",
"]. c #C3CBCC",
"[. c #C7C8C6",
"{. c #D4C2C4",
"}. c #DACCC5",
"|. c #D6C7CA",
" X c #C8D3CB",
".X c #DBD3C5",
"XX c #DCD3CC",
"oX c #D6D5C9",
"OX c #C7CAD1",
"+X c #D8C9D2",
"@X c #C9D5D2",
"#X c #D9DAD6",
"$X c #EBC3C4",
"%X c #E5CCC3",
"&X c #EBCCC2",
"*X c #E3CBCC",
"=X c #EBCACD",
"-X c #E8C6CA",
";X c #F2C6C7",
":X c #ECD5CC",
">X c #E4DCCC",
",X c #E7D5C8",
"<X c #F3D7CA",
"1X c #E4CAD4",
"2X c #E9C8D3",
"3X c #ECDCD3",
"4X c #E4DCDC",
"5X c #ECDCDC",
"6X c #E7D8D3",
"7X c #F3DDD5",
"8X c #F6DBD7",
"9X c #DBE3DB",
"0X c #EAE3CD",
"qX c #F5E2CC",
"wX c #E4E3D5",
"eX c #ECE3D5",
"rX c #E5E4DC",
"tX c #ECE5DB",
"yX c #ECEBDD",
"uX c #E9E9D9",
"iX c #F3E4D5",
"pX c #F3EBD5",
"aX c #F2E4DA",
"sX c #FAE3DC",
"dX c #F3ECDD",
"fX c #FAEBDE",
"gX c #FBE4D5",
"hX c #F4F1DE",
"jX c #F9F2DE",
"kX c #EFF1DB",
"lX c #F4DEE2",
"zX c #DFE7E3",
"xX c #E5E3E2",
"cX c #EBE5E3",
"vX c #EDEDE2",
"bX c #E5ECE4",
"nX c #F5EDE3",
"mX c #FAEDE3",
"MX c #F5EEE9",
"NX c #FAEEE9",
"BX c #F7E6E3",
"VX c #EFF1E4",
"CX c #F5F2E3",
"ZX c #FAF3E5",
"AX c #FCF9E5",
"SX c #F5F3E9",
"DX c #FCF4EA",
"FX c #FDF9EB",
"GX c #F7F9E9",
"HX c #FEF9F2",
"JX c #FDF6F3",
/* pixels */
"v.jXhXCXDXJXnXnXnXfXmXNXfXZXdXZXfXNXmXmXZXCXmXCXnXnXCXCXnXCXfXjXdXhXpX.XdXnXNXBXBXSXCXjXZXCXMXMXyXZXCXdXZXZXBXNXmXmXmXCXCXhXhXjX",
"jXpXjXGXSXJXSXnXmXZXmXmXBXZXhXhXmXDXdXdXCXdXCXCXSXSXCXnXCXCXfXhXjXhXdXpXZXBXMXDXDXyXdXhXZXnXBXSXSXCXCXCXdXZXCXSXmXmXnXnXnXjXhXhX",
"dXZXnXnXHXJXDXZXdXnXmXmXJXSXCXSXnX>XyXhXCXCXCXCXnXBXvXSXnXhXnXZXhXdXZXjXnXnXDXnXCXCXGXkXpXAXCXnXCXhXhXhXhXCXCXCXnXCXCXMXCXhXhXhX",
"ZXSXSXMXJXHXZX>XAXfXDXSXHXJXDXFXFX.XhXGXyXZXZXBXmXnXSXnXCXnXCXnXCXCXhXZXnXCXSXnXCXCXhXjXAXCXnXCXdXZXjXdXCXCXVXCXnXCXnXCXCXCXhXhX",
"nXNXMXJXcXDXAX>Xn.x.BXDXSXJXJXCXdXdXv.CXhXFXZXZXZXmXBXCXSXCXnXnXmXZXhXZXZXCXCXCXnXCXhXAXAXCXDXCXiXAXZXhXpXhXhXCXhXCXCXCXCXnXCXZX",
"MXMXJXMXBXDX,XpX0Xx.yXZXJXDXSXDXiXn..XdXGXCXFXmXmXZXZXZXCXnXMXMXnXSXZXjXjXhXCXCXAXZXjXAXCXFXHXtXiXaXZXZXCXCXCXhXhXhXnXdXnXZXmXnX",
"SXCXnXnXDXZX0X0XpXv.dXFXAXDXDXgXm.<Xv.AXAXCXZXAXZXZXAXAXSXnXNXNXNXMXZXZXjXpXdXAXDXNXFXDXyXtX4XrXtXyXdXSXAXGXSXZXCXhXfXZXmXnXnXmX",
"CXCXSXZXZXZXAX0X0X.X6XfXDXAXgX<Xm.: m.iXdXAXDXDXdXuXeXeXCXDXSXNXJXDXAX0XpX0XiXeXDXDXDXwXtXbX[.[.cXcXtXrXyXwXuXGXmXZXmXmXmXmXnXnX",
"VXCXnXZXmXZXZXZX0XiX<.6XmX8XgX^ ! M m.8XiXeXtXtXeXeXiXiXdXDXDXDXMXFXnXeXn.pXqXiXeXnXrXcXzX@X~.Q.E.zXzX9XbXzX9XuXeXeXmXmXfXmXnXmX",
"hXhXCXmXDXNXDXDXtX3X, *X:X<XQ ^ U @ ^ &XsXaXaXaXiX,Xv.iXAXDXmXSXJXCXAXqXn.qXqXqXaXtXxXzXzXz._.).h z././.@XzXuXbXyXeXAXZXFXAXnXCX",
"VXGXMXSXDXHXNXDX4XcX4 6 < * z M B V 1.&X:X}.5XBXy.*.,X7XZXAXGXCXCXAXqXqXn.n.n.n.}.oX@X/.~.z._.~.h T.R.R.T.~.9X9XwXyXSXAXGXGXSXVX",
"CXVXnXDXDXNXtXcXcX+X4 9 [ = M + C . 1.$Xy.4.6., < <.n.7XZXZXGXCXZXAXqXn.E Q ; y.6X[.z./.~.R.T.Q.R.z.R.B.z._.z._.@X>X.XFXAXVXGXVX",
"VXGXnXSXBXJXcX[.4 q 4 e 7 * z o C Z i.b.H.a a =.< r %X7XZXZXZXFXAXZXqXm./ E ^ c.3X{./.].].E.!.W.B.!.Q.T.R._._.@Xz.z.t dXGXGXGXCX",
"CXCXnXnXmXDX, q u 4 4 8 7 = z o B v 1.h.|.5.d 5.e 1 :XiXZXDXCXCXZXgXqXI R / Q <X8X[.w.`.OXw.F.S.W.W.!.Q.R.R._._.x.z.t .XhXAXFXGX",
"SXnXSXNXZXnXnXrXu q q i < K z o C V j.-X+Xd M.M.5.;.r c.iXZXFXSXiXpXm.I / R I m.:X{.w.a w =.5 3.5.l V.W.~.z._.@Xz. XwXwXDXDXDXmX",
"CXZXSXfXZXDXGXrXxX#Xw r [ = A A B v ,.2X+XM.Z.C.a a a XXdX3XdXeXaX<X^ P R / P <X8X{.e [ [ -.{ | 9 w w k z.z._.@X@XkXCXAXDXDXDXDX",
"vXCXmXAXZXmXDXuXtXtXXXr < - v c B A e.=X+Xd M.V.s s u t |.XXtXaX0XgX: V ( _ I <X3XH. .{ 8.0.@.7.-.,.*.*.r *X.XtXrXGXCXFXFXSXDXNX",
"VXCXnXdXHXZXDXmXeXtXtX< 2 = v c N b e.-X+XC.j g y N.y u t [.XXoXx.<.M R $ T E :X7XH.K o.p.K.K.t.f.a.,.{ h.&XsXiXAXZXCXAXCXCXMXMX",
"SXvXSXnXDXmXDXiXeXaX3Xr 2 * x N c z j.*X|.C.j g y N.y V.u l l t t r n P ( / n <X5X{.| p.s.Y.L.L.k.a.9.>.e.8X8XsXZXZXZXCXCXnXZXnX",
"VXGXCXZXZXFXNXaX7XaX=X< < - z + # V j.*X'.j V.N.N.V.y N.h l g Z.l t ; m T R E <X8X{.3.o.d.L.g.a.k.g.a.9.0.E sXqXZXAXSXCXCXdXnXCX",
"MXCXdXmXaX3X7X8X8X;X1 [ ' * v $ o ) I.1X'.y Z.C.M.M.M.f M.V.V.C.k t n m Y W b.7X5X|.3.' a.g.g.u.8.k.g.j.e.:.r x.0XuXkXCXhXkXZXdX",
"SXnXDXmXmX*X*XK K J S = H x X O B ) $X1X'.M.Z.M.i i 2.9 f f G.S.Z.a < m ! 1.b.8X4X'.H.' 8.f.k.d.O.u.a.f.0.y.:.w.c.l x..X.XhXjXhX",
"mXnXmXfXmXr E -.J D D S F b & O B ) 2X1XG.M.S.M.9 0 ' {  .9 S.S.C.r ; W W ) &X8X4X|.S.} 7 7.g.g.a.>.8.h.t.<.;.}.x.x.t 0XwX0XjXjX",
"NXDXmXDXfXE < J X.G G G & & O O B ~ I.1XG.S.S.} ' ..D O.8.7.3.3.q.<.- W ! Y b.2XxX'.F.q.< ,.9.a.j.i.:.,.%X*X*X.XoXvXCXFXZXAXdXjX",
"BXSXmXjXZX&X$X{ L X.G G & & c O B b I.1XJ.M.5.5 ` $.%.%.u.u.8.-.e ;.n U ! ! E :XxXOXC.D.4 =.0.e.e.y.=X%XsXaXBXZXnXSXFXSXZXnXmXZX",
"SXZXAXZXZX8X8X;Xu...G G F & O O B A I.2XJ.5. .` +.%.%.%.u.O... .*.:.M V T T E :XxXZ.G.'.q.q e 6.%Xb.iXiXmXmXDXDXFXSXSXSXSXmXmXfX",
"CXnXjXAXZXtX8X8Xf.] ] S F x $ O C X e.-Xr.=.> H $.%.%.u.X.G o.@.,.:.v R ( / E &XxXOXA.V.Z.x.a t XXeXiXaXDXDXDXZXFXSXSXDXnXmXNXfX",
"VXCXhXCXZXSXaX3X8X> > S H x . $ R X i.;X6. .{ o.$.p.$.%...O.d.8.7.J v V R T W %X#XOXA.(.j `.Z.+X>XpXeXZXZXAXFXSXSXSXGXCXnXZXDXmX",
"SXCXCXhXGXGXtXaXlX5 9 5 ' = N # $ V u.;Xa.K H +.p.p.@.@.O.p.&.p.o.] N V $ / R n.xXZ.Q.~.Q.A.A.oXwXyXwXGXZXAXGXGXCXCXCXZXnXnXaXXX",
"SXvXZXZXGXGXwXyXlXw 6 6 } * v # # V i.;X8.F ..O.&.p.K.&.@.O.+.&...L b V T / Q &X4XZ.!.A.R.R.^.E.@XyXuXyXCXZXSXZXCXdXCXCXnXZXSXnX",
"NXMXNXnXZXVXrX[.a 4 w 4 9 * b + R @ i.Y.a.D O.&.d.@.&.@.+.X.X.X.G ..b V T T Q &X4XOXQ.Q.R.R.Q.E.z.oXwXuXwXyXFXCXCXCXCXCXnXdXZXZX",
"mXmXmXZX.X3 l q q q q w 7 = x . V M j.;Xg.D ] O.@.@.@.@...+.....` ] b V _ T ^ n.4XOXA.Q.Q.R.!.W.z.x.x.#XvXrXrXCXnXCXCXdXhXZXhXdX",
"hXhXjXhXtXtXcXwXwXoXt r < F x c . V j.;XL.> D ....+.` ` D D S 5 9 6.n Z ( Y W <X4X'.W./.k `.G.w.q.w.w.k k ].@X X[.z.oXCXhXpXhXhX",
"AXCXhXZXdXaXBXmXhXyXoX}.; = c O B v j.$XP. .' ` ` ` ` ` 5 9 2.i p q.2 P ( ( ~ :X5X[.W.k <.a } 7 } *.r a k `.@X X/.uXCXnXCX>Xv.jX",
"CXhXmXDXDXNXDXDXhXyXdX5X< = . O N @ e.-X|.3.2.} } 9 e 2.4.d C.j j t < I Y T 1.<X5XF.w.8 7 5 | 7.o.>.| =.6 XXcXcXGXFXSXZXdXdXZXdX",
"nXZXmXNXJXDXDXDXFXpXdXiX&Xz + . A Z $X1XJ.d 5.d M.M.d d k j A.h u t ; I R Y 1.:X5Xw.5.[ 9.9.p.@.8.>.{ =.*XaXBXDXCXFXCXnXCXnXCXZX",
"nXSXCXSXSXSXJXDXAXdXfXgXb.n . . N u.$X1X'.M.S.D.M.M.M.y k j N.g j t ; m Y Y 1.>X6XF.2. .o.$.a.f.s.t.e.y.aXaXtXZXZXZXDXZXnXSXZXnX",
"CXSXSXDXGXGXDXDXAXfXdXiX&X~ X + Z j.=X1X'.s C.C.V.V.N.y j y N.V.j t ; b T Y 1.:X6XH.3.| u.d.k.h.L.f.t.y.%XaXiX3XAXZXAXdXnXnXnXSX",
"SXVXVXVXSXSXFXZXfXiXsX8Xb.  . # N i.-X1X'.C.C.Z.y N.N.N.g g g g k ;.n V ( Y 1.3X4XF.6.} 8.a.L.g.a.a.P.t.=X7XiXdXAXZXZXnXCXZXMXnX",
"MXSXSXCXSXDXDX3XqX7XgX8Xn = N o # ~ $X1XF.d d s j V.s g u g V.j q.;.- A ) Y c.eX4XS.F.9 >.o.f.g.L.d.>.,.y.sXeXtXtXZXZXCXnXnXDXSX",
"MXSXCXCXCXZXmXc.2 E < * * x c O N ~ h.=XJ.5.2.i 8 f f p p 5.d d a 4.; P U ^ <X5X4XG.S.5.} 7.a.d.d.Y.a.>.:.y.}.eXtXyXVXSXCXhXCX.X",
"mXmXhXZXCXnXNX7XsX;XK * F x O l.B v j.2XP.} 5 > 0 0 > 5 5 } 2.2.a <.; W U ! m.7XxXD.G.G.} -.8.a.k.s.L.P.r.y.x.[.[.SXSXbXCXhXfXv.",
"SXmXCXCXnXmXZXmXsX8X$XH F x O $ C + 1.;XP.H H J ] ` ] ..D D J ] 2.;.; W Y Q b.7X4XOXA.OXS.=.} @.d.s.9.U.{.c.|.[.[.l SXSXAXhXjXv.",
"mXSXCXhXCXAXDXsXfXsX*X< K x x B $ + i.;XU.S ..+.O.X.+.+.G G D S 7 *.; P T / y.7XxXOX!.W.`.S.8 } 7.| 9.6.6.H.{.oXoXbXoXGXCXhXjXpX",
"CXSXCXCXCXGXFXnXaXNX1X9 K = . . # + j.;XL.S J ..d.p.@.u.O.O.+.` H J b m T T 1.0X4X(.A.).(.].S.8  .#. .} :.y.XX}.cXJXSXSXCXCXdXjX",
"MXCXVXCXCXCXSXZXZXcX}.r K - X . V v i.;XP.] D +.p.p.p.d.p.O.+...J J b V R T ^ ,XxX!.Q.Q.(.!.!.G.S.2.=.e w.}..XaXCXSXDXnXnXnXdXZX",
"MXMXNXCXCXZXZXFXwXtX6X, < - @ + C M 9.;XJ.o.D o.8.p.O.8.p.d.@.O.G F N C $ / 1.,X4XOXB.~.OXQ.!.(.`.Z.D.x.x.v.uXCXFXSXDXSXnXNXZXdX",
"MXSXSXCXnXnXnXZX}.XXt w 2 = + # V v i.=X0.7.' ..O.p.X...X.$.&.d.o.L A # $ _ m.,XxX].!.(.(.R.(.Q.Q.T./.W. XwXuXuXZXGXnXFXnXmXmXNX",
"VXGXCXZX>XtXtX}.4 w p 8 7 * v N N b 1.2X5.5.} ] ..&.p.%.X...+.8.;.*.- V $ ( i.:X4XOXQ.(.(.Q.R.R.R.R.~.~.W.bXrXbXwXAXGXGXAXCXnXmX",
"CXhXZXnXaXoXoX3 l q 8 d 8 - z N C N 1.1X5.5.2.' ` O.O.$.$.O...#.4.r ; V $ ( i.:XxX!.Q.~.(.~.~.R.R.R.Q.~.!.@XzXwXyXwXjXhXhXhXSXBX",
"hXCXnXCXnXDX>XoXq w 8 8 6 * v o l.N ,.*XS.k 4.} ] ..O.$.p.8.@.3.6.;.n V R _ ^ :X4X!.!.(.(.Q.!.Q.E.Q.~.T.~.E./.bX9XuXwXkX0XdXDXmX",
"CXNXnXDXnXGXJXrXcXq f i } = z o C N 1.*XS.j p 2.< H ] ..] | 3.3.5.;.M V ( _ m.:XrX^.Q.Q.!.A.!.D.Z.@X(.~.~.T././.[.z.oXv.ZXpXdXCX",
"BXDXDXbXJXSXGXCX4Xi i e 8 * b N $ . j.*Xk j y d 2.} 5 5 < 7 i d 5.6.; U U ! i.:X4X].!.A.Z.k 5.5.F.[.!.(.).Q._.^./.z.XXZXdXdXZXhX",
"DXBXSXMXBXFXCXvXMX4X0 6 [ * b N # X k.1Xk V.j N.d d 2.i 4.i p d d ;.; P T ! 1.:X4X'.'.`.S.2.5.} } q.F.^.OX).~._./.VXwXFXZXjXhXkX",
"mXDXSXGXHXDXFXdXBXlX}  .< * c c B A I.2XS.V.N.N.y V.s p p p V.A.k a ; n ! ^ E :X4X'.S.S.J.K.K.d.7.2.8 S.!.^._./.bXuXtXCXhXCXhXhX",
"NXnXJXvXZXZXAXfXBXNX' >  .* c # B ~ I.1XG.V.N.N.N.V.s f p j g A.k r 2 I / / E <X5X{.r.F.J.L.K.K.t.K.} 8 p  X`. XrXrXFXCXZXyXCXCX",
"nXSXVXSXmXDXjXjXlXlX` > > * X N + W h.2XG.C.y V.N.C.M.d p k C.j j <.: U T ! Q :X8X{.S.0.t.f.L.L.s.K.>.-.< w.x..XuXZXZXAXnXSXCXnX",
"SXVXSXVXNXfXjX:X8X+.#.` D x c O C m h.2X+XC.p j s f 8 8 6 8 i 5.C.<.; P T T Q <X5XH.J.J.9.s.9.L.L.L.Y.>.=.*.c.iXeXZXZXZXnXCXnXMX",
"vXGXCXCXmX,Xc.&Xa.' ` % H x N o R @ h.*X'.k a a 2.0 > ' ' > [ e 5.t ; m T T ^ 7X8X|.5.P.U.L.9.9.K.K.f.9.e.*.:.gXiXFXZXZXnXnXSXMX",
"GXyXGXBXmXfXc.; - < > 5 [ = N o $ V e.$X|.i a ;.0  .#.......] } a r I P ( Y i.<X5X|.=.r.t.f.U.I.K.K.f.I.,.,.:.8XsX>XFXFXnXSXnXSX",
"kXCXSXSXNXNXDX1 , > 9 } < * c o C Z j.=X{.4.*.[ ` ..X.%.$.$.O.-.r ;.; P _ T m.<X5XF.q.e 6.0.0.U.L.L.P.t.9.:.:.gXiXDXZXZXDXBXdXhX",
"GXVXCXBXDXDXDX*X6 4 8 6 -.- + o B Z j.=XH.6.7 S ..X.%.&.u.$.X...7 ;.n P / / b.iX5X'.F.i e 9 2.0.0.7.U.f.t.:.*.y.aXtXCXFXAXdXAXdX",
"dXZXZXDXMXSXMXBX|.f f i i = b N B L g.2XJ.-.' ..%.&.&.&...G ..o.3.:.n Z / Q 1.3XxXOX`.W.F.5.q.=.} -.} } *.=.;.{.}.aXFXZXAXjXjXv.",
"uXnXNXmXNXDXBXNXoXw d f e * v o A ) I.2XP.5 ` ..&.&.&.+...o.$.@.o.>.b U _ Q ^ 3X4X].A.`.Z.F.F.r.r.r.6.0.r.H.{.XXXXXXCXhXhXkXv.n."
};
