/* XPM */
static char *walls_noright[] = {
/* columns rows colors chars-per-pixel */
"64 64 254 2 ",
"   c #B4917B",
".  c #CE8B7C",
"X  c #CA8978",
"o  c #D58C74",
"O  c #DB8C74",
"+  c #D28D7C",
"@  c #DC8D7A",
"#  c #DC8675",
"$  c #CD927D",
"%  c #CE9B7B",
"&  c #DC9275",
"*  c #D2937D",
"=  c #DC937B",
"-  c #D69A7B",
";  c #D4896C",
":  c #E1957C",
">  c #E2977B",
",  c #CCA37E",
"<  c #BA8C8C",
"1  c #B68B8B",
"2  c #BD968A",
"3  c #B48D91",
"4  c #BB8C97",
"5  c #AD9A9B",
"6  c #BB9294",
"7  c #B7979A",
"8  c #AA908C",
"9  c #B2A39B",
"0  c #AB9EAA",
"q  c #B39BA4",
"w  c #BC9CA4",
"e  c #B59CAB",
"r  c #BC9CAB",
"t  c #B895A4",
"y  c #B39EB1",
"u  c #ACA3A8",
"i  c #B3A4AD",
"p  c #BCA2AC",
"a  c #BCACAD",
"s  c #B6A5A5",
"d  c #BAB7AD",
"f  c #ABA4B3",
"g  c #ACADBD",
"h  c #AAA8B7",
"j  c #B3A4B2",
"k  c #BBA6B3",
"l  c #BCACB3",
"z  c #B3ADBB",
"x  c #BCADBA",
"c  c #B6A8B7",
"v  c #ACB3BE",
"b  c #ABB6B8",
"n  c #BBB1B4",
"m  c #B4B2BC",
"M  c #BBB3BC",
"N  c #B8B7B9",
"B  c #C88788",
"V  c #D38D82",
"C  c #CC9385",
"Z  c #C4968A",
"A  c #C49A8C",
"S  c #CA9889",
"D  c #D39383",
"F  c #D59C83",
"G  c #DB9C84",
"H  c #D89787",
"J  c #C48D9C",
"K  c #CC8C9D",
"L  c #C88896",
"P  c #D48B9D",
"I  c #D5889A",
"U  c #C4929D",
"Y  c #CB979B",
"T  c #D5949A",
"R  c #E39982",
"E  c #CCA38B",
"W  c #DDA483",
"Q  c #DCAA84",
"!  c #DCAB8A",
"~  c #D5A688",
"^  c #DBB18C",
"/  c #CBA695",
"(  c #DCAC91",
")  c #D5A896",
"_  c #DBB294",
"`  c #CFB197",
"'  c #E2AB8C",
"]  c #E1A986",
"[  c #E2A599",
"{  c #E4B28D",
"}  c #C78CA2",
"|  c #D58DA3",
" . c #DD8DA2",
".. c #C494A3",
"X. c #CC93A3",
"o. c #C49BA5",
"O. c #CB9AA4",
"+. c #C29BAA",
"@. c #CB9CAC",
"#. c #C996AA",
"$. c #D494A4",
"%. c #DB93A4",
"&. c #D49BA6",
"*. c #DD95A9",
"=. c #D39DAB",
"-. c #DD9BAC",
";. c #D898A7",
":. c #C59DB2",
">. c #DC9EB2",
",. c #E18EA3",
"<. c #E29CAC",
"1. c #E396A7",
"2. c #E49EB2",
"3. c #C7A7A9",
"4. c #D5A3AE",
"5. c #DDA2AD",
"6. c #D8A8A7",
"7. c #DBB5A7",
"8. c #C3A4B3",
"9. c #C2AAB3",
"0. c #C9A8B7",
"q. c #D4A3B3",
"w. c #DDA3B3",
"e. c #DCAAB4",
"r. c #DDABBA",
"t. c #D4ACB9",
"y. c #C3B3BC",
"u. c #C8B7BA",
"i. c #D8B4B9",
"p. c #C7BBAD",
"a. c #E2A7AC",
"s. c #E2B5AA",
"d. c #E3A3B3",
"f. c #E3AAB3",
"g. c #E3ACBB",
"h. c #EAADBB",
"j. c #E6A6B7",
"k. c #E3B3B3",
"l. c #E4B3BD",
"z. c #EBB3BD",
"x. c #E7BAB8",
"c. c #B8C4BA",
"v. c #BBCAB6",
"b. c #C7C5BC",
"n. c #D9C9BB",
"m. c #D9D3BE",
"M. c #E7C9BA",
"N. c #E8D3B9",
"B. c #ECCCAF",
"V. c #AEAFC1",
"C. c #B4AEC1",
"Z. c #AEB2C2",
"A. c #A9BAC4",
"S. c #B3B3C2",
"D. c #B4BBC4",
"F. c #BCBCC3",
"G. c #B8B7C8",
"H. c #C2BDC4",
"J. c #C9BAC4",
"K. c #D9BBC4",
"L. c #C8BFD0",
"P. c #E5B4C2",
"I. c #EBB5C3",
"U. c #E8BAC4",
"Y. c #F1B9C2",
"T. c #ACC5CA",
"R. c #ACCACC",
"E. c #ABC6C6",
"W. c #B3C4C5",
"Q. c #BBC3C5",
"!. c #B3C4CC",
"~. c #BBC4CB",
"^. c #B3CBCC",
"/. c #BCCBCB",
"(. c #B9CBC5",
"). c #B8D2CA",
"_. c #ADCAD2",
"`. c #B3CCD3",
"'. c #B6C9D2",
"]. c #B7D2D5",
"[. c #AED2D2",
"{. c #C4C5CC",
"}. c #CBC3CA",
"|. c #C6C8C6",
" X c #D3C2CB",
".X c #D8C9C6",
"XX c #C7D4C9",
"oX c #DCD3C5",
"OX c #D7D5C9",
"+X c #CCC3D2",
"@X c #C5CAD2",
"#X c #DAC9D5",
"$X c #C4D6D4",
"%X c #DBDAD6",
"&X c #EAC2C3",
"*X c #EACEC3",
"=X c #ECC4CB",
"-X c #EACACB",
";X c #E4C8C9",
":X c #F1C4C9",
">X c #EED4CD",
",X c #E6D6C8",
"<X c #F2D3CC",
"1X c #F6DBCC",
"2X c #E3CAD2",
"3X c #E6C8D6",
"4X c #E4DCD4",
"5X c #EBDCD4",
"6X c #E5DDDC",
"7X c #EBDDDC",
"8X c #ECD5D1",
"9X c #F3DBD2",
"0X c #F6DAD6",
"qX c #F3C7D4",
"wX c #DDE5DA",
"eX c #ECE4CD",
"rX c #EDE9CE",
"tX c #F7E3C9",
"yX c #ECE4D4",
"uX c #EEE9D5",
"iX c #E5E4DB",
"pX c #ECE5DA",
"aX c #E5E9DC",
"sX c #EDEADB",
"dX c #E5E5D4",
"fX c #F2E4D5",
"gX c #F2E4DA",
"hX c #F3ECDD",
"jX c #FAECDD",
"kX c #F7E7D9",
"lX c #F4F1DE",
"zX c #F9F1DE",
"xX c #EFF0DE",
"cX c #DCDCE1",
"vX c #E4DEE4",
"bX c #EADEE3",
"nX c #FBDEE3",
"mX c #EDEDE2",
"MX c #E7E4E1",
"NX c #F5EEE3",
"BX c #FAEEE3",
"VX c #FAEEE9",
"CX c #F3EDE9",
"ZX c #EEF2E4",
"AX c #E0F0E5",
"SX c #F4F2E4",
"DX c #FAF3E4",
"FX c #FCF9E5",
"GX c #F5F4EA",
"HX c #FBF4EA",
"JX c #F6F9EB",
"KX c #FCF9EC",
"LX c #F6F9E5",
"PX c #FBF9F3",
/* pixels */
"SXNXSXBXjXSXzXzXhXSXBXSXKXPXCXPXCXGXSXSXhXlXSXSXSXSXhXzX,XlXDXBXjXjXjXDXhXSXSXLXm.OXm.jXDXjXSXSXGXmXZXSXjXjXlXzXDXNXmXGXVXBXoXoX",
"NXSXSXNXSXhXSXhXSXlXFXDXDXHXGXPXPXCXNXlXzXzXSXhXBXDXhXFXuXDXDXBXlXm.zXNXNXNXSXSXlXzXzXzXjXjXDXZXNXSXSXhXDXjXzXhXNXNXGXNXBXBXkX,X",
"BXSXBXSXNXSXNXSXSXDXFXFXDXHXPXCXHXNXSXjXFXhXyXHXBXjXjXSXlXSXhXSXhX,XhXSXSXSXDXNXjXhXZXSXBXNXSXSXSXBXDXhXlXSXSXSXSXSXhXSXlXBXDXkX",
"lXNXSXlXSXSXNXNXNXFXVXDXFXVXDXHXHXDXjXhXkX,XfXDXBXDXBXhXSXSXZXSXlXlXSXSXSXhXVXBXDXhXSXlXDXBXsXSXSXNX0XDXsXFXsXKXSXSXSXDXSXFXFXzX",
"jXSXSXSXNXSXCXSXBXVXDXHXhXoX,XFXSXDXDXVXBX,XyXFXDXDXDXSXSXSXDXSXDXNXNXNXKXCXBXBXDXBXSXDXNXSXPXJXSXKXfX*XDXDXDXsXGXSXHXKXSXLXFXxX",
"zXlXSXNXZXSXSXNXNXKXDXoXd p.eXzXDXFXKXBXDXb.d DXKXSXGXKXSXhXzXSX%XCXNXVXHXHXVXVXDXSXhXOXFXDXGXHXGXZXuXm.OXyX5XKXKXKXGXSXLXSXzXlX",
"BXlXSXSXZXSXNXDXhXpXmX%Xv.v.XXuXFXzXGXGXiXd v.sXLXJXGXKXNXNXNXxXv.aXHXPXVXVXPXHXaXZXv.dXDXFXHXVXKXiXaXv.v.dXsXpXCXHXKXpXFXuXrXm.",
"lXNXNXSXSXSXSXBXyXpXiXXXb.b.(.m.yXFXKXSXwXXXb.OXZXSXHXHXBXHXNXZX(.(.HXVXHXHXHXpXmXv.v.XXpXHXDXHXpXpXwX).(.|.mXiXiXpXgXfXgXuXm.OX",
"BXSXSXNXNXBXDXFXpXiXwXXX).).XXXXyXuXsXmXu.b.n.oXDXFXDXKXHXKXSXZX).].uXKXLXeXuXpX%X|.(.XXOXsXzXfXuXdXAXR.[.)./.XXOXgXkX1X0X7.}.OX",
"NXNXSXGXSXFXzXfXyXmX$X/.].].[.XXOXuXgXgX3.3.3.;XNXHXSXGXHXHXFXaX$X$XmXuXrXrXuXgXoX}.|.|.OXoXuXyXkXaXv.[.[.[.].(.b.n.6.T 6.&.l |.",
"NXNXHXNXBXFXzXeXdXaX/.R.].].E.c.OX*X<X3.4.g.e.=XgXSXJXJXHXHXhXMX@XQ.;X9XtXeXuXgXt.K..Xi.u.oXOXdXiXXXc.E.R.].^./.u.3.) 6.5.e.9.}.",
"NXSXNXNXNXDXDXuXaXXXE.E.R.R.E.W.3.x.e.h.d.h.z.M.gXhXLXSXDXNX5XCXN N 3.&XfXM.>X0.4.g.:X4.4.p.c.XXc.(.E.^.].].W.m w Y a.a.a.r.p u.",
"SXSXBXBXBXDXjXhXwXE.E._.R.T.!.M o.&.5.f.z.h.z.6.;XuXsXFXFXgXpX%XN l o.;.7.l.l.e.w.P.z.6.;.Y |.W.W.!.R.).].{.u.o.@.w.w.I.l.P.w u.",
"zXSXNXHXKXNXgXyXaXc.R._._.!.F.p Y 5.f.k.z.h.d.3.;XyXuXuXeXpXiX|.N l O.&.k.z.h.w.g.z.f.f.%.4.Q.R.].!.R.^.Q.}.o.#.q.I.I.I.U.l.o.t.",
"zXlXNXHXDXNXpXwXwXc.A.E.!.H.9.w 4.z.k.l.z.a.;.l.i.;XeXuXyXsXOXc.J.+.=.5.g.l.g.r.U.r.h.;.&.+.Q.T._.R._.].}.t.@.r.e.P.P.g.I.q.3.u.",
"zXhXSXNXpXpXaXwXc.c.A._.!.{.9.o.4.r.P.l.w.5.h.x.i.M.,X,XiXOX(.Q.y.r q.5.l.l.r.P.P.P.d.4.O.3.~.R.R.'.T.F.J.+.w.l.P.U.j.h.I.w.w K.",
"BXBXNXSXDXpXaXXX(.]._.[.T.D.3.@.4.g.P.r.t.P.I.P.l.4.3.oXOXW.E.W.F.r =.d.z.z.l.I.g.j.-.#.p y.].!.!.!.T.~.0.@.r.g.I.z.e.z.I.r.p u.",
"BXNXDXSXFXDXOX|.!.E.`.T.R.D.o.-.>.P.P.l.P.I.h.j.w.O.9.p.D.!.R.!.H.r @.>.g.z.U.k.j.-.O.r H.Q./.`.!.!.T.Q.y.q.r.I.z.f.g.U.w.@.l |.",
"BXSXSXGXDXHXiXaX%XD.^.T.!.|.$.%.d.z.Y.l.h.h.2.2.&.o.y.Q.W.R.T.!.H.8.@.d.a.f.e.6.a.&.#.J.Q.].'.'.T._.R.Q.9.0.i.U.l.e.l.g.P.@.y.F.",
"NXSXSXJXHXDXkXsXmXiX/./.].}.X.%.<.a.h.a.a.a.X.U r J.Q.A.T.R.T.T.Q.x o.2.<.d.5.4.X.+.u.+X'.'.].`.].[.].!.H.J.J.K.l.e.Y.P.>.+.H.~.",
"SXSXCXJXKXVXjXfXdXaXW.!.^.{.3.X.&.;.d.-.U ..p M N /.!.T._.`.'.!.!.M w ;.| %.o.p l H.{.~.`._.`.].`.[.`.E.W.{.u.J.P.g.I.r.:.8.G._.",
"SXmXZXSXHXDXFXzXkXdXXX(.W.F.J.O.O.U @.q.0.i.J.{.!.T.T.'.G.!.G.!.!.Q.0.t.q.q.3.u.H.~.~.'.T.!.A.'.!.!.^.!.W.Q.u.u.J.K.q.3.0.J.~.T.",
"SXsXGXNXBXDXFXFXuXdXOX|.|.XX}. X XK. X}.{.+X}.{.{.{.@XQ.D.'.@X{.@X|.Q.H.H.{.F.F.{.F.{.@X{.{.@X/.~.@X/./.{.@X}.}.J.J. X X{.+X@X+X",
"DXDXNXNXDXKXSXLXyXpXoX4X4X6X6X7X5XpXvXvXvXvXvXbXbX6X6X4X6XvX6X7X7X6XMX%X%XwXcXcXcXcXvXvXbXiXiXaXvXMXvXvXiXbX7X7X7XiX6X6XMXvXbXbX",
"lXSXhXjXBXHXKXiXyXkXM.7.n.M.<X<X<X>X<X9X9X0X7X8X<X>XN.M.N.N.*X*X<X<X>X<X8X8X7X0XpX7X5X9X9X<X,XtX8X<X<X8X8X8X<X<X>X>X>X>XyX4X5X8X",
"LXlXSXjXjXDXsXsXyXtXM.~ _ ~ E E E E A ) x.*XM.M./ / ) ~ ^ ^ ` ) / ) 7.7.7._ 7.M.>X*XM.7.6.7.7.7.s.s.s.s.s.7.) ) / / _ n.M.N.7.7.",
"ZXhXzXjXjXBXpXpXuXrXB.! ^ { ~ ~ ^ { ! ~ ~ ! ( ~ ~ ( ' ' { > Q ~ ^ ! ! Q ! ~ ~ ~ ( [ ( ( ! ! _ _ ! ! ] ' ^ _ ( _ _ ^ ! Q ~ _ ( ( ",
"uXDXzXjXjXDXHXgX,XN.B.~ { , Q Q ! - ] ] ] ' ' ' ' ] ] ] { , , { ^ ! Q Q ] Q ' ' W G G ' ! ~ , - - - ] W ~ Q ' ! ^ ! ! ] { { ' ' ",
"OXNXhXjXSXFXKXdXuXeXtXB.B., , F % W W * - G F ~ H H G F D - F F F F ~ % % % , - - W W G F F F * - - W F E F F H F W F F G G G F ",
"NXNXFXhXhXFXGXHXKXFXfXeXtXtXN.` A Z S S Z A Z Z A A Z C C C V C A A Z Z Z A A 2 S S A Z C C D H S S A 2 2 2 A A A A A 2 S C S S ",
"BXSXDXjXNXSXSXHXHXGXHXHXlXkXfXfXsXd s n l 9.n n l 3.3.3.$.T | ..9.n x x l n d n n n 9.3.O.K I I =.3.l n n n l x l n a d 9.3.0.3.",
"CXSXhXSXDXNXSXGXGXPXVXHXSXHXyXsXaXb.m m S.F.D.m i 8.4.4.=.$.| ..c z m v S.S.A.D.v m i w U P ,.1.w.0.x z v S.v S.v D.M x k e 8.0.",
"SXSXSXhXNXDXCXVXHXDXHXSXFXKXJXyXuXoXn F.G.G.S.x o.$.-.j.j.>.| | w k S.v S.S.Z.A.b N o.L | | 2.2.2.$.q.0.M v G.m m N :.@.=.X.O.>.",
"xXlXBXBXVXSXCXGXHXNXKXGXSXSXGXhXrXm.h N G.G.x t.f.T *.d.d.-.%.| J r N D.S.Z.Z.S.v k J I *.*.2.2.*.| >.q.k m m m m c ..$.<.%.$.-.",
"lXlXBXVXVXBXBXHXHXHXGXHXGXKXHX5X,X|.b Z.G.C.+.w.d.;.K <.2.<.1.| J #.C.G.Z.V.Z.Z.m e } | 1.>.d.w.X.;.>.=.w k v v b u t $.<.<.P ;.",
"SXlXBXBXBXNXDXSXNXHXDXFXHXKX0XkXoXN h V.C.x #.<.a.a.;.$.2.2.2.| | ..c S.Z.Z.Z.g k t | | -.w.r.O.&.>.<.$.4 p z v v 0 } *.<.<.%.$.",
"SXSXNXSXSXDXzXuXfXrXrXtXfXfXM.oXd b v z z :.#.1.;.a.<.$.>.j.>.#.P J i m V.V.S.C.8...| 1.d.j.5.$.=.d.<.%.U 8.z V.C.e } ,.1.a.j.$.",
"NXSXSXhXjXFXzXeXuXn.,XM.M.*Xa a h v g g x 8.} P 1.a.j.a.>.P.>.>.| K 8.m C.V.S.m :.t K *.a.-.<.*.-.d.1.| U 8.c V.C.y K ,.,.1.j.w.",
"lXSXSXNXBXDXDXyXuX,X3.6.&.3 l m g Z.Z.V.m k U P 1.*.<.2.>.w.d.-.,.I p m m Z.v m r 4 Y ;.d.d.d.j.w.*.%.K +.l z Z.Z.z } P ,.,.>.d.",
"SXSXNXSXBXVXDXpXyX0XU.J } +.C.S.Z.g v V.m i U U T *.*.2.2.d.d.<. .P p m S.Z.Z.m k 4 $.%.j.j.2.-.;.$.X.U 9.x z v Z.C.8.J P *.$.>.",
"SXSXSXNXGXGXJXJXpXnXnX7 :.x Z.A.A.Z.m S.z N a p | | | *.>.*.a.1. .} 8.z G.S.D.m k J K ,.,.,.1.$.} ..r k z S.C.C.Z.m m a ..U $.%.",
"lXSXNXGXSXGXSXJXpXgXnX8.x c S.D.Z.v S.G.G.F.N y.:.#.} | | | -.K P K p N F.G.D.m 8...P  .P K } X.@.8.x C.m V.g V.z g m m i o.X.X.",
"BXVXgXDXKXSXFXKXpXgX,Xa c x m m m S.S.C.S.S.m z J.:.:.+.#.} } J J U k m G.z S.S.y.r 4 J J o.8.l x z C.C.S.Z.Z.G.C.S.M z c y.3.t ",
"BXBXHXjXhXDXFXjX5XyX,Xb.K. X X#X#X#X#X+X+X+X+X+XK.L.J.t.t.q.t.P.U.U. X X+XL.L.L. X XU.U.x.K.K.J.M H.H.H.C.G.G.F.L.+X+XK.}.}.K.K.",
"DXhXzXDXDXjXFXyXuXn.&X&X&XU.2X2X;X-X-X2X3X3X#X#X#X2X;X-X=X=X:X=X=X-X-X3X3X3X3X3X2X=X:X:X:X=X-X-X2X2X2X2X2X#X#X%X3X2X=X;X2X;X2X=X",
"SXlXjXDXn.,Xm.*X,X` 7.7.7.s.i.7.f.k.k.z.&X:X=X&X;X&X7.e.7.s.x.k.s.x.l.U.qXqXqXU.&Xl.a.s.k.k.e.k.k.7.6.6.k.x.=X&X;X&Xx.x.k.x.Y.Y.",
"SXSXoXoXkXN.N.  % $ H * C D $ D * . D F T [ [ [ D F * * D * V V * $ . H a.k.a.( ~ D X * $ * D + . * - - ; + H [ H H % - G H H a.",
"SXSXKXDXkXjXN.B.[ R = R = R > > > & & & * + R R = = = R R = R : & > = = H G * - * G > > - - R R > > > & > O # H = G - - : : @ R ",
"SXNXKXKXFXFXkX1X) [ . + @ o ; & - o # # = o ; # ; ; O o = @ @ # # ; O ; o o o O & = = = o X @ @ : : O ; O = : O O = o o - o : @ ",
"hXDXCXJXJXJXFXkXkX) C V X V * $ $ D D @ V . X o o + @ + V V V + + V + + $ $ $ + D @ * . X X + + + V + D C C V . V X * C $ + V V ",
"SXSXKXJXJXJXHXDXjX<X3 4 < < 6 1 3 1 4 U 3 4 B B X B B L < 6 1 1 1 1 < < 1 / 1 Z B B B < 3 6 3 3 3 6 3 3 3 3 3 4 < J 4 < 6 6 3 3 ",
"NXSXSXJXCXKXFXKXjX>Xr t r e e i q w w t +...4 B B L L } r w u 0 9 7 9 ;X2X8X;X6 B I K U 7 s q s e e 0 e y e t +.} ..} #.+.e k h ",
"SXDXNXHXKXKXFXuX8XoXq p 0 f j c a 9 s q o.4 L I I L | } t y f u s .X0XgXfX5X9X0XB I L 6 s 9 7 i j c f f k q #.K I I L } r y C.j ",
"NXNXBXDXBXgXkX1Xp.8 5 u f 0 f f #XgX4X,X8 4 P I I I | 4 t 0 f u d ,XNXBXjXjXhX9XI T x.<X.XoXoXl z f f j j q U P | I } J r y h C.",
"NXNXNXVXp.n.n.*XfXfX7X}.u 0 u 4XpXpXfXeX&XL I ,.,.| | 4 0 y 0 f OXuXhXuXhXzXjXfX/ :X0XkXBXjXyX;Xj f i i a 7XkXBXqX6.Y B 4 5 y f ",
"SXNXBXVX>X>XkXfXeX5X5XpX9 u n 7XiXyXyXfX1XA %.1.*.>.I.0XnXvXC.f iXlXhXFXFXzXhXuX2 1XzXhXSXhXfXoXs i i 7X0XBXNXgXkX<Xk.L 4 s #X#X",
"lXlXHX4X4XhXyXsXDXHXPXMX X5 MX7X7XGXyXfX0XY ;.%.&.:X9X9XfX5X|.u iXsXDXKXGXFXKXpX.XdXsXmXmXGXHXVXOX9 .XpXkXVXNXSXkX0XM.6 1 ,XBXSX",
"lXhXHXKXHX,XyXKXHXKXGXMXiXu VXHXKXHXHXDXfXM.O.T =XkX,XuXyXyXgXp.pXNXKXGXSXKXKXBXNXJXJXPXJXKXVXBXpXn.uXKXHXHXPXHXHXBX;Xn.DXzXzXSX",
"DXFXDXKXHXNXSXSXKXJXPXGXHXDXhXHXDXDXDXHX4X,Xo.6 *XfXyXFXDXDXNX5 yXgXKXGXHXHXHXHXGXNXSXGXHXGXNXSXuXOXSXDXHXKXGXGXHXSXoXlXSXFXzXhX",
"FXFXKXHXHXGXLXSXSXZXGXGXGXDXFXhXDXFXDXDXsXNXBXjXDXSXSXKXFXDXVXoX7XBXHXKXHXHXVXVXNXCXSXSXSXSXGXSX4XeXNXSXHXGXHXKXSXNXDXNXFXNXFXSX",
"BXBXBXFXGXhXSXSXLXSXHXSXSXsXzXLXlXlXKXCXZXSXDXHXFXDXGXGXGXGXZXVXBXDXGXJXKXSXGXHXVXGXKXSXSXSXSXSXSXBXVXGXGXCXNXDXSXSXZXJXDXKXCXVX",
"FXVXNXDXCXPXNXlXhXDXmXHXNXSXlXlXxXlXSXGXGXGXNXSXhXHXGXGXGXJXGXmXBXGXSXSXSXSXSXSXBXNXCXSXGXSXSXSXHXCXVXNXGXGXCXDXHXNXZXSXCXNXVXVX",
"NXNXHXCXGXSXNXFXlXSXSXGXCXGXZXLXxXSXSXHXCXVXSXHXSXSXDXHXZXZXBXDXNXDXSXZXGXZXZXGXBXBXSXGXSXSXSXSXlXDXNXGXJXmXSXNXNXFXSXZXSXBXNXNX",
"OXGXCXGXZXSXSXhXSXSXVXNXGXPXGXsXJXsXDXCXVXVXDXSXSXNXBXNXSXSXSXNXBXDXSXZXSXGXZXZXCXHXSXZXNXNXBXjXSXlXSXSXZXLXCXDXBXBXSXlXNXFXNXpX"
};
