/* XPM */
static char *walls_noleft[] = {
/* columns rows colors chars-per-pixel */
"64 64 256 2 ",
"   c #B4857F",
".  c #CD8D7C",
"X  c #C8887A",
"o  c #D38D7C",
"O  c #D18971",
"+  c #CD927D",
"@  c #C7937E",
"#  c #D3927D",
"$  c #DA947D",
"%  c #D79176",
"&  c #D5A07E",
"*  c #B87F90",
"=  c #BC8D8A",
"-  c #B98B87",
";  c #BD9A8C",
":  c #B89589",
">  c #BA8C97",
",  c #AB9898",
"<  c #BC9B9C",
"1  c #B89897",
"2  c #A7938A",
"3  c #B9A29A",
"4  c #ABA89C",
"5  c #AA9DA9",
"6  c #BD94A2",
"7  c #B59CA5",
"8  c #BC9BA4",
"9  c #BD9CAA",
"0  c #B697A8",
"q  c #BB9DB2",
"w  c #BD8EA3",
"e  c #ABA5A7",
"r  c #B4A3AC",
"t  c #BCA2AC",
"y  c #BDACAC",
"u  c #B8A5A6",
"i  c #BAB5AC",
"p  c #ACAAB7",
"a  c #BAA4B2",
"s  c #BBACB5",
"d  c #B3ADBB",
"f  c #BBADBA",
"g  c #B3A8B4",
"h  c #AEB2BE",
"j  c #ADB9B9",
"k  c #B4B4B4",
"l  c #BBB2B2",
"z  c #B4B2BC",
"x  c #BBB3BB",
"c  c #B9BCBB",
"v  c #CB8C82",
"b  c #C58A88",
"n  c #CD9384",
"m  c #CD9389",
"M  c #C29A8D",
"N  c #CD9C89",
"B  c #C59588",
"V  c #D39383",
"C  c #DA9483",
"Z  c #D59B84",
"A  c #DB9B84",
"S  c #D59A8A",
"D  c #C48C9C",
"F  c #CA8C9C",
"G  c #C78894",
"H  c #D18D9B",
"J  c #C3939D",
"K  c #CB949D",
"L  c #C49896",
"P  c #D4989A",
"I  c #D48E82",
"U  c #E29A89",
"Y  c #CDA38D",
"T  c #C7A389",
"R  c #D3A38C",
"E  c #DBAB8C",
"W  c #D8A689",
"Q  c #CDA692",
"!  c #CBAA96",
"~  c #DCAC92",
"^  c #D7A897",
"/  c #D8B198",
"(  c #D3B195",
")  c #E0A78D",
"_  c #E2AB95",
"`  c #E2B193",
"'  c #C68EA2",
"]  c #D38EA3",
"[  c #C494A2",
"{  c #CC94A3",
"}  c #C39CA4",
"|  c #CB9BA4",
" . c #C39CAA",
".. c #CB9CAB",
"X. c #C693AA",
"o. c #D393A3",
"O. c #DA95A5",
"+. c #D49AA4",
"@. c #DC95A9",
"#. c #D49CAB",
"$. c #DB9BAB",
"%. c #D899A7",
"&. c #C79FB0",
"*. c #DB9BB1",
"=. c #E49CAC",
"-. c #E297AB",
";. c #E29DB1",
":. c #EB9EB0",
">. c #C3A3AB",
",. c #CCA3AA",
"<. c #C4ACAB",
"1. c #C8A6A6",
"2. c #D4A3AD",
"3. c #DBA2AC",
"4. c #D6ACAD",
"5. c #C4B3AD",
"6. c #DBB4A5",
"7. c #DCBAA6",
"8. c #DCB6AA",
"9. c #C3A4B2",
"0. c #CCA5B2",
"q. c #C2ABB4",
"w. c #C3ACBA",
"e. c #CBADB7",
"r. c #D4A4B2",
"t. c #DBA4B2",
"y. c #D5AAB4",
"u. c #DCABB4",
"i. c #D9ACB9",
"p. c #C3B4BD",
"a. c #C7B6B7",
"s. c #DBB2B4",
"d. c #D2B3BC",
"f. c #D8B6B9",
"g. c #E2A2AD",
"h. c #E1AEA6",
"j. c #E3B4AA",
"k. c #E3A3B4",
"l. c #E3ACB5",
"z. c #E4ADBA",
"x. c #E9A7B8",
"c. c #E4B3BB",
"v. c #EAB3BC",
"b. c #EABCBD",
"n. c #E5B7B6",
"m. c #B9C3BC",
"M. c #C8C5BD",
"N. c #D6C6BB",
"B. c #DAC9B5",
"V. c #E8C9BA",
"C. c #E8D2BA",
"Z. c #EAC7B2",
"A. c #BAAEC1",
"S. c #ADB2C1",
"D. c #A8BFC2",
"F. c #B3B4C2",
"G. c #BBB5C3",
"H. c #BCBBC3",
"J. c #B9BDC6",
"K. c #A7AEC1",
"L. c #C3BCC3",
"P. c #CBBBC4",
"I. c #C7B8C6",
"U. c #D7BBC5",
"Y. c #C8B2C6",
"T. c #EBB4C2",
"R. c #EABAC2",
"E. c #E3B7C2",
"W. c #F1B4C2",
"Q. c #E6AFC2",
"!. c #ADC3C5",
"~. c #ADC7C9",
"^. c #B4C3C3",
"/. c #BBC3C5",
"(. c #B4C4CA",
"). c #BBC4CB",
"_. c #B4CACB",
"`. c #BCCBCA",
"'. c #BBCBC5",
"]. c #BBCDD3",
"[. c #B4CCD1",
"{. c #BBD2D2",
"}. c #BED3CF",
"|. c #C3C4CC",
" X c #CDC3CC",
".X c #C2CBCC",
"XX c #C7C8C4",
"oX c #DCC3C5",
"OX c #DBCBC3",
"+X c #D2C2CC",
"@X c #D5C9C7",
"#X c #C9D2CA",
"$X c #DBD3C4",
"%X c #D8D5C9",
"&X c #C7C8D2",
"*X c #D9D9D6",
"=X c #D1CFD2",
"-X c #E3CCC4",
";X c #EACCC5",
":X c #E4CACD",
">X c #EACBCC",
",X c #E9C5C7",
"<X c #F2C5C8",
"1X c #E4D4CC",
"2X c #EDD5CC",
"3X c #E7D9C9",
"4X c #F1D6CB",
"5X c #F4D7C8",
"6X c #E9CBD3",
"7X c #E3CBD2",
"8X c #ECDDD4",
"9X c #E4DBDC",
"0X c #ECDCDA",
"qX c #E7D9D4",
"wX c #F3DCD4",
"eX c #F3DEDC",
"rX c #FCDDDB",
"tX c #F9D7D6",
"yX c #F0C8D0",
"uX c #DDE2D8",
"iX c #F5E2CA",
"pX c #E6E4D5",
"aX c #ECE3D5",
"sX c #E4E4DC",
"dX c #EBE5DA",
"fX c #ECEADC",
"gX c #E8E9D9",
"hX c #F3E4D3",
"jX c #F3E3DB",
"kX c #FAE3DC",
"lX c #F3EDDD",
"zX c #FAECDE",
"xX c #F5E7D4",
"cX c #F3F1DE",
"vX c #FBF2DE",
"bX c #EDE6D0",
"nX c #E6DDE2",
"mX c #F9DDE3",
"MX c #EBE3E2",
"NX c #EDECE2",
"BX c #E4EAE4",
"VX c #F5EDE3",
"CX c #FAEDE4",
"ZX c #F9EBE8",
"AX c #EEF2E3",
"SX c #F5F2E4",
"DX c #FAF3E5",
"FX c #F5F4E9",
"GX c #FCF5EA",
"HX c #FDF9EC",
"JX c #F9F8E7",
"KX c #FDF6F2",
"LX c #FEFAF1",
"PX c #F6F5F0",
"IX c #FFE5F0",
"UX c #DFE8E3",
/* pixels */
"pXSXcXcXlXcXcXDXDXDXVXVXFXFXAXFXAXAXFXSXVXCXZXZXCXGXZXDXSXSXFXSXNXFXFXFXFXFXFXFXVXFXSXFXAXFXNXAXAXJXAXAXMXGXZXVXVXFXfXcXcXcXcXC.",
"SXSXJXcXlXSXFXSXFXVXFXHXSXVXJXAXAXcXSXFXDXDXCXDXFXZXVXFXFXSXDXVXFXFXfXFXFXNXVXFXGXVXVXDXFXfXFXSXFXfXAXFXPXPXFXZXJXlXJXcXvXJXSXAX",
"ZXFXSXFXHXAXSXFXVXFXAXNXFXSXFXDXSXAXSXSXDXZXSXVXFXAXAXSXFXSXlXDXlXSXSXSXZXDXDXZXcXDXDXlXSXSXVXFXlXSXFXSXVXFXGXVXVXSXFXFXVXVXFXDX",
"KXVXVXVXSXAXJXSXFXFXSXSXVXDXZXlXSXSXSXSXSXDXFXcXAXAXJXFXDXDXSXDXSXSXDXDXDXDXDXDXGXzXvXGXcXCXSXDXDXDXZXFXKXGXVXFXFXFXfXDXFXFXFXFX",
"FXZXHXZXZXDXCXCXZXHXVXGXDXlXjXpXSXSXFXDXVXVXSXSXAXAXHXFXHXJXVXgX$XVXGXDXGXDXDXCXlXGXzXjXGXGXHXDXVXZXCXGXZXHXFXJXDXSXDXlXFXLXKXKX",
"ZXFXLXDXZX-XCXGXDXGXGXCXGXGX$XaXDXZXDXDXGXFXSXDXHXFXFXFXJXFXjXpX4 FXHXFXDXeXwX;X1 3 -X8XGXGXGXGXLXkXHXDXGXHXDXSXDXDXSXGXHXLXKXKX",
"ZXZXkXHXB.3XzXCXGXHXSXHXSXpXN.gXSXDXZXZXGXGXFXVXHXHXHXHXHXFXDXjXi sXsX0XjXtXtX>X< 1.;XeXCXZXFXHXGXZX, dXdXVXFXHXHXbX1XHXGXFXVXFX",
"CXCX1X2 , -X2XzXzXzXVXVXgX$X4 $XZXGXHXVXCXCXaXOXpXDXHXHXFXFXZXpXe XXMXmXtXkX<XK P 1.} rXwXkXCXsXMXMXe M.dXFXHXDXbX3XzX3X3XDXSXVX",
"@X:X1 , 1 s.tXmXrXIXMXnXMXe e e N.cXfXzXkXCX2X3 wXzXDXGXGXSXDXsXe s nXmXtXT.$.+.P P K rXwXwXpXdX9Xj e e 0XsXdX8XaXDX3X8XvXvXlXcX",
"r 9 , < > J 2.mXIXmXmXg r g e e *XpXVXzXCXtX-XQ iXkXzXCXjXlXaX%Xe e t 8 > { o.%.O.G D <XrXjXaXdXuXe 5 e @XnXdXhX2XOXB.5.DXlXJXcX",
"a t 0 6 > ' { ' X.0 0 q g 5 d g e 1X@X:X;X-X< 1 rXkXzXCXlXVX1Xl e 5 0 0 * ' H H ] G G > >XeX8X*Xp p 5 r 5 , , a.8XCXkXVXGXVXSXcX",
"r w.9  .[ * D D > X.0 &.a r f r u , 1.< L > 1 = tXtXwXrXkX8XOXe g q 0 9 ' F G G G G > [ < u 1 i r q t 7 r 1 6X2XCXKXZXZXGXDXFXlX",
"t 9 8 < J K K > } 6 8 7 9 0 7 8 7 < 1 L L G = = B V.<XV.;X< Q 1 0 0 8 J J = G G G G ] ] K 1 3 1 8 6 8 J L < 2XCXZXGXLXFXHXFXVXCX",
"1 - 1 G b G b = = : - - 1 = > = = = B - v b b X b b ^ b =   - - > = G - b b b X X G * G = = - - - L = - = - 5XrXGXHXPXFXHXGXZXCX",
"B L m v I I o o # . n @ n I v v v X X v I X o # V o . + @ X n . v v V . o o o O I X v I V b n n m v . b n B ! CXzXGXJXJXHXVXCXCX",
"n n I V o $ o # # $ $ # o o $ C V # o o $ $ C $ o # . # O # X o o o # C % $ O o I o I I I o . Z V o # # v V ^ ( 5XxXJXJXFXHXCXCX",
"V V V A A A A V V # % % $ A C C C A C $ A A C V I V S A V V A + V A A A A C V C C C C o # + + A C A U A ) C S / V.C.bXcXvXcXDXCX",
"_ P N S N m N R _ S . O # $ n n + + + n + @ V ^ ^ _ n._ S n V V Z + + m m m S m P h._ ^ S n @ n + + C V V V m B : C.B.cX$XpXCXDX",
"R.b.n.n.s.b.R.,XR.b.Z.n.8.4.s.s.8.8.j.j.h.4.n.,X<X,X>X,X,Xn.n.b.n.j.h.j.l.n.b.V.,X<XR.b.b.n.u.8.6.8.8.h.h.h.h.V.C.C.C.B.zXVXjXFX",
"yXyX>X:X:X7X6X6X6X6X6X6X:X:X:X,X>X;X<X<X<XyXyX>X7X7X7X7X:X,X<XR.<X<XR.,X,X,X>X:X:X:X:X:X:X>X6X6X:X-X,XN.;XC.;XxXxXDXlXcXGXDXlXDX",
"E.U.oXoX@X X+XP.I.A.f x p.I.Y.e.d.f.E.E.c.E.U.U.P. X X+X+XU.E.R.v.t.y.i.0.d.oXU.U.+X X+XP.+X7X7X+X+X+XoXN.OXjXaXzXHXDXVXlXSXDXlX",
"6 >.e.y s x G.S.F.S.F.x x f w.w.r.2.| D D 6 9 p.f x A.f w.9. .D F F D [ } 9 q.s f z d k k d A.A.Y.A.f f i @XjXaXGXDXGXHXDXcXcXcX",
"{ J >.>.q.g d p S.S.z k d q.9. .' F F F o.F 6 9.d G.G.G.w.>.w F ] #.{ K [ < } 9.a.L.G.G.J.F.h d A.Y.a s s 8XjXdXGXZXLXDXSXSXSXcX",
"%.{ K J 9.s F.S.S.S.z f q. .6 { o.%.@.O.@.' < a x J.z H.f 9.X.o.;.;.$.$.o.K J [ 9 w.d z S.h h G.Y.A.a a , jXkXhXDXGXFXFXSXSXSXcX",
"*.@.o.' [ a f S.K.S.a 9.< { ' O.O.;.x.x.@.] 6 q d S.F.F.f  .' O.*.;.;.k.k.@.@.o.' &.q A.K.K.p h d e.0 1 1 B.jXhXkXGXSXSXFXSXSXcX",
":.;.@.o.' 9 a F.F.d w.9 [ o.$.;.x.k.;.;.@.o.w r F.F.S.d f q ' O.*.x.k.;.k.:.-.*.X.w q G.S.F.S.k w.>., u 1.1.V.wXhXFXFXFXSXNXDXlX",
";.k.-.-.o.> q x d d a X.K %.=.g.$.*.k.k.O.{ > a d F.F.A.w.&.D ] *.t.i.t.;.:.-.:.X.X.q f p p p p i y -X-XB.;XC.xXaXHXFXSXVXVXZXCX",
"@.=.:.-.o.> 7 f g f a 6 K g.g.-.] t.z.k.@.{ 6 s S.F.K.g f 9.' ] o.#.k.*.@.=.:.-.*.X.&.g g z k k %XOXxXhXbXxXxXxXdXDXFXSXSXVXDXCX",
"{ o.g.=.P J 0 d d d a > 2.3.$.o.%.k.g.$.P F 8 a g p F.A.A.9.J F +.+.3.3.+.P =.;.*.&.a f z k l %XdXaXGXvXGXDXDXlXSXDXcXFXFXVXZXDX",
"$.o.-.$.o.J 7 f d z f 8 ..t.$.] =.k.3.$.] G } w.S.S.F.S.x w.[ K o.$.3.g.g.P @.k.t.9 g x k k @X%XpXHXDXGXDXSXHXHXDXCXlXVXVXVXVXDX",
";.] @.$.| } t z h z p w.0.*.o.@.;.;.$.o.H F 9.x G.K.K.K.J.H.t > H @.$.g.g.+.+.t.r.p.L.J.h k =XjXxXDXHXDXHXPXNXHXDXCXCXzXlXDXVXFX",
"*...o.#.|  .p.z J.F.d f w.....x.x.$.o.' F X.9.f F.S.F.F.h z y 8 ] O.=.k.g.3.| ..9.p.G.c j k %XNXaXGXDXHXVXFXPXFXVXZXDXvXlXlXSXSX",
">.1.} >.9.p.p.k z x x s w.9.0.2.o.O.o.F { 9.s k x z d k z k d s G H o.+.r.r.>.9 s p.c c k k M.dXaXhXGXvXJXcXHXPXFXFXjXDXcXcXSXcX",
"u <.<.<.<.s 5.5.y y y y 5.5.1.,.K m G o.,.<.y i 5.5.q.<.y l y <.K H P K | ,.,.<.a.y 5.y y y y hXhXhXiXvXvXvXJXPXKXGXZXSXcXcXcXcX",
"M M B M T 1 ; 2 ; < ; ; ; : B B V V V m B M 1 ; : 1 M M ; 3 ; M B V v n m B M M : : ; ; : T ; M ( C.iXiXiXbXHXSXGXGXGXzXcXSXDXlX",
"R R R R R T Q Q Y R N N R R Z + + Z A S N Q Q Q Y N N N Y R Y Y W Z Z Z Z Z S R R R Y Y @ R R N B T W Z.C.iXbXfX0XZXDXDXcXcXVX$X",
"E ) ` ) E E W ~ E ) ) E W W A W W & W E ~ R R Y _ _ ) W A E E ) E E E W W E E E ` W E W E ~ S ~ E ( R / ( C.C.1XlXDXDXSXcXcXFXjX",
"E _ ` ) ( / / / ` _ ~ _ ~ ~ E E E E E E ^ ~ / / Y R ~ E E E ~ ~ E E E E ~ ~ E E R ~ / W R ~ ` _ ~ W ~ W ( C.iXbXaXxXcXcXFXSXCXCX",
"/ j.Z.Z.7./ ! ! Y ^ 6.j.7.6.7.7.7.7.7.6.8.V.;X4XB.7.6.6.8.7.( Q ( ( ^ ^ Q Q ( Y Z.Z.C.Z.! M Q T T R ^ ( ; C.3XiXxXcXcXSXSXVXVXZX",
"aX4XkXtX4X5X4X2X2X2X2X4X2XqX8X1XaX3X2X8XwX0XwXdX8X8XqX2X4X2X4X4X;X-X;X;X;X2X4X2X2X4XrX4X4X4X2X4X5XC.V.B.B.C.bXbXhXHXSXcXcXVXZXCX",
"uXBX9X0XmX0XqXeX0X0XnXMX*XBXnXMX9XsXnXnXnXnX9XnX*X0X9X2X0X0X0X0XpXsX9X9XnXnXnXMXnXnXnXnXqX0X8XwX4XtXwXaXqX$XhXhXvXDXHXcXcXSXSXDX",
".X.X XU.U.+XoXP.oXXXXX.X`.).|.)..X).`.&X&X&X|.G.I.P.P.P.P.P.XX|..X`./.).J.&X&XI.&X&X XU.oXN.f.N.oXN.XXM.XX@XdXdXGXvXcXFXcXcXlXlX",
"J.H.P.p.a 0.U.P.Y.p.XX/.(.[.).).(.^.(.).).J.I.I.Y.0.0.9.e.p.XX/.^._.).J.J.&X|.I.I.Y.P.0.0.,.L } < a.p./.'.=XMXMXGXHXDXJXcXSXSXSX",
"/.|.g 9.U.E.U.i.d.p.L./.).].).].].].(.).&XL.Y.Y. ...r...X.0 k /.!._.D.[.).J.I.I.w.9.9 [ | k.+.#.>.r |.).].^.BXsXaXDXSXDXHXSXDXcX",
"H.L.t d.i.T.i.c.U.d.a.H.).].[.].].].]..X Xp.9 } | 3.k.3.t.} p.).~.~.!.(.j L.I.7 9 } 2.u.k.v.;.3.} 7 =X].]._.BXBXNXfXFXFXHXNXVXVX",
"L.p.8 i.z.T.k.T.T.d.p.x (._.J.[.[._..X|.Y.t ,.t.3.l.l.$.t.} >.c ~.~._.(.|.p.7 1.y.2.v.n.T.W.T.k.,.>.L.).!.~.^.*XBXqXLXGXGXFXDXSX",
"a.p. .i.T.z.t.W.T.u.9.x ).(.~.[.].).).x t  .2.l.z.v.R.z.t...>.I.!.[.(.c p.5.8 s.u.l.W.v.z.Q.Q.r.#.[ L.).~.[.'.m.XX*XFXLXZXGXVXVX",
"P.>.y.R.T.t.W.v.v.i.t x ).J.~.~._..XL.a  .2.k.x.W.n.b.l.t.r. .p.).(.^.=X@X5.<.s.n.v.l.l.k.R.Q.r.+.>.G.)._.[..X'.XXgXsXGXZXCXVXDX",
"d. .i.c.v.x.n.v.u.y.q Y.I.).D.[.m.'.a &...Q.x.W.v.l.v.n.$.#.9 Y.m.m.#XpX3X1X;Xf.n.u.$.k.v.v.z.,.8 q.H.`.!.j m.!.uXNXdXdXDXDXcXlX",
"U.[ r.E.u.c.b.l.i. .Y.&X].).[.~./.c  ...#.Q.x.T.k.l.c.n.2.#. .p.M.%XfXgXgXaXC.f.c.+.t.v.v.x.n.,.u i /.).!.~.j UXBXgXjXGXDXlXvXcX",
"0.,.U.E.R.v.n.2.>.9 L.&X]._.!._.'.M.>. .i.i.W.l.2.n.n.s.,.} y a.M.pXgXbXbXaXwX;X1.u.c.T.l.t.4.! r /.^._.~.~.m.BXgXfXDXGXSXcXDXcX",
"d.[ E.E.E.u.u.,.u p.|.{.].!._.m.c M.u  .y.U.Q.r.4.s.f.e.,.>.s c uXgXgXDXDXlXkXV.4.c.c.c.u.2.K >.x ).(.!.~._.m.uXgXZXDXlXNXSXSXcX",
"e.} s.i.r.u.} 1 k m.{.{.].~.m.m.XXp.a.>.e.,Xd.<.e.2X:XeX>Xu c p.NXdXFXDXvXDXzXkXoXf.s.i.s.4.b.y /.!.[.~.~.~.#XAXfXDXSXlXFXSXAXFX",
"f.1.2.2.4.,.u a.XX}.{.m._.(.#XUXBX%X-XoX@X@Xf.5.rXhXeXeXeX%X|..XdXfXFXDXDXHXDXwX2X5.s.1.1.rX;XOXm.(.[.{._.~.UXgXbXvXDXSXSXSXFXVX",
"OX<.1.2.,.,.OX@X'.'._.}._.m.BXUXsXdX%X1XM.@XN.@XdXeXjXdXmXMX.X#XgXGXGXHXDXDXGXVX-X5.<.<.eXwXkXOX`.[.{.[.'.*XUXpXbXDXJXSXNXVXVXVX",
"$XN.a.rXrXmXVX@X#X'.'.'.}.BXUXfXdXFXjX%XN.M.M.pXdXVXdXGXFXMX#X#XFXGXGXDXDXDXHXDX$XB.a.a.dXkXkXdX#X#X}.#X#XuXgXgXvXJXNXFXKXVXVXFX",
"B.$XjXjXVXjXaXjXgXBXm.#Xm.gXfXgXFXHXDXdX%XM.M.gXdXHXHXHXAXLXM.M.lXDXSXDXSXJXJXcXN.N.M.pXvXGXvXgX#X#X'.M.#XsXgXdXvXcXAXVXFXFXCXCX",
"$XaXgXFXqXHXGXSXgXsXAXc m.fXpXFXJXDXFXJXgXm.AXAXFXGXZXZXPXLXBXm.FXVXVXVXDXFXFXDXfXM.m.bXHXFXHXHXgXB.m.m.sXgXdXaXSXSXFXVXNXFXCXCX",
"cXJXSXJXGXVXSXDXGXpXpX*X%XpXDXvXSXDXJXDX%XJXAXcXDXDXGXGXFXSXAX*XFXSXlXcXHXFXJXDXJXi M.SXDXFXSXcXvXbXi i %XFXHXSXSXSXSXFXFXZXzXkX",
"cXvXDXFXLXHXJXDXlXDXHXGX$XcXvXHXHXSXSXSXcXAXAXcXVXVXFXDXSXVXSXFXSXSXSXSXDXDXJXFXJXpX$XFXlXSXJXHXcXbX$XSXJXJXSXSXDXSXSXVXCXDXzXzX",
"cXcXJXJXFXVXSXcXDXcXDXjXDXaXlXDXVXlXSXFXcXDXSXSXFXlXVXVXDXlXFXfXcXSXlXFXfXDXSXDXDXdX$XSXSXSXlXHXvXvXDXJXHXFXJXcXDXVXFXVXVXCXvXzX",
"cXvXDXSXZXlXDXcXcXSXDXVXVXVXlXcXDXFXlXSXlXcXSXlXlXDXFXDXcXfX3XcXlXcXSXDXFXZXVXVXHXpXcXSXlXDXVXGXvXHXHXFXFXFXJXSXlXCXZXSXFXlXcXcX",
"3XDXSXCXVXZXcXcXcXcXSXJXVXSXDXlXlXDXlXlXDXDXlXvXDXlXlXSXcXSX$XcXcXcXDXlXGXDXCXVXzXDXDXSXGXlXZXDXDXGXDXHXFXHXcXlXzXzXVXZXSXSXcXcX",
"-XN.DXVXFXlXDXcXcXcXgXSXAXFXlXDXVXVXDXDXlX$X$X$XDXDXSXSXSXcXcXcXcXcXDX$XCXlXCXZXlXCXlXvXlXVXGXZXHXFXPXFXAXcXDXvXzXDXCXCXSXcXcXcX"
};
