/* XPM */
static char *wall_corner1[] = {
/* columns rows colors chars-per-pixel */
"64 64 256 2 ",
"   c #B4917B",
".  c #CD8C7D",
"X  c #CF8977",
"o  c #D48B74",
"O  c #DA8C75",
"+  c #D28D7C",
"@  c #DA8C79",
"#  c #CD927E",
"$  c #CB977B",
"%  c #D3937D",
"&  c #DD937C",
"*  c #D99779",
"=  c #D88A6E",
"-  c #E2947D",
";  c #E2987C",
":  c #E08F72",
">  c #CCA37E",
",  c #D07E92",
"<  c #BB8D8C",
"1  c #B58C8D",
"2  c #BE978A",
"3  c #B68C92",
"4  c #BA8E92",
"5  c #BC8B9D",
"6  c #B9889A",
"7  c #B89293",
"8  c #A99491",
"9  c #BC8DA2",
"0  c #B78DA3",
"q  c #AC9CAD",
"w  c #AB99A8",
"e  c #BC94A4",
"r  c #B59BA5",
"t  c #BD9BA4",
"y  c #BB96AA",
"u  c #B49CAC",
"i  c #BC9CAB",
"p  c #B495A8",
"a  c #AC9EB2",
"s  c #A69EB2",
"d  c #B39DB2",
"f  c #BA9DB2",
"g  c #B4A2AD",
"h  c #BCA2AC",
"j  c #BBABAB",
"k  c #BAB7AC",
"l  c #ADA2B4",
"z  c #ACADBD",
"x  c #AAA7B8",
"c  c #B2A3B4",
"v  c #BBA5B3",
"b  c #B4AAB5",
"n  c #BCACB3",
"m  c #B3ACBB",
"M  c #BCACBA",
"N  c #B6A5B9",
"B  c #ACB3BE",
"V  c #ABB6B8",
"C  c #BBB1B4",
"Z  c #B4B2BC",
"A  c #BBB3BC",
"S  c #B8B7B9",
"D  c #A8A1AC",
"F  c #C88787",
"G  c #D28E83",
"H  c #CC9385",
"J  c #C4968A",
"K  c #C49A8C",
"L  c #CA9889",
"P  c #D39283",
"I  c #D59C83",
"U  c #D99A86",
"Y  c #CC8496",
"T  c #C4859B",
"R  c #CC859B",
"E  c #C48C9B",
"W  c #CC8C9D",
"Q  c #C58795",
"!  c #D4859B",
"~  c #D48B9D",
"^  c #DA8C9E",
"/  c #D8859A",
"(  c #C3919D",
")  c #CC969E",
"_  c #DD919E",
"`  c #D5939B",
"'  c #E39A82",
"]  c #E0929F",
"[  c #CCA38B",
"{  c #DDA483",
"}  c #DCAA84",
"|  c #DCAB8A",
" . c #D5A688",
".. c #DBB18C",
"X. c #CDA793",
"o. c #DCAD91",
"O. c #D5A896",
"+. c #DBB294",
"@. c #CFB197",
"#. c #E2AB8C",
"$. c #E1A987",
"%. c #E3A499",
"&. c #E4B28D",
"*. c #CA8DA2",
"=. c #C68BA4",
"-. c #D58DA2",
";. c #DC8DA2",
":. c #D683A1",
">. c #C494A3",
",. c #CC93A3",
"<. c #C49BA5",
"1. c #CB9AA4",
"2. c #C39BAB",
"3. c #CB9CAC",
"4. c #C994A9",
"5. c #D494A4",
"6. c #DB93A5",
"7. c #D49BA6",
"8. c #DD95AA",
"9. c #D39DAB",
"0. c #DC9BAC",
"q. c #D897A7",
"w. c #C59DB2",
"e. c #DC9EB2",
"r. c #E18EA3",
"t. c #E292A5",
"y. c #E29CAC",
"u. c #E397A9",
"i. c #E49EB2",
"p. c #C7A7AA",
"a. c #DDA2AD",
"s. c #D7A7A9",
"d. c #DBB5A8",
"f. c #C3A4B3",
"g. c #C2AAB3",
"h. c #C9A8B7",
"j. c #D4A3B3",
"k. c #DDA3B3",
"l. c #DCAAB4",
"z. c #D9ABB9",
"x. c #C3B3BC",
"c. c #C8B6BB",
"v. c #D9B5B9",
"b. c #C1BBAB",
"n. c #E2A7AC",
"m. c #E2B5AA",
"M. c #E3A3B3",
"N. c #E3AAB3",
"B. c #E3ACBB",
"V. c #E8AAB9",
"C. c #E3B3B4",
"Z. c #E4B3BC",
"A. c #EBB3BD",
"S. c #E7BAB8",
"D. c #B8C4BA",
"F. c #BBCAB6",
"G. c #C7C5BC",
"H. c #D9C9BB",
"J. c #D9D3BE",
"K. c #E7CABA",
"L. c #E8D3B9",
"P. c #ECCCAF",
"I. c #AEAFC1",
"U. c #AEB2C2",
"Y. c #A9BAC4",
"T. c #B3B3C2",
"R. c #B4BBC4",
"E. c #BCBCC3",
"W. c #B8B7C8",
"Q. c #B2AFC2",
"!. c #C2BDC4",
"~. c #CABAC5",
"^. c #D8BAC5",
"/. c #C8BFD0",
"(. c #E5B4C2",
"). c #ECB5C3",
"_. c #E9BBC5",
"`. c #F6BAC6",
"'. c #ACC5CA",
"]. c #ACCACC",
"[. c #ABC6C6",
"{. c #B3C4C5",
"}. c #BBC3C5",
"|. c #B3C4CC",
" X c #BBC4CB",
".X c #B3CBCC",
"XX c #BCCBCB",
"oX c #B9CBC5",
"OX c #B8D2CA",
"+X c #ADCAD2",
"@X c #B3CCD3",
"#X c #B6C9D2",
"$X c #B7D2D5",
"%X c #AED2D2",
"&X c #C4C5CC",
"*X c #CBC3CA",
"=X c #C6C8C6",
"-X c #D3C3CB",
";X c #D9C7C8",
":X c #C7D4C9",
">X c #DDD3C5",
",X c #D6D6C9",
"<X c #CCC3D2",
"1X c #C5CAD2",
"2X c #DBC7D4",
"3X c #DBDCD8",
"4X c #C4D6D4",
"5X c #ECC4CB",
"6X c #E7C8C7",
"7X c #F6C2CB",
"8X c #EDD4CD",
"9X c #EBDBCB",
"0X c #E5D6C7",
"qX c #F2D4CB",
"wX c #F2D8C7",
"eX c #E3CAD2",
"rX c #E5C9D6",
"tX c #E5DDDB",
"yX c #EBDDDC",
"uX c #EAD9D3",
"iX c #F5DAD5",
"pX c #F5C6D2",
"aX c #DDE5DA",
"sX c #ECE5CD",
"dX c #ECE5D4",
"fX c #EEE9D5",
"gX c #E5E5DB",
"hX c #ECE5DA",
"jX c #E5E9DC",
"kX c #EDEADC",
"lX c #E5E5D6",
"zX c #F2E5D5",
"xX c #F2E4DA",
"cX c #F3ECDD",
"vX c #FAEDDD",
"bX c #F8E7D6",
"nX c #F5F1DE",
"mX c #F9F1DE",
"MX c #F7E3C9",
"NX c #DCDCE1",
"BX c #E4DEE4",
"VX c #EADEE3",
"CX c #FBDEE3",
"ZX c #E9E7E2",
"AX c #F5EEE3",
"SX c #FAEEE3",
"DX c #F8ECE6",
"FX c #ECF1E3",
"GX c #F4F2E3",
"HX c #FBF3E4",
"JX c #F5F4E9",
"KX c #FCF4EA",
"LX c #F6F9EA",
"PX c #FCF9EC",
"IX c #F8F9E5",
"UX c #FAF7F2",
/* pixels */
"GXAXGXSXvXGXnXGXnXnXHXGXPXLXDXUXDXJXJXGXcXnXGXGXHXGXcXnX0XnXHXDXvXvXvXHXcXJXGXJX,XJ.J.vXHXvXGXGXJXZXJXnXvXvXnXGXHXAXZXJXDXSX>X0X",
"AXGXGXAXAXGXAXvXnXGXIXPXHXLXUXUXUXAXFXvXnXmXGXvXGXHXnXHXfXHXSXHXvXJ.HXGXAXcXGXGXnXnXmXvXvXvXHXFXAXHXGXFXHXvXmXcXAXAXJXAXHXSXbX0X",
"GXGXGXSXAXGXAXAXAXHXHXHXHXKXUXDXKXAXHXcXHXcXdXKXvXSXvXGXGXGXFXGXnX>XcXnXGXGXHXvXvXvXFXnXSXSXGXJXvXAXHXbXnXnXGXnXHXHXcXGXnXHXHXcX",
"AXvXGXGXGXGXAXAXGXKXHXHXKXSXKXKXKXAXAXvXvX0XzXSXDXHXAXvXGXGXnXnXnXnXGXJXJXAXSXSXHXkXIXGXHXSXkXFXGXSXxXHXkXPXkXLXFXGXGXHXGXIXHXvX",
"mXnXAXnXFXGXJXAXHXHXHXHXvX>XsXHXHXHXHXHXvX0XdXIXHXHXKXGXGXGXHXGXGXAXJXDXJXAXDXSXHXHXGXGXAXSXUXJXJXIXzX0XHXHXHXcXKXJXKXPXGXIXIXnX",
"mXAXGXGXFXGXGXAXAXKXKX3Xk b.0XmXHXHXPXHXHXG.k IXLXJXLXKXGXcXmXGX3XAXDXDXKXKXKXKXHXFXcX>XHXKXLXLXLXFXdXJ.>XhXuXUXJXJXGXKXIXFXmXnX",
"vXGXGXGXGXGXJXGXxXhXZX0XD.F.:XfXHXHXJXLXlXk G.kXIXJXHXLXAXAXAXGXD.jXKXKXDXKXKXKXjXIXF.lXHXHXKXSXKXgXjXF.F.dXcXhXJXKXUXdXIXfXsXJ.",
"nXAXAXGXGXGXAXSXhXhXgX:XF.J.G.:XfXHXLXFXgX:XG.,XFXIXKXKXJXSXAXFXF.OXUXDXKXKXKXhXjXG.F.:XjXPXKXSXxXhXaXOXoXoXZXhXZXhXxXzXzXfXJ.,X",
"SXGXAXAXGXHXHXHXhXjXaX=XOXOX4X:XlXfXkXhXc.c.H.>XHXPXKXHXKXLXHXFX$X4XjXIXmXsXfXkX3X=XF.:X,XhXSXzXfXjXaXOXOX%XXX:X,XzXbXiXiXd.=X,X",
"AXAXJXJXHXHXHXzXfXjX4XXX$X$XOX:X>XfXzXAXg.p.p.6XbXIXJXJXKXHXPXgX4X4XZXzXsXsXfXcX;X*X:X=X,X>XfXdXcXjXD.%X%X%X$XoXG.H.s.O._ s.C *X",
"AXAXJXGXAXHXmXsXdXjXXX].$X%X[.D.0X6XiXp.s.N.l.6XcXAXLXLXKXKXkXZX1XXXeXiXzXsXdXzXv.v.;Xv.H.,X,XlXlX:XD.[.].$X].XXc.X.s.7.0.l.g.*X",
"AXGXGXGXvXHXHXfXjX:X[.[.].].].{.g.S.a.C.N.V.A.6XxXFXIXJXHXDXuXAX{.S ) K.bXK.8Xh.j.B.7Xj.p.c.b.:XD.}.[.].$X$X}.S t ) s.N.n.l.h c.",
"SXGXGXAXHXSXSXcXaX[.[.].].'.|.A 1.) a.N.A.V.A.s.6XfXlXHXHXzXZX3XS j 3.s.s.C.Z.k.j.(.A.s._ p.G.[.|. X[.%X1X&Xx.2.3.l.M.).Z._.<.c.",
"nXHXAXHXKXSXzXdXjXD.].+X+X|.A h 1.a.N.C.A.V.k.s.6XfXfXfXdXdXhX=XA v 1.7.C.A.).e.B.(.N.N._ 7. X.X$X].]..X}.~.<.1.9.).(.)._.v.<.z.",
"nXnXAXKXHXAXhXaXaXD.Y.[.R.&Xx.h k.B.v.Z.A.N.a.Z.v.H.zXsXdXkX,XD.c.i 9.a.Z.A.z.z.).B.B.7.7.<.}.].+X+X.X4X*X~.9.z.z.(.A.B.).j.t c.",
"nXvXGXAXhXhXjXaXD.D.Y.+X+X}.g.) s.B.Z.Z.a.a.V.S.v.6X0X9XlX,XoX X!.2.9.a.B.Z.Z.(.(.(.M.a.1.f.}.]..X].'.R.~.2.j.A.(._.B.V.A.l.h ^.",
"SXSXAXGXHXkXjX:XoX$X+X+X'.R.p.3.j.Z.(.z.z.B.).).Z.s.p.>X,XD.[.{.E.2.9.M.Z.A.Z.(.N.V.0.1.h A #X#X X|.'. Xh.3.B.).A.A.l.A.).z.h c.",
"SXAXHXGXHXHX3XoX.X[.@X'.+X}.<.0.k.B.(.Z.(.).(.M.k.1.g.c.R.|.'.'.!.h 4.a.V.A._.C.B.e.1.y c.}.XX#X'.|.[.|.x.3.z.).A.k.B.(.N.3.n =X",
"SXGXJXJXHXPXdXlX3XS |.].'.!.7.6.M.A.`.Z.A.V.y.i.9.t c.}.[.].[. X!.f.3.M.M.N.N.a.0.9.4.~.XX$X#X#X].+X|. Xx.h.v._.A.N.(.B.V.3.x.E.",
"AXJXGXJXKXHXbXhXZXZXXX.X$X*X,.6.y.n.V.n.n.M.) >.i ~.E.Y.'.'.+X|. XA <.k.y.M.a.s.1.3.x.<X#X$X$X@X$X%X%X X!.~.c.^.v.l._.).e.2.!. X",
"GXGXFXLXKXSXHXzXdXjX}.{..X&Xp.,.7.7.M.7.( <.p.M S #X|.'.+X+X#X|.|.A t q.-.q.<.t n c.&X#X@X+X@X$X@X+X@X{.{. Xc.~.(.B.(.B.w.f. X].",
"GXZXJXJXKXHXIXmXkXlX:XoX{.E.~.1.,.( 9.j.j.c.~.}. X[.'..XW.+XW. X}.}.h.h.j.j.g.c.E.}. XXX'.|.Y.#X#X|.|.[.{.oXc.c.~.^.j.p.h./.R.'.",
"AXcXGXAXHXHXHXHXlXdX,X=X=X=X*X-X;X^.-X*X/.<X<X&X&X&X1X}.R. X1X&X&X&X=XE.!.&XE.R.&XE.&X&X1X X1XXX X X1X X1X1X*X*X~.*X-X-X!.<X<X1X",
"GXHXAXGXSXPXIXIXdXfX>XuXtXgXtXyXyXhXBXBXBXBXBXZXVXtXtXtXtXBXVXyXyXtXZX3X3XaXNXBXNXNXBXBXtXhXtXgXBXZXZXBXyXtXyXyXtXyXtXBXZXBXVXVX",
"nXGXvXvXSXKXPXlXfXbXK.d.K.K.0XqXqX8XqXiXiXyXiX8X8X8X6XL.L.0X6XK.qXqX8XiX8X8XuXyXyXyXuXiXiX8XMXMX8X8X8X8X8XiXqXqX8XwX8XuXuXlXuXiX",
"IXnXGXvXvXSXkXkXdXiXP. .+. .[ [ [ [ K O.K.K.K.K.X.X.U  .......@.X.O.+.m.d.d.m.K.wX6XK.m.+.d.d.d.m.m.m.m.d.d.O.O.X.X.@.P.K.L.d.s.",
"FXcXmXvXvXSXhXhXfXMXP.| ..&. .| ....|  .{ o.o. . .o.#.&.&.> } } ..| |  .| |  . .o.o.o.o.o.o.o.+...#.$.#.o.o.o.o.+...|  .| +.+.| ",
"jXGXmXvXvXHXKXhX>XL.L. .&.> { } $.} ; $.$.$.#.#.#.#.$.| ; > ..&...| } } } } $.$.{ U $.#.|  .> $ > * { { |  .#.| ..} | #.#.&.#.| ",
">XAXGXvXmXHXKXhXfXfXMXL.P.> $ [ > I { % * I I  .U U U I I I I * I I I I $ $ > * * $.U I I I I % I I I I [ I I U I  .I { U I { I ",
"AXGXHXcXvXIXJXJXHXIXdXMXL.MXL.@.[ J L K K L J J K K J H H G H H K K K J J K 2 K J J L L L P P P H L L J 2 2 K K J K K K L H L L ",
"SXAXHXvXGXGXGXPXPXJXKXKXmXbXbXfXhXj j g.n n C C n p.p.1.,.) -.>.g.C A n C b k C C C j p.1.W / ^ 7.p.n C C C C n n C b j g.g.h.p.",
"AXHXAXGXGXGXGXJXJXUXDXUXIXPXdXkXjXD.S Z W.E.R.Z c f.p.a.0.5.-.=.N m B B Z R.R.R.V Z v t ( ~ ;.u.k.h.M Z B U.T.Z B R.A n j i w.h.",
"FXGXHXAXDXKXAXJXLXJXHXGXPXHXJXjXsX,XC R.W.W.W.A <.5.0.M.M.y.;.5.t v S Y.T.T.U.R.V Z <.W ~ 6.i.i.i.4.e.h.S B R.Z S A i 3.9.,.q.j.",
"nXGXSXSXDXDXAXJXKXAXKXJXGXJXIXcXsX,Xk T.W.E.M h.l.6.6.M.M.0.6.*.E h A R.U.I.U.U.V g ( ! t.6.y.i.8.;.e.h.v Z Z m B b 4.5.i.;.` 0.",
"nXnXSXSXSXAXAXKXKXKXKXKXLXPXSXiX0X=XV S W.Q.2.k.n.q.5.0.M.i.8.-.E 2.Q.W.U.I.U.I.Z i *.-.0.e.M.k.,.q.i.q.<.v Z B V D ( 5.y.u.5.q.",
"GXAXAXHXSXDXHXSXDXKXGXPXPXHXxXbX>XS x T.Q.f 4.0.n.n.5.5.i.i.e.-.-.>.v T.I.U.U.z N e *.;.0.k.z.9.9.a.0.5.5 h B B B q >.6.y.y.6.5.",
"GXGXGXnXGXHXmXfXfXfXsXMXzXzXK.>XC V z m N f *.y.u.n.y.5.e.M.e.8.-.E v Z I.I.T.Q.g.>.-.u.M.N.M.5.9.M.y.6.( f.m z I.u *.r.u.y.N.5.",
"AXGXAXFXHXHXmXsXzXH.L.L.K.6Xj j x V z z M f.*.;.u.n.M.a.e.(.e.e.^ W h Z I.U.U.A f.5 *.6.n.a.0.8.0.M.u.~ 1.g.N I.T.d R ;.t.u.B.k.",
"FXGXGXAXSXHXHXdXdX0Xp.s.1.3 n Z z U.Y.I.Z v W ` u.6.M.i.e.k.M.u.;.! h A T.Y.B m h 5 5.q.M.M.i.M.a.0.;.W <.n Q.U.U.N ,.~ r.t.e.i.",
"GXGXvXHXSXHXHXhXhXiX_.E =.2.A I.U.I.z I.Z g t ( ` 6.u.i.M.M.M.y.r.*.i Z Z U.B Z h 5 ) t.M.M.i.0.q.5.,.>.h b m T.I.R.f.T -.6.5.e.",
"GXGXGXAXJXJXLXLXhXCXCX5 w.M W.Y.R.B m T.Z n b h =.-.-.8.8.e.M.u.r.W h Z R.R.R.Z f.5 ~ t.t.t.6.q.*.>.i v Z Z T.I.B Z n v 5 ( ` 6.",
"FXGXAXHXJXJXLXJXxXyXCXg.M N U.R.U.B W.W.E.E.D.x.j.4.*.-.:.5.7.) ~ W h S W.W.R.m f.>.W 6.^ W W >.w.f.M M U.I.m I.m z Z S j h ,.,.",
"SXSXcXSXPXJXIXHXdXxX;Xg.n n Z Z Z T.T.T.T.T.Z m ~.w.w.y 4.=.5 ( E >.n A W.m T.m x.i E E ( >.p.g.M b I.I.T.T.T.W.I.T.A N N x.f.0 ",
"vXSXKXDXcXHXHXmXdXzX0XG.-X-X-X2X2X2X<X<X<X<X<X<X/.^.~.z.z.j.z.(._.^.^.-X<X/.<X/.-X-X_.Z._.^.^.~.A !.!.!.W.Q.W.!./.<X2X/.*X*X^.;X",
"HXcXHXHXHXmXHXzXsXJ.6XK._.6X6XrXeX5XeXeXeXeX2X2X2XeX6X6X5X5X7X6X5X5XeXrXrXrXrXrXeX5X7X5X5X5X6XeXeXeXeXeXeX2X2X2XrXrX5X6X6XeX6X5X",
"GXcXmXHXH.0XJ.L.K.d.d.d.s.C.v.d.m.m.C.S.`.5X5X6X6X_.v.d.d.m.m.C.S.S.Z._.pXpX5X5X6XC.m.m.C.C.l.C.C.d.s.d.S.A.6X6X6X_.K.S.S.C.A.7X",
"JXGX>X>XbXK.L.  H . I % % I P % P + P U %.%.%.%.P I % % P P G I % % X U n.S.n.o.U P X % # % % + # % % * X + U %.U I $ $ U U U n.",
"FXGXKXHXbXvXL.L.o.' ; ; ; U - - ; O o o + P ' - & & & ' ; U ' & : * * & P U % % % U ; ; * * ' ' ; ; ; O : O @ ' @ U ; * ; - @ ' ",
"AXHXKXKXUXLXbXL.+.#.o o o o o - ' o O & o X o O = = @ @ @ & @ o = = X @ + o o % & - & & @ = O : O O & o O - @ & @ O & O O O @ @ ",
"AXSXHXKXUXUXPXvXbXO.$ . . H P X G G G . # # X o @ = + G H H F X X . . G G . . % @ + . . . . + % % + . G G G G . + % + P G P P P ",
"nXGXJXIXLXLXKXvXbXqXJ 1 3 3 4 4 4 5 4 1 1 4 F F , X , < 7 7 4 < 4 7 3 3 3 4 < F F F Q 4 3 3 1 4 < 1 4 4 3 3 < < < < 1 7 7 4 4 1 ",
"nXmXHXIXFXJXPXKXvXqXe i r u r g u u r r r ( E Y , Y Y Q t w r r r r p i i <.E F Q Y W 2.u u u u r h u f u i <.( ( ( e t g g h g ",
"mXnXSXKXHXPXKXDX8X8Xp p N a Q.N d a c g 9 9 R , , / ! *.i u g g a a d d u 9 Q Y / Y R >.f l c u g b a c N f >.Y =., , y d c c m ",
"GXGXDXSXzXSXDXiXp.3 y d d x x x a a d u 9 6 :.;.^ / / T y w c q N a s a 0 5 Y / ! ^ :.4.f N N m b x x x f e W ^ :.8., =.y l c z ",
"AXJXAXDXH.v.6Xv.m.< 6 p a w x s x q p 9 T Y -.6._ 6.;.Y u s a l m l s w 6 T ! ^ ;.r.u.8.w.f c N l x x q y *.! r.8.;.:., 9 d a l ",
"GXGXAXKXeXuXqXd.s.s.3 i d l D x N v 0 T R -.6.6.6._ 6.T d x l l c c a w T R / ;.6.8.r.:.*.i u a c b c p =.8.^ / ^ ;.! :.=.y d m ",
"vXHXHXdX3XuX9X0XwXwXd.r r d q M N y T T ;.;.6.6.5.8.:.=.q s s l a d g 6 T / ;.;.u.6.;.:.5.4.9 d s a p 6 -.t.^ ! ^ t._ ~ 6 y c x ",
"nXnXmXHXPXPXnXsXwXwX0XeXq q d p p 6 R ~ ;.u.6.^ 5.5.R 4.d l s l l d p 5 W ;.;.u.6.~ ! ! 8.8.9 y q d 0 T ;.r.^ ~ ~ _ _ ~ Q 6 a x ",
"IXIXPXPXPXPXHXmX0XsX0X0Xa a s f y 6 W / t.r.r.r.t.6.T =.d d a s q r 6 Q R 6.8.8.^ ;.6.7.u.-.T 2.d f 9 T ! ^ 6.-.~ _ ] _ Y 0 d a ",
"LXLXPXUXUXJXHXHX0XL.9X;XD a x a i T -.;.8.6.;.;.t.^ , 4.f a a a c h 6 Y R -.;.-.-.;.5.5.;.:.T y f y e Q Y ^ -.u.` _ ] _ ! , y a ",
"GXGXJXUXUXUXHXmX9X9X;X>Xq q l g y =.,.5.0.q.-.6.t.;.T 2.d x a c Q.w., , / u.8.8.u.8.6.;./ :.9 y d a d e Q ! ! u.8.q.6.t./ , d a ",
"JXJXDXKXPXKXHXHX0X8X0Xr g c q w r e *.` q.,.,.9.^ ~ T 2.d c a N N w., , ! ;.8.5.5.;.;./ ! R 9 v a s w p e E ! :.;.q.q.6.:.5 y a ",
"AXGXDXHXIXIXnXzX9XL.8 j p q r u u i ,.5.,.,.9.9.5.E ( 2.N c 0 w.f f T Q Q ~ -.W ` Q Q Q =.<.u f u p p r u 5 :., R W ,.*.E =.p u ",
"tXAXSXvXsX,X9XsX9XH.g.2XrXBX^.^.rXrX_.7X`.).pX5X7X`.pXp.^.~.~.~.~.^.^.C.A.A.`.7X`.7X7X_._.eX^./.2XeXrX;X-X2X).`.`.`.).`.)._._.-X"
};
